<svg width="36" height="36" viewBox="0 0 36 36" fill="none" xmlns="http://www.w3.org/2000/svg">
<g id="Frame 14">
<rect width="36" height="36" rx="6" fill="#6C737F" fill-opacity="0.24"/>
<path id="Vector" d="M12.5196 27H8.8235C8.04578 27 7.66076 27 7.42866 26.8575C7.30473 26.7816 7.20085 26.6756 7.12615 26.5487C7.05284 26.4242 7.00982 26.2834 7.00074 26.1381C6.98644 25.8667 7.17895 25.5421 7.56396 24.8827L16.6942 9.22115C17.0859 8.55609 17.285 8.22357 17.5336 8.10141C17.6661 8.03469 17.8117 8 17.9593 8C18.1069 8 18.2525 8.03469 18.385 8.10141C18.6325 8.22357 18.825 8.55609 19.21 9.22115L21.0944 12.4107L21.101 12.4243C21.4101 12.8767 21.6554 13.3664 21.8292 13.8833C21.9337 14.2905 21.9337 14.7316 21.8292 15.1455C21.6551 15.6692 21.4099 16.165 21.101 16.6182L16.3026 24.8702L16.2883 24.8974C16.043 25.3894 15.7273 25.8475 15.3533 26.2546C15.0271 26.5543 14.6395 26.7747 14.2192 26.8993C13.8276 27 13.393 27 12.5185 27M21.8644 27H27.1578C27.9498 27 28.3403 27 28.5746 26.8507C28.698 26.775 28.8015 26.6694 28.876 26.5431C28.9486 26.4184 28.9908 26.2775 28.9992 26.1325C29.0135 25.8678 28.8276 25.5557 28.4569 24.937L28.4151 24.8691L25.7629 20.4581L25.7354 20.4049C25.3625 19.7941 25.17 19.482 24.9302 19.3598C24.7989 19.2923 24.6541 19.2572 24.5072 19.2572C24.3604 19.2572 24.2156 19.2923 24.0843 19.3598C23.8379 19.482 23.6443 19.8077 23.2593 20.4592L20.6049 24.877V24.8906C20.2133 25.5398 20.0219 25.8678 20.0351 26.1325C20.0434 26.2784 20.0861 26.4201 20.1594 26.5453C20.2333 26.6733 20.3369 26.7805 20.4608 26.8575C20.6885 27 21.0801 27 21.8644 27Z" fill="white"/>
</g>
</svg>
