<svg width="56" height="56" viewBox="0 0 56 56" fill="none" xmlns="http://www.w3.org/2000/svg">
<path d="M5.8853 31.1584C5.77594 29.867 5.75796 28.5591 5.52276 27.2902C5.36545 26.4393 4.99392 25.5853 4.53249 24.8498C4.33324 24.5307 3.66208 24.3644 3.20815 24.3704C0.587931 24.4033 0.232875 24.0842 0.270328 21.5074C0.283811 20.5846 1.42239 19.4535 2.59841 19.2018C2.83811 19.1509 3.08081 19.1119 3.45235 19.0445C2.98493 17.067 2.94298 15.2273 5.27107 14.4063C5.10328 13.4565 4.95347 12.5771 4.79167 11.7007C4.45759 9.88947 5.95721 8.73891 7.12575 8.46026C7.88979 8.27749 8.65833 8.64902 8.93698 9.44003C9.35496 10.6325 9.64859 11.8685 9.98567 13.088C10.0426 13.2962 10.0471 13.5179 10.0771 13.7337C10.146 13.7786 10.2134 13.825 10.2823 13.87C10.4741 13.6603 10.7782 13.479 10.8381 13.2363C11.5917 10.228 14.5909 7.00708 18.7167 7.03704C18.8366 7.03704 18.9564 6.9906 19.1138 6.95764C19.1902 4.5127 20.3497 2.68349 22.3647 1.39061C23.5063 0.658022 24.7482 0.274502 26.1385 0.593603C26.4006 0.653528 26.7092 0.541169 26.9894 0.478247C29.3325 -0.0490928 31.6471 -0.290291 33.6396 1.44454C34.2134 1.94341 34.6493 2.60109 35.1722 3.21532C38.4725 1.876 41.0044 3.03105 42.9384 5.77262C43.9766 5.48498 44.9624 5.12393 45.9796 4.94566C49.8043 4.2745 55.1392 7.58685 53.4882 13.6737C53.2605 14.5112 52.9234 15.3187 52.6628 16.1486C52.6013 16.3404 52.5834 16.5831 52.6418 16.7719C53.4972 19.473 51.9287 22.8902 49.3279 24.0258C49.0808 24.1336 48.7721 24.4183 48.7422 24.6535C48.5384 26.2325 48.4006 27.822 48.2418 29.407C48.2208 29.6512 48.2014 29.8969 48.1804 30.1426C48.0186 33.0969 47.8568 36.0512 47.695 39.0325C48.1654 39.1359 48.5055 39.1928 48.8366 39.2842C51.0643 39.9089 53.3339 40.4407 55.1557 42.0093C56.2852 43.8025 56.2643 45.6183 55.1961 47.4145C54.5594 48.4827 53.8433 49.5044 53.1631 50.5471C52.4485 51.5014 51.7309 52.4557 51.0208 53.413C50.9519 53.5059 50.916 53.6272 50.877 53.7396C50.6733 54.3119 50.474 54.8872 50.2733 55.4594H48.3257C48.3617 55.3276 48.3916 55.1958 48.4321 55.0654C48.6733 54.2909 48.916 53.5179 49.1572 52.7434V51.7186C49.1377 51.5553 49.1182 51.392 49.1002 51.2272C48.9399 49.8999 48.9429 48.5156 48.0306 47.4145C47.4238 46.6819 47.1976 45.849 47.1512 44.9366C47.1332 44.5891 47.1452 44.237 47.0987 43.8939C47.0118 43.2437 46.5324 43.022 46.059 43.4655C45.7339 43.7711 45.3864 44.222 45.3504 44.634C45.2665 45.6123 45.3235 46.6085 45.3954 47.5928C45.4658 48.5606 45.0868 49.3501 44.1804 49.834C44.2778 49.5613 44.3662 49.3141 44.4575 49.058C43.5901 48.9651 42.5759 49.7216 42.3077 50.6295C42.2853 50.7419 42.2613 50.8557 42.2388 50.9681C42.2418 51.1149 42.2463 51.2602 42.2493 51.407C42.2748 51.5104 42.3002 51.6153 42.3257 51.7186C42.3062 52.3508 42.6718 52.5756 43.2471 52.6295C44.2029 52.7194 45.0448 52.4752 45.7804 51.861C45.7384 51.9988 45.7205 52.1486 45.653 52.2729C45.1362 53.2213 44.1759 53.0265 43.3414 53.1853C43.0778 53.2362 42.8485 53.4699 42.6044 53.6213C42.5864 53.6857 42.5684 53.7516 42.5504 53.816C42.5534 53.9568 42.5564 54.0977 42.5609 54.24C42.5744 54.6924 42.7512 55.01 43.2545 55.0115C44.2643 55.0145 45.2965 55.0849 46.0096 54.1321C46.083 54.0347 46.2598 54.0153 46.3871 53.9598C46.0845 54.4602 45.7819 54.9591 45.4793 55.4594H42.3332C41.6995 54.634 42.125 53.7321 42.053 52.8782C41.9796 52.0033 41.3534 51.0999 41.7819 50.1905C42.0515 49.6168 42.6313 49.1898 43.0718 48.6954C43.6216 48.5276 44.1714 48.3598 44.8216 48.1606C44.5744 46.4093 44.119 44.5097 45.4673 42.8497C45.7744 42.7089 46.08 42.5696 46.3871 42.4288C46.3931 41.6932 46.3991 40.9576 46.4066 40.222C46.4111 40.1366 46.4156 40.0527 46.4201 39.9673C46.4201 39.8595 46.4201 39.7531 46.4201 39.6452C46.4351 39.3741 46.4515 39.1029 46.4665 38.8318C46.477 37.0834 46.486 35.3351 46.4965 33.5868C46.5265 32.8692 46.5339 32.1486 46.5894 31.4325C46.8066 28.625 47.0403 25.8205 47.253 23.0131C47.2575 22.9621 47.0823 22.8977 46.9909 22.8408C46.7781 22.8258 46.5669 22.8108 46.3542 22.7958C45.9137 22.6895 45.4733 22.5831 45.0328 22.4767L44.2628 22.0587C43.6276 21.5509 42.9924 21.0445 42.3572 20.5366C42.2014 20.3419 42.0471 20.1471 41.8913 19.9524C40.8246 17.9389 38.7587 17.4895 37.1137 18.9142C35.7864 19.7576 34.3707 20.267 32.7662 20.0767L32.7707 20.0812C32.7122 20.0453 32.6523 20.0108 32.5939 19.9749C32.3976 19.9239 32.2014 19.873 32.0051 19.822C31.7789 19.8086 31.4973 19.7037 31.34 19.8011C31.0613 19.9719 30.8591 20.2655 30.6253 20.5082C29.5871 20.6086 28.5504 20.7089 27.5122 20.8093C26.4695 20.4782 25.6561 19.8385 25.1797 19.0355C24.2553 19.8116 23.3879 20.5396 22.522 21.2677C21.1692 21.858 19.7924 22.2925 18.2239 21.8925C18.3048 22.1366 18.3647 22.3134 18.4231 22.4902C19.4583 25.6977 18.4156 28.7419 15.6561 30.5711C15.5497 30.6295 15.4433 30.6879 15.337 30.7449C15.0523 30.8198 14.7677 30.8947 14.4815 30.9696C14.3902 31.2243 14.2284 31.476 14.2194 31.7321C14.1744 32.9531 14.1325 34.1756 14.1714 35.3951C14.1849 35.7996 14.4456 36.1966 14.5924 36.5966C14.8096 36.646 15.0254 36.6954 15.2426 36.7449L15.283 36.7748L15.3325 36.7643C17.0224 37.1943 17.7849 38.1336 17.5617 39.5763C17.0958 38.616 16.7452 37.5703 15.3265 37.6033C15.701 38.225 16.0636 38.7583 16.3572 39.3261C16.916 40.4093 16.8651 41.5389 16.2164 42.204C15.4344 43.0055 14.519 42.8947 13.5857 42.5037C13.5647 42.4947 13.5362 42.5007 13.5108 42.5007C13.1902 42.216 12.8696 41.9329 12.5055 41.6093C12.3752 42.9726 12.8905 43.8025 14.104 44.3089C14.7033 44.3509 15.3025 44.3928 15.9662 44.4392C15.8463 44.5861 15.7594 44.6924 15.6711 44.8003L14.88 45.0025C14.5909 44.9816 14.3018 44.9621 13.9947 44.9396C13.752 48.4977 13.5138 51.9778 13.2771 55.4594H11.9287L11.9692 55.4415L11.9602 55.398C12.0171 54.7553 11.9872 54.0902 12.152 53.4759C12.4845 52.237 11.8598 51.6377 10.8816 51.0939C8.4456 49.7381 7.07331 47.6108 6.69279 44.8737C6.49803 43.4715 6.4501 42.0497 6.33624 40.637C6.33324 40.5426 6.33025 40.4467 6.32875 40.3524C6.32875 40.237 6.32875 40.1216 6.32875 40.0063C6.31826 39.813 6.30777 39.6213 6.29729 39.428C6.2853 39.1778 6.27332 38.9276 6.26133 38.6775C6.27032 38.4812 6.27931 38.2849 6.2883 38.0872C6.2883 37.9344 6.2883 37.7816 6.2883 37.6273C6.2883 37.431 6.2883 37.2348 6.2883 37.0385C6.29878 36.9426 6.31077 36.8482 6.32126 36.7524C6.32126 36.5891 6.32126 36.4258 6.32126 36.264L6.32875 35.8505L6.33324 34.1951C6.30927 34.1366 6.2853 34.0767 6.26283 34.0183C6.18043 33.4745 6.09654 32.9291 6.01414 32.3853C6.02313 32.3643 6.0441 32.3374 6.03811 32.3209C6.02313 32.2805 5.99616 32.246 5.97219 32.2085L5.93474 32.2355L5.97219 32.21C5.94523 31.861 5.91826 31.5119 5.89129 31.1614L5.8853 31.1584ZM10.8531 22.3374L10.8621 22.3254C10.9025 22.2805 10.9415 22.234 10.9819 22.1891C11.2456 21.3082 11.5437 20.4363 11.7595 19.5434C11.8808 19.04 11.8688 18.5052 11.9168 17.9838C12.0576 18.3314 12.1999 18.679 12.3947 19.1584C12.5624 18.9352 12.6898 18.7659 12.8156 18.5981C12.7168 17.6992 12.7078 16.7779 12.4965 15.9074C12.2314 14.8168 11.5722 14.4632 10.4336 14.5846C9.79391 14.6176 9.28305 14.7988 9.1662 15.5479C9.14522 15.6857 8.90403 15.7891 8.7632 15.9074C8.74522 15.8086 8.72725 15.7097 8.70777 15.6093C8.70777 15.4565 8.70777 15.3037 8.70777 15.1509C8.88605 14.685 9.27106 14.1861 9.20365 13.7576C8.9999 12.4692 8.64335 11.2018 8.29429 9.94041C8.14298 9.39359 7.73099 9.13741 7.13624 9.33367C6.98193 9.39509 6.80365 9.42505 6.67481 9.52093C5.88231 10.1142 6.01114 10.9531 6.10253 11.7741C6.26882 13.2558 6.45609 14.7344 6.6029 16.2176C6.62538 16.4393 6.47556 16.679 6.40515 16.9097C6.32575 16.4722 6.24036 16.0348 6.16695 15.5958C6.09804 15.1868 5.89279 15.0355 5.49579 15.2168C4.57444 15.5689 4.36171 15.9794 4.47706 16.9756C4.6059 18.0872 4.68081 19.2048 4.77819 20.3209C4.73324 20.3269 4.6868 20.3314 4.64186 20.3374C4.58044 20.2445 4.52051 20.1516 4.45909 20.0587C4.33324 19.9284 4.18343 19.6707 4.08456 19.6887C3.49579 19.7966 2.91901 19.9689 2.33924 20.1187C1.56171 20.4617 1.07782 21.061 1.28306 21.5239C1.5677 22.1651 2.19392 22.0812 2.71677 21.9958C3.82987 21.8131 4.6883 22.246 5.53624 22.8962C6.85459 23.9074 9.58267 23.6632 10.7123 22.4887L10.7168 22.4842C10.7617 22.4348 10.8066 22.3853 10.8516 22.3359L10.8531 22.3374ZM8.922 24.8318L9.07181 24.7943C10.1729 24.676 10.3872 24.5127 10.3602 23.9479C8.93698 24.0917 7.50777 24.237 5.82987 24.4063C6.27631 24.5876 6.55197 24.7014 6.82762 24.8138C6.87856 24.8258 6.93099 24.8363 6.98193 24.8483L8.922 24.8318ZM12.5475 49.0595L12.5595 49.028C12.5849 48.5291 12.6089 48.0288 12.6344 47.5299C12.6763 47.1598 12.7557 46.7883 12.7467 46.4198C12.7422 46.237 12.6224 45.9733 12.4756 45.8924C10.9505 45.061 10.2913 43.6812 10.089 42.0587C9.93623 40.8303 9.91376 39.5868 9.83286 38.3509C9.43886 37.807 9.04485 37.2647 8.65084 36.7209C8.53099 36.5636 8.41264 36.4063 8.29279 36.249L8.13399 35.9868C8.10103 35.9299 8.06807 35.8745 8.03361 35.8175C7.90927 35.6078 7.78492 35.3981 7.66208 35.1883C7.54822 36.0213 7.50777 36.7913 7.55571 37.5554C7.70103 39.825 7.8808 42.0932 8.0471 44.3613C8.48755 46.7598 10.0126 48.195 12.2014 49.043L12.546 49.061L12.5475 49.0595ZM33.6875 14.9876C33.8898 14.8123 34.0785 14.6161 34.2973 14.4647C35.5392 13.6078 36.0201 12.4258 35.8358 10.9486C35.8313 10.8528 35.8283 10.7584 35.8238 10.6625C35.8014 10.5546 35.7789 10.4483 35.7564 10.3404C35.5047 9.69022 35.2546 9.03854 35.0029 8.38835C34.5759 7.99584 34.2104 7.4715 33.71 7.2318C31.4718 6.15464 28.3077 7.3921 27.298 9.67374C27.2486 9.67973 27.2156 9.7052 27.1976 9.75164C27.1182 9.65576 26.9504 9.53142 26.9714 9.47C27.1107 9.05801 27.2905 8.66101 27.4583 8.25801C27.5242 8.16363 27.5916 8.07075 27.6576 7.97637C29.3924 5.84903 31.5916 5.28423 34.2583 6.09772C34.2898 4.76738 33.9587 3.65727 33.0328 2.7554C32.7856 2.55165 32.5385 2.34791 32.2913 2.14416C31.0119 1.16738 29.5542 1.26626 28.0935 1.479C27.0868 1.62581 26.3692 2.18311 25.9872 3.14341C25.8853 3.3906 25.7834 3.6363 25.6815 3.88349C25.6621 3.94641 25.6411 4.01083 25.6216 4.07375C25.6021 4.17263 25.5842 4.27 25.5647 4.36888C25.5092 5.06401 25.4538 5.76064 25.3984 6.45577C24.519 4.88723 24.7707 3.32618 25.5362 1.69023C24.3857 1.7142 23.4838 2.04379 22.7152 2.74191C21.7849 3.30521 21.0628 4.04528 20.7152 5.10146C20.5475 5.90895 20.2658 6.71345 20.2373 7.52543C20.1879 8.93966 20.6763 10.231 21.5093 11.3831C21.274 11.2273 21.0134 11.1 20.8111 10.9097C20.5325 10.646 20.3003 10.3344 20.0486 10.0438C19.6426 8.76588 19.6426 8.7509 18.3797 8.71045C17.9991 8.69846 17.6036 8.7494 17.2366 8.85127C15.6905 9.28123 14.2898 9.9479 13.4074 11.3876C13.0299 12.1576 12.6403 12.9217 12.2853 13.7007C12.2269 13.828 12.2553 14.0887 12.3482 14.1756C13.5677 15.3052 13.5797 16.8318 13.7385 18.3104C13.683 18.5591 13.6276 18.8078 13.5737 19.055C13.2111 19.3651 12.8501 19.6752 12.3662 20.0887C12.3617 20.1966 12.3482 20.4932 12.3347 20.7883C12.3198 20.8528 12.3033 20.9172 12.2883 20.9816C12.2763 21.0865 12.2658 21.1898 12.2538 21.2947C11.9482 21.9419 11.6426 22.5891 11.3535 23.2033C11.5407 23.1719 11.7954 23.1284 12.1085 23.0745C11.0374 25.0041 10.9055 25.473 11.0553 27.0954C11.1707 28.3419 11.6741 29.3741 12.916 29.834C14.1415 30.2879 15.1632 29.7981 16.0321 28.9471C17.8209 27.1943 18.2583 24.1262 17.0733 21.8071C16.4576 20.8857 15.8418 19.9644 15.2276 19.043C15.4613 19.046 15.7445 18.9666 15.9182 19.07C16.2538 19.2707 16.5025 19.6183 16.8351 19.828C17.3669 20.1606 17.9093 20.5861 18.4995 20.6999C20.8126 21.1449 22.6448 20.2445 24.0531 18.4273C24.7722 17.4999 25.1167 16.4692 24.6508 15.2992C24.6313 15.2018 24.6119 15.1059 24.5939 15.0086C24.5684 14.9516 24.543 14.8962 24.519 14.8393C24.3167 14.4453 24.1145 14.0513 23.9122 13.6573C24.2044 13.7876 24.5849 13.843 24.7692 14.0618C25.1242 14.4812 25.3684 14.9951 25.6576 15.47C25.686 15.6108 25.7145 15.7531 25.743 15.894C25.7085 16.5561 25.5317 17.2498 25.6666 17.876C26.0651 19.7352 28.8231 20.625 30.3272 19.4295C30.7003 19.1329 30.907 18.8243 30.5669 18.2999C30.3092 17.9014 30.2388 17.3816 30.086 16.9142C30.1609 16.5501 30.2358 16.1846 30.3542 15.6168C30.504 16.3164 30.6014 16.7764 30.6988 17.2363C30.7242 17.3307 30.7332 17.4355 30.7782 17.5194C31.4568 18.7898 32.886 19.3606 34.525 18.9696C35.9871 18.6205 37.1467 17.8265 38.0066 16.5651C39.0014 15.1044 40.859 14.3809 42.2972 14.8258C43.0628 15.0625 43.5946 15.5299 43.8163 16.3389C43.0778 15.6827 42.2628 15.2872 41.2875 15.4655C40.3841 15.6303 39.5886 16.0198 38.9774 16.9172C40.6927 16.8048 41.8044 17.6243 42.7781 18.7389C43.253 19.2827 43.7295 19.8385 44.2808 20.2969C45.5317 21.3366 46.9594 21.7127 48.5429 21.1599C50.3572 20.5262 51.4208 18.4288 50.7392 16.7344C50.3781 16.9531 50.0261 17.1689 49.6725 17.3831C49.5257 17.4161 49.3774 17.449 49.2306 17.482C49.1721 17.4999 49.1152 17.5194 49.0568 17.5374C48.2703 17.4895 47.4837 17.44 46.6957 17.3921C46.8995 17.2842 47.0927 17.1404 47.3085 17.076C48.474 16.7254 49.4942 16.1501 50.3047 15.2258C51.8343 13.479 52.2358 10.5801 51.1811 8.85876C51.1302 8.75689 51.0778 8.65502 51.0268 8.55314C50.9849 8.49022 50.9429 8.4273 50.901 8.36438C50.4485 7.91644 49.9946 7.467 49.5422 7.01906C49.4673 6.95464 49.4014 6.87674 49.3175 6.8288C46.9759 5.51944 44.7077 5.99734 42.5025 7.16888C41.5017 7.70071 40.6733 8.44977 40.3062 9.58685C40.1864 9.75764 40.0665 9.92692 39.9467 10.0977C39.8957 9.97187 39.7669 9.81007 39.8059 9.72767C40.1489 8.99809 40.4006 8.17112 40.922 7.59434C41.4178 7.04753 41.4148 6.65802 41.0703 6.13517C40.9235 5.91195 40.7422 5.7112 40.5759 5.49996C40.2208 5.21382 39.8673 4.92768 39.5122 4.64154C39.4523 4.60708 39.3939 4.57412 39.334 4.53967C38.3332 3.9509 37.274 3.86251 36.1669 4.16364C35.9437 4.21457 35.7205 4.26551 35.5662 4.30146V6.61008C35.2576 7.04154 35.662 7.15989 35.8943 7.35165C35.9781 7.46251 36.062 7.57337 36.1459 7.68423C36.7961 8.94865 37.1542 10.2835 37.1092 11.7142C37.0808 11.837 37.0523 11.9599 37.0253 12.0827L36.9609 12.3089C36.5624 13.7322 35.6321 14.6056 34.2119 14.9741C34.0366 14.9771 33.8613 14.9801 33.686 14.9831L33.6875 14.9876ZM51.4823 44.228C51.4628 44.24 51.4418 44.252 51.4223 44.264C51.4418 44.2969 51.4628 44.3284 51.4823 44.3613C51.3115 44.7389 51.1976 45.1583 50.9594 45.4864C50.1115 46.6565 49.4103 47.831 50.2852 49.2977C50.3647 49.7351 50.4455 50.1711 50.5564 50.7853C52.1579 48.5995 53.7219 46.622 54.6628 44.2535C54.9624 43.4999 54.8665 42.7988 54.1654 42.2745C52.1834 40.8258 49.8283 40.3853 47.4523 39.7201V41.0535C47.3095 41.9553 47.6875 42.5166 48.5864 42.7374C48.8276 42.7958 49.0673 42.8572 49.307 42.9201C50.125 43.1359 50.9324 43.3726 51.4942 44.0722C51.4897 44.1231 51.4867 44.1756 51.4823 44.2265V44.228ZM7.73998 25.5059C7.38792 25.5389 7.03436 25.5704 6.6853 25.6033C6.85009 27.3426 7.05833 28.9651 7.14223 30.5966C7.2441 32.5486 7.83886 34.273 9.05683 35.8145C10.149 37.1973 11.1183 38.6789 12.2194 40.0542C12.7392 40.7014 13.3909 41.2767 14.0771 41.7486C14.7647 42.2205 15.2426 42.0497 15.8164 41.3726C16.0546 40.7284 15.8808 40.1321 15.5302 39.6003C14.4666 37.9793 13.4418 36.3269 12.2763 34.7823C10.9639 33.04 10.095 31.2048 10.0995 28.9696C10.1025 27.7891 9.8853 26.6071 9.76395 25.3816C9.06283 25.425 8.40065 25.467 7.73998 25.5089V25.5059ZM49.1976 46.9546C49.4658 46.5007 49.7145 46.0797 50.0171 45.5673C49.3549 45.398 48.7557 45.2452 48.05 45.0655C48.1055 45.7156 48.1474 46.2205 48.1879 46.6969C48.5534 46.7898 48.8351 46.8617 49.1976 46.9531V46.9546ZM11.701 32.1561C11.6711 32.2205 11.6411 32.285 11.6111 32.3494C12.0306 32.9306 12.4516 33.5119 12.9535 34.2085V32.5906C12.51 32.4363 12.1055 32.2969 11.701 32.1561ZM10.7572 41.6078C10.8801 42.1726 11.0029 42.7359 11.1257 43.3007C11.3185 42.4308 11.1957 41.8665 10.7572 41.6078Z" fill="#090808"/>
<path d="M43.0718 48.6925C42.6313 49.1854 42.053 49.6138 41.7834 50.1876C41.3549 51.097 41.9811 52.0004 42.0545 52.8753C42.1265 53.7292 41.701 54.6326 42.3347 55.4565H24.6568C23.0044 53.0685 22.2149 50.3644 21.7954 47.5374C21.3999 44.8678 20.934 42.1996 20.7197 39.5135C20.4636 36.303 20.3901 33.0745 20.3362 29.8536C20.2943 27.3742 20.4051 24.8918 20.4486 22.4109C20.8246 22.5862 21.1991 22.7599 21.5752 22.9352C21.3939 23.0476 21.1961 23.139 21.0373 23.2738C20.6194 23.6289 20.4965 24.0933 20.7227 24.5877C20.94 25.0641 21.6471 25.2948 22.0755 25.0865C23.2081 24.0498 24.4965 23.9659 25.8973 24.4259C26.5789 24.6506 27.2845 24.8034 27.9812 24.9832C28.2763 25.0596 28.5519 25.103 28.2478 24.6671C28.0546 24.4768 27.8898 24.2416 27.6635 24.1053C27.0718 23.7472 26.4561 23.4326 25.8493 23.1C26.2568 22.9487 26.6628 22.7989 27.1572 22.6161C27.1257 23.2723 27.4268 23.4266 27.9317 23.3802C28.134 23.3622 28.3497 23.4686 28.5564 23.5285C28.7212 23.5764 28.88 23.6423 29.0418 23.6993C29.0643 23.5165 29.0883 23.3337 29.1107 23.1524C29.1347 23.1225 29.1587 23.094 29.1841 23.0671C29.5302 23.2034 29.8763 23.3397 30.2298 23.479C30.1489 23.6333 30.119 23.6753 30.1055 23.7217C30.0381 23.9599 29.9602 24.1981 29.9317 24.4423C29.9287 24.4708 30.2119 24.5322 30.3617 24.5787C30.4171 24.3794 30.4231 24.1442 30.537 23.9869C30.7377 23.7098 31.0029 23.479 31.2411 23.2304C31.4014 23.4401 31.5632 23.6468 31.7205 23.8596C31.9901 24.2221 32.2418 24.5981 32.5384 24.9352C32.5744 24.9757 32.895 24.8588 32.9789 24.739C33.0763 24.6011 33.0583 24.3809 33.1032 24.1247C33.4538 24.2101 33.7489 24.282 34.0695 24.3599C34.1894 24.0723 34.3017 23.7996 34.4081 23.545C34.8291 23.5794 35.292 24.3824 35.4343 23.4011C35.8883 23.2019 36.3407 23.0026 36.7946 22.8034C36.9324 22.8124 37.0718 22.8214 37.2096 22.8318C37.265 22.8798 37.3205 22.9277 37.3759 22.9742C37.4208 23.079 37.4673 23.1824 37.5122 23.2873C37.6081 23.2663 37.7025 23.2453 37.7984 23.2244L37.8403 23.1854C37.9362 23.2618 38.0336 23.3367 38.1295 23.4131H38.131C38.1849 23.4596 38.2388 23.506 38.2927 23.5539C38.3916 23.5539 38.492 23.5539 38.5909 23.5539C38.6433 23.5045 38.6942 23.4551 38.7467 23.4056C38.8545 23.3832 38.9639 23.3592 39.0718 23.3337C39.2501 23.3112 39.5856 23.2918 39.5856 23.2678C39.5946 22.4154 40.486 22.6311 40.8126 22.1367C41.0193 22.3734 41.1766 22.5532 41.3339 22.7315C41.0748 22.8783 40.7946 22.9966 40.5609 23.1764C39.8942 23.6903 39.2411 24.2221 38.5999 24.7659C38.519 24.8348 38.5384 25.0206 38.513 25.1524L38.7587 25.0461C39.0448 24.9772 39.3399 24.9367 39.6126 24.8333C40.3092 24.5697 40.9774 24.2221 41.6875 24.0124C42.7122 23.7112 43.5811 24.2626 43.6575 25.3322C43.7804 27.0311 43.7849 28.7375 43.8268 30.4408C43.8328 30.6685 43.7055 31.2723 43.7055 31.2723L43.6441 31.8401C43.6441 31.8401 43.4523 35.1659 43.3609 36.7509C42.7527 36.5622 42.5744 36.1906 42.6014 35.5285C42.6658 33.9644 42.6972 32.3869 42.5684 30.8303C42.471 29.6588 42.2808 28.4348 41.8178 27.3697C41.1152 25.7487 39.3819 25.6229 38.2808 27.0266C37.7969 27.6438 37.4119 28.3629 37.1017 29.088C36.0935 31.4431 36.0351 33.9794 35.7669 36.4753C35.719 36.9232 35.5542 37.3592 35.4433 37.8011C35.3624 37.906 35.2815 38.0094 35.1422 38.1891C35.3849 38.2026 35.5302 38.2416 35.6635 38.2146C37.2396 37.9015 38.8036 37.5 40.3931 37.2843C41.7894 37.094 42.8306 37.6962 43.0403 38.9517C43.1632 39.6828 43.2426 40.4318 43.2351 41.1719C43.2081 43.6798 43.1332 46.1891 43.0763 48.697L43.0718 48.6925ZM24.8366 42.8543L24.8321 42.8453C24.8276 43.5329 25.1392 44.0318 25.74 44.3554H25.713C25.7669 44.5652 25.7534 44.8378 25.8838 44.9711C26.5999 45.7112 27.316 46.4618 28.107 47.1195C28.4606 47.4131 28.9864 47.5 29.4343 47.6813C29.4793 48.0019 29.5242 48.3225 29.5767 48.6955C27.8943 48.2206 26.1609 46.9532 24.7946 45.2858C24.6268 45.0805 24.3946 44.9292 24.1924 44.7539C24.1415 44.8123 24.0905 44.8723 24.0396 44.9307C24.4935 45.5509 24.9474 46.1711 25.4014 46.7914L25.9512 47.3786L25.9886 47.4161C26.116 47.6468 26.1939 47.9314 26.3782 48.0992C27.0388 48.7 27.7415 49.2528 28.4126 49.8416C28.5849 49.9929 28.8051 50.1966 28.8261 50.3944C29.1107 53.1464 31.4853 53.6842 33.4493 53.6123C33.8688 53.5974 34.2748 53.2453 34.6883 53.049C35.7804 52.6311 36.5115 51.897 36.8321 50.7419C36.889 50.5382 37.1871 50.3509 37.4148 50.2535C38.928 49.6138 40.2493 48.7075 41.3639 47.503C41.5991 47.2483 41.8104 46.9711 42.0321 46.7045C41.9841 46.649 41.9362 46.5921 41.8883 46.5367C40.3916 47.6453 38.895 48.7524 37.0044 49.3846C37.0313 48.9607 37.0478 48.6925 37.0643 48.4243C38.1954 47.9869 39.301 47.5105 40.1429 46.5906C40.898 46.1472 41.4208 45.5359 41.5602 44.6446C42.2103 42.9816 41.7235 41.7382 40.077 40.9966C39.6081 40.7854 39.0838 40.6041 38.5774 40.5831C36.104 40.4783 33.8883 39.5539 31.6725 38.5667C30.1894 37.906 28.6388 37.4251 26.9684 37.6273C25.5047 37.8041 24.4695 38.7809 24.3452 40.2416C24.2898 40.8933 24.4591 41.5659 24.5265 42.2281C24.6283 42.4363 24.7302 42.6446 24.8336 42.8513L24.8366 42.8543ZM23.4508 36.4423C23.2216 36.694 22.9924 36.9472 22.7632 37.1989C22.7976 37.2528 22.8321 37.3067 22.8666 37.3622C23.0868 37.2918 23.3085 37.2228 23.5272 37.1494C23.7624 37.0715 23.9901 36.9562 24.2313 36.9112C26.7167 36.4468 29.1527 36.5202 31.4973 37.5989C31.7594 37.7202 32.0695 37.7382 32.3557 37.8041C32.3781 37.7472 32.4006 37.6888 32.4246 37.6318C32.3377 37.5285 32.2493 37.4236 32.1624 37.3202C31.2486 36.8019 31.3205 35.8461 31.1377 35.0026C31.1212 34.9292 31.1227 34.8528 31.1032 34.7809C30.5519 32.7914 30.0546 30.7854 29.4208 28.8214C29.1062 27.8431 28.4531 27.0191 27.4943 26.5172C26.2568 25.8686 25.0059 26.315 24.483 27.6079C24.3437 27.9509 24.2059 28.3225 24.1939 28.685C24.1265 30.7255 24.0231 32.7704 24.0965 34.8079C24.1235 35.5404 24.0965 36.0648 23.4478 36.4438L23.4508 36.4423ZM37.4223 51.4805C38.516 51.8805 39.4808 52.2326 40.4965 52.6056C40.2868 51.2573 38.5504 50.5756 37.4223 51.4805Z" fill="#E7C03D"/>
<path d="M20.4486 22.4107C20.4051 24.8916 20.2943 27.374 20.3362 29.8534C20.3901 33.0759 20.4635 36.3028 20.7197 39.5133C20.934 42.1994 21.3999 44.8676 21.7954 47.5373C22.2148 50.3657 23.0044 53.0699 24.6568 55.4564H20.9115C20.7167 55.1163 20.471 54.7957 20.3347 54.4331C19.8223 53.0788 19.3444 51.7111 18.8186 50.2504C17.9617 50.7178 16.9774 51.2287 16.0291 51.7979C15.8793 51.8878 15.8328 52.2339 15.8268 52.4646C15.8059 53.4609 15.8179 54.4586 15.8179 55.4564H14.7692C14.8096 53.5702 14.865 51.6856 14.886 49.7994C14.901 48.4361 14.868 47.0714 14.8576 45.7066C14.8635 45.4699 14.871 45.2347 14.877 44.9979C15.1407 44.9305 15.4044 44.8631 15.668 44.7957C15.695 46.0691 15.7085 47.344 15.7549 48.6159C15.7669 48.9305 15.662 49.4039 16.2688 49.3111L16.2718 49.314C16.0935 49.5508 15.9152 49.786 15.695 50.0766C15.8658 50.1185 15.9782 50.186 16.0381 50.1545C16.9699 49.6601 17.9017 49.1627 18.8156 48.6369C18.9504 48.559 18.9984 48.3328 19.0868 48.1755C18.8965 48.1051 18.7077 48.0361 18.5175 47.9657L18.5145 47.9627C19.0119 47.7066 19.1512 47.3081 19.1287 46.7523C19.0898 45.7455 19.1332 44.7358 19.1452 43.7275C19.1841 40.5695 19.2246 37.4114 19.262 34.2519C19.268 33.7021 19.262 33.1523 19.262 32.4422C18.2029 33.0354 17.3295 33.5448 16.4366 34.0152C15.8928 34.3028 15.8119 34.6834 15.8343 35.2856C15.8523 35.7635 16.2059 36.5261 15.328 36.7583L15.2785 36.7687L15.2381 36.7388C15.2695 34.7388 15.301 32.7388 15.3325 30.7388C15.4388 30.6804 15.5452 30.6219 15.6516 30.565C15.7385 31.1373 15.8238 31.7096 15.9137 32.3028C16.1295 32.2789 16.3482 32.2549 16.5654 32.2309C16.3467 32.3942 16.128 32.556 15.9092 32.7193C15.9347 32.7658 15.9602 32.8122 15.9841 32.8586C16.3272 32.6998 16.6703 32.5395 17.0134 32.3807C16.7782 32.574 16.5355 32.7598 16.3107 32.965C16.134 33.1283 15.9797 33.3171 15.8164 33.4953C15.8733 33.5508 15.9302 33.6062 15.9871 33.6616C17.0149 33.0879 18.0471 32.5216 19.0643 31.9298C19.1781 31.8639 19.2021 31.6452 19.295 31.4369C18.4546 31.786 17.7325 32.0841 17.0119 32.3837C17.7504 31.9508 18.4905 31.5193 19.2291 31.0864C19.1991 31.0279 19.1692 30.9695 19.1392 30.9126C18.9295 31.004 18.7197 31.0953 18.51 31.1852C19.2186 30.6459 19.319 29.9253 19.277 29.0789C19.1766 27.0324 19.1617 24.9815 19.1122 22.9321C19.4718 23.1223 19.7459 23.0369 19.9931 22.7133C20.098 22.577 20.2913 22.5066 20.4441 22.4077L20.4486 22.4107ZM19.1047 49.2332C17.8164 49.3785 16.0216 50.4571 15.7295 51.2436C16.9759 50.5605 18.116 50.0212 19.1047 49.2332Z" fill="#D29A2A"/>
<path d="M42.6058 53.6198C42.85 53.47 43.0792 53.2347 43.3429 53.1838C44.1773 53.025 45.1376 53.2198 45.6545 52.2715C45.7219 52.1471 45.7414 51.9973 45.7818 51.8595C45.9526 51.6377 46.1219 51.416 46.2927 51.1943C46.2402 51.1538 46.1878 51.1134 46.1369 51.073C44.9893 52.0377 43.7174 52.237 42.3271 51.7156C42.3017 51.6138 42.2762 51.5089 42.2507 51.4055C42.2477 51.2587 42.2432 51.1134 42.2402 50.9666C42.2627 50.8542 42.2867 50.7404 42.3091 50.628C42.5773 49.7201 43.5915 48.9636 44.459 49.0565C44.3676 49.3127 44.2792 49.5613 44.1818 49.8325C45.0867 49.3486 45.4672 48.5591 45.3968 47.5913C45.3249 46.607 45.2679 45.6108 45.3518 44.6325C45.3878 44.2205 45.7354 43.7696 46.0605 43.464C46.5324 43.019 47.0118 43.2423 47.1002 43.8924C47.1466 44.237 47.1346 44.5876 47.1526 44.9351C47.199 45.8475 47.4252 46.6804 48.032 47.413C48.9443 48.5127 48.9414 49.8984 49.1017 51.2258C49.1196 51.3891 49.1391 51.5524 49.1571 51.7171V52.7419C48.5818 53.6467 48.005 54.5516 47.4282 55.4565H45.4807C45.7833 54.9561 46.0859 54.4572 46.3885 53.9568C46.5099 53.7636 46.6297 53.5688 46.7511 53.3756C46.6837 53.2947 46.6163 53.2138 46.5488 53.1314C45.4762 54.5831 44.0754 54.646 42.5623 54.2385C42.5593 54.0977 42.5563 53.9568 42.5518 53.8145C42.5698 53.7501 42.5878 53.6842 42.6058 53.6198Z" fill="#F5F6F6"/>
<path d="M15.8179 55.4565C15.8179 54.4587 15.8059 53.461 15.8269 52.4647C15.8313 52.2355 15.8793 51.8879 16.0291 51.7981C16.9789 51.2288 17.9617 50.7179 18.8186 50.2505C19.3444 51.7112 19.8224 53.079 20.3347 54.4333C20.471 54.7958 20.7167 55.1164 20.9115 55.4565H15.8179Z" fill="#B97C20"/>
<path d="M14.8756 44.998C14.8696 45.2347 14.8621 45.4699 14.8561 45.7066C14.7767 45.9897 14.6419 46.2699 14.6269 46.5575C14.555 47.9178 14.5295 49.2811 14.4606 50.6414C14.3782 52.2474 14.2689 53.8504 14.17 55.4549H13.2711C13.5093 51.9733 13.746 48.4931 13.9887 44.9351C14.2958 44.956 14.585 44.977 14.8741 44.9965L14.8756 44.998Z" fill="#E5E7E8"/>
<path d="M14.17 55.4563C14.2673 53.8518 14.3782 52.2473 14.4606 50.6428C14.5295 49.2825 14.555 47.9192 14.6269 46.5589C14.6419 46.2728 14.7767 45.9912 14.8561 45.708C14.8666 47.0728 14.8995 48.4361 14.8846 49.8009C14.8651 51.687 14.8082 53.5717 14.7677 55.4578H14.1685L14.17 55.4563Z" fill="#BBBDBE"/>
<path d="M47.4283 55.4563C48.0051 54.5514 48.5819 53.6466 49.1587 52.7417C48.916 53.5162 48.6733 54.2893 48.4336 55.0638C48.3931 55.1941 48.3617 55.326 48.3272 55.4578H47.4283V55.4563Z" fill="#BBBDBE"/>
<path d="M51.0254 8.55599C51.0763 8.65786 51.1287 8.75973 51.1797 8.8616C51.0703 9.95224 51.0943 11.0773 50.8231 12.126C50.4111 13.726 49.5108 15.0219 47.8149 15.5522C46.4561 15.9777 45.2306 15.7275 44.0831 14.8856C42.7422 13.9028 41.2636 13.323 39.5557 13.5058C38.8606 13.5807 38.161 13.6182 37.3685 13.6811C37.6651 14.0886 37.9452 14.4766 38.1445 14.7507C37.6965 15.2571 37.295 15.768 36.8336 16.2174C35.725 17.2961 34.5325 18.2803 32.8426 17.9822C32.1055 17.8519 31.4089 17.4938 30.6943 17.2391C30.5969 16.7792 30.498 16.3193 30.3497 15.6196C30.2329 16.1874 30.158 16.5515 30.0816 16.917C28.8246 18.2279 27.0613 17.6451 26.2344 16.499C26.0816 16.2878 25.9033 16.0961 25.737 15.8953C25.7085 15.7545 25.6801 15.6122 25.6516 15.4713C25.6756 15.0818 25.6981 14.6923 25.7265 14.3028C25.8269 12.8871 26.3962 11.6526 27.2022 10.5125C27.4868 11.1358 27.5992 11.9507 28.6149 11.8039C28.6973 11.2781 28.7767 10.7732 28.8561 10.2683C29.0793 10.4991 29.0748 10.7373 29.1752 10.9185C29.5542 11.5987 29.8269 12.4361 30.3962 12.8931C31.8284 14.0421 34.1265 13.2241 34.8127 11.4638C35.2067 10.4526 35.2022 9.43089 35.0014 8.38969C35.2531 9.03988 35.5033 9.69157 35.755 10.3418C35.7774 10.4496 35.7999 10.556 35.8224 10.6638C35.8269 10.7597 35.8299 10.8541 35.8344 10.95C35.704 11.2496 35.6336 11.5987 35.4329 11.8414C34.8291 12.5785 34.2329 13.338 33.5243 13.9687C32.7347 14.6728 31.7265 14.4466 30.6598 14.2623C30.8546 14.511 30.973 14.6608 31.0898 14.8092C31.1348 15.4339 31.1033 16.0766 31.2471 16.6788C31.3954 17.299 31.8838 17.5058 32.522 17.3035C33.5048 16.9934 33.9917 16.1859 34.4696 15.377C34.5055 15.317 34.3018 15.1148 34.2104 14.9799C35.6306 14.6114 36.561 13.738 36.9595 12.3148L37.0239 12.0886C37.0523 11.9657 37.0808 11.8429 37.1078 11.72C37.7655 11.338 38.4201 10.953 39.0793 10.574C39.364 10.4107 39.6546 10.2594 39.9422 10.1021C40.0621 9.93127 40.1819 9.76198 40.3018 9.59119C40.3767 9.95823 40.4905 10.3238 40.516 10.6953C40.5744 11.5253 40.7812 12.3403 41.5093 12.7567C41.9377 13.0024 42.6044 13.0324 43.1018 12.9065C43.695 12.7567 43.2935 12.2249 43.2621 11.8369C43.1977 11.0609 43.1392 10.2698 43.8239 9.62115C43.8239 10.2069 43.8059 10.7163 43.8284 11.2241C43.8718 12.2069 44.9909 13.6406 45.8419 13.7934C47.4748 14.0841 50.3857 12.6369 50.116 10.2953C49.9902 9.19718 49.734 8.11554 49.5377 7.0249C49.9902 7.47284 50.4441 7.92228 50.8965 8.37022C50.9385 8.43314 50.9804 8.49606 51.0224 8.55898L51.0254 8.55599ZM27.6576 15.714C28.4831 15.7275 29.2142 15.0459 29.2966 14.4376C29.4044 13.6511 28.8651 13.4159 28.2628 13.2241C28.0786 13.1657 27.9018 13.0653 27.7385 12.956C27.2216 12.6084 26.7437 12.8047 26.5505 13.2571C26.3437 13.738 26.173 14.4137 26.3617 14.8361C26.5505 15.2556 27.2022 15.7065 27.6576 15.714Z" fill="#D8D1A9"/>
<path d="M49.5406 7.02217C49.7369 8.11131 49.9931 9.19445 50.1189 10.2926C50.3886 12.6342 47.4762 14.0828 45.8448 13.7907C44.9953 13.6394 43.8747 12.2057 43.8313 11.2214C43.8088 10.7136 43.8268 10.2042 43.8268 9.61842C43.1436 10.2671 43.2021 11.0581 43.265 11.8342C43.2964 12.2222 43.6979 12.754 43.1047 12.9038C42.6088 13.0297 41.9421 12.9982 41.5122 12.754C40.7826 12.3375 40.5773 11.5225 40.5189 10.6926C40.4935 10.321 40.3781 9.957 40.3047 9.58846C40.6717 8.45138 41.5002 7.70232 42.5009 7.17049C44.7062 5.99895 46.9743 5.52105 49.3159 6.83041C49.3998 6.87685 49.4657 6.95625 49.5406 7.02067V7.02217Z" fill="#F2EFD3"/>
<path d="M30.6958 17.2408C31.4104 17.4955 32.107 17.8535 32.8441 17.9839C34.5325 18.282 35.7265 17.2962 36.8351 16.2191C37.2965 15.7696 37.6965 15.2588 38.146 14.7524C37.9482 14.4798 37.6666 14.0917 37.3699 13.6828C38.1625 13.6198 38.8606 13.5824 39.5572 13.5075C41.2651 13.3247 42.7452 13.903 44.0845 14.8872C45.2321 15.7292 46.4576 15.9794 47.8164 15.5539C49.5123 15.0221 50.4111 13.7262 50.8246 12.1277C51.0958 11.079 51.0718 9.95392 51.1812 8.86328C52.2358 10.5861 51.8359 13.4835 50.3048 15.2303C49.4943 16.1562 48.4741 16.7299 47.3085 17.0805C47.0928 17.1464 46.8995 17.2902 46.6958 17.3966C46.2359 17.3502 45.5827 17.0101 45.6651 17.9165C45.7145 18.4558 46.0036 18.9307 46.6673 18.9037C47.0478 18.8887 47.4269 18.8093 47.8448 18.7554C47.3115 19.5404 46.4336 19.4356 45.5332 19.6168C46.5535 20.3749 47.5003 20.3464 48.4471 19.9539C49.6006 19.4775 49.6321 18.4183 49.6726 17.3861C50.0261 17.1719 50.3782 16.9577 50.7392 16.7374C51.4194 18.4318 50.3572 20.5307 48.543 21.1629C46.9595 21.7157 45.5317 21.3412 44.2808 20.3C43.7295 19.8415 43.2531 19.2857 42.7782 18.7419C41.8044 17.6273 40.6928 16.8078 38.9774 16.9202C39.5887 16.0228 40.3842 15.6333 41.2875 15.4685C42.2628 15.2902 43.0778 15.6857 43.8164 16.3419C43.5947 15.5329 43.0628 15.0655 42.2973 14.8288C40.8591 14.3839 38.9999 15.1075 38.0067 16.5681C37.1482 17.8296 35.9872 18.6236 34.525 18.9726C32.8861 19.3651 31.4568 18.7944 30.7782 17.5224C30.7333 17.4386 30.7243 17.3337 30.6988 17.2393L30.6958 17.2408Z" fill="#B3AA80"/>
<path d="M5.49881 15.2215C5.89582 15.0402 6.10106 15.1915 6.16997 15.6005C6.24338 16.0395 6.32728 16.4769 6.40817 16.9144C6.50555 17.0717 6.60143 17.2305 6.69881 17.3878C6.79319 17.2649 6.96248 17.1436 6.96698 17.0163C6.99394 16.3271 6.98495 15.638 6.97896 14.9488C6.96997 13.7533 6.93252 12.5563 6.95349 11.3608C6.96548 10.6852 7.07334 10.0125 7.13776 9.33836C7.73252 9.14061 8.1445 9.39679 8.29581 9.9451C8.64488 11.2065 8.99993 12.4739 9.20518 13.7623C9.27259 14.1893 8.88757 14.6882 8.7093 15.1541C8.7093 15.3069 8.7093 15.4597 8.7093 15.6125C8.72727 15.7114 8.74525 15.8103 8.76473 15.9106C8.949 16.399 8.67034 17.0912 9.31304 17.4028C9.70855 16.408 10.0711 15.4972 10.4351 14.5863C11.5722 14.4649 12.2329 14.8185 12.4981 15.9091C12.7093 16.781 12.7183 17.7009 12.8172 18.5998C12.4981 17.9496 12.179 17.3009 11.767 16.4634C11.8314 17.1106 11.8748 17.5481 11.9198 17.9855C11.8718 18.5069 11.8838 19.0417 11.7625 19.5451C11.5467 20.4365 11.2486 21.3099 10.9849 22.1908C10.9445 22.2357 10.9055 22.2822 10.8651 22.3271L10.8561 22.3391C10.8112 22.3885 10.7662 22.438 10.7213 22.4874L10.7168 22.4919C10.2823 22.5833 9.84787 22.6822 9.41192 22.7631C7.85387 23.0522 6.40368 22.5024 6.02465 21.2664C5.42241 19.3069 4.93252 17.2994 5.50181 15.22L5.49881 15.2215ZM8.95649 19.9945C8.98195 19.9975 9.00892 20.0005 9.03439 20.0035C9.16772 19.4912 9.31903 18.9833 9.42091 18.4649C9.45087 18.3121 9.3415 18.1324 9.29506 17.9661C9.1812 18.1204 8.98495 18.2687 8.97147 18.4305C8.92952 18.9488 8.95649 19.4717 8.95649 19.9945Z" fill="#F5F6F6"/>
<path d="M18.516 47.9674C18.7062 48.0378 18.895 48.1067 19.0853 48.1771C18.9969 48.3344 18.9489 48.5621 18.8141 48.6386C17.8988 49.1644 16.9684 49.6618 16.0366 50.1562C15.9767 50.1876 15.8643 50.1202 15.6935 50.0783C15.9122 49.7876 16.0905 49.5524 16.2688 49.3157C16.4186 49.2663 16.5684 49.2153 16.7182 49.1659C16.8186 49.0655 16.919 48.9666 17.0179 48.8663C17.1482 48.8318 17.28 48.7974 17.4104 48.7629C17.3894 48.7239 17.3699 48.6835 17.3489 48.6445C17.2381 48.718 17.1257 48.7899 17.0149 48.8633C16.9145 48.9636 16.8156 49.0625 16.7152 49.1629C16.5654 49.2123 16.4156 49.2633 16.2658 49.3127C15.6591 49.4056 15.7639 48.9307 15.7519 48.6176C15.7055 47.3442 15.6905 46.0708 15.6651 44.7974C15.7519 44.6895 15.8403 44.5831 15.9602 44.4363C15.2965 44.3899 14.6973 44.3479 14.0995 44.306C13.9782 44.1007 13.7954 43.9075 13.7475 43.6857C13.6621 43.2917 13.0493 42.9966 13.5063 42.4977C13.5317 42.4977 13.5587 42.4917 13.5812 42.5007C14.5145 42.8917 15.4313 43.0026 16.2119 42.2011C16.8606 41.5359 16.913 40.4064 16.3527 39.3232C16.0591 38.7554 15.6965 38.2221 15.322 37.6004C16.7407 37.5674 17.0913 38.6131 17.5572 39.5734C17.7804 38.1307 17.0194 37.1914 15.328 36.7614C16.2059 36.5292 15.8523 35.7652 15.8343 35.2888C15.8104 34.6865 15.8913 34.306 16.4366 34.0183C17.3295 33.5479 18.2029 33.0386 19.2621 32.4453C19.2621 33.1539 19.268 33.7052 19.2621 34.255C19.2246 37.4131 19.1827 40.5711 19.1452 43.7307C19.1332 44.7389 19.0883 45.7487 19.1287 46.7554C19.1512 47.3112 19.0104 47.7097 18.5145 47.9659C18.4141 48.0663 18.3152 48.1651 18.2149 48.2655C18.0845 48.3015 17.9557 48.3389 17.8253 48.3749C17.8523 48.4258 17.8808 48.4783 17.9077 48.5292C18.0111 48.4423 18.1145 48.3554 18.2164 48.2685C18.3167 48.1681 18.4156 48.0693 18.516 47.9689V47.9674Z" fill="#B97C20"/>
<path d="M20.4486 22.4111C20.2958 22.5115 20.1025 22.5804 19.9977 22.7167C19.7505 23.0403 19.4763 23.1257 19.1168 22.9354C18.886 22.7856 18.6538 22.6373 18.4231 22.4875C18.3647 22.3107 18.3063 22.1354 18.2239 21.8897C19.7924 22.2897 21.1692 21.8538 22.522 21.265C22.8621 21.3145 23.2007 21.5062 23.4718 21.0523C23.5872 20.8575 23.9332 20.6478 24.1325 20.6838C25.0164 20.8396 25.9033 21.0268 26.7527 21.3115C27.331 21.5047 27.5527 21.4193 27.5138 20.8066C28.552 20.7062 29.5887 20.6059 30.6269 20.5055C30.9325 20.5909 31.2381 20.6763 31.5437 20.7602C31.5152 20.6763 31.4868 20.5939 31.4583 20.51C31.6411 20.2793 31.8239 20.0485 32.0066 19.8193C32.2029 19.8703 32.3991 19.9212 32.5954 19.9721C32.6538 20.0081 32.7137 20.0426 32.7722 20.0785L32.7677 20.074C32.6748 20.2927 32.5834 20.5115 32.4935 20.7227C33.7445 20.7676 34.9924 20.5624 35.9737 21.0523C36.6688 20.9984 37.325 20.7512 37.7519 20.9654C38.2224 21.2006 38.4426 21.253 38.8246 20.9085C39.0059 20.7452 39.328 20.6808 39.5886 20.6763C39.8343 20.6718 40.083 20.8036 40.3287 20.877C40.3617 20.6358 40.3961 20.3946 40.4336 20.122C40.9549 20.3122 41.4868 20.5055 42.083 20.7227C42.1115 20.7032 42.2343 20.6193 42.3572 20.5354C42.9924 21.0433 43.6276 21.5497 44.2628 22.0575C44.5534 22.474 44.4441 22.4875 43.9991 22.3886C43.0823 22.1849 42.1654 22.1909 41.3295 22.7272C41.1722 22.5474 41.0164 22.3691 40.8096 22.1324C40.4845 22.6253 39.5931 22.4111 39.5827 23.2635C39.5827 23.2875 39.2471 23.3085 39.0688 23.3294C38.877 22.9264 38.6913 22.519 38.483 22.1235C38.4606 22.0815 38.2913 22.0755 38.2224 22.113C38.1549 22.1489 38.0695 22.2823 38.0905 22.3362C38.1714 22.5459 38.2793 22.7452 38.3976 22.9369C38.4995 23.1017 38.6269 23.2485 38.7437 23.4029V23.4014C38.6913 23.4508 38.6403 23.5002 38.5879 23.5497C38.489 23.5497 38.3886 23.5497 38.2898 23.5497C38.2358 23.5032 38.1819 23.4553 38.128 23.4088H38.1265C38.0306 23.3324 37.9332 23.2575 37.8373 23.1811C37.8373 23.1811 37.7954 23.2201 37.7954 23.2216C37.6995 23.2426 37.6051 23.2635 37.5093 23.2845C37.4643 23.1796 37.4179 23.0763 37.3729 22.9714C37.3175 22.9235 37.2621 22.8755 37.2066 22.8291C37.0688 22.8201 36.9295 22.8111 36.7916 22.8006C36.6538 22.5699 36.516 22.3392 36.4501 22.2268C36.0096 22.08 35.68 21.8957 35.3415 21.8778C34.9984 21.8598 34.6463 22.0036 34.2973 22.077C34.3093 22.1489 34.3227 22.2208 34.3362 22.2942C34.6988 22.3407 35.0598 22.3871 35.5632 22.4515C35.304 22.7272 35.1647 22.8755 34.9984 23.0523C35.1692 23.1886 35.301 23.2935 35.4314 23.3984C35.289 24.3796 34.8261 23.5766 34.4051 23.5422C34.2988 23.7969 34.1864 24.0695 34.0666 24.3572C33.7475 24.2793 33.4508 24.2073 33.1003 24.122C33.0553 24.3781 33.0733 24.5984 32.9759 24.7362C32.892 24.8545 32.5699 24.9729 32.5355 24.9324C32.2388 24.5939 31.9857 24.2193 31.7175 23.8568C31.5602 23.6456 31.3984 23.4373 31.2381 23.2276C30.9999 23.4778 30.7347 23.707 30.534 23.9841C30.4201 24.1414 30.4126 24.3766 30.3587 24.5759C30.2089 24.5294 29.9257 24.468 29.9287 24.4396C29.9557 24.1954 30.0351 23.9587 30.1025 23.719C30.116 23.6725 30.146 23.6306 30.2269 23.4763C29.8733 23.3369 29.5272 23.2006 29.1812 23.0643C29.0943 22.9894 29.0089 22.9145 28.9235 22.8396C28.8965 22.874 28.8681 22.907 28.8411 22.9414C28.931 23.0103 29.0194 23.0793 29.1093 23.1497C29.0868 23.3324 29.0628 23.5152 29.0403 23.6965C28.8785 23.6396 28.7197 23.5736 28.555 23.5257C28.3482 23.4643 28.1325 23.3579 27.9302 23.3774C27.4254 23.4238 27.1257 23.271 27.1557 22.6133C26.6628 22.7961 26.2553 22.9474 25.8478 23.0972L25.8568 23.1032C25.7055 22.8411 25.5527 22.5774 25.349 22.2238C25.1287 22.5025 24.9699 22.7062 24.8096 22.9085C24.7467 22.8815 24.6853 22.853 24.6224 22.8261C24.5699 22.6373 24.5699 22.3931 24.4486 22.2763C24.3407 22.1729 23.9542 22.1489 23.9332 22.1984C23.5587 23.0328 23.1992 22.6433 22.8426 22.1609C22.5729 22.3916 22.3347 22.5954 22.095 22.7991C21.9213 22.8441 21.749 22.8875 21.5752 22.9324C21.1992 22.7572 20.8246 22.5834 20.4486 22.4081V22.4111ZM32.4651 21.4193C32.516 21.3339 32.5864 21.2575 32.5714 21.2291C32.537 21.1662 32.4591 21.1257 32.3976 21.0763C32.3737 21.1377 32.3257 21.2006 32.3317 21.2575C32.3377 21.307 32.4051 21.3504 32.4651 21.4193Z" fill="#F2EFD3"/>
<path d="M35.0029 8.38677C35.2021 9.42797 35.2081 10.4497 34.8141 11.4609C34.1279 13.2212 31.8298 14.0392 30.3976 12.8901C29.8283 12.4332 29.5557 11.5958 29.1766 10.9156C29.0763 10.7358 29.0808 10.4961 28.8575 10.2654C28.7781 10.7703 28.6987 11.2752 28.6163 11.801C27.6006 11.9478 27.4883 11.1328 27.2036 10.5096C27.2141 10.3134 27.2246 10.1171 27.2366 9.92085C27.2575 9.83696 27.2785 9.75306 27.298 9.66917C28.3077 7.38752 31.4718 6.15007 33.71 7.22722C34.2103 7.46842 34.5759 7.99127 35.0029 8.38378V8.38677Z" fill="#F2EFD3"/>
<path d="M13.737 18.3091C13.5767 16.8304 13.5663 15.3038 12.3468 14.1742C12.2539 14.0888 12.2269 13.8267 12.2839 13.6993C12.6389 12.9203 13.0284 12.1548 13.406 11.3862C13.4105 11.6109 13.4419 11.8372 13.415 12.0574C13.2397 13.5211 13.776 14.7525 14.6809 15.8417C15.361 16.6596 16.149 17.3233 17.3325 17.0581C17.0854 16.2806 16.8472 15.5315 16.609 14.7825C16.6869 14.754 16.7633 14.7271 16.8412 14.6986C16.9985 14.9997 17.1168 15.3308 17.3206 15.596C17.6801 16.0634 18.0172 16.6012 18.4921 16.9173C20.3288 18.1473 23.0614 17.5016 24.2809 15.6244C24.3662 15.4926 24.5236 15.4072 24.6479 15.2993C25.1138 16.4694 24.7692 17.5001 24.0501 18.4274C22.6419 20.2431 20.8097 21.1435 18.4966 20.7001C17.9063 20.5862 17.364 20.1622 16.8322 19.8282C16.4996 19.6199 16.2509 19.2724 15.9153 19.0701C15.7415 18.9667 15.4584 19.0461 15.2247 19.0432C15.1198 18.9982 15.0149 18.9518 14.9116 18.9068C14.5206 18.7061 14.1281 18.5068 13.737 18.3061V18.3091Z" fill="#B3AA80"/>
<path d="M7.73999 25.5058C8.40216 25.4638 9.06283 25.4234 9.76396 25.3784C9.88531 26.6039 10.1025 27.7859 10.0995 28.9664C10.0935 31.2001 10.964 33.0368 12.2763 34.7792C13.4419 36.3252 14.4666 37.9777 15.5302 39.5971C15.8793 40.1305 16.0531 40.7252 15.8164 41.3694C15.0434 41.4203 14.4831 41.0054 14.0171 40.475C12.7902 39.0773 11.5407 37.6945 10.3977 36.2308C9.57819 35.1807 8.67182 34.114 8.49954 32.7267C8.20141 30.3252 7.98868 27.9132 7.73999 25.5058Z" fill="#2F2E36"/>
<path d="M17.0704 21.8084C18.2554 24.1275 17.8194 27.1957 16.0292 28.9485C15.1602 29.7994 14.1385 30.2893 12.9131 29.8354C11.6696 29.3755 11.1677 28.3432 11.0524 27.0968C10.9026 25.4728 11.0344 25.0054 12.1056 23.0758C11.7925 23.1298 11.5378 23.1732 11.3505 23.2047C11.6411 22.5904 11.9453 21.9433 12.2509 21.2946C12.57 21.2601 12.8891 21.2152 13.2082 21.1912C13.8973 21.1388 14.6179 20.9695 15.1498 21.6002C14.6494 21.8114 14.2044 22.0197 13.7445 22.1874C13.1558 22.4017 12.994 22.7987 13.1932 23.3605C13.4134 23.9762 13.8704 24.123 14.4501 23.9133C14.8097 23.783 15.1483 23.5987 15.5992 23.3919C15.5992 23.6361 15.7041 23.9732 15.5797 24.129C15.1468 24.6773 14.6359 25.1627 14.0337 25.7994C14.4396 25.8144 14.8726 25.9373 15.2322 25.8249C16.2164 25.5163 16.9925 24.3343 17.0089 23.2976C17.0164 22.8017 17.0479 22.3058 17.0689 21.8099L17.0704 21.8084Z" fill="#D8D1A9"/>
<path d="M24.6478 15.3005C24.5235 15.4068 24.3662 15.4922 24.2808 15.6256C23.0613 17.5012 20.3287 18.1469 18.492 16.9184C18.0171 16.6008 17.6801 16.0645 17.3205 15.5971C17.1168 15.3319 16.9984 15.0008 16.8411 14.6997C16.7632 14.7282 16.6868 14.7552 16.6089 14.7836C16.8471 15.5327 17.0853 16.2832 17.3325 17.0593C16.1475 17.3244 15.361 16.6623 14.6808 15.8428C13.7759 14.7537 13.2396 13.5222 13.4149 12.0585C13.4419 11.8383 13.4104 11.6106 13.4059 11.3874C14.2898 9.94917 15.689 9.281 17.2351 8.85104C17.6021 8.74917 17.9977 8.69823 18.3782 8.71022C19.6426 8.75067 19.6411 8.76565 20.0471 10.0436C19.9257 10.0211 19.8029 10.0016 19.683 9.97464C18.3917 9.67801 17.1033 9.37539 15.8718 10.1844C14.931 10.8016 14.3467 11.6166 14.4726 12.7941C14.5669 13.6675 15.0868 14.2323 15.8688 14.5874C16.3168 14.7896 16.546 14.7402 16.5909 14.1679C16.6344 13.6151 16.8036 13.0713 16.8965 12.6278C17.3565 13.2525 17.686 13.9582 18.2329 14.3791C19.0853 15.0353 20.1565 15.0233 21.1677 14.7357C22.6374 14.3177 22.7212 14.1364 22.4021 12.6937C22.3961 12.6698 22.4021 12.6443 22.4006 12.6188C22.9025 12.9664 23.4044 13.314 23.9063 13.66C24.1085 14.054 24.3108 14.448 24.513 14.842C24.5385 14.899 24.5639 14.9544 24.5879 15.0113C24.6074 15.1087 24.6269 15.2046 24.6448 15.302L24.6478 15.3005Z" fill="#D8D1A9"/>
<path d="M22.4021 12.6177C22.4021 12.6432 22.3991 12.6687 22.4036 12.6926C22.7212 14.1353 22.6388 14.3166 21.1691 14.7346C20.1579 15.0222 19.0852 15.0342 18.2343 14.378C17.6875 13.9571 17.3594 13.2514 16.898 12.6267C16.8051 13.0702 16.6358 13.614 16.5924 14.1668C16.5474 14.7391 16.3167 14.7885 15.8703 14.5863C15.0882 14.2327 14.5669 13.6679 14.474 12.793C14.3482 11.6155 14.9324 10.802 15.8733 10.1833C17.1047 9.37429 18.3946 9.67692 19.6845 9.97354C19.8043 10.0005 19.9272 10.02 20.0485 10.0425C20.3002 10.3331 20.5339 10.6447 20.8111 10.9084C21.0118 11.0986 21.274 11.226 21.5092 11.3818C21.8073 11.7938 22.1055 12.2043 22.4036 12.6162L22.4021 12.6177Z" fill="#F2EFD3"/>
<path d="M22.4021 12.6177C22.104 12.2057 21.8059 11.7952 21.5077 11.3832C20.6763 10.2311 20.1864 8.93976 20.2358 7.52553C20.2643 6.71355 20.546 5.90905 20.7137 5.10156C20.7782 5.35175 20.8725 5.59894 20.901 5.85212C21.1347 7.95999 23.1677 9.87459 25.5152 8.95924C26.1564 8.70905 26.8096 8.48882 27.4583 8.25512C27.292 8.65661 27.1122 9.05511 26.9714 9.4671C26.9504 9.52852 27.1182 9.65287 27.1976 9.74875C27.2111 9.80717 27.2231 9.8656 27.2366 9.92253C27.2261 10.1188 27.2156 10.315 27.2036 10.5113C26.3976 11.6529 25.8283 12.8858 25.728 14.3016C25.701 14.6911 25.6785 15.0806 25.6531 15.4701C25.3624 14.9952 25.1197 14.4813 24.7647 14.0619C24.5789 13.8416 24.1999 13.7862 23.9077 13.6574C23.4059 13.3098 22.904 12.9622 22.4021 12.6162V12.6177Z" fill="#B3AA80"/>
<path d="M50.2852 49.2992C49.4118 47.8325 50.1114 46.658 50.9594 45.4879C51.1976 45.1583 51.3114 44.7404 51.4822 44.3628C51.4822 44.3179 51.4822 44.2729 51.4822 44.2295C51.4867 44.1786 51.4897 44.1261 51.4942 44.0752C51.5437 43.9314 51.656 43.7756 51.632 43.6437C51.4942 42.8812 50.8485 42.6025 50.2388 42.4662C49.1751 42.2265 48.1129 42.0632 47.4523 41.0565V39.7231C49.8283 40.3868 52.1834 40.8288 54.1654 42.2774C54.1189 42.67 54.1519 43.0924 54.0126 43.4475C53.1541 45.6392 52.0066 47.6557 50.2837 49.3007L50.2852 49.2992Z" fill="#2F2E36"/>
<path d="M17.0703 21.8086C17.0493 22.3045 17.0179 22.8003 17.0104 23.2962C16.9939 24.3329 16.2179 25.5164 15.2336 25.8236C14.874 25.9359 14.4411 25.8131 14.0351 25.7981C14.6373 25.1614 15.1482 24.676 15.5812 24.1277C15.7055 23.9704 15.6006 23.6348 15.6006 23.3906C15.1512 23.5973 14.8111 23.7816 14.4516 23.9119C13.8733 24.1217 13.4149 23.9749 13.1946 23.3591C12.9954 22.7973 13.1572 22.4003 13.746 22.1861C14.2059 22.0183 14.6508 21.8101 15.1512 21.5988C14.6194 20.9681 13.8973 21.1374 13.2096 21.1899C12.889 21.2138 12.5714 21.2588 12.2523 21.2932C12.2643 21.1884 12.2748 21.085 12.2868 20.9801C12.3018 20.9157 12.3182 20.8513 12.3332 20.7869C12.3467 20.4902 12.3602 20.1951 12.3647 20.0872C12.8486 19.6722 13.2111 19.3636 13.5722 19.0535C14.0186 19.0056 14.4651 18.9576 14.9115 18.9082C15.0164 18.9531 15.1212 18.9996 15.2246 19.0445C15.8403 19.9659 16.4561 20.8872 17.0703 21.8086Z" fill="#F2EFD3"/>
<path d="M25.9872 3.14043C26.3692 2.18013 27.0868 1.62283 28.0935 1.47602C29.5557 1.26328 31.0119 1.16291 32.2913 2.14118C32.5535 3.52695 32.2838 4.17264 31.1722 4.4468C30.6673 4.57114 30.0546 4.56215 29.5737 4.38687C29.1048 4.21609 28.7407 3.75466 28.3198 3.41309C28.1984 4.13669 28.8082 4.61159 29.37 5.29324C28.7902 5.29324 28.3557 5.35916 27.9482 5.28125C26.7842 5.05803 26.1954 4.26253 25.9872 3.14193V3.14043Z" fill="#F2EFD3"/>
<path d="M7.73998 25.5059C7.98867 27.9134 8.20141 30.3254 8.49953 32.7269C8.67182 34.1157 9.57818 35.1823 10.3977 36.231C11.5407 37.6947 12.7902 39.0774 14.0171 40.4752C14.483 41.0055 15.0433 41.4205 15.8164 41.3696C15.2411 42.0467 14.7632 42.2175 14.0771 41.7456C13.3909 41.2752 12.7392 40.6999 12.2194 40.0512C11.1183 38.676 10.149 37.1958 9.05684 35.8115C7.83886 34.27 7.2441 32.5456 7.14223 30.5936C7.05684 28.9636 6.8501 27.3396 6.6853 25.6003C7.03586 25.5688 7.38792 25.5359 7.73998 25.5029V25.5059Z" fill="#1B1919"/>
<path d="M22.7153 2.74065C23.4838 2.04252 24.3842 1.71144 25.5362 1.68896C24.7722 3.32492 24.5205 4.88596 25.3984 6.4545C25.4688 6.6942 25.5407 6.9354 25.6111 7.1751C25.4628 8.2118 25.0763 8.58034 24.155 8.56536C23.4194 8.55338 22.3123 7.71892 22.1565 6.90843C21.9093 5.62754 21.5782 4.30469 22.6179 3.16312C22.7033 3.07024 22.6853 2.88447 22.7153 2.74065Z" fill="#F2EFD3"/>
<path d="M9.83285 38.351C9.91375 39.5884 9.93622 40.8319 10.089 42.0588C10.2913 43.6813 10.9505 45.0611 12.4755 45.8925C12.6224 45.9734 12.7422 46.2371 12.7467 46.4199C12.7557 46.7884 12.6778 47.1599 12.6343 47.53C10.8726 47.1974 9.58267 46.2116 8.64484 44.6701C8.6763 45.0805 8.74072 45.4671 8.9175 45.7936C9.4718 46.8229 10.3078 47.5809 11.307 48.1742C11.74 48.4318 12.143 48.742 12.5594 49.0281C12.5594 49.0281 12.5475 49.0596 12.5475 49.0581C12.4321 49.0521 12.3182 49.0461 12.2029 49.0401C10.0141 48.1921 8.48903 46.7554 8.04858 44.3584C8.08154 44.2925 8.14596 44.2266 8.14596 44.1607C8.12798 41.9255 8.09353 39.6903 8.09203 37.4551C8.09203 37.0521 8.22386 36.6491 8.29428 36.2461C8.41413 36.4034 8.53248 36.5607 8.65233 36.718C8.69577 38.5757 8.72124 40.4334 8.79165 42.2895C8.82611 43.2049 9.84933 44.4648 10.7752 44.718C9.85682 43.6304 9.58117 42.4363 9.65607 41.124C9.70252 40.3075 9.64409 39.485 9.65158 38.6641C9.65158 38.5577 9.77143 38.4543 9.83435 38.348L9.83285 38.351Z" fill="#BBBDBE"/>
<path d="M5.49878 15.2212C4.92949 17.2991 5.41937 19.3066 6.02162 21.2676C6.40065 22.5021 7.85083 23.0534 9.40888 22.7643C9.84634 22.6834 10.2793 22.583 10.7137 22.4931C9.58416 23.6691 6.85608 23.9118 5.53773 22.9006C4.69128 22.2519 3.83136 21.8174 2.71825 22.0002C2.19541 22.0856 1.56919 22.1695 1.28455 21.5283C1.0793 21.0654 1.5632 20.4661 2.34073 20.1231C2.46207 20.7882 2.98642 20.6983 3.45383 20.7178C3.94672 20.7388 4.35271 20.6309 4.46057 20.0631C4.522 20.156 4.58192 20.2489 4.64334 20.3418C4.68829 20.3358 4.73473 20.3313 4.77967 20.3253C4.6808 19.2107 4.60739 18.0916 4.47855 16.98C4.3632 15.9852 4.57593 15.5733 5.49728 15.2212H5.49878Z" fill="#BBBDBE"/>
<path d="M42.3587 20.5351C42.2358 20.619 42.113 20.7029 42.0845 20.7224C41.4882 20.5051 40.9564 20.3119 40.4351 20.1216C40.3976 20.3943 40.3631 20.6355 40.3302 20.8767C40.083 20.8048 39.8358 20.6714 39.5901 20.6759C39.3294 20.6804 39.0073 20.7448 38.8261 20.9081C38.444 21.2527 38.2253 21.2003 37.7534 20.9651C37.3265 20.7523 36.6703 20.998 35.9751 21.052C34.9939 20.5636 33.7459 20.7673 32.495 20.7224C32.5834 20.5111 32.6763 20.2924 32.7692 20.0737C34.3721 20.2639 35.7894 19.7546 37.1167 18.9111C38.1474 19.0115 39.1901 19.0475 40.2058 19.2377C40.7931 19.3471 41.3339 19.7051 41.8942 19.9508C42.05 20.1456 42.2043 20.3403 42.3602 20.5351H42.3587Z" fill="#D8D1A9"/>
<path d="M18.4216 22.4873C18.6523 22.6371 18.8845 22.7854 19.1152 22.9352C19.1646 24.9847 19.1781 27.0356 19.28 29.0821C19.322 29.9285 19.2216 30.6491 18.513 31.1884L18.516 31.1854C17.8658 31.536 17.2156 31.8865 16.5654 32.2371L16.5684 32.2341C16.3497 32.2581 16.1324 32.2821 15.9167 32.306C15.8268 31.7128 15.7414 31.1405 15.6545 30.5682C18.4156 28.7375 19.4583 25.6948 18.4216 22.4873Z" fill="#B97C20"/>
<path d="M25.7399 15.897C25.9062 16.0977 26.0845 16.2895 26.2373 16.5007C27.0642 17.6468 28.826 18.2296 30.0845 16.9187C30.2373 17.3846 30.3077 17.906 30.5654 18.3045C30.9054 18.8288 30.6987 19.1359 30.3257 19.434C28.8215 20.6296 26.0635 19.7412 25.665 17.8805C25.5302 17.2543 25.7069 16.5606 25.7414 15.8985L25.7399 15.897Z" fill="#B3AA80"/>
<path d="M25.6112 7.17494C25.5408 6.93524 25.4688 6.69404 25.3984 6.45434C25.4539 5.75921 25.5093 5.06258 25.5647 4.36745C25.6471 4.4139 25.7835 4.44236 25.8059 4.50828C26.4771 6.42438 28.531 6.52475 30.1041 5.74273C29.9872 5.533 29.8703 5.32476 29.752 5.11652L29.7475 5.12101C29.9318 5.18543 30.1175 5.24985 30.3018 5.31577C31.3655 5.69779 32.6329 5.2064 32.943 4.21165C33.0838 3.75921 33.0089 3.23937 33.0329 2.75098C33.9587 3.65285 34.2898 4.76446 34.2584 6.09329C31.5902 5.27981 29.3909 5.84461 27.6576 7.97194C26.976 7.70528 26.2928 7.44011 25.6112 7.17344V7.17494Z" fill="#B3AA80"/>
<path d="M39.9467 10.1007C39.659 10.258 39.3669 10.4093 39.0838 10.5726C38.4246 10.9516 37.7699 11.3351 37.1122 11.7187C37.1572 10.2879 36.7991 8.95311 36.1489 7.68869C36.4096 7.80854 36.6598 7.96735 36.9324 8.04075C37.3894 8.1651 37.8868 8.37933 38.3212 8.30143C39.8448 8.02877 40.4351 7.23776 40.5759 5.50293C40.7422 5.71417 40.9235 5.91491 41.0703 6.13813C41.4148 6.65948 41.4178 7.05049 40.922 7.59731C40.3991 8.17409 40.1489 9.00105 39.8059 9.73064C39.7669 9.81304 39.8957 9.97633 39.9467 10.1007Z" fill="#B3AA80"/>
<path d="M40.576 5.50426C40.4351 7.23759 39.8449 8.0301 38.3213 8.30276C37.8868 8.38066 37.3894 8.16493 36.9325 8.04209C36.6599 7.96868 36.4097 7.80988 36.149 7.69003C36.0651 7.57917 35.9812 7.46831 35.8973 7.35744C35.7879 7.11025 35.6786 6.86306 35.5692 6.61587V4.30726C35.722 4.2728 35.9467 4.22037 36.17 4.16943C36.158 4.31625 36.17 4.47205 36.1295 4.60988C35.9467 5.21662 36.0037 5.78291 36.5775 6.11849C37.2936 6.53797 38.0546 6.80763 38.8711 6.28629C39.4973 5.88629 39.707 5.35295 39.5138 4.64734C39.8688 4.93348 40.2224 5.21962 40.5774 5.50576L40.576 5.50426Z" fill="#D8D1A9"/>
<path d="M33.0343 2.75232C33.0103 3.2407 33.0853 3.76055 32.9444 4.21299C32.6343 5.20774 31.3669 5.69763 30.3032 5.31711C30.119 5.25119 29.9347 5.18677 29.7489 5.12235C29.689 5.10437 29.6276 5.08639 29.5677 5.06992L29.7534 5.11786C29.8703 5.3261 29.9871 5.53433 30.1055 5.74407C28.531 6.5246 26.4785 6.42422 25.8074 4.50962C25.7834 4.4422 25.6486 4.41524 25.5662 4.36879C25.5856 4.26992 25.6036 4.17254 25.6231 4.07366C25.6426 4.01074 25.6635 3.94632 25.683 3.8834C25.7849 3.63621 25.8868 3.39052 25.9886 3.14333C26.1969 4.26542 26.7856 5.05943 27.9497 5.28265C28.3572 5.36055 28.7916 5.29463 29.3714 5.29463C28.8096 4.61299 28.1999 4.13958 28.3212 3.41449C28.7422 3.75606 29.1062 4.21748 29.5751 4.38827C30.056 4.56355 30.6703 4.57254 31.1736 4.44819C32.2853 4.17254 32.5549 3.52685 32.2927 2.14258C32.5399 2.34632 32.7871 2.55007 33.0343 2.75381V2.75232Z" fill="#D8D1A9"/>
<path d="M25.6111 7.17465C26.2928 7.44132 26.9759 7.70649 27.6576 7.97315C27.5916 8.06753 27.5242 8.16042 27.4583 8.2548C26.8111 8.48851 26.1564 8.70873 25.5152 8.95892C23.1677 9.87427 21.1347 7.95967 20.901 5.85181C20.8725 5.59713 20.7782 5.35143 20.7137 5.10125C21.0628 4.04507 21.7849 3.30499 22.7137 2.7417C22.6838 2.88402 22.7003 3.07129 22.6164 3.16417C21.5767 4.30574 21.9063 5.63009 22.1549 6.90948C22.3122 7.71997 23.4194 8.55443 24.1534 8.56641C25.0748 8.58139 25.4613 8.21285 25.6096 7.17615L25.6111 7.17465Z" fill="#D8D1A9"/>
<path d="M49.6695 17.3862C49.6305 18.4199 49.5976 19.4775 48.444 19.9539C47.4957 20.3465 46.5504 20.3749 45.5302 19.6169C46.4305 19.4341 47.3084 19.5405 47.8418 18.7554C47.4238 18.8109 47.0463 18.8888 46.6642 18.9038C45.9991 18.9307 45.7114 18.4558 45.662 17.9165C45.5796 17.0101 46.2343 17.3502 46.6927 17.3966C47.4792 17.4446 48.2657 17.494 49.0537 17.542C49.1122 17.524 49.1691 17.5045 49.2275 17.4865C49.3743 17.4536 49.5227 17.4206 49.6695 17.3877V17.3862Z" fill="#D8D1A9"/>
<path d="M50.2853 49.2991C52.0081 47.6542 53.1557 45.6377 54.0141 43.4459C54.1534 43.0909 54.1205 42.6669 54.1669 42.2759C54.868 42.8017 54.9639 43.5013 54.6643 44.2549C53.7235 46.6234 52.1594 48.601 50.5579 50.7867C50.4456 50.174 50.3662 49.7365 50.2868 49.2991H50.2853Z" fill="#1B1919"/>
<path d="M39.5137 4.64619C39.7069 5.3518 39.4972 5.88663 38.871 6.28514C38.0545 6.80499 37.295 6.53532 36.5774 6.11735C36.0036 5.78177 35.9452 5.21547 36.1294 4.60873C36.1714 4.47091 36.1579 4.3151 36.1699 4.16828C37.2755 3.86716 38.3362 3.95705 39.3369 4.54431C39.3968 4.57877 39.4553 4.61173 39.5152 4.64619H39.5137Z" fill="#F2EFD3"/>
<path d="M9.8329 38.3507C9.76848 38.4555 9.65013 38.5604 9.65013 38.6668C9.64264 39.4862 9.70106 40.3087 9.65462 41.1267C9.57972 42.439 9.85537 43.6331 10.7737 44.7207C9.84788 44.466 8.82466 43.2076 8.7902 42.2922C8.71979 40.4361 8.69432 38.5784 8.65088 36.7207C9.04489 37.2645 9.43889 37.8083 9.8329 38.3507Z" fill="#B3AA80"/>
<path d="M34.2148 14.9784C34.3077 15.1147 34.51 15.3154 34.474 15.3754C33.9961 16.1844 33.5092 16.9933 32.5264 17.302C31.8882 17.5027 31.3999 17.2975 31.2515 16.6772C31.1077 16.0765 31.1392 15.4323 31.0942 14.8091C31.9587 14.869 32.8231 14.9289 33.6875 14.9889C33.8628 14.9859 34.0381 14.9829 34.2133 14.9799L34.2148 14.9784Z" fill="#F2EFD3"/>
<path d="M45.0343 22.4755C44.4919 22.4875 44.6882 22.8335 44.7751 23.0927C44.9534 23.6261 44.8095 24.041 44.3571 24.4276C44.2852 24.2163 44.2118 24.0575 44.1788 23.8927C44.05 23.2186 43.5946 22.9189 42.9893 23.1032C41.9092 23.4328 40.8515 23.8463 39.8103 24.2867C39.4208 24.4515 39.1032 24.7871 38.7541 25.0448C38.6717 25.0807 38.5908 25.1152 38.5084 25.1511C38.5354 25.0193 38.5159 24.832 38.5953 24.7646C39.2365 24.2208 39.8897 23.689 40.5564 23.1751C40.7901 22.9953 41.0702 22.877 41.3294 22.7302C42.1653 22.1938 43.0807 22.1894 43.9991 22.3931C44.444 22.492 44.5549 22.477 44.2627 22.062L45.0328 22.48L45.0343 22.4755Z" fill="#1B1919"/>
<path d="M7.13622 9.33838C7.0718 10.0125 6.96393 10.6852 6.95195 11.3608C6.93098 12.5564 6.96843 13.7534 6.97742 14.9489C6.98191 15.638 6.9924 16.3286 6.96543 17.0163C6.96094 17.1436 6.79015 17.2635 6.69727 17.3878C6.59989 17.2305 6.50401 17.0717 6.40663 16.9144C6.47704 16.6837 6.62536 16.444 6.60438 16.2223C6.45757 14.7391 6.2703 13.2605 6.10401 11.7788C6.01263 10.9579 5.88379 10.1189 6.67629 9.52564C6.80513 9.42976 6.98191 9.3983 7.13772 9.33838H7.13622Z" fill="#BBBDBE"/>
<path d="M27.5123 20.8065C27.5512 21.4192 27.3295 21.5046 26.7512 21.3114C25.9018 21.0267 25.0149 20.8395 24.131 20.6836C23.9317 20.6492 23.5857 20.8589 23.4703 21.0522C23.2007 21.5061 22.8606 21.3129 22.5205 21.2649C23.3879 20.5368 24.2553 19.8087 25.1782 19.0327C25.6546 19.8357 26.4681 20.4754 27.5108 20.8065H27.5123Z" fill="#D8D1A9"/>
<path d="M33.6875 14.9877C32.8231 14.9278 31.9587 14.8679 31.0943 14.8079C30.9759 14.6581 30.8591 14.5083 30.6643 14.2596C31.731 14.4454 32.7392 14.6701 33.5287 13.966C34.2358 13.3353 34.8321 12.5757 35.4373 11.8386C35.6366 11.596 35.7085 11.2469 35.8388 10.9473C36.0216 12.4244 35.5407 13.6064 34.3003 14.4634C34.0815 14.6147 33.8928 14.8109 33.6905 14.9862L33.6875 14.9877Z" fill="#B3AA80"/>
<path d="M8.29282 36.2477C8.22241 36.6507 8.09057 37.0537 8.09057 37.4567C8.09207 39.6919 8.12653 41.9271 8.1445 44.1623C8.1445 44.2282 8.08158 44.2941 8.04713 44.36C7.88083 42.0919 7.69956 39.8237 7.55574 37.5541C7.5063 36.79 7.54825 36.0215 7.66211 35.187C7.78645 35.3967 7.9108 35.6065 8.03364 35.8162C8.0666 35.8732 8.09956 35.9286 8.13402 35.9855L8.29282 36.2477Z" fill="#E5E7E8"/>
<path d="M12.561 49.0294C12.1445 48.7433 11.7415 48.4332 11.3085 48.1755C10.3093 47.5807 9.47183 46.8227 8.91902 45.795C8.74374 45.4684 8.67782 45.0819 8.64636 44.6714C9.58419 46.213 10.8741 47.1987 12.6359 47.5313C12.6104 48.0317 12.5864 48.5306 12.561 49.0309V49.0294Z" fill="#B3AA80"/>
<path d="M41.8913 19.9508C41.3295 19.7051 40.7887 19.3471 40.2029 19.2377C39.1887 19.0475 38.146 19.0115 37.1138 18.9111C38.7572 17.4879 40.8246 17.9374 41.8913 19.9493V19.9508Z" fill="#B3AA80"/>
<path d="M47.4538 41.0552C48.113 42.0619 49.1752 42.2252 50.2403 42.4649C50.8501 42.6027 51.4973 42.8799 51.6336 43.6424C51.6575 43.7743 51.5452 43.9301 51.4958 44.0739C50.934 43.3728 50.1265 43.1376 49.3085 42.9218C49.0688 42.8589 48.8276 42.799 48.5879 42.7391C47.689 42.5183 47.311 41.957 47.4538 41.0552Z" fill="#1B1919"/>
<path d="M14.5909 36.5952C14.4441 36.1952 14.1834 35.7982 14.17 35.3937C14.131 34.1743 14.1715 32.9518 14.2179 31.7308C14.2269 31.4731 14.3887 31.2214 14.4801 30.9683C14.5759 31.1765 14.7527 31.3817 14.7557 31.5915C14.7812 33.0806 14.7767 34.5713 14.7632 36.0604C14.7617 36.2387 14.6509 36.4169 14.5894 36.5952H14.5909Z" fill="#C7D5DF"/>
<path d="M14.5909 36.5948C14.6509 36.4166 14.7617 36.2383 14.7647 36.06C14.7782 34.5709 14.7827 33.0802 14.7572 31.5911C14.7542 31.3814 14.5774 31.1761 14.4816 30.9679C14.7662 30.893 15.0524 30.8181 15.337 30.7432C15.3055 32.7432 15.2741 34.7432 15.2426 36.7432C15.0269 36.6937 14.8097 36.6443 14.5924 36.5948H14.5909Z" fill="#BBBDBE"/>
<path d="M6.82917 24.8137C6.55352 24.7013 6.27636 24.589 5.83142 24.4062C7.50782 24.2369 8.93853 24.0916 10.3618 23.9478C10.3887 24.5125 10.1745 24.6758 9.07337 24.7942C9.02393 24.8062 8.97299 24.8182 8.92355 24.8316C8.27636 24.8376 7.63067 24.8436 6.98348 24.8481C6.93254 24.8361 6.88011 24.8257 6.82917 24.8137Z" fill="#E5E7E8"/>
<path fill-rule="evenodd" clip-rule="evenodd" d="M43.7979 29.2086C43.8055 29.6024 43.8132 29.9963 43.8227 30.39C43.8005 30.4056 43.7788 30.4215 43.7579 30.4376C43.5919 31.8215 43.5019 33.7411 43.4293 35.2885L43.4293 35.2887C43.4037 35.8353 43.3803 36.3355 43.3564 36.7492L43.3579 36.7507C43.3855 36.8108 43.4131 36.8706 43.4583 36.9685L43.6081 37.293C40.6673 35.8428 38.0381 36.6563 35.4388 37.7979C35.3794 37.8737 35.32 37.9504 35.2375 38.057L35.2374 38.0571L35.1377 38.1859C35.2237 38.1907 35.2977 38.1987 35.3634 38.2059C35.4819 38.2188 35.5733 38.2287 35.659 38.2113C36.1671 38.1104 36.6738 38.0003 37.1806 37.8902L37.1806 37.8902L37.1806 37.8902C38.246 37.6587 39.3115 37.4272 40.3886 37.281C41.7849 37.0907 42.8261 37.693 43.0358 38.9484C43.1572 39.6795 43.2381 40.4286 43.2306 41.1686C43.211 42.994 43.166 44.8186 43.121 46.6429L43.121 46.6433C43.1041 47.3268 43.0873 48.0103 43.0718 48.6937C43.3582 48.6066 43.6442 48.519 43.9438 48.4272L43.9462 48.4265C44.2226 48.3419 44.5108 48.2537 44.8216 48.1589C44.7981 47.9923 44.7727 47.8244 44.7471 47.6554C44.5041 46.0484 44.2472 44.3501 45.4673 42.848C45.4718 42.1523 45.4738 41.4564 45.4759 40.7605V40.7604C45.4778 40.1287 45.4797 39.497 45.4833 38.8654C45.48 39.4783 45.4785 40.0913 45.477 40.7042V40.7043L45.477 40.7051C45.4752 41.4184 45.4734 42.1318 45.4688 42.8451C45.62 42.7758 45.7708 42.7069 45.9216 42.6379L45.9245 42.6366L45.9287 42.6347C46.0813 42.5649 46.2339 42.4951 46.3868 42.425L46.3872 42.4258L46.3872 42.4249L46.3887 42.4242L46.3872 42.4207C46.3947 41.6868 46.4007 40.9529 46.4066 40.2191L46.4201 39.9644V39.6423C46.4276 39.5067 46.4355 39.3711 46.4433 39.2355L46.4434 39.2345C46.4513 39.0993 46.4591 38.964 46.4666 38.8288C46.4718 37.9546 46.4767 37.0805 46.4816 36.2063V36.2063C46.4864 35.3321 46.4913 34.458 46.4965 33.5839C46.4101 33.5868 46.3238 33.5883 46.2374 33.5898L46.2374 33.5898C46.3237 33.5868 46.41 33.5853 46.4964 33.5838L46.4965 33.5838C46.5061 33.3546 46.5134 33.1251 46.5206 32.8955C46.5362 32.4063 46.5517 31.9169 46.5894 31.4295C46.6851 30.1925 46.784 28.9562 46.8829 27.7199L46.883 27.7185L46.883 27.7185L46.8831 27.7183C47.0086 26.1491 47.1341 24.58 47.2531 23.01C47.2561 22.9756 47.1771 22.9358 47.0974 22.8955L47.0974 22.8955C47.0596 22.8764 47.0217 22.8573 46.9922 22.8386L46.9924 22.8377L46.3572 22.7928C46.3572 22.7928 46.3572 22.7928 46.3572 22.7927L45.0358 22.4736C44.5533 22.4843 44.6555 22.7606 44.7451 23.0029C44.7562 23.033 44.7671 23.0625 44.7767 23.0909C44.9549 23.6257 44.8111 24.0392 44.3587 24.4257C44.3348 24.3554 44.3105 24.2912 44.2877 24.2305L44.2877 24.2305L44.2877 24.2305C44.2418 24.1088 44.2014 24.0018 44.1804 23.8909C44.0501 23.2167 43.5947 22.9171 42.9909 23.1013C41.9108 23.4309 40.8531 23.8444 39.8119 24.2849C39.545 24.3978 39.3126 24.5908 39.08 24.7841C38.9731 24.8729 38.8661 24.9618 38.7557 25.0429C38.8448 25.0213 38.9351 25.0026 39.0255 24.9837C39.2238 24.9425 39.4224 24.9012 39.6096 24.8302C39.8727 24.7304 40.1322 24.6184 40.3915 24.5064C40.8175 24.3225 41.2432 24.1386 41.6845 24.0092C42.7093 23.7096 43.5782 24.2609 43.6546 25.3291C43.7479 26.6194 43.7729 27.9142 43.7979 29.2086ZM45.7557 31.3071C45.7288 31.8961 45.6928 32.485 45.6568 33.0739C45.611 33.8217 45.5653 34.5696 45.5381 35.318C45.5651 34.5797 45.6103 33.8419 45.6554 33.1042C45.6921 32.5052 45.7288 31.9062 45.7557 31.3071Z" fill="#F3E798"/>
<path d="M42.5624 54.2385C44.0755 54.646 45.4762 54.5845 46.5489 53.1313C46.6163 53.2122 46.6837 53.2931 46.7511 53.3755C46.6298 53.5688 46.5099 53.7636 46.3886 53.9568C46.2598 54.0122 46.083 54.0317 46.0111 54.1291C45.298 55.0834 44.2657 55.0115 43.256 55.0085C42.7541 55.0085 42.5774 54.6894 42.5624 54.237V54.2385Z" fill="#BBBDBE"/>
<path d="M42.3273 51.7155C43.7175 52.2368 44.9894 52.0375 46.137 51.0728C46.1894 51.1132 46.2419 51.1537 46.2928 51.1941C46.122 51.4158 45.9527 51.6375 45.782 51.8593C45.0464 52.4735 44.2029 52.7177 43.2486 52.6278C42.6733 52.5739 42.3078 52.3492 42.3273 51.7155Z" fill="#BBBDBE"/>
<path d="M10.4336 14.5845C10.071 15.4953 9.7085 16.4062 9.3115 17.4009C8.6688 17.0893 8.94745 16.3972 8.76318 15.9088C8.90251 15.789 9.14371 15.6856 9.16618 15.5493C9.28303 14.7987 9.79389 14.6189 10.4336 14.586V14.5845Z" fill="#BBBDBE"/>
<path d="M13.5062 42.4993C13.0493 42.9982 13.6606 43.2933 13.7474 43.6873C13.7954 43.909 13.9782 44.1023 14.0995 44.3075C12.886 43.8027 12.3692 42.9712 12.501 41.6079C12.8665 41.9315 13.1871 42.2162 13.5062 42.4993Z" fill="#BBBDBE"/>
<path d="M4.46201 20.0618C4.35415 20.6296 3.94666 20.7375 3.45527 20.7165C2.98786 20.6971 2.46351 20.7869 2.34216 20.1218C2.92344 19.972 3.50021 19.7997 4.08748 19.6918C4.18636 19.6738 4.33617 19.9315 4.46201 20.0618Z" fill="#F5F6F6"/>
<path d="M11.7011 32.1562C12.1056 32.2971 12.5101 32.4364 12.9535 32.5907V34.2087C12.4502 33.5136 12.0307 32.9308 11.6112 32.3495C11.6412 32.2851 11.6711 32.2207 11.7011 32.1562Z" fill="#C7D5DF"/>
<path d="M11.9167 17.9855C11.8733 17.548 11.8298 17.1106 11.7639 16.4634C12.1759 17.3008 12.495 17.951 12.8141 18.5997C12.6883 18.7675 12.5609 18.9368 12.3931 19.16C12.1984 18.6806 12.0575 18.333 11.9152 17.9855H11.9167Z" fill="#BBBDBE"/>
<path d="M32.0051 19.8188C31.8224 20.0495 31.6396 20.2802 31.4568 20.5094C31.4853 20.5933 31.5138 20.6757 31.5422 20.7596C31.2366 20.6742 30.931 20.5888 30.6254 20.505C30.8591 20.2623 31.0613 19.9686 31.34 19.7978C31.4973 19.7005 31.7789 19.8053 32.0051 19.8188Z" fill="#D8D1A9"/>
<path d="M14.9116 18.9098C14.4651 18.9577 14.0187 19.0057 13.5723 19.0551C13.6277 18.8064 13.6831 18.5577 13.7371 18.3105C14.1281 18.5113 14.5206 18.7105 14.9116 18.9113V18.9098Z" fill="#D8D1A9"/>
<path d="M35.5692 6.61475C35.6786 6.86194 35.7879 7.10913 35.8973 7.35632C35.6651 7.16306 35.2606 7.04621 35.5692 6.61475Z" fill="#B3AA80"/>
<path d="M49.1571 51.717C49.1391 51.5537 49.1197 51.3904 49.1017 51.2256C49.1197 51.3889 49.1391 51.5522 49.1571 51.717Z" fill="#BBBDBE"/>
<path d="M6.33024 40.6323C6.32725 40.5364 6.32425 40.442 6.32275 40.3477C6.32575 40.4435 6.32875 40.5379 6.33024 40.6323Z" fill="#B3AA80"/>
<path d="M42.2523 51.4058L42.3287 51.7174C42.3033 51.614 42.2778 51.5091 42.2523 51.4058Z" fill="#BBBDBE"/>
<path d="M6.28223 37.0357C6.29271 36.9398 6.3047 36.8439 6.31519 36.7495C6.3047 36.8454 6.29271 36.9398 6.28223 37.0357Z" fill="#B3AA80"/>
<path d="M8.13553 35.9852C8.10257 35.9283 8.06961 35.8728 8.03516 35.8159C8.06812 35.8728 8.10107 35.9283 8.13553 35.9852Z" fill="#BBBDBE"/>
<path d="M6.32725 34.1919C6.30328 34.132 6.27931 34.0736 6.25684 34.0151C6.28081 34.0751 6.30478 34.1335 6.32725 34.1919Z" fill="#B3AA80"/>
<path d="M24.5909 15.0101C24.5654 14.9532 24.54 14.8977 24.516 14.8408C24.5415 14.8977 24.5669 14.9532 24.5909 15.0101Z" fill="#B3AA80"/>
<path d="M8.92346 24.8319C8.9729 24.8199 9.02384 24.8079 9.07327 24.7944C9.02384 24.8064 8.9729 24.8184 8.92346 24.8319Z" fill="#BBBDBE"/>
<path d="M51.4838 44.228C51.4838 44.273 51.4838 44.3179 51.4838 44.3614C51.4643 44.3284 51.4433 44.2969 51.4238 44.264C51.4433 44.252 51.4643 44.24 51.4838 44.228Z" fill="#1B1919"/>
<path d="M27.2366 9.92405C27.2231 9.86562 27.2111 9.8072 27.1976 9.75027C27.2156 9.70382 27.2486 9.67836 27.298 9.67236C27.277 9.75626 27.2561 9.84015 27.2366 9.92405Z" fill="#D8D1A9"/>
<path d="M46.4066 40.219C46.4111 40.1336 46.4156 40.0497 46.4201 39.9644C46.4156 40.0483 46.4111 40.1336 46.4066 40.219Z" fill="#BBBDBE"/>
<path d="M37.0673 48.4271C37.0508 48.6953 37.0343 48.9634 37.0073 49.3874C38.898 48.7552 40.3961 47.6481 41.8912 46.5395C41.9392 46.5949 41.9871 46.6518 42.0351 46.7073C41.8133 46.9739 41.6021 47.2511 41.3669 47.5058C40.2523 48.7118 38.9294 49.6166 37.4178 50.2563C37.1901 50.3537 36.8905 50.541 36.8351 50.7447C36.516 51.8983 35.7834 52.6324 34.6912 53.0518C33.7549 52.9559 32.8021 52.941 31.8883 52.7462C30.516 52.4526 29.6381 51.6331 29.5602 50.126C29.5497 49.9267 29.3759 49.675 29.2036 49.5552C28.1459 48.8256 27.0658 48.1275 25.9931 47.4189L25.9557 47.3814C25.7729 47.1852 25.5886 46.9889 25.4059 46.7927C24.9519 46.1724 24.498 45.5522 24.0441 44.932C24.095 44.8736 24.1459 44.8136 24.1969 44.7552C24.3991 44.932 24.6313 45.0833 24.7991 45.287C26.1654 46.9545 27.8987 48.2219 29.5811 48.6968C29.5287 48.3237 29.4838 48.0031 29.4388 47.6825C29.2321 47.4518 29.0508 47.1897 28.8141 46.9964C28.1624 46.4646 27.4718 45.9792 26.8246 45.4413C26.4291 45.1133 26.0845 44.7222 25.716 44.3597L25.7429 44.3582C25.4403 43.8548 25.1377 43.3515 24.8351 42.8481L24.8396 42.8571C24.7377 42.6488 24.6358 42.4406 24.534 42.2339C24.4665 41.5717 24.2973 40.899 24.3527 40.2473C24.477 38.7867 25.5122 37.8099 26.9759 37.6331C28.6448 37.4309 30.1969 37.9118 31.68 38.5724C33.8957 39.5597 36.11 40.4841 38.5849 40.5889C39.0912 40.6099 39.6156 40.7912 40.0845 41.0024C41.7309 41.7455 42.2178 42.9874 41.5676 44.6503C40.9264 45.308 40.2852 45.9672 39.6455 46.6249C38.9234 46.9829 38.2163 47.3784 37.4718 47.6825C37.0718 47.8458 36.9145 48.0241 37.0718 48.4316L37.0673 48.4271ZM37.2441 42.505C37.4897 42.5155 37.7339 42.5275 37.9796 42.538C38.8705 42.6389 39.3894 42.3422 39.5362 41.6481C39.0673 41.5672 38.5984 41.4863 38.1294 41.4069C36.3572 41.2391 34.6583 40.8136 33.0193 40.0945C31.7714 39.5462 30.465 39.1297 29.1856 38.6548C29.1227 38.6399 29.0598 38.6264 28.9969 38.6114C28.8516 38.5919 28.7062 38.5709 28.5609 38.5515C28.1594 38.5065 27.7564 38.4601 27.3834 38.4181C26.9414 39.4713 27.722 39.6481 28.2703 39.9732C30.9399 41.344 33.7654 42.1769 36.7557 42.4511C36.919 42.4691 37.0823 42.487 37.247 42.505H37.2441ZM32.868 46.8975C32.2838 45.6166 30.7017 45.3425 29.8628 46.2788C30.059 46.8076 30.3182 47.2721 30.3931 47.7664C30.486 48.3672 30.4276 48.9904 30.4291 49.6046C30.4351 51.0938 30.7617 51.5627 32.1834 51.9192C32.7527 52.0616 33.3579 52.1275 33.9452 52.117C34.5909 52.105 35.2426 51.9777 35.5392 51.2586C36.2927 50.0646 36.1564 48.7912 35.8763 47.5058C35.7999 46.3612 34.901 45.8893 33.4463 46.2878C33.5212 46.541 33.5946 46.7942 33.6695 47.0458V48.3807C33.6306 48.3807 33.5916 48.3807 33.5542 48.3807C33.3265 47.8863 33.0972 47.3919 32.8695 46.8975H32.868ZM27.6051 45.1118C28.7662 43.284 30.5295 42.938 32.3841 43.1627C34.6493 43.4384 36.6763 44.2324 37.4283 46.7732C38.8321 46.2309 40.092 45.5148 40.8036 44.1185C41.1002 43.5372 41.1302 42.9485 40.5609 42.4481C39.7474 43.5237 39.4733 43.6945 38.5115 43.6196C35.0703 43.353 31.716 42.6818 28.5849 41.1882C27.5677 40.7028 26.1579 40.4346 26.3707 38.7178C25.4433 39.2226 25.0163 39.9642 25.1287 40.908C25.3355 42.6518 26.3482 43.9492 27.6051 45.1133V45.1118Z" fill="#090808"/>
<path d="M23.4508 36.4423C24.0995 36.0632 24.125 35.5389 24.0995 34.8063C24.0261 32.7689 24.1295 30.7239 24.1969 28.6835C24.2089 28.3209 24.3467 27.9494 24.486 27.6063C25.0089 26.3134 26.2583 25.867 27.4972 26.5157C28.456 27.0176 29.1077 27.8415 29.4238 28.8198C30.056 30.7839 30.5534 32.7898 31.1062 34.7794C31.1257 34.8513 31.1242 34.9277 31.1407 35.0011C31.3235 35.843 31.2515 36.7988 32.1654 37.3187C31.7864 37.2183 31.3939 37.1554 31.0313 37.0131C28.7092 36.1037 26.3722 35.452 23.8943 36.4213C23.7639 36.4722 23.6006 36.4363 23.4523 36.4423H23.4508ZM28.4201 33.7741C29.4763 34.0722 29.7834 34.7824 29.8883 35.7097C29.9167 35.9659 30.3497 36.1756 30.5969 36.4078C30.7062 36.3389 30.8141 36.27 30.9235 36.2011C30.3332 34.0258 29.8118 31.828 29.1152 29.6872C28.8411 28.8453 28.2613 28.0498 27.659 27.3801C26.9534 26.5966 25.7714 26.6535 25.3145 27.4191C25.0074 27.9359 24.895 28.5681 24.6957 29.1479C26.4351 28.1801 27.4927 28.3869 28.3152 29.9374C28.6163 30.5052 28.7617 31.1509 29.0313 31.7382C29.4059 32.5516 29.4133 33.2363 28.4201 33.7756V33.7741ZM27.3864 30.9981C27.4059 30.4678 26.9564 29.9794 26.4306 29.9584C25.8733 29.9359 25.3879 30.3494 25.3789 30.8722C25.3684 31.4715 25.6051 31.882 26.2613 31.9284C26.871 31.9719 27.3669 31.5569 27.3864 30.9996V30.9981Z" fill="#090808"/>
<path d="M43.3565 36.7496C43.4059 36.8575 43.4553 36.9638 43.6067 37.2919C40.6658 35.8432 38.0366 36.6567 35.4374 37.7968C35.5482 37.3549 35.713 36.9204 35.761 36.471C36.0291 33.9751 36.0876 31.4388 37.0958 29.0837C37.4059 28.3601 37.7909 27.6395 38.2748 27.0223C39.3774 25.6185 41.1093 25.7444 41.8119 27.3654C42.2733 28.4305 42.4651 29.6545 42.5625 30.826C42.6913 32.3841 42.6598 33.9601 42.5954 35.5241C42.5685 36.1863 42.7467 36.5578 43.355 36.7466L43.3565 36.7496ZM39.6876 33.8208C40.5395 33.8987 40.9695 34.3481 40.9774 35.1691C40.9804 35.4103 40.9774 35.653 40.9774 35.9271C41.316 35.9571 41.5767 35.9811 41.9228 36.011C42.0876 33.4687 42.1475 30.9893 41.6142 28.5324C41.5318 28.1534 41.343 27.7788 41.1288 27.4492C40.5415 26.5474 39.746 26.4425 39.0284 27.235C38.504 27.8133 38.11 28.5099 37.6576 29.1541C39.0044 28.835 39.9377 29.1541 40.4726 30.4335C41.0898 31.9107 40.9625 32.5623 39.6861 33.8208H39.6876ZM39.4868 30.9069C39.4434 30.435 39.1542 30.1174 38.5864 30.1009C37.9752 30.083 37.5078 30.5818 37.5407 31.211C37.5707 31.7983 37.9632 31.9571 38.4636 31.9526C39.0598 31.9481 39.4928 31.5316 39.4868 30.9069Z" fill="#090808"/>
<path d="M25.9901 47.4189C27.0628 48.1276 28.143 48.8257 29.2006 49.5553C29.3729 49.6751 29.5467 49.9268 29.5572 50.1261C29.6351 51.6347 30.513 52.4526 31.8853 52.7463C32.7991 52.9425 33.7534 52.956 34.6883 53.0519C34.2763 53.2482 33.8688 53.5987 33.4493 53.6152C31.4853 53.6871 29.1107 53.1493 28.8261 50.3972C28.8051 50.1995 28.5849 49.9957 28.4126 49.8444C27.7415 49.2556 27.0388 48.7028 26.3782 48.1021C26.1939 47.9343 26.1145 47.6497 25.9886 47.4189H25.9901Z" fill="#D29A2A"/>
<path d="M21.5752 22.9336C21.749 22.8887 21.9213 22.8452 22.095 22.8003C22.937 22.8093 23.7789 22.8183 24.6224 22.8273C24.6853 22.8542 24.7467 22.8827 24.8097 22.9097C25.1587 22.9741 25.5078 23.04 25.8568 23.1044L25.8479 23.0984C26.4546 23.431 27.0718 23.7456 27.6621 24.1037C27.8868 24.24 28.0531 24.4752 28.2464 24.6655C27.6231 24.4332 27.0014 24.1995 26.3782 23.9688C25.1063 23.5014 23.8089 23.1808 22.4621 23.5823C22.1175 23.6842 21.6936 23.9194 21.5662 24.2085C21.4853 24.3898 21.8898 24.7853 22.0756 25.0849C21.6471 25.2947 20.94 25.064 20.7228 24.5861C20.498 24.0932 20.6194 23.6288 21.0374 23.2722C21.1977 23.1359 21.3954 23.0445 21.5752 22.9336Z" fill="#1B1919"/>
<path d="M23.4508 36.4424C23.5991 36.4379 23.7624 36.4724 23.8927 36.4214C26.3706 35.4521 28.7077 36.1038 31.0298 37.0132C31.3924 37.1555 31.7849 37.2184 32.1639 37.3188C32.2508 37.4222 32.3392 37.527 32.4261 37.6304C32.4036 37.6873 32.3811 37.7458 32.3571 37.8027C32.0695 37.7368 31.7609 37.7188 31.4987 37.5974C29.1542 36.5188 26.7197 36.4454 24.2328 36.9098C23.9916 36.9547 23.7639 37.0686 23.5287 37.148C23.3085 37.2214 23.0882 37.2903 22.868 37.3607C22.8336 37.3068 22.7991 37.2529 22.7646 37.1974C22.9939 36.9458 23.2231 36.6926 23.4523 36.4409L23.4508 36.4424Z" fill="#F3E798"/>
<path d="M22.0741 25.0848C21.8884 24.7852 21.4839 24.3897 21.5648 24.2084C21.6921 23.9193 22.1161 23.6841 22.4606 23.5822C23.8075 23.1822 25.1048 23.5013 26.3767 23.9687C27 24.1979 27.6217 24.4331 28.2449 24.6653C28.5505 25.1013 28.2734 25.0578 27.9782 24.9814C27.2816 24.8017 26.576 24.6489 25.8943 24.4241C24.4936 23.9642 23.2052 24.0481 22.0726 25.0848H22.0741Z" fill="#F3E798"/>
<path d="M37.4224 51.4819C38.5505 50.577 40.2868 51.2587 40.4965 52.607C39.4793 52.2355 38.5145 51.8819 37.4224 51.4819Z" fill="#F3E798"/>
<path d="M25.713 44.3584C26.0801 44.721 26.4246 45.112 26.8216 45.4401C27.4688 45.9779 28.158 46.4633 28.8111 46.9951C29.0478 47.1884 29.2291 47.4506 29.4359 47.6813C28.9879 47.5 28.4621 47.4131 28.1085 47.1195C27.3175 46.4618 26.6014 45.7127 25.8853 44.9712C25.755 44.8363 25.7669 44.5652 25.7145 44.3569L25.713 44.3584Z" fill="#F3E798"/>
<path d="M35.4329 23.3966C35.3026 23.2918 35.1707 23.1869 35 23.0506C35.1662 22.8738 35.3056 22.7255 35.5647 22.4498C35.0614 22.3854 34.6988 22.339 34.3378 22.2925C34.3258 22.2206 34.3123 22.1487 34.2988 22.0753C34.6464 22.0019 34.9985 21.8581 35.343 21.8761C35.6816 21.894 36.0112 22.0783 36.4516 22.2251C36.5191 22.3375 36.6554 22.5682 36.7932 22.7989C36.3393 22.9981 35.8868 23.1974 35.4329 23.3966Z" fill="#F3E798"/>
<path d="M37.0674 48.427C36.9101 48.0195 37.0674 47.8427 37.4674 47.6779C38.2119 47.3738 38.919 46.9783 39.6411 46.6203C39.8104 46.6113 39.9782 46.6008 40.1475 46.5918C39.3056 47.5131 38.1985 47.9896 37.0689 48.4255L37.0674 48.427Z" fill="#F3E798"/>
<path d="M40.1459 46.5921C39.9766 46.601 39.8088 46.6115 39.6395 46.6205C40.2807 45.9613 40.9219 45.3037 41.5616 44.646C41.4238 45.5374 40.8994 46.1501 40.1444 46.5936L40.1459 46.5921Z" fill="#B3AA80"/>
<path d="M38.7437 23.4012C38.6269 23.2469 38.4995 23.0985 38.3977 22.9352C38.2793 22.7435 38.1715 22.5427 38.0906 22.3345C38.0696 22.2806 38.1535 22.1472 38.2224 22.1113C38.2913 22.0738 38.4621 22.0798 38.4831 22.1218C38.6913 22.5173 38.8771 22.9248 39.0688 23.3278C38.961 23.3517 38.8516 23.3757 38.7437 23.4012Z" fill="#F3E798"/>
<path d="M24.8321 42.8452C25.1347 43.3486 25.4373 43.852 25.7399 44.3553C25.1377 44.0317 24.8276 43.5329 24.8321 42.8452Z" fill="#B3AA80"/>
<path d="M24.531 42.2295C24.6329 42.4377 24.7347 42.646 24.8366 42.8527C24.7347 42.6445 24.6329 42.4362 24.531 42.2295Z" fill="#B3AA80"/>
<path d="M37.8389 23.1807C37.9347 23.2556 38.0321 23.332 38.128 23.4084C38.0321 23.3335 37.9347 23.2571 37.8389 23.1807Z" fill="#F3E798"/>
<path d="M37.2081 22.8271C37.2636 22.8751 37.319 22.9215 37.3744 22.9695C37.319 22.9215 37.2636 22.8736 37.2081 22.8271Z" fill="#F3E798"/>
<path d="M19.1048 49.2314C18.116 50.0195 16.9759 50.5588 15.7295 51.2419C16.0216 50.4554 17.8164 49.3768 19.1048 49.2314Z" fill="#B97C20"/>
<path d="M17.0148 32.3868C17.7369 32.0871 18.4575 31.789 19.298 31.4399C19.2051 31.6467 19.1811 31.8654 19.0673 31.9328C18.05 32.5261 17.0178 33.0909 15.9901 33.6647C15.9332 33.6092 15.8763 33.5538 15.8193 33.4984C15.9841 33.3216 16.1369 33.1313 16.3137 32.968C16.5384 32.7628 16.7811 32.577 17.0163 32.3838L17.0133 32.3868H17.0148Z" fill="#B97C20"/>
<path d="M18.5131 31.1882C18.7228 31.0968 18.9325 31.0054 19.1423 30.9155C19.1722 30.974 19.2022 31.0324 19.2322 31.0893C18.4936 31.5223 17.7535 31.9537 17.0149 32.3867L17.0179 32.3837C16.6749 32.5425 16.3318 32.7028 15.9887 32.8616C15.9633 32.8151 15.9378 32.7687 15.9138 32.7223C16.1325 32.559 16.3513 32.3972 16.57 32.2339L16.567 32.2369C17.2172 31.8863 17.8674 31.5358 18.5176 31.1852L18.5146 31.1882H18.5131Z" fill="#B97C20"/>
<path d="M27.6576 15.7143C27.2022 15.7068 26.5505 15.2559 26.3617 14.8364C26.1729 14.4139 26.3437 13.7383 26.5505 13.2574C26.7452 12.8049 27.2231 12.6087 27.7385 12.9562C27.9003 13.0656 28.0771 13.166 28.2628 13.2244C28.8651 13.4162 29.4044 13.6514 29.2965 14.4379C29.2126 15.0461 28.4831 15.7278 27.6576 15.7143Z" fill="#F2EFD3"/>
<path d="M8.95641 19.9943C8.95641 19.4729 8.92944 18.9486 8.97139 18.4302C8.98487 18.2669 9.18263 18.1201 9.29498 17.9658C9.33993 18.1336 9.45079 18.3134 9.42083 18.4647C9.31896 18.983 9.16615 19.4909 9.03431 20.0033C9.00884 20.0003 8.98188 19.9973 8.95641 19.9943Z" fill="#2F2E36"/>
<path d="M18.2164 48.2667L17.9062 48.5273C17.8793 48.4764 17.8508 48.424 17.8239 48.373C17.9542 48.3371 18.083 48.2996 18.2134 48.2637L18.2164 48.2667Z" fill="#D29A2A"/>
<path d="M18.516 47.9674C18.4156 48.0677 18.3167 48.1666 18.2164 48.267L18.2134 48.264C18.3138 48.1636 18.4126 48.0647 18.513 47.9644L18.516 47.9674Z" fill="#D29A2A"/>
<path d="M17.0149 48.8633C17.1258 48.7898 17.2381 48.7179 17.349 48.6445C17.3699 48.6835 17.3894 48.7239 17.4104 48.7629C17.2801 48.7973 17.1482 48.8318 17.0179 48.8663L17.0149 48.8633Z" fill="#D29A2A"/>
<path d="M16.7153 49.1629C16.8157 49.0625 16.9146 48.9637 17.015 48.8633L17.018 48.8663C16.9176 48.9667 16.8172 49.0655 16.7183 49.1659L16.7153 49.1629Z" fill="#D29A2A"/>
<path d="M16.7183 49.1656C16.5685 49.215 16.4186 49.266 16.2688 49.3154L16.2673 49.3124C16.4171 49.263 16.567 49.212 16.7168 49.1626L16.7198 49.1656H16.7183Z" fill="#D29A2A"/>
<path d="M24.6224 22.8273C23.7805 22.8183 22.9385 22.8093 22.0951 22.8003C22.3333 22.5966 22.573 22.3928 22.8427 22.1621C23.1992 22.6445 23.5588 23.034 23.9333 22.1996C23.9558 22.1501 24.3408 22.1741 24.4486 22.2775C24.57 22.3928 24.57 22.6385 24.6224 22.8273Z" fill="#E7C03D"/>
<path d="M25.8553 23.1045C25.5062 23.0401 25.1572 22.9742 24.8081 22.9097C24.9684 22.7075 25.1272 22.5052 25.3474 22.2251C25.5527 22.5787 25.704 22.8408 25.8553 23.1045Z" fill="#E7C03D"/>
<path d="M32.4636 21.4192C32.4036 21.3503 32.3362 21.3069 32.3302 21.2574C32.3242 21.2005 32.3722 21.1361 32.3961 21.0762C32.4561 21.1256 32.5355 21.1661 32.5699 21.229C32.5849 21.2574 32.5145 21.3339 32.4636 21.4192Z" fill="#D8D1A9"/>
<path d="M29.1078 23.1509C29.0179 23.082 28.9295 23.0131 28.8396 22.9427C28.8666 22.9082 28.895 22.8753 28.922 22.8408C29.0074 22.9157 29.0943 22.9906 29.1797 23.0655C29.1542 23.0925 29.1302 23.121 29.1063 23.1509H29.1078Z" fill="#E7C03D"/>
<path d="M29.7534 5.1163L29.5676 5.06836C29.6276 5.08634 29.689 5.10431 29.7489 5.12079L29.7534 5.1163Z" fill="#B3AA80"/>
<path d="M27.6036 45.1118C26.3467 43.9463 25.3355 42.6504 25.1272 40.9066C25.0149 39.9627 25.4418 39.2212 26.3692 38.7163C26.1564 40.4347 27.5662 40.7028 28.5834 41.1867C31.7145 42.6788 35.0688 43.35 38.51 43.6182C39.4718 43.6931 39.7459 43.5223 40.5594 42.4466C41.1287 42.947 41.0972 43.5358 40.8021 44.117C40.0905 45.5133 38.8306 46.2294 37.4268 46.7717C36.6733 44.2309 34.6478 43.4369 32.3826 43.1612C30.528 42.9365 28.7647 43.2826 27.6036 45.1103V45.1118Z" fill="#1B1919"/>
<path d="M35.8748 47.5046C36.155 48.7915 36.2913 50.0649 35.5377 51.2574C34.3437 52.1053 33.0958 51.7308 31.8703 51.3818C31.1572 51.178 30.7737 50.6642 30.7962 49.8776C30.8111 49.3608 30.7722 48.8439 30.7527 48.3271C30.6973 46.8544 31.5362 46.2836 32.8651 46.8964C33.0928 47.3907 33.322 47.8851 33.5497 48.3795C33.5887 48.3795 33.6276 48.3795 33.6651 48.3795C33.6651 47.9346 33.6651 47.4896 33.6651 47.0447C34.5624 46.417 35.2006 47.0402 35.8718 47.5031L35.8748 47.5046Z" fill="#C3233F"/>
<path d="M29.1841 38.6537C30.465 39.1286 31.7699 39.5451 33.0178 40.0934C34.6582 40.814 36.3556 41.2379 38.1279 41.4057C38.0785 41.7832 38.0275 42.1608 37.9781 42.5383C37.7324 42.5278 37.4882 42.5158 37.2425 42.5053C37.0792 42.4874 36.9159 42.4694 36.7511 42.4514C33.7624 42.1773 30.9354 41.3443 28.2657 39.9735C28.3631 39.4986 28.459 39.0252 28.5564 38.5503C28.7017 38.5698 28.847 38.5907 28.9923 38.6102C29.0553 38.6252 29.1182 38.6387 29.1811 38.6537H29.1841Z" fill="#F5F6F6"/>
<path d="M32.8681 46.8976C31.5393 46.2849 30.7003 46.8542 30.7558 48.3283C30.7752 48.8452 30.8142 49.3635 30.7992 49.8789C30.7767 50.6654 31.1588 51.1793 31.8734 51.383C33.0988 51.7321 34.3468 52.1051 35.5408 51.2587C35.2441 51.9778 34.5925 52.1036 33.9468 52.1171C33.3595 52.1291 32.7543 52.0632 32.185 51.9194C30.7633 51.5628 30.4367 51.0939 30.4307 49.6047C30.4277 48.9905 30.4876 48.3673 30.3947 47.7665C30.3183 47.2737 30.0606 46.8077 29.8644 46.2789C30.7048 45.3411 32.2869 45.6167 32.8696 46.8976H32.8681Z" fill="#9F1931"/>
<path d="M35.8748 47.5042C35.2036 47.0398 34.5654 46.4181 33.668 47.0458C33.5931 46.7926 33.5197 46.5409 33.4448 46.2877C34.8995 45.8892 35.7984 46.3612 35.8748 47.5057V47.5042Z" fill="#9F1931"/>
<path d="M28.5595 38.5503C28.4621 39.0252 28.3662 39.4986 28.2688 39.9735C27.719 39.6484 26.94 39.4716 27.3819 38.4185C27.755 38.4604 28.158 38.5054 28.5595 38.5518V38.5503Z" fill="#BBBDBE"/>
<path d="M37.9796 42.5379C38.0291 42.1603 38.08 41.7828 38.1294 41.4053C38.5983 41.4862 39.0673 41.5671 39.5362 41.6465C39.3894 42.3416 38.8705 42.6382 37.9796 42.5364V42.5379Z" fill="#BBBDBE"/>
<path d="M36.7542 42.4497C36.9174 42.4677 37.0807 42.4857 37.2455 42.5036C37.0822 42.4857 36.9189 42.4677 36.7542 42.4497Z" fill="#BBBDBE"/>
<path d="M28.4201 33.7739C29.4134 33.2346 29.4059 32.55 29.0314 31.7365C28.7617 31.1507 28.6149 30.5035 28.3153 29.9357C27.4928 28.3852 26.4351 28.1784 24.6958 29.1462C24.8951 28.5665 25.0074 27.9342 25.3145 27.4174C25.77 26.6504 26.9535 26.5949 27.6591 27.3784C28.2628 28.0481 28.8411 28.8421 29.1153 29.6856C29.8119 31.8264 30.3317 34.0241 30.9235 36.1994C30.8141 36.2683 30.7063 36.3372 30.5969 36.4061C30.3497 36.1754 29.9168 35.9642 29.8883 35.708C29.7834 34.7807 29.4778 34.0706 28.4201 33.7724V33.7739Z" fill="#F5F6F6"/>
<path d="M27.3849 30.9981C27.3654 31.5569 26.868 31.9704 26.2598 31.927C25.6036 31.8805 25.3669 31.4715 25.3774 30.8708C25.3864 30.3494 25.8718 29.9345 26.4291 29.9569C26.9564 29.9779 27.4044 30.4663 27.3849 30.9966V30.9981Z" fill="#F5F6F6"/>
<path d="M39.6875 33.8189C40.9639 32.5605 41.0913 31.9088 40.474 30.4316C39.9392 29.1522 39.0059 28.8346 37.6591 29.1522C38.1115 28.508 38.5055 27.8114 39.0298 27.2331C39.7474 26.4406 40.5429 26.5455 41.1302 27.4474C41.3444 27.7754 41.5332 28.15 41.6156 28.5305C42.1474 30.9859 42.0875 33.4668 41.9242 36.0091C41.5797 35.9792 41.3175 35.9552 40.9789 35.9252C40.9789 35.6511 40.9804 35.4084 40.9789 35.1672C40.9709 34.3472 40.541 33.8978 39.689 33.8189H39.6875Z" fill="#F5F6F6"/>
<path d="M39.4868 30.9051C39.4913 31.5298 39.0598 31.9463 38.4635 31.9508C37.9632 31.9553 37.5707 31.795 37.5407 31.2092C37.5077 30.58 37.9752 30.0811 38.5864 30.0991C39.1542 30.1156 39.4433 30.4332 39.4868 30.9051Z" fill="#F5F6F6"/>
</svg>
