<svg width="50" height="54" viewBox="0 0 50 54" fill="none" xmlns="http://www.w3.org/2000/svg">
<path d="M7.52877 11.3301C7.53264 19.5612 7.54812 27.7942 7.5191 36.0252C7.51523 36.9368 7.80938 37.446 8.6183 37.9018C13.735 40.7892 18.8227 43.7242 23.9085 46.6669C24.5877 47.0597 25.1664 47.1303 25.8863 46.7393C31.2627 43.8213 37.0366 41.3486 41.8306 37.5109C42.0802 37.3106 42.2428 36.8586 42.2428 36.523C42.237 30.3897 42.1963 24.2546 42.175 18.1213C42.175 17.5625 42.0028 17.1964 41.4745 16.8989C36.2726 13.9658 31.0785 11.0155 25.9018 8.03656C25.2051 7.63607 24.6864 7.61891 23.9723 8.03656C21.1992 9.65569 18.3796 11.1966 15.5754 12.7624C15.0784 13.0417 14.4898 13.4782 14.4898 12.6479C14.4762 10.5501 14.4511 8.45231 14.5014 6.3564C14.5091 6.02647 14.8013 5.5764 15.0955 5.40285C18.1686 3.59682 21.2572 1.81749 24.3768 0.091564C24.6922 -0.0838896 25.3193 0.0133725 25.6695 0.209804C33.1353 4.41923 40.4423 9.12573 48.1239 12.9416C48.8496 13.3002 49.1128 13.7808 49.107 14.5875C49.0488 23.0407 49.0098 31.4951 48.9754 39.9482C48.9735 40.5546 48.7161 40.9093 48.1645 41.2164C40.6328 45.4066 33.2578 49.8617 25.5689 53.7766C24.9148 54.1084 24.4503 54.097 23.773 53.563C16.1405 49.1366 8.98232 45.4729 2.1179 41.676C1.20641 41.1725 0.887094 40.5794 0.8929 39.5648C0.933539 31.206 0.931604 22.8471 0.914187 14.4883C0.914187 13.7598 1.14641 13.3326 1.80439 12.9817C3.4203 12.1216 4.99363 11.1833 6.58825 10.2831C7.74175 9.63091 7.52877 10.2477 7.52877 11.3301Z" fill="#00D395"/>
<path d="M14.4221 22.1551C14.4414 21.7393 14.7588 21.1786 15.1129 20.9631C18.13 19.1304 21.1934 17.374 24.2259 15.5641C24.7387 15.259 25.1316 15.2781 25.6347 15.5717C28.6285 17.3187 31.6339 19.0465 34.649 20.7572C35.2122 21.0776 35.4637 21.4533 35.4521 22.1188C35.3941 25.4544 35.3689 28.7899 35.3689 32.1254C35.3689 32.812 35.1502 33.2907 34.5271 33.5863C31.3748 35.0772 28.6136 37.1003 25.5322 38.6935C25.2051 38.8632 24.6129 38.8403 24.284 38.6572C21.1373 36.9199 18.01 35.1463 14.9097 33.3307C14.6117 33.1553 14.3872 32.627 14.3737 32.2532C14.2617 28.8972 14.378 25.5131 14.4221 22.1551Z" fill="#00D395"/>
</svg>
