<svg width="52" height="63" viewBox="0 0 52 63" fill="none" xmlns="http://www.w3.org/2000/svg">
<path d="M17.3519 11.7922C17.3971 11.747 17.4521 11.7057 17.4895 11.6545C17.7746 11.2377 18.1797 11.1649 18.6378 11.2515C19.1766 11.3537 19.6092 11.6624 20.0103 12.0124C21.0643 12.9307 21.8724 14.0554 22.5842 15.2391C23.3432 16.4976 24.0314 17.7973 24.7354 19.0872C24.9536 19.4864 25.1345 19.9072 25.3194 20.324C25.3921 20.4872 25.4708 20.5187 25.6418 20.4597C26.389 20.2001 27.1598 20.035 27.9247 20.324C28.548 20.56 29.1517 20.8588 29.7455 21.1656C30.9037 21.7633 31.9969 22.4712 33.0194 23.2813C34.0576 24.1052 35.0113 25.0156 35.8843 26.0184C37.2706 27.6092 38.3973 29.3651 39.3057 31.2665C40.0804 32.8907 40.6703 34.5798 41.04 36.3435C41.0498 36.3868 41.0459 36.432 41.0498 36.4753C40.6035 36.082 40.0883 35.8382 39.5063 35.7182C38.4838 35.5059 37.4711 35.6042 36.4624 35.7969C34.443 36.1803 32.5278 36.8902 30.6893 37.7888C28.8626 38.6834 27.0694 39.645 25.2604 40.5809C24.3736 41.0391 23.4612 41.4599 22.6098 41.977C21.8056 42.4647 21.0564 42.4352 20.2876 41.977C18.803 41.0882 17.2673 40.3017 15.6353 39.7217C14.4673 39.3068 13.2777 38.9863 12.0192 39.0393C10.806 39.0885 9.88185 39.6037 9.32342 40.7166C8.98915 41.3852 8.79252 42.0891 8.78662 42.8343C8.76696 45.0386 9.60854 46.9439 10.8807 48.6821C11.3271 49.2917 11.8364 49.858 12.3181 50.442C12.383 50.5206 12.4518 50.6052 12.5364 50.6563C13.2482 51.0968 13.9384 51.5805 14.6836 51.958C17.5898 53.4347 20.7064 54.115 23.9449 54.2075C25.7657 54.2606 27.5924 54.1681 29.4152 54.1229C29.9421 54.1091 30.4711 54.0561 30.9941 53.9813C32.4492 53.7788 33.9003 53.5546 35.3534 53.3403C34.2916 54.9901 33.2377 56.6457 32.1641 58.2876C31.9851 58.5609 31.7413 58.7949 31.5132 59.0328C30.8368 59.7348 30.245 60.5213 29.4506 61.1053C28.4792 61.821 27.4174 62.3362 26.2376 62.6036C26.1727 62.6174 26.1098 62.6351 26.0449 62.6508C26.0017 62.6547 25.9564 62.6567 25.9132 62.6646C24.9674 62.8494 24.0137 62.871 23.0581 62.7707C21.4811 62.6036 19.9789 62.1533 18.5277 61.5241C16.0875 60.4643 13.8794 59.0328 11.8364 57.3398C11.7636 57.2808 11.6594 57.2336 11.567 57.2277C10.8709 57.1903 10.1709 57.1845 9.47483 57.1314C8.17903 57.033 6.91469 56.7715 5.70344 56.2918C3.63292 55.4738 2.07364 54.1111 1.22026 52.0209C0.40424 50.0232 0.364913 47.9546 0.732613 45.8624C1.00003 44.3445 1.30088 42.8304 1.59189 41.3163C1.71184 40.6969 1.77476 40.0559 1.97925 39.4641C2.8346 36.9688 3.73517 34.4893 4.61214 32.0019C4.65344 31.8839 4.67703 31.7404 4.65147 31.6205C4.43911 30.6216 4.19725 29.6306 3.99669 28.6297C3.64079 26.8541 3.395 25.0628 3.36354 23.2518C3.35174 22.5479 3.41466 21.842 3.44219 21.1381C3.63685 20.2336 3.79809 19.3173 4.49417 18.6212C4.91692 18.1984 5.44979 18.0254 6.02592 17.9821C7.07593 17.9035 7.95684 18.342 8.78072 18.9279C9.99787 19.7951 10.9594 20.9159 11.8147 22.1232C12.383 22.9254 12.8864 23.7729 13.4114 24.6047C13.4861 24.7207 13.549 24.7561 13.6768 24.699C14.2864 24.4238 14.8979 24.1544 15.5075 23.8811C15.5389 23.8673 15.5586 23.8319 15.5861 23.8063C15.6628 23.7867 15.7434 23.7768 15.8142 23.7454C16.1642 23.592 16.5103 23.4347 16.8583 23.2774C17.0628 23.185 17.2693 23.0926 17.4639 23.0061C17.3263 22.2608 17.1847 21.549 17.0648 20.8333C16.7128 18.751 16.4729 16.6608 16.642 14.5431C16.7069 13.7428 16.8465 12.9562 17.169 12.213C17.23 12.0734 17.2889 11.9318 17.3479 11.7922H17.3519ZM7.64026 21.2836C7.10739 21.3367 6.70626 21.7004 6.42311 22.192C5.98856 22.9471 6.05542 23.7906 6.1144 24.6047C6.19896 25.7687 6.42311 26.9151 6.71609 28.0457C6.93042 28.8696 7.14672 29.6935 7.37481 30.5154C7.46723 30.8457 7.68745 31.0935 8.04532 31.0876C8.42875 31.0817 8.82595 31.0561 9.18971 30.946C10.1001 30.6668 10.8925 30.1575 11.6378 29.5755C12.1097 29.2058 12.5324 28.789 12.7763 28.2246C12.9945 27.7173 12.9906 27.2179 12.674 26.7558C12.0291 25.8179 11.3704 24.8878 10.7195 23.9538C10.2024 23.2125 9.70095 22.4594 8.99505 21.8774C8.62145 21.5687 8.22229 21.315 7.64026 21.2855V21.2836ZM23.9272 21.1125C23.9469 21.1066 23.9646 21.0987 23.9842 21.0928C23.8879 20.7959 23.825 20.4833 23.6873 20.208C23.1446 19.1167 22.5999 18.0254 22.014 16.9557C21.6424 16.2754 21.2137 15.6226 20.7811 14.9776C20.5727 14.6669 20.2935 14.4054 19.912 14.2973C19.5423 14.1931 19.3555 14.2756 19.2612 14.6453C19.1845 14.9481 19.1294 15.2667 19.1314 15.5773C19.1353 16.1712 19.1766 16.763 19.2159 17.3568C19.2808 18.3144 19.3555 19.272 19.4342 20.2277C19.4657 20.5993 19.4873 20.9768 19.5699 21.3386C19.7842 22.2766 20.4134 22.8684 21.2648 22.9097C22.016 22.9471 22.7199 22.7524 23.3373 22.3002C23.7365 22.0072 23.9508 21.6178 23.9292 21.1145L23.9272 21.1125ZM14.9176 35.093C14.9392 35.2955 14.9471 35.4489 14.9707 35.6022C15.128 36.6267 15.9538 37.1242 16.9311 36.7801C17.5328 36.5677 18.0027 36.1725 18.3861 35.675C19.0409 34.8177 19.4283 33.8719 19.2946 32.7668C19.21 32.0727 18.7912 31.5693 18.1974 31.4592C17.751 31.3766 17.3283 31.4867 16.9507 31.7188C15.6726 32.4994 15.0572 33.6772 14.9195 35.0949L14.9176 35.093ZM31.8298 30.1221C31.995 30.1025 32.3174 30.0808 32.634 30.0199C33.1433 29.9196 33.625 29.7426 34.0124 29.3789C34.4214 28.9954 34.4942 28.5864 34.2484 28.085C34.0635 27.7075 33.7804 27.4106 33.4461 27.1648C31.8573 25.9988 30.0149 26.7145 29.2284 27.912C28.8174 28.5353 28.9236 29.078 29.5253 29.5185C29.6315 29.5971 29.7455 29.664 29.8635 29.723C30.4318 30.012 31.0433 30.1123 31.8318 30.1241L31.8298 30.1221ZM21.8292 36.8371C21.7977 37.3228 21.6915 37.5253 21.2432 37.7121C20.903 37.8537 20.5314 37.9323 20.1676 38.0051C19.9238 38.0542 19.8746 38.0857 19.973 38.3236C20.0201 38.4357 20.087 38.5576 20.1814 38.6264C20.376 38.766 20.5805 38.9096 20.8047 38.9863C21.719 39.3028 22.6393 39.2478 23.5497 38.9627C23.9252 38.8447 24.2752 38.6756 24.5525 38.3885C24.9202 38.009 24.9064 37.5921 24.4837 37.2756C24.2713 37.1163 24.0137 36.9983 23.7601 36.9197C23.1328 36.725 22.4879 36.7388 21.8292 36.8371ZM29.2756 35.7556C29.2756 35.789 29.2697 35.8264 29.2756 35.8598C29.3523 36.2924 29.6787 36.491 30.0405 36.6404C30.6618 36.8961 31.3127 36.9216 31.9694 36.8528C32.5278 36.7938 33.0686 36.6562 33.5523 36.3514C33.8708 36.1508 34.1795 35.9109 34.152 35.4941C34.1225 35.0536 33.7666 34.859 33.4048 34.7076C32.9093 34.4991 32.3843 34.4441 31.8514 34.4637C31.6214 34.4716 31.3913 34.5031 31.1514 34.5247C31.2163 34.8806 31.0649 35.1087 30.8152 35.2699C30.6441 35.38 30.4573 35.4803 30.2646 35.5373C29.95 35.6298 29.6236 35.6809 29.2756 35.7536V35.7556Z" fill="#E78C19"/>
<path d="M35.3555 53.3363C33.9024 53.5506 32.4512 53.7748 30.9962 53.9773C30.4731 54.0501 29.9442 54.1051 29.4172 54.1189C27.5945 54.1641 25.7678 54.2545 23.9469 54.2034C20.7104 54.111 17.5918 53.4307 14.6856 51.954C13.9424 51.5764 13.2502 51.0927 12.5384 50.6523C12.4539 50.5992 12.385 50.5166 12.3202 50.4379C11.8364 49.8539 11.3291 49.2896 10.8828 48.6781C9.61058 46.9379 8.769 45.0326 8.78867 42.8303C8.79457 42.0851 8.9912 41.3811 9.32547 40.7126C9.88193 39.5977 10.8081 39.0845 12.0213 39.0353C13.2778 38.9842 14.4693 39.3027 15.6373 39.7176C17.2694 40.2977 18.805 41.0842 20.2896 41.973C21.0565 42.4311 21.8076 42.4606 22.6118 41.973C23.4652 41.4558 24.3756 41.0351 25.2624 40.5769C27.0695 39.6429 28.8627 38.6794 30.6914 37.7847C32.5299 36.8842 34.4431 36.1763 36.4645 35.7929C37.4732 35.6021 38.4858 35.5019 39.5083 35.7142C40.0884 35.8361 40.6055 36.0799 41.0519 36.4712C41.8836 37.4328 42.2277 38.5909 42.3752 39.8179C42.6367 42.0143 42.2159 44.1261 41.5297 46.2025C41.3508 46.7452 41.2465 47.3115 41.0519 47.8483C40.3499 49.8009 39.1976 51.4211 37.3729 52.4711C36.7811 52.8113 36.1125 53.0197 35.4794 53.2891C35.44 53.3068 35.3987 53.3206 35.3574 53.3382L35.3555 53.3363ZM39.2763 38.7148C39.2665 38.5614 39.2488 38.4061 39.2507 38.2527C39.2606 37.7552 38.9991 37.4367 38.5724 37.2401C38.3816 37.1516 38.1752 37.0749 37.9687 37.0474C36.3819 36.8252 34.8521 37.0159 33.4049 37.7297C32.7698 38.0423 32.1701 38.4081 31.7001 38.9547C31.0021 39.7668 31.008 40.7204 31.7473 41.4893C32.0088 41.7626 32.3116 42.0084 32.6282 42.2148C33.692 42.905 34.8737 43.3179 36.0948 43.6247C36.7968 43.8016 37.3926 43.5382 37.776 42.9227C37.9707 42.612 38.1555 42.2955 38.3364 41.9749C38.9086 40.9623 39.2743 39.8907 39.2763 38.7128V38.7148Z" fill="#FEFEFE"/>
<path d="M30.6717 5.14612C30.6363 7.14979 30.5753 9.00205 30.0995 10.8091C29.9874 11.2397 29.7888 11.6467 29.6256 12.0636C29.604 12.1167 29.5666 12.1658 29.5332 12.213C29.1655 12.7439 28.7093 12.797 28.3101 12.2897C27.9955 11.8906 27.7242 11.4403 27.5118 10.9782C26.9101 9.66863 26.5759 8.27255 26.3242 6.85877C26.0568 5.35651 25.9073 3.84442 25.9584 2.3166C25.9781 1.75423 26.1098 1.22136 26.5424 0.814336C26.9062 0.472198 27.3683 0.362084 27.8422 0.342421C28.2571 0.324724 28.6798 0.346354 29.0927 0.405343C29.7259 0.495793 30.1585 0.879224 30.3315 1.48878C30.4593 1.9371 30.5399 2.40705 30.5753 2.8711C30.6363 3.67728 30.6461 4.4874 30.6717 5.14612Z" fill="#E72D36"/>
<path d="M42.1903 19.6042C42.153 19.6042 42.1176 19.6042 42.0802 19.6042C41.4412 19.5668 41.1993 19.2385 41.3606 18.6171C41.4962 18.0882 41.7813 17.632 42.0881 17.1915C43.0457 15.8171 44.2294 14.655 45.4996 13.5735C46.4592 12.7575 47.4679 12.0083 48.5572 11.3732C48.9171 11.1648 49.3005 11.0213 49.7233 11.0036C50.1677 10.9839 50.5471 11.1451 50.8637 11.444C51.3533 11.9081 51.6994 12.4665 51.9137 13.1055C52.0868 13.6188 51.9963 14.1005 51.6719 14.5233C51.4753 14.7769 51.257 15.0286 51.0014 15.2193C48.9761 16.7354 46.8328 18.0548 44.485 19.0222C43.8381 19.2876 43.1755 19.5079 42.4755 19.5885C42.3811 19.5983 42.2847 19.6062 42.1903 19.616C42.1903 19.614 42.1903 19.6101 42.1903 19.6081V19.6042Z" fill="#E72D36"/>
<path d="M35.9807 12.2621C36.0024 10.7893 36.2875 9.35783 36.6788 7.94602C37.0897 6.46145 37.6167 5.02211 38.3226 3.6516C38.3324 3.63193 38.3442 3.61227 38.3541 3.59261C38.9735 2.48164 39.7895 2.19259 40.9614 2.68221C41.2249 2.79232 41.4825 2.9221 41.7263 3.07154C42.5187 3.55525 42.8019 4.17464 42.5718 5.07324C42.4263 5.63954 42.21 6.1901 41.9819 6.73084C41.16 8.67945 40.2083 10.5592 38.9774 12.2876C38.5546 12.8815 38.1024 13.4537 37.5164 13.9C37.367 14.0141 37.1959 14.1124 37.0209 14.1812C36.6611 14.3247 36.3602 14.2205 36.2246 13.8587C36.1007 13.5264 36.0456 13.1666 35.9866 12.8146C35.9571 12.6357 35.9807 12.4469 35.9807 12.264V12.2621Z" fill="#E72D36"/>
<path d="M17.3518 11.7925C17.2928 11.9321 17.2338 12.0737 17.1728 12.2133C16.8504 12.9565 16.7088 13.7431 16.6459 14.5433C16.4768 16.6591 16.7167 18.7513 17.0686 20.8336C17.1905 21.5493 17.3302 22.2611 17.4678 23.0063C17.2731 23.0929 17.0686 23.1853 16.8622 23.2777C16.5141 23.435 16.1661 23.5923 15.8181 23.7457C15.7473 23.7771 15.6667 23.787 15.59 23.8066C15.6037 22.4047 15.586 21.0007 15.6372 19.5987C15.7099 17.5793 15.8849 15.5658 16.4768 13.6192C16.64 13.0843 16.9054 12.579 17.1375 12.0658C17.1827 11.9635 17.281 11.8849 17.3557 11.7944L17.3518 11.7925Z" fill="#3B3116"/>
<path d="M33.684 16.6291C33.6859 15.6597 34.4902 14.8555 35.4556 14.8555C36.4329 14.8555 37.2332 15.6577 37.2391 16.6428C37.245 17.6004 36.4309 18.4145 35.4635 18.4145C34.4823 18.4145 33.68 17.6103 33.682 16.6291H33.684Z" fill="#E72D36"/>
<path d="M37.6146 21.0066C37.6127 20.0274 38.4188 19.2173 39.3961 19.2212C40.3635 19.2232 41.1638 20.0235 41.1736 20.9928C41.1815 21.9603 40.3596 22.7842 39.3882 22.7802C38.4208 22.7763 37.6166 21.9721 37.6146 21.0066Z" fill="#E72D36"/>
<path d="M29.1538 17.0111C28.1746 17.0052 27.3822 16.2108 27.3861 15.2395C27.3901 14.2426 28.1923 13.4619 29.201 13.4718C30.1724 13.4816 30.951 14.2819 30.9432 15.265C30.9353 16.2384 30.135 17.019 29.1538 17.0131V17.0111Z" fill="#E72D36"/>
<path d="M7.64015 21.2837C8.22218 21.3152 8.61938 21.5669 8.99494 21.8756C9.70085 22.4596 10.2023 23.2127 10.7194 23.952C11.3702 24.886 12.029 25.8141 12.6739 26.754C12.9905 27.2161 12.9944 27.7155 12.7762 28.2228C12.5323 28.7871 12.1115 29.206 11.6377 29.5737C10.8924 30.1557 10.098 30.665 9.18961 30.9442C8.82781 31.0563 8.42864 31.0799 8.04521 31.0858C7.68734 31.0917 7.46515 30.8439 7.3747 30.5136C7.14661 29.6936 6.93032 28.8697 6.71599 28.0439C6.42104 26.9132 6.19885 25.7669 6.1143 24.6028C6.05531 23.7868 5.98649 22.9452 6.42301 22.1902C6.70812 21.6966 7.10925 21.3348 7.64015 21.2817V21.2837Z" fill="#F3DC34"/>
<path d="M23.9254 21.1127C23.947 21.6181 23.7327 22.0054 23.3335 22.2984C22.718 22.7507 22.0141 22.9453 21.261 22.908C20.4096 22.8667 19.7804 22.2748 19.5661 21.3369C19.4835 20.9751 19.4618 20.5976 19.4304 20.2259C19.3517 19.2703 19.279 18.3127 19.2121 17.3551C19.1708 16.7633 19.1295 16.1694 19.1276 15.5756C19.1276 15.2649 19.1787 14.9464 19.2573 14.6436C19.3517 14.2739 19.5405 14.1913 19.9082 14.2955C20.2897 14.4037 20.5689 14.6652 20.7773 14.9759C21.2099 15.6208 21.6385 16.2737 22.0102 16.954C22.5942 18.0237 23.1408 19.115 23.6835 20.2063C23.8211 20.4816 23.8841 20.7962 23.9804 21.0911C23.9608 21.097 23.9431 21.1049 23.9234 21.1108L23.9254 21.1127Z" fill="#F3DC34"/>
<path d="M14.9155 35.0951C15.0532 33.6774 15.6686 32.4996 16.9467 31.719C17.3262 31.4869 17.747 31.3768 18.1934 31.4594C18.7872 31.5695 19.206 32.0729 19.2906 32.767C19.4243 33.8701 19.0369 34.8179 18.3821 35.6752C18.0007 36.1746 17.5288 36.5679 16.9271 36.7802C15.9518 37.1244 15.124 36.6269 14.9667 35.6024C14.9431 35.451 14.9332 35.2957 14.9136 35.0932L14.9155 35.0951Z" fill="#FEFEFE"/>
<path d="M31.8297 30.1221C31.0412 30.1104 30.4297 30.0101 29.8615 29.721C29.7435 29.662 29.6294 29.5932 29.5232 29.5165C28.9235 29.0761 28.8154 28.5334 29.2263 27.9101C30.0148 26.7145 31.8553 25.9968 33.4441 27.1629C33.7803 27.4086 34.0615 27.7056 34.2463 28.0831C34.4941 28.5845 34.4194 28.9935 34.0104 29.3769C33.623 29.7407 33.1413 29.9177 32.632 30.0179C32.3174 30.0809 31.9929 30.1005 31.8278 30.1202L31.8297 30.1221Z" fill="#FEFEFE"/>
<path d="M21.8292 36.8392C22.4879 36.7408 23.1329 36.7271 23.7601 36.9217C24.0138 37.0004 24.2713 37.1184 24.4837 37.2776C24.9065 37.5942 24.9202 38.0111 24.5525 38.3906C24.2753 38.6777 23.9253 38.8468 23.5497 38.9647C22.6373 39.2499 21.7171 39.3049 20.8047 38.9883C20.5825 38.9116 20.3761 38.7681 20.1814 38.6285C20.087 38.5597 20.0182 38.4378 19.973 38.3257C19.8747 38.0878 19.9219 38.0563 20.1677 38.0071C20.5314 37.9344 20.9011 37.8557 21.2432 37.7142C21.6915 37.5274 21.7977 37.3248 21.8292 36.8392Z" fill="#3B3116"/>
<path d="M29.2757 35.7555C29.6237 35.6808 29.9501 35.6297 30.2647 35.5392C30.4594 35.4822 30.6442 35.3819 30.8153 35.2718C31.065 35.1106 31.2164 34.8825 31.1516 34.5266C31.3914 34.505 31.6215 34.4735 31.8516 34.4656C32.3844 34.446 32.9094 34.501 33.4049 34.7095C33.7667 34.8609 34.1226 35.0555 34.1521 35.496C34.1797 35.9128 33.871 36.1547 33.5524 36.3533C33.0707 36.6561 32.5299 36.7957 31.9695 36.8547C31.3128 36.9235 30.6619 36.898 30.0406 36.6423C29.6788 36.4929 29.3524 36.2963 29.2757 35.8617C29.2698 35.8263 29.2757 35.789 29.2757 35.7575V35.7555Z" fill="#3B3116"/>
<path d="M39.2762 38.717C39.2762 39.8948 38.9066 40.9664 38.3363 41.9791C38.1554 42.2976 37.9706 42.6162 37.7759 42.9268C37.3905 43.5423 36.7967 43.8038 36.0947 43.6288C34.8737 43.324 33.6919 42.9091 32.6281 42.219C32.3116 42.0125 32.0088 41.7667 31.7472 41.4934C31.0099 40.7246 31.004 39.7709 31.7 38.9588C32.168 38.4122 32.7697 38.0465 33.4048 37.7338C34.852 37.02 36.3818 36.8293 37.9686 37.0515C38.1751 37.081 38.3816 37.1577 38.5723 37.2442C38.999 37.4408 39.2605 37.7574 39.2507 38.2569C39.2467 38.4102 39.2664 38.5656 39.2762 38.7189V38.717Z" fill="#3B3116"/>
</svg>
