<svg width="36" height="36" viewBox="0 0 36 36" fill="none" xmlns="http://www.w3.org/2000/svg">
<g id="Frame 14">
<rect width="36" height="36" rx="6" fill="#6C737F" fill-opacity="0.24"/>
<path id="Vector" fill-rule="evenodd" clip-rule="evenodd" d="M18.606 6.98289C18.8802 6.43739 18.246 5.78631 17.7147 6.06786C17.2861 6.24383 17.1833 6.87731 17.509 7.21165C17.8175 7.54598 18.4346 7.42281 18.5888 6.98289H18.606ZM12.7782 7.22924C12.8125 6.87731 12.4011 6.56057 12.0926 6.70134C11.6469 6.82452 11.5955 7.54598 12.024 7.72195C12.3497 7.91551 12.8125 7.61637 12.7782 7.22924ZM23.611 7.73955C23.1139 7.66916 23.0282 6.85971 23.5081 6.70134C23.8852 6.50778 24.2109 6.85971 24.2795 7.22924C24.1938 7.54598 23.9538 7.82753 23.611 7.73955ZM14.5779 10.0095C14.6636 9.37604 13.9095 8.84814 13.3781 9.20007C12.881 9.46402 12.8125 10.2559 13.2581 10.5902C13.7209 11.0301 14.5608 10.6606 14.5779 10.0095ZM21.4856 9.5696C21.7255 8.93612 22.6854 8.91852 22.9596 9.53441C23.2339 10.0095 22.8911 10.6078 22.4283 10.7662C21.7941 10.8894 21.1942 10.1855 21.5027 9.5696H21.4856ZM18.0232 9.74557C17.5261 9.78076 17.0462 10.1855 17.0462 10.731C17.0119 11.1709 17.3204 11.5404 17.6804 11.7164H17.7832C17.9889 11.734 18.1946 11.7516 18.3831 11.646C18.8631 11.4348 19.103 10.7662 18.8288 10.2911C18.6917 9.93913 18.3317 9.79836 17.9889 9.72797L18.0232 9.74557ZM8.68162 11.5228C9.16155 11.2061 9.81289 11.7868 9.64148 12.3323C9.53864 12.8074 8.92158 13.001 8.57877 12.7018C8.20168 12.4203 8.27025 11.734 8.68162 11.5404V11.5228ZM27.6904 12.1035C27.7418 11.558 27.0562 11.1885 26.6448 11.5228C26.2163 11.7868 26.2678 12.5082 26.7134 12.7194C27.1248 12.9658 27.7076 12.5962 27.6733 12.1035H27.6904ZM19.3944 12.4906C20.08 12.2443 20.8856 12.5434 21.2627 13.1769C21.7769 13.9512 21.5027 15.1126 20.7142 15.5525C19.8915 16.0804 18.6917 15.6405 18.3831 14.6726C18.0403 13.828 18.5374 12.7546 19.3944 12.4906ZM17.5432 13.3177C17.1833 12.5258 16.172 12.2091 15.4178 12.5786C14.6122 12.9482 14.2523 14.0392 14.6636 14.8486C15.0407 15.6756 16.1206 16.0276 16.8748 15.5701C17.6461 15.1653 17.9718 14.0919 17.5432 13.3001V13.3177ZM11.4241 13.9864C11.4755 13.4761 11.9383 13.1593 12.4011 13.1241C12.8982 13.1945 13.2924 13.5816 13.3438 14.1095C13.3095 14.6198 12.9325 15.1302 12.4011 15.1302C11.8183 15.1829 11.3041 14.5847 11.4241 13.9864ZM24.6051 14.1095C24.6394 13.4057 23.7995 12.8778 23.1996 13.2297C22.5654 13.5464 22.514 14.5847 23.131 14.9542C23.731 15.3941 24.6394 14.8662 24.6051 14.1095ZM13.7895 15.8868C14.4922 15.6932 15.2807 16.0276 15.6235 16.6963C16.0006 17.3649 15.8463 18.2976 15.2636 18.7903C14.5094 19.5117 13.1381 19.2126 12.7439 18.2448C12.2811 17.3473 12.8468 16.1332 13.7895 15.9044V15.8868ZM23.1825 16.5907C22.8225 15.9572 22.0169 15.6756 21.3484 15.8868C20.3886 16.1508 19.8915 17.4177 20.3886 18.2976C20.7999 19.1598 21.9655 19.4413 22.7197 18.8958C23.4396 18.4207 23.6624 17.3297 23.1825 16.5907ZM9.29868 16.7139C9.89859 16.4851 10.5671 17.1714 10.3271 17.7872C10.1728 18.3503 9.41866 18.5615 9.00729 18.1392C8.54449 17.7521 8.7159 16.8722 9.29868 16.7139ZM26.4906 16.6083C25.9764 16.6435 25.6164 17.101 25.6336 17.6113C25.7364 17.8576 25.8564 18.104 26.0963 18.2272C26.5934 18.5087 27.3133 18.104 27.279 17.4881C27.3133 17.0306 26.902 16.6787 26.4906 16.6083ZM6.33337 17.013C6.69332 16.8546 7.13897 17.1714 7.05327 17.5937C7.03613 18.0688 6.36765 18.2448 6.11055 17.8576C5.88772 17.5761 6.02484 17.1538 6.31623 17.013H6.33337ZM29.953 17.2593C29.8501 16.9426 29.4387 16.8194 29.1816 16.9954C28.7531 17.2242 28.9245 18.0512 29.4387 17.9984C29.7987 18.0512 30.1244 17.5937 29.953 17.2593ZM15.7435 19.2654C16.7034 19.0014 17.7147 19.8285 17.7318 20.8491C17.8004 21.8873 16.7891 22.7847 15.8121 22.556C15.4356 22.4814 15.0968 22.2729 14.8553 21.9671C14.6139 21.6613 14.4853 21.2778 14.4922 20.8843C14.4922 20.1276 15.0407 19.4237 15.7606 19.2654H15.7435ZM21.537 20.8667C21.537 19.8285 20.4914 18.9838 19.5315 19.2654C18.9659 19.4061 18.4688 19.8989 18.3488 20.5147C18.0917 21.4122 18.7602 22.4504 19.6687 22.5735C20.6285 22.7671 21.6055 21.8873 21.5541 20.8843L21.537 20.8667ZM12.2468 19.8989C12.9153 19.7757 13.5495 20.5499 13.2753 21.2186C13.0696 21.9225 12.0926 22.116 11.6469 21.5353C11.1327 20.9898 11.5098 19.9692 12.2468 19.8989ZM24.6051 20.8843C24.6565 20.2156 23.9195 19.6701 23.3196 19.934C22.5997 20.1804 22.4797 21.3066 23.131 21.6937C23.7138 22.1336 24.6223 21.6233 24.6051 20.8667V20.8843ZM26.422 23.1542C26.1821 22.6967 26.6106 22.0984 27.0905 22.1864C27.3133 22.1864 27.4847 22.3624 27.6219 22.5208V22.556L27.6561 22.6087C27.6904 22.8727 27.7247 23.1542 27.519 23.3654C27.2276 23.7525 26.5763 23.6469 26.4049 23.1894L26.422 23.1542ZM9.67577 23.0135C9.77861 22.468 9.12727 21.9929 8.68162 22.3096C8.25311 22.5384 8.23597 23.2422 8.64734 23.5062C9.04157 23.7877 9.62434 23.5062 9.67577 23.0135ZM17.6118 23.3302C18.2117 23.0663 18.9659 23.5942 18.8973 24.2628C18.9488 25.0019 18.006 25.5298 17.4233 25.0723C16.7719 24.6851 16.8919 23.559 17.5947 23.3126L17.6118 23.3302ZM14.6122 25.1251C14.6636 24.5444 13.978 24.0693 13.481 24.3332C13.121 24.474 12.9839 24.8787 12.9667 25.2482C13.0867 25.5826 13.3438 25.9345 13.7209 25.9521C14.1837 26.0225 14.6294 25.6178 14.6122 25.1251ZM21.8626 24.3508C22.3769 24.0165 23.1139 24.4916 23.0625 25.1251C23.0625 25.7761 22.2397 26.1985 21.7598 25.7761C21.297 25.4418 21.3484 24.6324 21.8626 24.3684V24.3508ZM23.731 27.2015C23.3539 27.2895 23.0796 27.7118 23.3196 28.0813C23.5596 28.5036 24.2452 28.3453 24.2966 27.8526C24.3652 27.483 24.0395 27.2543 23.7481 27.1839L23.731 27.2015ZM11.7326 27.7646C11.8183 27.483 12.0412 27.1839 12.3668 27.2719C12.8468 27.3071 12.9839 28.0461 12.5725 28.2749C12.1954 28.5388 11.7669 28.1869 11.7326 27.7646ZM18.2974 27.6942C17.9546 27.4654 17.4233 27.6766 17.3204 28.0989C17.149 28.5212 17.5604 29.0491 17.9889 28.9963C18.2289 28.9963 18.4174 28.8204 18.5545 28.6444C18.5888 28.5212 18.606 28.4156 18.6402 28.2925C18.5888 28.0637 18.5203 27.7998 18.2803 27.6942H18.2974Z" fill="#3377FF"/>
</g>
</svg>
