<svg width="36" height="36" viewBox="0 0 36 36" fill="none" xmlns="http://www.w3.org/2000/svg">
<g id="Frame 14">
<rect width="36" height="36" rx="6" fill="#6C737F" fill-opacity="0.24"/>
<g id="Group">
<path id="Vector" d="M28.9992 25.9598C28.8566 26.3295 28.5761 26.5438 28.2288 26.7167C27.6623 26.9971 27.1142 27.3134 26.4872 27.6528C26.4673 27.4074 26.4434 27.2449 26.4434 27.0815C26.441 24.1481 26.4338 21.2154 26.4465 18.2819C26.4505 17.3179 26.0848 16.6247 25.2347 16.1236C22.3546 14.425 19.4968 12.6866 16.6247 10.9745C16.3514 10.8111 16.2415 10.6247 16.2439 10.3068C16.2566 8.64807 16.2487 6.98853 16.2502 5.32978C16.2518 4.18092 16.9537 3.76823 17.948 4.34425C21.1165 6.18066 24.2827 8.02106 27.4456 9.86784C27.7978 10.0734 28.1858 10.275 28.4399 10.5769C28.7012 10.8876 28.8191 11.3186 29 11.6979V25.9606L28.9992 25.9598Z" fill="#00D395"/>
<path id="Vector_2" d="M7.01001 19.2667C7.41793 18.3162 7.91189 18.1417 8.77472 18.6453C12.0516 20.5574 15.3237 22.4774 18.6069 24.3776C19.3988 24.8357 19.7797 25.4755 19.7661 26.3925C19.7454 27.8385 19.7645 29.2845 19.759 30.7313C19.7542 31.8834 18.8491 32.4172 17.862 31.8181C14.6066 29.8438 11.3608 27.8544 8.11903 25.8579C7.56771 25.5185 7.22353 24.9998 7.09605 24.3521C7.07614 24.2485 7.03949 24.1489 7.01001 24.0477C7.01001 22.4543 7.01001 20.8609 7.01001 19.2667Z" fill="#00D395"/>
<path id="Vector_3" d="M21.7404 30.4962C21.7404 30.2477 21.7404 30.0963 21.7404 29.9441C21.7404 28.4447 21.7308 26.9445 21.7436 25.4451C21.7515 24.5074 21.3635 23.8381 20.5485 23.3569C17.7154 21.683 14.8982 19.9813 12.0707 18.297C11.8405 18.16 11.7257 18.0046 11.7265 17.729C11.7345 15.9109 11.7226 14.092 11.7361 12.2739C11.7417 11.5194 12.1735 11.0812 12.8148 11.1465C12.9925 11.1649 13.1765 11.2382 13.3327 11.329C16.694 13.2825 20.0522 15.2416 23.4111 17.1991C24.101 17.6015 24.4524 18.1966 24.4524 18.9981C24.4524 22.1037 24.4484 25.2093 24.4564 28.3156C24.458 28.761 24.305 29.0701 23.9034 29.2844C23.2055 29.6565 22.5227 30.0549 21.7388 30.4962H21.7404Z" fill="#00D395"/>
</g>
</g>
</svg>
