<svg width="36" height="36" viewBox="0 0 36 36" fill="none" xmlns="http://www.w3.org/2000/svg">
<g id="Frame 14">
<rect width="36" height="36" rx="6" fill="#6C737F" fill-opacity="0.24"/>
<g id="Group">
<path id="Vector" fill-rule="evenodd" clip-rule="evenodd" d="M11.5 16.5V11.415C11.1658 11.2974 10.8841 11.0654 10.7046 10.76C10.5251 10.4546 10.4595 10.0956 10.5194 9.74641C10.5792 9.39727 10.7608 9.08059 11.0318 8.85246C11.3028 8.62433 11.6458 8.49947 12 8.5H18C20.5196 8.5 22.9359 9.50089 24.7175 11.2825C26.4991 13.0641 27.5 15.4804 27.5 18C27.5 20.5196 26.4991 22.9359 24.7175 24.7175C22.9359 26.4991 20.5196 27.5 18 27.5H12C11.6458 27.5005 11.3028 27.3757 11.0318 27.1475C10.7608 26.9194 10.5792 26.6027 10.5194 26.2536C10.4595 25.9044 10.5251 25.5454 10.7046 25.24C10.8841 24.9346 11.1658 24.7026 11.5 24.585V19.5H10C9.60218 19.5 9.22064 19.342 8.93934 19.0607C8.65804 18.7794 8.5 18.3978 8.5 18C8.5 17.6022 8.65804 17.2206 8.93934 16.9393C9.22064 16.658 9.60218 16.5 10 16.5H11.5ZM14.5 19.5V24.5H18C19.7239 24.5 21.3772 23.8152 22.5962 22.5962C23.8152 21.3772 24.5 19.7239 24.5 18C24.5 16.2761 23.8152 14.6228 22.5962 13.4038C21.3772 12.1848 19.7239 11.5 18 11.5H14.5V16.5H19C19.3978 16.5 19.7794 16.658 20.0607 16.9393C20.342 17.2206 20.5 17.6022 20.5 18C20.5 18.3978 20.342 18.7794 20.0607 19.0607C19.7794 19.342 19.3978 19.5 19 19.5H14.5Z" fill="#D8B83B"/>
</g>
</g>
</svg>
