<svg width="42" height="56" viewBox="0 0 42 56" fill="none" xmlns="http://www.w3.org/2000/svg">
    <path d="M0.0186421 26.0216C0.0186421 20.4765 0.0331934 14.9313 -6.49778e-05 9.38618C-0.00422228 8.67451 0.218193 8.28478 0.821001 7.99249C1.47578 7.67478 2.14094 7.338 2.71465 6.89108C3.51909 6.26201 4.17802 6.32767 5.05106 6.83601C11.0376 10.3181 17.074 13.7134 23.0667 17.1871C28.2633 20.2011 30.9303 24.7656 30.9323 30.8953C30.9323 36.6882 30.9386 42.4791 30.924 48.272C30.9136 52.5188 28.2301 55.662 24.0686 55.9861C22.836 56.0814 21.4184 55.6747 20.3063 55.0732C15.594 52.5273 10.9669 49.8225 6.30656 47.177C4.55218 46.1815 2.80819 45.1627 1.02887 44.2117C0.326283 43.8347 0.0539785 43.3687 0.0602145 42.5469C0.0934729 37.0377 0.0768441 31.5286 0.0768441 26.0174C0.0581362 26.0174 0.03735 26.0174 0.0186421 26.0174V26.0216ZM14.0662 16.4648C13.9996 16.8376 13.9331 17.0388 13.9331 17.2421C13.9248 23.2024 13.9061 29.1648 13.9581 35.1251C13.9622 35.5593 14.3884 36.163 14.7833 36.396C18.0218 38.2938 21.2978 40.1238 24.5654 41.9686C25.3325 42.4007 26.1119 42.8116 26.9767 43.284C27.039 42.8307 27.0993 42.5913 27.0993 42.3499C27.0993 38.7513 27.1242 35.1548 27.064 31.5561C27.0473 30.5818 26.8416 29.5927 26.5963 28.6438C24.8772 22.0396 19.6245 19.1971 14.0682 16.4669L14.0662 16.4648ZM4.0346 10.8921C3.98679 11.0637 3.93482 11.1633 3.93482 11.2628C3.88078 21.078 3.83297 30.8932 3.77268 40.7062C3.76853 41.4497 4.11982 41.8309 4.73302 42.1677C7.26274 43.5551 9.76752 44.9911 12.2806 46.4102C16.2799 48.666 20.273 50.9345 24.2848 53.1648C24.7484 53.4211 25.3491 53.635 25.8396 53.5588C26.2616 53.4931 26.615 52.9826 26.9995 52.667C26.7335 52.3832 26.5152 52.0126 26.1951 51.8283C19.8864 48.2127 13.5777 44.5993 7.23572 41.0451C6.35229 40.5495 6.03634 39.9967 6.03634 38.9821C6.04673 30.4018 6.00516 21.8236 5.97606 13.2432C5.96982 11.5784 5.80561 11.3793 4.03252 10.89L4.0346 10.8921ZM26.8956 48.6427C27.3404 47.0668 27.2074 46.622 26.218 46.0586C21.4682 43.3602 16.7268 40.6491 11.9688 37.9676C11.3743 37.6329 11.1581 37.2284 11.1581 36.54C11.1623 29.6901 11.1353 22.8381 11.1207 15.9882C11.1166 14.5035 10.759 14.0968 9.17094 13.849C9.13352 14.0841 9.06285 14.3192 9.06077 14.5564C9.02128 22.2535 8.99426 29.9527 8.9506 37.6499C8.94645 38.3361 9.21044 38.728 9.80285 39.0605C15.145 42.0533 20.4684 45.0758 25.8001 48.0878C26.1514 48.2869 26.5214 48.4521 26.8998 48.6427H26.8956Z" fill="#6A56F6"/>
    <path d="M11.127 2.024C12.3638 1.2975 13.4155 0.632419 14.5172 0.0668911C14.7812 -0.068666 15.2655 0.0181755 15.5524 0.181268C21.8757 3.77141 28.2322 7.30649 34.4848 11.0195C39.3405 13.9022 41.9138 18.3205 41.97 24.0944C42.0303 30.2029 41.9866 36.3115 41.9533 42.4221C41.9346 45.6501 39.6128 48.5921 36.6071 49.1979C36.7401 48.9395 36.8752 48.751 36.9417 48.537C37.3429 47.2831 38.0476 46.0292 38.0683 44.7647C38.1764 38.3745 38.2222 31.98 38.0621 25.5919C37.9187 19.9006 35.1083 15.6687 30.3171 12.8813C24.422 9.45211 18.45 6.16273 12.5113 2.81404C12.0977 2.58105 11.6861 2.34383 11.1249 2.024H11.127Z" fill="#6A56F6"/>
    <path d="M5.7682 5.1377C6.96342 4.4345 8.0464 3.75671 9.17302 3.16365C9.40583 3.0408 9.84651 3.14459 10.1084 3.29497C16.5481 6.96137 23.0376 10.543 29.3837 14.3704C33.9651 17.1345 36.4283 21.4194 36.5135 26.8925C36.6112 33.0709 36.5426 39.2515 36.5135 45.4299C36.499 48.8019 34.3767 51.566 31.0571 52.3857C33.0443 50.0008 32.7428 47.2854 32.7345 44.6187C32.72 39.745 32.7013 34.8734 32.7283 29.9997C32.7636 23.512 29.8889 18.8057 24.3825 15.6942C18.4459 12.3413 12.4968 9.00743 6.556 5.66298C6.32112 5.52955 6.10286 5.36433 5.76404 5.1377H5.7682Z" fill="#6A56F6"/>
</svg>
