<svg width="50" height="50" viewBox="0 0 50 50" fill="none" xmlns="http://www.w3.org/2000/svg">
<path id="Vector" d="M25 0C11.1932 0 0 11.1932 0 25C0 38.8068 11.1932 50 25 50C38.8068 50 50 38.8068 50 25C50 11.1932 38.8068 0 25 0ZM25 2.52273C37.4136 2.52273 47.4773 12.5864 47.4773 25C47.4773 37.4136 37.4136 47.4773 25 47.4773C12.5864 47.4773 2.52273 37.4136 2.52273 25C2.52273 12.5864 12.5864 2.52273 25 2.52273ZM28.6591 7.73182H28.625C28.2964 7.7407 27.9843 7.87751 27.755 8.1131C27.5258 8.3487 27.3976 8.66447 27.3977 8.99318V15.1364H22.5977V8.95909C22.5932 8.62456 22.456 8.30552 22.2162 8.07216C21.9765 7.83881 21.6539 7.71025 21.3193 7.71477C20.9848 7.71929 20.6657 7.85652 20.4324 8.09627C20.199 8.33602 20.0705 8.65865 20.075 8.99318V15.1364H13.0432C12.7146 15.1452 12.4024 15.2821 12.1732 15.5176C11.944 15.7532 11.8158 16.069 11.8159 16.3977V33.6364C11.8341 34.3182 12.3909 34.8636 13.0773 34.8636H20.0773V41.0409C20.0955 41.7227 20.6545 42.2682 21.3386 42.2682H21.3727C22.0545 42.25 22.6 41.6932 22.6 41.0068V34.8636H27.3977V41.0409C27.4022 41.3754 27.5395 41.6945 27.7792 41.9278C27.8979 42.0434 28.0382 42.1344 28.1921 42.1957C28.346 42.2571 28.5105 42.2875 28.6761 42.2852C28.8418 42.283 29.0054 42.2481 29.1575 42.1827C29.3097 42.1172 29.4475 42.0224 29.5631 41.9037C29.6786 41.785 29.7696 41.6447 29.831 41.4908C29.8923 41.3369 29.9227 41.1725 29.9205 41.0068V34.8636H36.9568C37.6386 34.8455 38.1841 34.2886 38.1841 33.6023V24.75C38.1752 24.4214 38.0384 24.1093 37.8028 23.88C37.5672 23.6508 37.2514 23.5226 36.9227 23.5227H21.3045C20.976 23.5316 20.6638 23.6684 20.4346 23.904C20.2054 24.1396 20.0772 24.4554 20.0773 24.7841V24.8182C20.0955 25.5 20.6545 26.0455 21.3386 26.0455H35.6614V32.3432H14.3409V17.6614H36.9591C37.2936 17.6568 37.6127 17.5196 37.846 17.2799C38.0794 17.0401 38.2079 16.7175 38.2034 16.383C38.1989 16.0484 38.0617 15.7294 37.8219 15.496C37.5822 15.2627 37.2595 15.1341 36.925 15.1386H29.9227V8.95909C29.9138 8.6305 29.777 8.31836 29.5414 8.08913C29.3058 7.8599 28.9878 7.7317 28.6591 7.73182Z" fill="#E3B457"/>
</svg>
