<svg width="64" height="28" viewBox="0 0 64 28" fill="none" xmlns="http://www.w3.org/2000/svg">
<path d="M45.3038 0C46.3782 0.182983 47.5071 0.216592 48.5174 0.575089C52.0735 1.83543 54.1563 4.39719 54.3821 8.139C54.574 11.3281 54.4216 14.5359 54.4216 17.9118C53.9512 17.613 53.5655 17.3815 53.1967 17.1313C51.6445 16.0801 50.0772 15.0494 48.5645 13.944C48.2521 13.7162 48.0019 13.214 47.9774 12.8219C47.9022 11.6138 47.953 10.3964 47.9473 9.18461C47.9398 7.33238 47.2023 6.58924 45.3114 6.59298C37.981 6.60978 30.6488 6.63779 23.3185 6.6602C21.4389 6.6658 19.5593 6.677 17.6797 6.65086C17.326 6.64526 16.9177 6.56124 16.6336 6.37079C13.7041 4.40279 10.7934 2.40492 7.88271 0.40891C7.73595 0.306216 7.63812 0.138171 7.5177 0C20.1124 0 32.7072 0 45.3038 0Z" fill="white"/>
<path d="M24.8125 27.9979C23.9809 27.7552 23.1097 27.5983 22.3233 27.2548C18.8989 25.7554 17.0908 23.0928 16.9742 19.4015C16.8782 16.3281 16.9553 13.251 16.9553 10.0693C17.2018 10.1739 17.4013 10.2243 17.5593 10.3326C19.3957 11.5743 21.2414 12.8029 23.042 14.0931C23.3317 14.3003 23.5519 14.7858 23.5707 15.1555C23.6347 16.427 23.5876 17.7042 23.5989 18.9776C23.6121 20.6543 24.3082 21.3377 26.0091 21.3433C35.1833 21.375 44.3556 21.3937 53.5298 21.4535C54.1112 21.4572 54.7716 21.6589 55.2551 21.9781C57.8873 23.7127 60.4782 25.5108 63.0746 27.2977C63.3249 27.4695 63.5262 27.7122 63.7501 27.9213C63.6259 27.9045 63.5036 27.8765 63.3794 27.8765C57.6616 27.8803 51.9456 27.884 46.2277 27.8971C45.9812 27.8971 45.7366 27.9643 45.4901 27.9998H24.8125V27.9979Z" fill="white"/>
<path d="M7.3296 0V27.9982H0.75V9.89227H6.58641L6.66919 9.68501C4.6955 8.38546 2.72181 7.08591 0.75 5.78636C0.75 3.85757 0.75 1.92879 0.75 0C2.94383 0 5.13577 0 7.3296 0Z" fill="white"/>
<path d="M45.49 27.9978C45.7365 27.9623 45.9811 27.8951 46.2275 27.8951C51.9454 27.8839 57.6614 27.8782 63.3793 27.8745C63.5035 27.8745 63.6258 27.9044 63.7499 27.9194L63.7255 27.9978H45.49Z" fill="black"/>
</svg>
