<svg width="52" height="36" viewBox="0 0 52 36" fill="none" xmlns="http://www.w3.org/2000/svg">
    <path d="M27.3385 0.697924C28.6409 0.697924 29.9476 0.772536 31.2416 0.676606C32.3958 0.589203 33.029 1.07099 33.5881 2.04308C37.6521 9.12275 41.7585 16.1768 45.8542 23.2373C47.7687 26.5373 49.6811 29.8395 51.5998 33.1373C52.4067 34.5251 51.9873 35.3096 50.399 35.316C47.5146 35.3267 44.6281 35.3011 41.7436 35.3331C40.905 35.3416 40.3756 35.024 39.9562 34.297C34.001 24.0261 28.0289 13.7658 22.0589 3.50336C21.8979 3.22836 21.7327 2.95549 21.5845 2.67622C20.9555 1.49734 21.3748 0.725636 22.6921 0.702186C24.2402 0.674473 25.7883 0.695791 27.3364 0.695791V0.700056L27.3385 0.697924Z" fill="white"/>
    <path d="M5.98471 0.695653C7.42692 0.695653 8.87124 0.716972 10.3113 0.684995C11.1309 0.665809 11.6773 0.947205 12.1114 1.68907C16.5101 9.18656 20.9214 16.6755 25.3772 24.1389C25.9596 25.1131 25.9046 25.8337 25.2586 26.7269C23.6661 28.9312 22.1603 31.1973 20.6038 33.4292C19.7079 34.7147 18.9286 34.6891 18.1471 33.3482C13.0284 24.5525 7.91824 15.7525 2.8038 6.95245C1.98633 5.5476 1.16675 4.14275 0.357761 2.73364C-0.362284 1.47589 0.0803304 0.71484 1.54584 0.699918C3.02405 0.684995 4.50226 0.697785 5.97835 0.695653H5.98471Z" fill="white"/>
    <path d="M0.0170122 28.1128C0.0170122 26.3797 -0.0401678 24.6423 0.0551323 22.9155C0.0826635 22.4231 0.449038 21.7516 0.85777 21.5235C1.51852 21.1547 1.98443 21.6897 2.34022 22.2994C4.43894 25.8958 6.56731 29.4729 8.67027 33.0671C9.29713 34.1373 8.83969 34.9793 7.60926 34.9985C5.57195 35.0305 3.53253 35.0177 1.49522 35.0006C0.41939 34.9921 0.0339538 34.6105 0.0212471 33.5233C6.92606e-05 31.7198 0.0148944 29.9142 0.0170122 28.1107V28.1128Z" fill="white"/>
</svg>
