<svg width="36" height="36" viewBox="0 0 36 36" fill="none" xmlns="http://www.w3.org/2000/svg">
<g id="Frame 14">
<rect width="36" height="36" rx="6" fill="#6C737F" fill-opacity="0.24"/>
<path id="Vector" d="M24.028 9.02221L19.85 15.2222C19.564 15.6502 20.121 16.1502 20.521 15.8002L24.164 12.2292C24.271 12.1362 24.428 12.2002 24.428 12.3572V23.5362C24.428 23.6862 24.228 23.7502 24.143 23.6432L12.17 8.75721C11.9747 8.51685 11.7275 8.32387 11.4469 8.19276C11.1663 8.06165 10.8597 7.99582 10.55 8.00021C9.264 8.00021 8 8.65021 8 10.1362V25.8572C8.00297 26.3203 8.15635 26.7698 8.43703 27.1382C8.71771 27.5065 9.11048 27.7736 9.55617 27.8993C10.0019 28.025 10.4763 28.0024 10.9081 27.8351C11.3398 27.6677 11.7055 27.3645 11.95 26.9712L16.121 20.7712C16.407 20.3432 15.857 19.8432 15.457 20.1932L11.836 23.8362C11.729 23.9292 11.571 23.8642 11.571 23.7072V12.5572C11.571 12.4002 11.771 12.3432 11.857 12.4502L23.807 27.2432C24.207 27.7362 24.807 28.0002 25.428 28.0002C26.721 28.0002 28 27.3572 28 25.8642V10.1442C27.9996 9.67712 27.8466 9.22295 27.5643 8.85082C27.282 8.47869 26.8859 8.20898 26.4362 8.08274C25.9865 7.9565 25.5078 7.98065 25.0731 8.1515C24.6384 8.32235 24.2714 8.63056 24.028 9.02921V9.02221Z" fill="white"/>
</g>
</svg>
