<svg width="50" height="44" viewBox="0 0 50 44" fill="none" xmlns="http://www.w3.org/2000/svg">
<g id="nosana">
<path id="Vector" d="M33.9374 43.9781C32.6165 43.9781 31.4831 43.9781 30.3496 43.9781C26.474 43.9781 22.5983 43.9712 18.7227 43.9826C18.1148 43.9826 17.6578 43.9001 17.3424 43.2631C13.9375 36.4111 10.5052 29.5752 7.08429 22.7325C7.00203 22.5697 6.95632 22.3887 6.83292 22.045C8.55823 22.045 10.1716 21.9945 11.7803 22.0885C12.0797 22.1068 12.4293 22.6568 12.6167 23.0304C15.103 27.955 17.5915 32.8797 20.0138 37.8388C20.496 38.8265 21.0513 39.2825 22.1779 39.1863C23.4141 39.0809 24.6641 39.1634 26.0992 39.1634C25.889 38.6409 25.7793 38.2925 25.617 37.9671C20.3954 27.5128 15.1692 17.0607 9.93847 6.6109C9.23692 5.21302 8.15832 4.62865 6.9289 4.92427C5.64463 5.23364 4.94766 6.24195 4.94766 7.87358C4.94309 19.3409 4.94537 30.8058 4.94309 42.2731C4.94309 43.9758 4.93852 43.9758 3.20635 43.9803C2.52309 43.9803 1.83525 43.9368 1.15656 43.9872C0.336179 44.0468 0.128227 43.6801 0.130512 42.9147C0.148793 31.0304 0.121372 19.1438 0.16022 7.25943C0.171646 3.83575 2.4911 1.02852 5.76803 0.217284C9.00841 -0.584783 12.4385 0.874978 13.9695 3.91367C20.544 16.9667 27.0658 30.045 33.6037 43.1164C33.702 43.3135 33.766 43.5289 33.9419 43.9803L33.9374 43.9781Z" fill="#10E80C"/>
<path id="Vector_2" d="M15.9781 0.0180774C17.9434 0.0180774 19.6847 0.0180774 21.4283 0.0180774C24.6961 0.0180774 27.9639 0.0295358 31.2317 0.0112029C31.8898 0.00661963 32.3514 0.121201 32.6873 0.79952C36.0694 7.61938 39.488 14.4209 42.8929 21.2293C42.9752 21.3943 43.0232 21.5776 43.1603 21.9512C41.4533 21.9512 39.8445 21.9993 38.2449 21.9076C37.9387 21.8893 37.5776 21.3622 37.3925 20.9933C34.8674 15.9998 32.3446 11.0041 29.8834 5.97858C29.447 5.08714 28.9282 4.75485 27.9593 4.81444C26.6773 4.89464 25.3862 4.83506 23.8826 4.83506C24.1614 5.4813 24.3419 5.96254 24.5704 6.41857C29.7098 16.7034 34.8537 26.9859 40.0022 37.2661C40.7563 38.7717 41.796 39.3743 43.0483 39.0787C44.3646 38.7671 45.0593 37.745 45.0593 36.0309C45.0661 24.6003 45.0615 13.1697 45.0638 1.73908C45.0638 0.0226612 45.0684 0.0226607 46.796 0.0180774C47.4793 0.0180774 48.1671 0.0616185 48.8481 0.0112029C49.6662 -0.0483792 49.8718 0.313698 49.8695 1.08139C49.8513 12.968 49.8764 24.8569 49.8444 36.7436C49.8353 40.1718 47.4244 43.0593 44.1155 43.8132C40.8225 44.5626 37.5068 43.0203 35.914 39.8716C32.0521 32.2291 28.2381 24.559 24.4059 16.9004C21.851 11.7947 19.2962 6.68898 16.7437 1.58096C16.5243 1.14326 16.3141 0.700981 15.9781 0.013495V0.0180774Z" fill="#10E80C"/>
</g>
</svg>
