<svg width="36" height="36" viewBox="0 0 36 36" fill="none" xmlns="http://www.w3.org/2000/svg">
<g id="Frame 14">
<rect width="36" height="36" rx="6" fill="#6C737F" fill-opacity="0.24"/>
<path id="Vector" fill-rule="evenodd" clip-rule="evenodd" d="M22.97 17.705C24.0808 17.12 24.7823 16.1 24.6215 14.39C24.4023 12.05 22.4438 11.27 19.9592 11.045V8H18.0446V11H16.51V8H14.5954V11C14.1715 11 13.7769 11.015 13.3677 11.015H11V13.16C11 13.16 12.1254 13.13 12.0962 13.16C12.8708 13.16 13.1338 13.625 13.2069 14.03V17.72V22.88C13.1777 23.135 13.0315 23.54 12.4908 23.54C12.52 23.555 11.3946 23.54 11.3946 23.54L11.0146 25.985H14.5808V28.985H16.4954V25.985H18.03V28.985H19.9446V25.91C23.1746 25.715 25.4254 24.89 25.7177 21.77C25.9515 19.265 24.7969 18.14 22.97 17.69V17.705ZM16.5392 13.295H16.9338C18.2785 13.265 21.0262 13.19 21.0262 15.275C21.0262 17.315 18.1615 17.27 16.8462 17.24H16.5246V13.31L16.5392 13.295ZM21.9177 21.38C21.9177 23.63 18.4831 23.57 16.9046 23.555H16.5246V19.22H16.9923C18.6 19.175 21.9031 19.1 21.9031 21.395L21.9177 21.38Z" fill="#E10078"/>
</g>
</svg>
