<svg width="36" height="36" viewBox="0 0 36 36" fill="none" xmlns="http://www.w3.org/2000/svg">
<g id="Frame 14">
<rect width="36" height="36" rx="6" fill="#6C737F" fill-opacity="0.24"/>
<path id="Vector" d="M23.335 21.6755L28.5523 18.8923C28.688 18.8207 28.801 18.7167 28.8797 18.5909C28.9583 18.4652 28.9998 18.3221 29 18.1764V12.6099C29 12.464 28.9586 12.3207 28.8799 12.1947C28.8013 12.0688 28.6882 11.9646 28.5523 11.893L23.335 9.10968C23.1983 9.03778 23.0441 9 22.8873 9C22.7305 9 22.5763 9.03778 22.4396 9.10968L17.2212 11.893C17.0855 11.9647 16.9727 12.069 16.8942 12.1949C16.8157 12.3209 16.7745 12.4641 16.7746 12.6099V22.557L13.1149 24.5082L9.453 22.556V18.6536L13.1127 16.7025L15.5261 17.9902V15.3726L13.5604 14.3234C13.4237 14.2515 13.2695 14.2137 13.1127 14.2137C12.9559 14.2137 12.8017 14.2515 12.665 14.3234L7.4466 17.1067C7.31076 17.1786 7.1978 17.283 7.11932 17.4091C7.04084 17.5353 6.99966 17.6787 7 17.8246V23.3912C7 23.6853 7.1705 23.9589 7.4477 24.107L12.6661 26.8903C12.8028 26.9622 12.957 27 13.1138 27C13.2706 27 13.4248 26.9622 13.5615 26.8903L18.7799 24.107C18.9154 24.0353 19.0282 23.9313 19.1066 23.8055C19.1851 23.6798 19.2265 23.5368 19.2265 23.3912V13.442L19.2925 13.408L22.8851 11.4918L26.5448 13.442V17.3453L22.884 19.2955L20.4739 18.0118V20.6295L22.4363 21.6755C22.573 21.7474 22.7272 21.7852 22.884 21.7852C23.0408 21.7852 23.195 21.7474 23.3317 21.6755H23.335Z" fill="#9268FF"/>
</g>
</svg>
