<svg width="44" height="56" viewBox="0 0 44 56" fill="none" xmlns="http://www.w3.org/2000/svg">
<path d="M5.36434 44.8141C3.67584 43.1128 1.9834 41.4155 0.310641 39.7004C0.149269 39.5342 0.0331599 39.2394 0.0351279 39.006C0.0666151 32.9072 -0.153795 26.7905 0.227988 20.7134C0.836085 10.9885 8.78858 2.62656 18.343 1.15477C30.6702 -0.742346 41.6061 7.18635 43.7059 19.5502C45.7723 31.7024 36.6941 43.6291 24.4554 44.8378C23.682 44.9149 22.9047 44.9664 22.0506 45.0356V39.5342C23.2963 39.3463 24.5381 39.2375 25.7425 38.9625C32.4197 37.4393 37.255 32.0209 38.2882 24.9705C39.221 18.6046 35.8794 11.8688 30.1723 8.60869C24.2586 5.23187 16.9477 5.7838 11.7248 10.0706C7.73179 13.3485 5.65166 17.6155 5.61624 22.8064C5.56704 29.7638 5.60443 36.7231 5.60443 43.6805C5.60443 44.0307 5.60443 44.3828 5.60443 44.7329C5.52374 44.7606 5.44306 44.7883 5.36434 44.816V44.8141Z" fill="#6A56F6"/>
<path d="M21.8365 33.9076V28.3943C22.3247 28.3049 22.7793 28.2513 23.2183 28.1381C25.8618 27.4489 27.5506 24.869 27.1943 22.0865C26.842 19.3279 24.5528 17.326 21.7676 17.3438C18.9923 17.3617 16.7247 19.3994 16.4196 22.172C16.3626 22.6963 16.3547 23.2285 16.3547 23.7568C16.3508 34.0526 16.3527 44.3483 16.3527 54.6421C16.3527 55.0215 16.3527 55.3988 16.3527 55.7781C16.276 55.8099 16.1992 55.8437 16.1205 55.8755C14.4218 54.1476 12.7152 52.4277 11.0382 50.6759C10.867 50.4972 10.8256 50.1357 10.8256 49.8577C10.8158 40.688 10.7646 31.5184 10.8414 22.3487C10.8906 16.4839 16.0142 11.6597 21.9211 11.7153C27.7829 11.7709 32.7037 16.6388 32.7982 22.4738C32.8907 28.2215 29.0111 32.9007 23.3895 33.8023C22.9132 33.8798 22.4211 33.8679 21.8365 33.9056V33.9076Z" fill="#6A56F6"/>
</svg>
