<svg width="52" height="52" viewBox="0 0 52 52" fill="none" xmlns="http://www.w3.org/2000/svg">
<path d="M25.9947 38.0285C19.3577 38.0384 13.9226 32.6404 13.9045 26.0246C13.8864 19.3858 19.3379 13.9219 25.9914 13.9087C32.6219 13.8955 38.1261 19.4122 38.0751 26.0197C38.024 32.6733 32.6466 38.0186 25.9947 38.0285Z" fill="#CF1011"/>
<path d="M26.0391 50.0948C37.642 49.8823 47.1258 42.3669 49.4951 31.0155C51.4232 21.7766 48.6258 13.8624 41.5145 7.62073C37.3044 3.92482 32.2859 2.10076 26.6928 1.93928C25.695 1.91126 25.993 1.28512 25.9321 0.767725C25.8563 0.125101 26.1692 -0.0248442 26.7537 0.00316761C36.1881 0.44147 43.4805 4.67784 48.3113 12.737C56.4763 26.359 50.539 43.9355 35.895 50.0273C20.986 56.2294 3.84431 47.208 0.590825 31.3747C-0.930539 23.9714 0.482156 17.1002 4.86184 10.8932C5.14669 10.4895 5.21749 10.1978 4.95899 9.71996C3.95627 7.86459 4.3893 5.60223 5.93701 4.25272C7.55057 2.84554 9.74536 2.70548 11.4824 3.89845C13.1124 5.02057 13.8451 7.22691 13.2014 9.07404C12.5181 11.0349 10.5143 12.3152 8.43639 12.1109C8.27503 12.0944 8.11532 12.0499 7.95561 12.0087C6.63183 11.666 6.61042 11.6511 5.86785 12.7798C3.64179 16.166 2.39868 19.8833 2.01999 23.9269C1.07819 33.9996 6.71909 43.4742 15.5493 47.7155C18.8176 49.2841 22.6572 50.1575 26.0358 50.0948H26.0391ZM6.33875 7.60754C6.33381 9.06086 7.48636 10.2126 8.93692 10.2028C10.3677 10.1945 11.5631 8.99166 11.5433 7.58118C11.5236 6.19048 10.3661 5.05353 8.95504 5.03705C7.50118 5.02057 6.34534 6.15752 6.3404 7.60754H6.33875Z" fill="#CF1011"/>
</svg>
