<svg width="22" height="22" viewBox="0 0 22 22" fill="none" xmlns="http://www.w3.org/2000/svg">
<rect width="22" height="22" rx="11" fill="#6A56F5"/>
<g clip-path="url(#clip0_847_210)">
<path d="M7.57245 13.2274C7.63373 13.1623 7.71798 13.1243 7.80734 13.1243H15.911C16.0591 13.1243 16.1331 13.3143 16.0285 13.4256L14.4276 15.1277C14.3664 15.1928 14.2821 15.2308 14.1927 15.2308H6.08908C5.94099 15.2308 5.86695 15.0408 5.97163 14.9295L7.57245 13.2274Z" fill="white"/>
<path d="M7.57209 6.87244C7.63591 6.80729 7.72017 6.76929 7.80697 6.76929H15.9106C16.0587 6.76929 16.1328 6.95931 16.0281 7.07061L14.4273 8.77269C14.366 8.83784 14.2817 8.87585 14.1924 8.87585H6.08871C5.94063 8.87585 5.86659 8.68582 5.97127 8.57452L7.57209 6.87244Z" fill="white"/>
<path d="M14.4276 10.0295C14.3664 9.9644 14.2821 9.92639 14.1927 9.92639H6.08908C5.94099 9.92639 5.86695 10.1164 5.97163 10.2277L7.57245 11.9298C7.63373 11.9949 7.71798 12.033 7.80734 12.033H15.911C16.0591 12.033 16.1331 11.8429 16.0285 11.7316L14.4276 10.0295Z" fill="white"/>
</g>
<defs>
<clipPath id="clip0_847_210">
<rect width="10.1538" height="8.46154" fill="white" transform="translate(5.9231 6.76929)"/>
</clipPath>
</defs>
</svg>
