<svg width="20" height="20" viewBox="0 0 20 20" fill="none" xmlns="http://www.w3.org/2000/svg">
<rect width="20" height="20" rx="10" fill="#6A56F6"/>
<g clip-path="url(#clip0_654_3701)">
<path d="M10.5777 11.0965H7.84281L5.48518 8.85969V8.07022C5.48518 8.07022 7.18208 6.51195 7.93711 5.83337H10.672L8.31433 8.03394V8.89004L10.5777 11.0965Z" fill="white"/>
<path d="M9.6346 8.90355L12.3694 8.90355L14.7271 11.1404V11.9299C14.7271 11.9299 13.0302 13.4881 12.2751 14.1667H9.5403L11.8979 11.9661V11.11L9.6346 8.90355Z" fill="white"/>
<path d="M14.9998 8.08157H9.42235C9.42235 8.08157 11.0141 6.57705 11.8036 5.83337H12.6524L15 8.08136L14.9998 8.08157Z" fill="white"/>
<path d="M5.00023 11.9185L10.5777 11.9185C10.5777 11.9185 8.98591 13.423 8.19638 14.1667H7.34764L5 11.9187L5.00023 11.9185Z" fill="white"/>
</g>
<defs>
<clipPath id="clip0_654_3701">
<rect width="10" height="10" fill="white" transform="translate(5 5)"/>
</clipPath>
</defs>
</svg>
