<svg width="40" height="52" viewBox="0 0 40 52" fill="none" xmlns="http://www.w3.org/2000/svg">
<g id="star atlas">
<path id="Vector" d="M20.0049 16.2865C18.6633 19.261 17.3743 22.1184 16.0853 24.9771C13.8481 29.9364 11.6001 34.8911 9.38681 39.8597C9.02809 40.6645 8.53784 41.006 7.61592 40.9791C5.60709 40.9194 3.59466 40.9627 1.58463 40.9616C1.36581 40.9616 1.14579 40.9592 0.928166 40.9417C0.0361467 40.8727 -0.201804 40.4878 0.166483 39.6422C0.946103 37.855 1.74246 36.0759 2.53524 34.2945C7.33731 23.4998 12.1394 12.705 16.9415 1.9103C16.9893 1.80386 17.0395 1.69742 17.0826 1.58864C17.4413 0.672802 18.1727 0.285646 19.1249 0.285645C19.9045 0.285643 20.4338 0.29501 21.2724 0.295004C21.9373 0.294999 22.3952 0.514898 22.6607 1.09505C23.4236 2.76064 24.1876 4.42739 24.9326 6.10117C29.8482 17.1439 34.7615 28.1878 39.6712 39.234C40.299 40.6469 40.0873 40.9581 38.5161 40.9616C36.426 40.9662 34.3347 40.9323 32.2457 40.9756C31.4434 40.992 30.9986 40.6785 30.6901 39.9884C28.1443 34.3132 25.5819 28.6451 23.0242 22.9758C22.0389 20.792 21.0536 18.6083 20.0061 16.2877L20.0049 16.2865Z" fill="white"/>
<path id="Vector_2" d="M20.0192 51.714C17.678 47.136 15.3965 42.6773 13.0875 38.1636H26.7165C24.4901 42.6679 22.2839 47.1325 20.0192 51.714Z" fill="#65FEFF"/>
</g>
</svg>
