<svg width="54" height="32" viewBox="0 0 54 32" fill="none" xmlns="http://www.w3.org/2000/svg">
<path id="wormhole" d="M33.9925 31.4885C31.0877 31.9168 28.1035 31.8457 25.0202 32L25.0184 31.9948V11.2712C24.7641 11.6422 24.6595 11.7774 24.573 11.9213C21.6866 16.7363 18.8019 21.5512 15.9173 26.3662L15.9054 26.3861C14.2952 29.0734 11.9619 30.9216 8.79204 31.5198C5.94344 32.0579 2.89382 31.8509 0 31.8509V1.37314H12.694V21.8592C12.9014 21.5645 12.9915 21.4518 13.0654 21.3287C16.9259 14.8826 20.7936 8.43995 24.6343 1.98169C24.9246 1.4945 25.2167 1.29512 25.8153 1.30032C29.8059 1.33194 33.8763 1.06348 37.853 1.38528V21.8402C42.6249 14.8295 46.6389 7.25186 51.005 0L54 4.94811C49.5113 12.1114 45.2615 19.4106 40.8931 26.6427C39.3406 29.2138 37.038 31.0395 33.9925 31.4885Z" fill="white"/>
</svg>
