<svg width="36" height="36" viewBox="0 0 36 36" fill="none" xmlns="http://www.w3.org/2000/svg">
<g id="Frame 14">
<rect width="36" height="36" rx="6" fill="#6C737F" fill-opacity="0.24"/>
<path id="Vector" d="M28.886 23.9801L25.2542 27.7419C25.1751 27.8241 25.0796 27.8891 24.9737 27.9327C24.8676 27.9783 24.7529 28.0012 24.6373 28H7.42143C7.33964 28 7.25951 27.977 7.19043 27.9336C7.12197 27.8907 7.06777 27.8288 7.03459 27.7555C7.00208 27.6828 6.99219 27.6021 7.00618 27.5238C7.02005 27.4451 7.05741 27.3723 7.11343 27.3148L10.748 23.5539C10.8268 23.4718 10.9221 23.4068 11.0276 23.3631C11.1334 23.3174 11.2477 23.2942 11.3631 23.295H28.578C28.6599 23.2952 28.74 23.3185 28.809 23.3622C28.8775 23.4051 28.9317 23.467 28.9649 23.5403C28.9974 23.613 29.0073 23.6937 28.9933 23.772C28.9794 23.8507 28.942 23.9226 28.886 23.9801ZM25.2542 16.4074C25.1751 16.3251 25.0796 16.2602 24.9737 16.2166C24.8676 16.1707 24.753 16.1475 24.6373 16.1484H7.42143C7.33964 16.1483 7.25951 16.1713 7.19043 16.2147C7.12183 16.2579 7.06762 16.3202 7.03459 16.3937C7.00227 16.4662 6.99237 16.5465 7.00618 16.6245C7.02005 16.7033 7.05741 16.7761 7.11343 16.8335L10.748 20.5953C10.8268 20.6775 10.9221 20.7425 11.0276 20.7862C11.1334 20.8316 11.2477 20.8545 11.3631 20.8534H28.578C28.6598 20.8535 28.7399 20.8305 28.809 20.7871C28.8775 20.7442 28.9317 20.6822 28.9649 20.609C28.9974 20.5363 29.0073 20.4556 28.9933 20.3773C28.9794 20.2985 28.942 20.2258 28.886 20.1683L25.2542 16.4074ZM7.42143 13.705H24.6382C24.7539 13.706 24.8685 13.6827 24.9746 13.6369C25.0805 13.5933 25.176 13.5283 25.2551 13.4461L28.8869 9.68425C28.943 9.62678 28.9803 9.55398 28.9942 9.47526C29.0077 9.39715 28.9975 9.31681 28.9649 9.24446C28.9317 9.17122 28.8775 9.10928 28.809 9.06637C28.7399 9.02297 28.6598 8.99996 28.578 9.00004H11.3631C11.2477 8.99895 11.1334 9.02186 11.0276 9.06728C10.9221 9.11098 10.8268 9.17597 10.748 9.25809L7.11434 13.0208C7.05833 13.0783 7.02097 13.1511 7.00709 13.2298C6.993 13.3077 7.00258 13.3881 7.03459 13.4606C7.06777 13.5339 7.12197 13.5958 7.19043 13.6387C7.25942 13.6824 7.33955 13.7048 7.42143 13.705Z" fill="#C534FB"/>
</g>
</svg>
