<svg width="246" height="219" viewBox="0 0 246 219" fill="none" xmlns="http://www.w3.org/2000/svg">
<circle cx="224.192" cy="157.021" r="20.8085" stroke="url(#paint0_linear_1378_1722)" stroke-opacity="0.72" stroke-width="2" stroke-dasharray="6 6"/>
<g clip-path="url(#clip0_1378_1722)">
<rect x="35.7659" y="26.1702" width="178.83" height="178.83" rx="16" fill="#1A1A1E" fill-opacity="0.72"/>
<path d="M224.145 222.362V205.485C224.145 195.593 218.807 186.552 209.639 182.836C192.317 175.815 169.454 168.098 169.454 164.199C169.454 159.859 186.816 148.573 186.816 130.343L191.178 65.8697C191.178 39.1877 143.566 31.379 126.049 31.379C108.564 31.379 59.1836 38.5373 59.1836 65.6115L63.5453 130.343C63.5453 145.535 80.0394 156.386 80.0394 164.199C80.0394 170.348 57.9735 176.848 40.891 183.148C31.5925 186.577 26.2168 195.608 26.2168 205.519V222.362H224.145Z" fill="#4E5BA6" fill-opacity="0.34"/>
<path d="M75.6987 91.2782C75.6987 78.1547 80.912 65.5688 90.1917 56.2891C99.4714 47.0094 112.057 41.7961 125.181 41.7961C138.304 41.7961 150.89 47.0094 160.17 56.2891C169.45 65.5688 174.663 78.1547 174.663 91.2782V111.071C174.663 124.194 173.031 133.54 163.642 142.588C153.828 152.046 145.581 162.897 139.505 165.501C133.614 168.026 117.368 168.54 110.857 165.501C105.414 162.961 96.9673 151.177 86.7193 142.588C76.7265 134.212 75.6987 124.194 75.6987 111.071V91.2782Z" fill="url(#paint1_linear_1378_1722)" fill-opacity="0.72"/>
<g style="mix-blend-mode:overlay">
<path d="M89.4846 55.582C80.0174 65.0492 74.6987 77.8895 74.6987 91.2782V111.071C74.6987 124.227 75.7129 134.667 86.0769 143.354C90.7287 147.253 95.01 151.822 98.8431 155.912C99.186 156.278 99.5254 156.64 99.8611 156.998C101.896 159.164 103.804 161.167 105.55 162.79C107.282 164.4 108.925 165.703 110.434 166.407C113.906 168.028 119.79 168.652 125.425 168.587C131.067 168.523 136.765 167.763 139.898 166.42C141.556 165.71 143.302 164.467 145.112 162.911C146.93 161.347 148.863 159.424 150.894 157.307C152.195 155.949 153.536 154.514 154.917 153.036C157.869 149.876 161.004 146.519 164.336 143.308C169.145 138.674 171.994 133.932 173.628 128.653C175.255 123.4 175.663 117.662 175.663 111.071V91.2782C175.663 77.8895 170.344 65.0492 160.877 55.582C151.41 46.1148 138.569 40.7961 125.181 40.7961C111.792 40.7961 98.9518 46.1148 89.4846 55.582Z" stroke="url(#paint2_linear_1378_1722)" stroke-width="2"/>
</g>
<path fill-rule="evenodd" clip-rule="evenodd" d="M113.954 132.066C114.201 131.139 115.153 130.589 116.079 130.836C122.297 132.494 127.631 132.494 133.849 130.836C134.775 130.589 135.726 131.139 135.974 132.066C136.221 132.992 135.67 133.944 134.743 134.191C127.939 136.005 121.988 136.005 115.184 134.191C114.258 133.944 113.707 132.992 113.954 132.066Z" fill="#8584D9" fill-opacity="0.24"/>
<g style="mix-blend-mode:hard-light" opacity="0.32" filter="url(#filter0_f_1378_1722)">
<ellipse cx="172.059" cy="185.468" rx="52.0863" ry="30.8178" fill="#A656F6"/>
</g>
<g opacity="0.64" filter="url(#filter1_f_1378_1722)">
<ellipse cx="81.7754" cy="185.902" rx="46.8777" ry="27.7794" fill="#4E5BA6"/>
</g>
<g filter="url(#filter2_b_1378_1722)">
<path fill-rule="evenodd" clip-rule="evenodd" d="M106.766 77.3883C106.766 77.3989 106.766 77.4096 106.766 77.4202V79.6011C106.766 80.8055 107.661 81.7819 108.766 81.7819H140.766C141.87 81.7819 142.766 80.8055 142.766 79.6011V77.4202C142.766 77.4096 142.766 77.3989 142.766 77.3883H157.56C168.924 77.3883 183.64 85.508 179.157 95.9575C178.887 96.5857 178.619 97.216 178.351 97.8463C173.667 108.853 168.997 119.829 157.86 118.754C157.37 118.707 156.906 118.652 156.477 118.59C130.488 114.795 123.449 114.253 97.4596 118.59C96.2131 118.798 94.7337 118.938 93.1291 119.028C82.5889 119.619 77.9652 109.993 73.0024 99.6617C72.4115 98.4316 71.8158 97.1915 71.2048 95.9575C66.1593 85.7678 82.3062 77.3883 93.6695 77.3883H106.766Z" fill="url(#paint3_linear_1378_1722)" fill-opacity="0.32"/>
</g>
<g style="mix-blend-mode:overlay">
<mask id="path-10-inside-1_1378_1722" fill="white">
<path fill-rule="evenodd" clip-rule="evenodd" d="M106.766 77.3883C106.766 77.3989 106.766 77.4096 106.766 77.4202V79.6011C106.766 80.8055 107.661 81.7819 108.766 81.7819H140.766C141.87 81.7819 142.766 80.8055 142.766 79.6011V77.4202C142.766 77.4096 142.766 77.3989 142.766 77.3883H157.56C168.924 77.3883 183.64 85.508 179.157 95.9575C178.887 96.5857 178.619 97.216 178.351 97.8463C173.667 108.853 168.997 119.829 157.86 118.754C157.37 118.707 156.906 118.652 156.477 118.59C130.488 114.795 123.449 114.253 97.4596 118.59C96.2131 118.798 94.7337 118.938 93.1291 119.028C82.5889 119.619 77.9652 109.993 73.0024 99.6617C72.4115 98.4316 71.8158 97.1915 71.2048 95.9575C66.1593 85.7678 82.3062 77.3883 93.6694 77.3883H106.766Z"/>
</mask>
<path d="M106.766 77.3883L108.766 77.4145L108.793 75.3883H106.766V77.3883ZM142.766 77.3883V75.3883H140.74L140.766 77.4141L142.766 77.3883ZM179.157 95.9575L180.995 96.7459V96.7459L179.157 95.9575ZM178.351 97.8463L180.191 98.6294V98.6294L178.351 97.8463ZM157.86 118.754L157.668 120.745H157.668L157.86 118.754ZM156.477 118.59L156.766 116.611L156.477 118.59ZM97.4596 118.59L97.1304 116.617L97.1304 116.617L97.4596 118.59ZM93.1291 119.028L93.0172 117.031L93.1291 119.028ZM73.0024 99.6617L74.8052 98.7957V98.7957L73.0024 99.6617ZM71.2048 95.9575L72.9971 95.07L71.2048 95.9575ZM108.766 77.4202C108.766 77.4184 108.766 77.4165 108.766 77.4145L104.766 77.3621C104.766 77.3814 104.766 77.4007 104.766 77.4202H108.766ZM108.766 79.6011V77.4202H104.766V79.6011H108.766ZM108.766 79.7819C108.788 79.7819 108.81 79.7876 108.825 79.7944C108.838 79.8002 108.836 79.8025 108.826 79.7914C108.804 79.7679 108.766 79.7058 108.766 79.6011H104.766C104.766 81.7436 106.397 83.7819 108.766 83.7819V79.7819ZM140.766 79.7819H108.766V83.7819H140.766V79.7819ZM140.766 79.6011C140.766 79.7058 140.728 79.7679 140.706 79.7914C140.696 79.8025 140.694 79.8002 140.707 79.7944C140.721 79.7876 140.743 79.7819 140.766 79.7819V83.7819C143.135 83.7819 144.766 81.7436 144.766 79.6011H140.766ZM140.766 77.4202V79.6011H144.766V77.4202H140.766ZM140.766 77.4141C140.766 77.4171 140.766 77.4191 140.766 77.4202H144.766C144.766 77.4 144.766 77.3807 144.766 77.3624L140.766 77.4141ZM142.766 79.3883H157.56V75.3883H142.766V79.3883ZM157.56 79.3883C162.842 79.3883 168.941 81.2969 173.116 84.3659C175.193 85.8923 176.679 87.6202 177.425 89.415C178.147 91.1528 178.224 93.0584 177.319 95.169L180.995 96.7459C182.331 93.6318 182.25 90.6039 181.118 87.8803C180.01 85.2137 177.947 82.9525 175.485 81.1428C170.583 77.5395 163.642 75.3883 157.56 75.3883V79.3883ZM177.319 95.169C177.048 95.8003 176.779 96.4334 176.511 97.0632L180.191 98.6294C180.46 97.9987 180.727 97.371 180.995 96.7459L177.319 95.169ZM176.511 97.0632C174.138 102.639 171.901 107.859 168.956 111.592C166.103 115.207 162.76 117.218 158.052 116.764L157.668 120.745C164.098 121.365 168.658 118.426 172.096 114.07C175.44 109.831 177.88 104.06 180.191 98.6294L176.511 97.0632ZM158.052 116.764C157.587 116.719 157.157 116.668 156.766 116.611L156.188 120.569C156.656 120.637 157.152 120.695 157.668 120.745L158.052 116.764ZM156.766 116.611C143.787 114.716 135.399 113.609 126.985 113.54C118.551 113.471 110.157 114.443 97.1304 116.617L97.7888 120.562C110.751 118.399 118.872 117.474 126.952 117.54C135.052 117.607 143.178 118.669 156.188 120.569L156.766 116.611ZM97.1304 116.617C95.9825 116.808 94.5821 116.944 93.0172 117.031L93.2409 121.025C94.8853 120.933 96.4438 120.787 97.7888 120.562L97.1304 116.617ZM93.0172 117.031C88.5201 117.283 85.2919 115.418 82.4953 112.142C79.605 108.756 77.3196 104.03 74.8052 98.7957L71.1996 100.528C73.648 105.625 76.1559 110.877 79.4531 114.739C82.8442 118.712 87.1979 121.364 93.2409 121.025L93.0172 117.031ZM74.8052 98.7957C74.2152 97.5674 73.6143 96.3165 72.9971 95.07L69.4125 96.8449C70.0173 98.0665 70.6079 99.2958 71.1996 100.528L74.8052 98.7957ZM72.9971 95.07C72.0066 93.0696 72.069 91.2575 72.8173 89.5667C73.6009 87.796 75.1934 86.0518 77.4285 84.4918C81.9131 81.3618 88.3897 79.3883 93.6694 79.3883V75.3883C87.586 75.3883 80.3075 77.6045 75.1392 81.2117C72.5478 83.0203 70.3394 85.2816 69.1595 87.9479C67.9441 90.6941 67.8803 93.7506 69.4125 96.8449L72.9971 95.07ZM93.6694 79.3883H106.766V75.3883H93.6694V79.3883Z" fill="white" mask="url(#path-10-inside-1_1378_1722)"/>
</g>
<g style="mix-blend-mode:overlay">
<mask id="path-12-inside-2_1378_1722" fill="white">
<path fill-rule="evenodd" clip-rule="evenodd" d="M97.9425 67.1429C97.9423 67.1588 97.9422 67.1748 97.9422 67.1908V70.4441C97.9422 72.2409 99.278 73.6974 100.926 73.6974H148.663C150.31 73.6974 151.646 72.2409 151.646 70.4441V67.1908C151.646 67.1748 151.646 67.1588 151.646 67.1429H173.514C190.466 67.1429 212.419 79.2557 205.732 94.8439C205.33 95.7811 204.93 96.7214 204.529 97.6617C197.543 114.081 190.575 130.455 173.962 128.852C173.23 128.781 172.539 128.7 171.899 128.606C133.129 122.945 122.628 122.136 83.8577 128.606C81.9983 128.916 79.7913 129.126 77.3976 129.261C61.674 130.141 54.7765 115.782 47.3731 100.37C46.4916 98.5348 45.603 96.6849 44.6914 94.8439C37.1647 79.6433 61.2523 67.1429 78.2037 67.1429H97.9425Z"/>
</mask>
<path d="M97.9425 67.1429L98.7424 67.1534L98.7531 66.3429H97.9425V67.1429ZM151.646 67.1429V66.3429H150.835L150.846 67.1536L151.646 67.1429ZM205.732 94.8439L206.467 95.1593V95.1593L205.732 94.8439ZM204.529 97.6617L203.793 97.3484L203.793 97.3484L204.529 97.6617ZM173.962 128.852L174.039 128.055L173.962 128.852ZM171.899 128.606L172.015 127.814L171.899 128.606ZM83.8577 128.606L83.726 127.817L83.8577 128.606ZM77.3976 129.261L77.3528 128.462L77.3976 129.261ZM47.3731 100.37L46.652 100.716L47.3731 100.37ZM44.6914 94.8439L43.9745 95.1989H43.9745L44.6914 94.8439ZM98.7422 67.1908C98.7422 67.1783 98.7423 67.1659 98.7424 67.1534L97.1426 67.1323C97.1423 67.1517 97.1422 67.1712 97.1422 67.1908H98.7422ZM98.7422 70.4441V67.1908H97.1422V70.4441H98.7422ZM100.926 72.8974C99.7836 72.8974 98.7422 71.8656 98.7422 70.4441H97.1422C97.1422 72.6161 98.7724 74.4974 100.926 74.4974V72.8974ZM148.663 72.8974H100.926V74.4974H148.663V72.8974ZM150.846 70.4441C150.846 71.8656 149.805 72.8974 148.663 72.8974V74.4974C150.816 74.4974 152.446 72.6161 152.446 70.4441H150.846ZM150.846 67.1908V70.4441H152.446V67.1908H150.846ZM150.846 67.1536C150.846 67.1657 150.846 67.1781 150.846 67.1908H152.446C152.446 67.1715 152.446 67.1519 152.446 67.1322L150.846 67.1536ZM151.646 67.9429H173.514V66.3429H151.646V67.9429ZM173.514 67.9429C181.83 67.9429 191.388 70.9226 198.014 75.7924C201.322 78.2242 203.854 81.093 205.164 84.2463C206.465 87.3768 206.582 90.8322 204.997 94.5285L206.467 95.1593C208.225 91.0616 208.106 87.1572 206.641 83.6324C205.186 80.1304 202.424 77.0482 198.961 74.5032C192.045 69.4196 182.15 66.3429 173.514 66.3429V67.9429ZM204.997 94.5285C204.594 95.4669 204.193 96.4084 203.793 97.3484L205.266 97.9749C205.666 97.0345 206.065 96.0952 206.467 95.1593L204.997 94.5285ZM203.793 97.3484C200.288 105.587 196.84 113.675 192.228 119.519C187.653 125.317 182.001 128.824 174.039 128.055L173.885 129.648C182.536 130.483 188.675 126.604 193.484 120.511C198.255 114.464 201.785 106.156 205.266 97.9749L203.793 97.3484ZM174.039 128.055C173.317 127.986 172.639 127.906 172.015 127.814L171.783 129.398C172.439 129.493 173.143 129.576 173.885 129.648L174.039 128.055ZM172.015 127.814C152.636 124.985 140.266 123.359 127.885 123.257C115.497 123.155 103.124 124.58 83.726 127.817L83.9894 129.395C103.362 126.162 115.625 124.756 127.872 124.857C140.127 124.958 152.392 126.566 171.783 129.398L172.015 127.814ZM83.726 127.817C81.906 128.121 79.7307 128.329 77.3528 128.462L77.4423 130.059C79.852 129.924 82.0906 129.712 83.9894 129.395L83.726 127.817ZM77.3528 128.462C69.8002 128.885 64.3701 125.673 59.8737 120.406C55.3398 115.095 51.8091 107.757 48.0942 100.023L46.652 100.716C50.3405 108.395 53.9602 115.943 58.6568 121.445C63.391 126.99 69.2714 130.517 77.4423 130.059L77.3528 128.462ZM48.0942 100.023C47.2131 98.1892 46.3224 96.3349 45.4084 94.4889L43.9745 95.1989C44.8836 97.0349 45.7702 98.8805 46.652 100.716L48.0942 100.023ZM45.4084 94.4889C43.635 90.9076 43.7289 87.5251 45.1002 84.4266C46.4855 81.2963 49.1974 78.4121 52.7261 75.9492C59.7894 71.0194 69.8887 67.9429 78.2037 67.9429V66.3429C69.5672 66.3429 59.1471 69.5165 51.8104 74.6372C48.1392 77.1995 45.1809 80.2905 43.637 83.7791C42.079 87.2997 41.9845 91.18 43.9745 95.1989L45.4084 94.4889ZM78.2037 67.9429H97.9425V66.3429H78.2037V67.9429Z" fill="white" mask="url(#path-12-inside-2_1378_1722)"/>
</g>
<g style="mix-blend-mode:overlay">
<path fill-rule="evenodd" clip-rule="evenodd" d="M83.0318 55.3218H61.9687C41.8286 55.3218 13.2099 70.1737 22.1525 88.2337C23.2354 90.4208 24.2912 92.6187 25.3384 94.7988C34.1345 113.11 42.3297 130.171 61.011 129.124C63.855 128.965 66.4772 128.716 68.6864 128.347C114.75 120.66 127.226 121.621 173.289 128.347C174.05 128.458 174.87 128.555 175.74 128.639C195.479 130.543 203.757 111.089 212.058 91.5814C212.533 90.4644 213.009 89.3471 213.486 88.2337C221.431 69.7132 195.349 55.3218 175.208 55.3218H152.607C152.607 55.3408 152.607 55.3598 152.607 55.3789V59.2442C152.607 61.379 150.877 63.1096 148.742 63.1096H86.8967C84.7619 63.1096 83.0314 61.379 83.0314 59.2442V55.3789C83.0314 55.3598 83.0315 55.3408 83.0318 55.3218ZM82.3314 56.0218H61.9687C52.0393 56.0218 39.9899 59.6923 31.5552 65.5793C27.3404 68.521 24.0798 71.9801 22.409 75.7554C20.7506 79.5028 20.6389 83.5995 22.7798 87.9231C23.8646 90.114 24.9219 92.315 25.9686 94.494L25.9696 94.496C30.3791 103.676 34.588 112.427 40.0002 118.767C45.3796 125.068 51.9017 128.934 60.9718 128.426C63.8019 128.267 66.3964 128.019 68.5711 127.656C91.6142 123.811 106.297 122.121 120.993 122.242C135.683 122.363 150.364 124.292 173.39 127.654C174.137 127.763 174.947 127.859 175.808 127.942C185.376 128.865 192.167 124.64 197.639 117.706C203.143 110.731 207.252 101.087 211.414 91.3074L211.418 91.2976C211.892 90.1839 212.366 89.069 212.843 87.9577C214.754 83.5032 214.614 79.3276 213.043 75.5464C211.464 71.7453 208.42 68.3035 204.465 65.3966C196.547 59.5772 185.138 56.0218 175.208 56.0218H153.307V59.2442C153.307 61.7656 151.263 63.8096 148.742 63.8096H86.8967C84.3753 63.8096 82.3314 61.7656 82.3314 59.2442V56.0218Z" fill="white" fill-opacity="0.24"/>
</g>
<g style="mix-blend-mode:overlay">
<path fill-rule="evenodd" clip-rule="evenodd" d="M73.6407 45.3218H46.8732C21.2786 45.3218 -15.0908 64.196 -3.7263 87.1471C-2.34996 89.9267 -1.00822 92.7199 0.322692 95.4906C11.5009 118.761 21.9154 140.442 45.6561 139.112C49.2703 138.91 52.6026 138.592 55.4101 138.124C113.949 128.355 129.803 129.576 188.342 138.124C189.308 138.265 190.351 138.388 191.457 138.495C216.541 140.915 227.061 116.193 237.61 91.4015C238.214 89.9819 238.818 88.562 239.425 87.1471C249.522 63.6107 216.376 45.3218 190.781 45.3218H162.058C162.059 45.3459 162.059 45.3701 162.059 45.3944V50.3065C162.059 53.0194 159.86 55.2187 157.147 55.2187H78.5523C75.8394 55.2187 73.6401 53.0194 73.6401 50.3065V45.3944C73.6401 45.3701 73.6403 45.3459 73.6407 45.3218ZM73.1401 45.8218H46.8732C34.1764 45.8218 18.7856 50.51 7.99996 58.0378C2.60893 61.8004 -1.59466 66.2467 -3.75653 71.1317C-5.90956 75.9967 -6.05163 81.3242 -3.27822 86.9252C-1.90054 89.7075 -0.557706 92.503 0.772797 95.2728L0.773391 95.2741C6.37075 106.927 11.7411 118.099 18.6587 126.202C25.5529 134.278 33.951 139.267 45.6281 138.613C49.2324 138.411 52.545 138.095 55.3278 137.631C84.6053 132.745 103.238 130.602 121.88 130.755C140.518 130.908 159.149 133.356 188.414 137.629C189.371 137.769 190.406 137.891 191.505 137.997C203.832 139.186 212.581 133.727 219.592 124.843C226.626 115.929 231.868 103.619 237.15 91.2057C237.754 89.7862 238.359 88.3657 238.966 86.9499C241.436 81.1913 241.258 75.7755 239.222 70.8743C237.18 65.9589 233.255 61.5329 228.191 57.8112C218.058 50.3637 203.478 45.8218 190.781 45.8218H162.559V50.3065C162.559 53.2956 160.136 55.7187 157.147 55.7187H78.5523C75.5632 55.7187 73.1401 53.2956 73.1401 50.3065V45.8218Z" fill="white" fill-opacity="0.1"/>
</g>
</g>
<g filter="url(#filter3_b_1378_1722)">
<circle cx="199" cy="190" r="27" fill="#0F0B21"/>
<circle cx="199" cy="190" r="28" stroke="url(#paint4_linear_1378_1722)" stroke-width="2" stroke-miterlimit="10"/>
</g>
<path d="M208.036 188.032H201.357C201.306 188.032 201.254 188.022 201.207 188.002C201.159 187.983 201.116 187.954 201.079 187.917C201.043 187.881 201.014 187.837 200.994 187.79C200.975 187.742 200.964 187.691 200.964 187.639V180.95C200.96 180.432 200.751 179.936 200.383 179.57C200.015 179.205 199.518 179 199 179C198.482 179 197.985 179.205 197.617 179.57C197.249 179.936 197.04 180.432 197.036 180.95V187.639C197.036 187.743 196.994 187.843 196.921 187.917C196.847 187.991 196.747 188.032 196.643 188.032H189.964C189.443 188.032 188.944 188.24 188.575 188.609C188.207 188.978 188 189.478 188 190C188 190.521 188.207 191.022 188.575 191.391C188.944 191.76 189.443 191.967 189.964 191.967H196.643C196.694 191.967 196.746 191.977 196.793 191.997C196.841 192.017 196.884 192.046 196.921 192.082C196.957 192.119 196.986 192.162 197.006 192.21C197.026 192.258 197.036 192.309 197.036 192.36V199.05C197.04 199.568 197.249 200.064 197.617 200.43C197.985 200.795 198.482 201 199 201C199.518 201 200.015 200.795 200.383 200.43C200.751 200.064 200.96 199.568 200.964 199.05V192.36C200.964 192.309 200.974 192.258 200.994 192.21C201.014 192.162 201.043 192.119 201.079 192.082C201.116 192.046 201.159 192.017 201.207 191.997C201.254 191.977 201.306 191.967 201.357 191.967H208.036C208.557 191.967 209.056 191.76 209.425 191.391C209.793 191.022 210 190.521 210 190C210 189.478 209.793 188.978 209.425 188.609C209.056 188.24 208.557 188.032 208.036 188.032Z" fill="#6A56F6"/>
<circle cx="37.5" cy="27.5" r="26.5" stroke="url(#paint5_linear_1378_1722)" stroke-opacity="0.48" stroke-width="2" stroke-dasharray="6 6"/>
<circle cx="33" cy="140" r="16.5" stroke="url(#paint6_linear_1378_1722)" stroke-opacity="0.56" stroke-dasharray="4 4"/>
<defs>
<filter id="filter0_f_1378_1722" x="63.9722" y="98.6499" width="216.173" height="173.635" filterUnits="userSpaceOnUse" color-interpolation-filters="sRGB">
<feFlood flood-opacity="0" result="BackgroundImageFix"/>
<feBlend mode="normal" in="SourceGraphic" in2="BackgroundImageFix" result="shape"/>
<feGaussianBlur stdDeviation="28" result="effect1_foregroundBlur_1378_1722"/>
</filter>
<filter id="filter1_f_1378_1722" x="-21.1023" y="102.122" width="205.755" height="167.559" filterUnits="userSpaceOnUse" color-interpolation-filters="sRGB">
<feFlood flood-opacity="0" result="BackgroundImageFix"/>
<feBlend mode="normal" in="SourceGraphic" in2="BackgroundImageFix" result="shape"/>
<feGaussianBlur stdDeviation="28" result="effect1_foregroundBlur_1378_1722"/>
</filter>
<filter id="filter2_b_1378_1722" x="64.2544" y="71.3883" width="121.728" height="53.6659" filterUnits="userSpaceOnUse" color-interpolation-filters="sRGB">
<feFlood flood-opacity="0" result="BackgroundImageFix"/>
<feGaussianBlur in="BackgroundImageFix" stdDeviation="3"/>
<feComposite in2="SourceAlpha" operator="in" result="effect1_backgroundBlur_1378_1722"/>
<feBlend mode="normal" in="SourceGraphic" in2="effect1_backgroundBlur_1378_1722" result="shape"/>
</filter>
<filter id="filter3_b_1378_1722" x="162" y="153" width="74" height="74" filterUnits="userSpaceOnUse" color-interpolation-filters="sRGB">
<feFlood flood-opacity="0" result="BackgroundImageFix"/>
<feGaussianBlur in="BackgroundImageFix" stdDeviation="4"/>
<feComposite in2="SourceAlpha" operator="in" result="effect1_backgroundBlur_1378_1722"/>
<feBlend mode="normal" in="SourceGraphic" in2="effect1_backgroundBlur_1378_1722" result="shape"/>
</filter>
<linearGradient id="paint0_linear_1378_1722" x1="243.997" y1="138.834" x2="252.43" y2="180.423" gradientUnits="userSpaceOnUse">
<stop stop-color="#5D4CD5"/>
<stop offset="1" stop-color="#3F3397"/>
</linearGradient>
<linearGradient id="paint1_linear_1378_1722" x1="125.181" y1="41.7961" x2="125.181" y2="167.592" gradientUnits="userSpaceOnUse">
<stop stop-color="#020106" stop-opacity="0.12"/>
<stop offset="0.29" stop-color="#020106" stop-opacity="0.866667"/>
<stop offset="0.702688" stop-color="#020106"/>
<stop offset="1" stop-color="#020106" stop-opacity="0.32"/>
</linearGradient>
<linearGradient id="paint2_linear_1378_1722" x1="125.181" y1="41.7961" x2="125.181" y2="167.592" gradientUnits="userSpaceOnUse">
<stop stop-color="white"/>
<stop offset="0.515" stop-color="white" stop-opacity="0.24"/>
<stop offset="1" stop-color="white"/>
</linearGradient>
<linearGradient id="paint3_linear_1378_1722" x1="92.1928" y1="77.3883" x2="174.229" y2="114.283" gradientUnits="userSpaceOnUse">
<stop stop-color="#717BBC" stop-opacity="0.247059"/>
<stop offset="0.49" stop-color="#717BBC"/>
<stop offset="1" stop-color="#6A56F6"/>
</linearGradient>
<linearGradient id="paint4_linear_1378_1722" x1="223.52" y1="167.484" x2="233.961" y2="218.973" gradientUnits="userSpaceOnUse">
<stop stop-color="#5D4CD5"/>
<stop offset="1" stop-color="#3F3397"/>
</linearGradient>
<linearGradient id="paint5_linear_1378_1722" x1="62.4745" y1="4.5666" x2="73.1084" y2="57.0092" gradientUnits="userSpaceOnUse">
<stop stop-color="#5D4CD5"/>
<stop offset="1" stop-color="#3F3397"/>
</linearGradient>
<linearGradient id="paint6_linear_1378_1722" x1="48.4388" y1="125.823" x2="55.0125" y2="158.242" gradientUnits="userSpaceOnUse">
<stop stop-color="#5D4CD5"/>
<stop offset="1" stop-color="#3F3397"/>
</linearGradient>
<clipPath id="clip0_1378_1722">
<rect x="35.7659" y="26.1702" width="178.83" height="178.83" rx="16" fill="white"/>
</clipPath>
</defs>
</svg>
