<svg width="26" height="26" viewBox="0 0 26 26" fill="none" xmlns="http://www.w3.org/2000/svg">
<rect width="26" height="26" rx="13" fill="#3468D1"/>
<g clip-path="url(#clip0_579_4257)">
<path d="M13 24C19.0751 24 24 19.0751 24 13C24 6.92487 19.0751 2 13 2C6.92487 2 2 6.92487 2 13C2 19.0751 6.92487 24 13 24Z" fill="#3468D1"/>
<path fill-rule="evenodd" clip-rule="evenodd" d="M11.7734 9.62566C11.9884 9.6257 12.1986 9.6895 12.3774 9.80899C12.5562 9.92848 12.6955 10.0983 12.7778 10.297C12.8601 10.4957 12.8816 10.7143 12.8396 10.9252C12.7976 11.1361 12.6941 11.3298 12.542 11.4818C12.3899 11.6339 12.1962 11.7374 11.9853 11.7793C11.7744 11.8213 11.5558 11.7997 11.3571 11.7174C11.1585 11.6351 10.9887 11.4958 10.8692 11.317C10.7497 11.1382 10.686 10.928 10.686 10.7129C10.686 10.4246 10.8006 10.148 11.0045 9.94411C11.2085 9.74021 11.485 9.62566 11.7734 9.62566ZM14.3985 9.62566C14.6135 9.62571 14.8237 9.68953 15.0025 9.80903C15.1812 9.92853 15.3205 10.0984 15.4028 10.297C15.485 10.4957 15.5065 10.7143 15.4646 10.9252C15.4226 11.1361 15.319 11.3298 15.1669 11.4819C15.0149 11.6339 14.8211 11.7374 14.6102 11.7794C14.3993 11.8213 14.1807 11.7997 13.9821 11.7174C13.7834 11.6351 13.6136 11.4958 13.4941 11.317C13.3747 11.1382 13.3109 10.928 13.3109 10.7129C13.311 10.4246 13.4256 10.148 13.6295 9.94408C13.8335 9.74018 14.1101 9.62564 14.3985 9.62566ZM14.3985 14.1998C14.6135 14.1998 14.8237 14.2636 15.0025 14.3831C15.1812 14.5026 15.3205 14.6725 15.4028 14.8711C15.485 15.0698 15.5065 15.2884 15.4646 15.4993C15.4226 15.7102 15.319 15.9039 15.1669 16.056C15.0149 16.208 14.8211 16.3115 14.6102 16.3535C14.3993 16.3954 14.1807 16.3738 13.9821 16.2915C13.7834 16.2092 13.6136 16.0699 13.4941 15.8911C13.3747 15.7123 13.3109 15.5021 13.3109 15.2871C13.3109 15.1442 13.3391 15.0029 13.3937 14.8709C13.4484 14.739 13.5285 14.6191 13.6295 14.5182C13.7305 14.4172 13.8504 14.3371 13.9823 14.2825C14.1142 14.2279 14.2557 14.1998 14.3985 14.1998ZM11.7734 14.1998C11.9884 14.1998 12.1986 14.2636 12.3774 14.3831C12.5562 14.5026 12.6955 14.6724 12.7778 14.8711C12.8601 15.0698 12.8816 15.2884 12.8396 15.4993C12.7976 15.7102 12.6941 15.9039 12.542 16.0559C12.3899 16.208 12.1962 16.3115 11.9853 16.3535C11.7744 16.3954 11.5558 16.3739 11.3571 16.2916C11.1585 16.2093 10.9887 16.0699 10.8692 15.8911C10.7497 15.7123 10.686 15.5021 10.686 15.2871C10.686 15.1443 10.7141 15.0029 10.7688 14.8709C10.8234 14.739 10.9035 14.6192 11.0045 14.5182C11.1055 14.4172 11.2254 14.3371 11.3573 14.2825C11.4892 14.2279 11.6306 14.1998 11.7734 14.1998ZM10.4234 11.9502C10.6385 11.9502 10.8487 12.014 11.0274 12.1335C11.2062 12.253 11.3455 12.4228 11.4278 12.6215C11.5101 12.8202 11.5316 13.0388 11.4896 13.2497C11.4476 13.4606 11.3441 13.6543 11.192 13.8064C11.0399 13.9584 10.8462 14.0619 10.6353 14.1039C10.4244 14.1458 10.2058 14.1243 10.0071 14.042C9.80846 13.9597 9.63866 13.8203 9.5192 13.6415C9.39973 13.4627 9.33597 13.2525 9.33597 13.0375C9.33601 12.7491 9.45061 12.4725 9.65454 12.2686C9.85847 12.0647 10.135 11.9502 10.4234 11.9502ZM15.7485 11.9502C15.9635 11.9502 16.1737 12.0141 16.3524 12.1336C16.5312 12.2531 16.6705 12.4229 16.7528 12.6216C16.835 12.8202 16.8565 13.0389 16.8146 13.2497C16.7726 13.4606 16.669 13.6543 16.5169 13.8064C16.3649 13.9584 16.1711 14.0619 15.9602 14.1039C15.7493 14.1458 15.5307 14.1243 15.3321 14.042C15.1334 13.9597 14.9636 13.8203 14.8441 13.6415C14.7247 13.4627 14.6609 13.2525 14.6609 13.0375C14.6609 12.8947 14.6891 12.7533 14.7437 12.6213C14.7984 12.4894 14.8785 12.3695 14.9795 12.2686C15.0805 12.1676 15.2004 12.0875 15.3323 12.0329C15.4642 11.9783 15.6056 11.9502 15.7485 11.9502ZM16.986 10.0756C17.1194 10.0757 17.2499 10.1153 17.3608 10.1895C17.4718 10.2636 17.5583 10.369 17.6093 10.4924C17.6604 10.6157 17.6737 10.7514 17.6477 10.8823C17.6216 11.0132 17.5573 11.1334 17.4629 11.2278C17.3685 11.3221 17.2483 11.3864 17.1174 11.4124C16.9865 11.4384 16.8508 11.4251 16.7275 11.374C16.6042 11.3229 16.4988 11.2364 16.4246 11.1254C16.3505 11.0144 16.3109 10.884 16.3109 10.7505C16.3109 10.6619 16.3284 10.5741 16.3623 10.4922C16.3962 10.4103 16.446 10.3359 16.5086 10.2732C16.5713 10.2106 16.6457 10.1609 16.7276 10.127C16.8095 10.093 16.8973 10.0756 16.986 10.0756ZM16.986 14.5746C17.1194 14.5747 17.2499 14.6143 17.3608 14.6885C17.4718 14.7626 17.5583 14.868 17.6093 14.9914C17.6604 15.1147 17.6737 15.2504 17.6477 15.3813C17.6216 15.5122 17.5573 15.6324 17.4629 15.7268C17.3685 15.8211 17.2483 15.8854 17.1174 15.9114C16.9865 15.9374 16.8508 15.9241 16.7275 15.873C16.6042 15.8219 16.4988 15.7354 16.4246 15.6244C16.3505 15.5134 16.3109 15.383 16.3109 15.2495C16.3109 15.1609 16.3284 15.0731 16.3623 14.9912C16.3962 14.9093 16.446 14.8349 16.5086 14.7722C16.5713 14.7096 16.6457 14.6599 16.7276 14.626C16.8095 14.5921 16.8973 14.5746 16.986 14.5746ZM9.18592 14.5746C9.31939 14.5746 9.44986 14.6142 9.56083 14.6884C9.6718 14.7626 9.75829 14.868 9.80936 14.9913C9.86042 15.1146 9.87377 15.2503 9.84772 15.3812C9.82168 15.5121 9.75739 15.6324 9.66301 15.7267C9.56862 15.8211 9.44837 15.8854 9.31746 15.9114C9.18656 15.9374 9.05087 15.9241 8.92756 15.873C8.80424 15.8219 8.69885 15.7354 8.6247 15.6244C8.55055 15.5135 8.51097 15.383 8.51097 15.2495C8.51099 15.0705 8.58211 14.8989 8.70869 14.7723C8.83526 14.6457 9.00693 14.5746 9.18592 14.5746ZM9.18592 10.0756C9.31939 10.0757 9.44986 10.1152 9.56083 10.1894C9.6718 10.2636 9.75829 10.369 9.80936 10.4923C9.86042 10.6156 9.87377 10.7513 9.84772 10.8822C9.82168 11.0131 9.75739 11.1334 9.66301 11.2277C9.56862 11.3221 9.44837 11.3864 9.31746 11.4124C9.18656 11.4384 9.05087 11.4251 8.92756 11.374C8.80424 11.3229 8.69885 11.2364 8.6247 11.1254C8.55055 11.0144 8.51097 10.884 8.51097 10.7505C8.51099 10.5715 8.58211 10.3999 8.70869 10.2733C8.83526 10.1467 9.00693 10.0756 9.18592 10.0756ZM13.0859 7.82605C13.2194 7.82608 13.3499 7.86569 13.4608 7.93987C13.5718 8.01404 13.6583 8.11946 13.7093 8.24277C13.7604 8.36609 13.7737 8.50178 13.7476 8.63268C13.7216 8.76358 13.6573 8.88381 13.5629 8.97818C13.4685 9.07254 13.3483 9.1368 13.2174 9.16283C13.0865 9.18885 12.9508 9.17548 12.8275 9.12439C12.7042 9.07331 12.5988 8.98681 12.5246 8.87583C12.4505 8.76486 12.4109 8.63438 12.4109 8.50091C12.4109 8.41227 12.4284 8.3245 12.4623 8.24261C12.4962 8.16072 12.5459 8.08632 12.6086 8.02365C12.6713 7.96098 12.7457 7.91127 12.8276 7.87737C12.9095 7.84346 12.9973 7.82602 13.0859 7.82605ZM13.0859 16.8242C13.2194 16.8243 13.3499 16.8639 13.4608 16.938C13.5718 17.0122 13.6583 17.1176 13.7093 17.2409C13.7604 17.3643 13.7737 17.5 13.7476 17.6309C13.7216 17.7618 13.6573 17.882 13.5629 17.9763C13.4685 18.0707 13.3483 18.135 13.2174 18.161C13.0865 18.187 12.9508 18.1736 12.8275 18.1226C12.7042 18.0715 12.5988 17.985 12.5246 17.874C12.4505 17.763 12.4109 17.6326 12.4109 17.4991C12.4109 17.4104 12.4284 17.3227 12.4623 17.2408C12.4962 17.1589 12.5459 17.0845 12.6086 17.0218C12.6713 16.9592 12.7457 16.9094 12.8276 16.8755C12.9095 16.8416 12.9973 16.8242 13.0859 16.8242ZM15.9734 17.4991C16.0847 17.4991 16.1934 17.5321 16.2858 17.5939C16.3783 17.6558 16.4503 17.7436 16.4929 17.8464C16.5354 17.9491 16.5465 18.0622 16.5248 18.1713C16.5031 18.2804 16.4495 18.3805 16.3709 18.4592C16.2922 18.5378 16.192 18.5914 16.0829 18.613C15.9738 18.6347 15.8608 18.6236 15.758 18.581C15.6553 18.5384 15.5674 18.4664 15.5057 18.3739C15.4439 18.2814 15.4109 18.1727 15.4109 18.0615C15.4109 17.9876 15.4254 17.9145 15.4537 17.8462C15.482 17.778 15.5234 17.716 15.5757 17.6637C15.6279 17.6115 15.6899 17.5701 15.7582 17.5418C15.8264 17.5136 15.8996 17.4991 15.9734 17.4991ZM10.1984 17.4991C10.3097 17.4991 10.4184 17.5321 10.5108 17.5939C10.6033 17.6558 10.6753 17.7436 10.7179 17.8464C10.7604 17.9491 10.7715 18.0622 10.7498 18.1713C10.7281 18.2804 10.6745 18.3805 10.5959 18.4592C10.5172 18.5378 10.417 18.5914 10.3079 18.613C10.1988 18.6347 10.0858 18.6236 9.98301 18.581C9.88026 18.5384 9.79244 18.4664 9.73066 18.3739C9.66887 18.2814 9.63589 18.1727 9.63589 18.0615C9.63589 17.9876 9.65044 17.9145 9.67872 17.8462C9.70699 17.778 9.74843 17.716 9.80067 17.6637C9.85291 17.6115 9.91492 17.5701 9.98317 17.5418C10.0514 17.5136 10.1246 17.4991 10.1984 17.4991ZM10.1984 7.37617C10.3097 7.3762 10.4184 7.40921 10.5108 7.47103C10.6033 7.53284 10.6753 7.62068 10.7179 7.72345C10.7604 7.82621 10.7715 7.93928 10.7498 8.04836C10.7281 8.15744 10.6745 8.25763 10.5959 8.33626C10.5172 8.41489 10.417 8.46844 10.3079 8.49012C10.1988 8.51181 10.0858 8.50066 9.98301 8.45809C9.88026 8.41552 9.79244 8.34344 9.73066 8.25096C9.66887 8.15848 9.63589 8.04976 9.63589 7.93854C9.63589 7.86467 9.65044 7.79153 9.67872 7.72329C9.70699 7.65505 9.74843 7.59304 9.80067 7.54082C9.85291 7.48859 9.91492 7.44718 9.98317 7.41892C10.0514 7.39067 10.1246 7.37614 10.1984 7.37617ZM15.9734 7.37617C16.0847 7.3762 16.1934 7.40921 16.2858 7.47103C16.3783 7.53284 16.4503 7.62068 16.4929 7.72345C16.5354 7.82621 16.5465 7.93928 16.5248 8.04836C16.5031 8.15744 16.4495 8.25763 16.3709 8.33626C16.2922 8.41489 16.192 8.46844 16.0829 8.49012C15.9738 8.51181 15.8608 8.50066 15.758 8.45809C15.6553 8.41552 15.5674 8.34344 15.5057 8.25096C15.4439 8.15848 15.4109 8.04976 15.4109 7.93854C15.4109 7.86467 15.4254 7.79153 15.4537 7.72329C15.482 7.65505 15.5234 7.59304 15.5757 7.54082C15.6279 7.48859 15.6899 7.44718 15.7582 7.41892C15.8264 7.39067 15.8996 7.37614 15.9734 7.37617ZM18.8984 12.4002C19.0096 12.4002 19.1184 12.4332 19.2108 12.495C19.3033 12.5568 19.3754 12.6446 19.4179 12.7474C19.4605 12.8501 19.4716 12.9632 19.4499 13.0723C19.4282 13.1814 19.3746 13.2816 19.2959 13.3602C19.2173 13.4389 19.1171 13.4924 19.008 13.5141C18.8989 13.5358 18.7858 13.5247 18.6831 13.4821C18.5803 13.4395 18.4925 13.3674 18.4307 13.275C18.3689 13.1825 18.3359 13.0738 18.3359 12.9625C18.336 12.8134 18.3952 12.6703 18.5007 12.5649C18.6062 12.4594 18.7492 12.4002 18.8984 12.4002ZM7.27338 12.4002C7.38461 12.4002 7.49333 12.4332 7.5858 12.495C7.67827 12.5568 7.75034 12.6446 7.79289 12.7474C7.83544 12.8501 7.84656 12.9632 7.82486 13.0723C7.80315 13.1814 7.74958 13.2816 7.67093 13.3602C7.59227 13.4389 7.49207 13.4924 7.38298 13.5141C7.27389 13.5358 7.16082 13.5247 7.05806 13.4821C6.95531 13.4395 6.86748 13.3674 6.80569 13.275C6.7439 13.1825 6.71092 13.0738 6.71092 12.9625C6.71092 12.8887 6.72547 12.8155 6.75374 12.7473C6.78201 12.6791 6.82344 12.6171 6.87567 12.5648C6.9279 12.5126 6.9899 12.4712 7.05814 12.4429C7.12639 12.4147 7.19952 12.4001 7.27338 12.4002ZM6.86088 8.9508C6.94988 8.9508 7.03688 8.97719 7.11088 9.02663C7.18488 9.07608 7.24255 9.14636 7.27661 9.22859C7.31066 9.31082 7.31957 9.40129 7.3022 9.48858C7.28483 9.57587 7.24197 9.65604 7.17903 9.71897C7.11609 9.7819 7.03591 9.82475 6.94861 9.8421C6.86132 9.85945 6.77085 9.85053 6.68863 9.81646C6.60641 9.78239 6.53614 9.7247 6.48671 9.65069C6.43727 9.57668 6.4109 9.48968 6.41091 9.40068C6.41094 9.28136 6.45835 9.16693 6.54274 9.08256C6.62712 8.99819 6.74156 8.9508 6.86088 8.9508ZM6.86088 16.1493C6.94988 16.1493 7.03688 16.1757 7.11088 16.2252C7.18488 16.2746 7.24255 16.3449 7.27661 16.4271C7.31066 16.5094 7.31957 16.5998 7.3022 16.6871C7.28483 16.7744 7.24197 16.8546 7.17903 16.9175C7.11609 16.9805 7.03591 17.0233 6.94861 17.0407C6.86132 17.058 6.77085 17.0491 6.68863 17.015C6.60641 16.9809 6.53614 16.9233 6.48671 16.8492C6.43727 16.7752 6.4109 16.6882 6.41091 16.5992C6.41094 16.4799 6.45835 16.3655 6.54274 16.2811C6.62712 16.1967 6.74156 16.1493 6.86088 16.1493ZM19.3109 16.1493C19.3999 16.1493 19.4869 16.1757 19.5609 16.2252C19.6349 16.2746 19.6926 16.3449 19.7266 16.4271C19.7607 16.5094 19.7696 16.5998 19.7522 16.6871C19.7349 16.7744 19.692 16.8546 19.6291 16.9175C19.5661 16.9805 19.4859 17.0233 19.3986 17.0407C19.3113 17.058 19.2209 17.0491 19.1386 17.015C19.0564 16.9809 18.9862 16.9233 18.9367 16.8492C18.8873 16.7752 18.8609 16.6882 18.8609 16.5992C18.861 16.4799 18.9084 16.3655 18.9928 16.2811C19.0771 16.1967 19.1916 16.1493 19.3109 16.1493ZM19.3109 8.9508C19.3999 8.9508 19.4869 8.97719 19.5609 9.02663C19.6349 9.07608 19.6926 9.14636 19.7266 9.22859C19.7607 9.31082 19.7696 9.40129 19.7522 9.48858C19.7349 9.57587 19.692 9.65604 19.6291 9.71897C19.5661 9.7819 19.4859 9.82475 19.3986 9.8421C19.3113 9.85945 19.2209 9.85053 19.1386 9.81646C19.0564 9.78239 18.9862 9.7247 18.9367 9.65069C18.8873 9.57668 18.8609 9.48968 18.8609 9.40068C18.861 9.28136 18.9084 9.16693 18.9928 9.08256C19.0771 8.99819 19.1916 8.9508 19.3109 8.9508ZM13.0859 5.35156C13.1749 5.35158 13.2619 5.37799 13.3359 5.42744C13.4099 5.4769 13.4676 5.54719 13.5016 5.62942C13.5356 5.71164 13.5445 5.80212 13.5272 5.8894C13.5098 5.97668 13.4669 6.05685 13.404 6.11977C13.341 6.18269 13.2608 6.22552 13.1735 6.24287C13.0863 6.26022 12.9958 6.25129 12.9136 6.21722C12.8314 6.18314 12.7611 6.12545 12.7117 6.05145C12.6622 5.97744 12.6359 5.89044 12.6359 5.80144C12.6359 5.74235 12.6475 5.68384 12.6701 5.62924C12.6928 5.57465 12.7259 5.52505 12.7677 5.48327C12.8095 5.44149 12.8591 5.40835 12.9137 5.38576C12.9683 5.36316 13.0268 5.35154 13.0859 5.35156ZM13.0859 19.7486C13.1749 19.7486 13.2619 19.775 13.3359 19.8245C13.4099 19.8739 13.4675 19.9442 13.5016 20.0264C13.5356 20.1086 13.5445 20.1991 13.5272 20.2864C13.5098 20.3737 13.4669 20.4538 13.404 20.5168C13.3411 20.5797 13.2609 20.6225 13.1736 20.6399C13.0863 20.6572 12.9959 20.6483 12.9136 20.6143C12.8314 20.5802 12.7611 20.5225 12.7117 20.4485C12.6623 20.3745 12.6359 20.2875 12.6359 20.1986C12.6359 20.1395 12.6475 20.0809 12.6701 20.0263C12.6928 19.9717 12.7259 19.9221 12.7677 19.8804C12.8095 19.8386 12.8591 19.8054 12.9137 19.7828C12.9683 19.7602 13.0268 19.7486 13.0859 19.7486ZM17.0609 19.4487C17.135 19.4487 17.2075 19.4707 17.2692 19.5119C17.3309 19.5531 17.3789 19.6116 17.4073 19.6801C17.4357 19.7486 17.4431 19.824 17.4286 19.8968C17.4142 19.9695 17.3785 20.0363 17.326 20.0887C17.2736 20.1412 17.2068 20.1769 17.134 20.1913C17.0613 20.2058 16.9859 20.1984 16.9174 20.17C16.8489 20.1416 16.7903 20.0936 16.7491 20.0319C16.7079 19.9703 16.6859 19.8978 16.6859 19.8236C16.6859 19.7744 16.6956 19.7256 16.7145 19.6801C16.7333 19.6346 16.7609 19.5933 16.7958 19.5585C16.8306 19.5237 16.8719 19.496 16.9174 19.4772C16.9629 19.4584 17.0117 19.4487 17.0609 19.4487ZM9.1109 19.4487C9.18505 19.4487 9.25755 19.4707 9.31921 19.5119C9.38087 19.5531 9.42892 19.6116 9.4573 19.6801C9.48568 19.7486 9.49311 19.824 9.47864 19.8968C9.46417 19.9695 9.42846 20.0363 9.37602 20.0887C9.32359 20.1412 9.25678 20.1769 9.18405 20.1913C9.11131 20.2058 9.03592 20.1984 8.96741 20.17C8.8989 20.1416 8.84034 20.0936 8.79914 20.0319C8.75794 19.9703 8.73595 19.8978 8.73595 19.8236C8.73595 19.7744 8.74565 19.7256 8.76449 19.6801C8.78334 19.6346 8.81096 19.5933 8.84577 19.5585C8.88059 19.5237 8.92192 19.496 8.96741 19.4772C9.0129 19.4584 9.06166 19.4487 9.1109 19.4487ZM9.1109 5.80179C9.18505 5.80179 9.25755 5.82378 9.31921 5.86498C9.38087 5.90618 9.42892 5.96474 9.4573 6.03325C9.48568 6.10176 9.49311 6.17715 9.47864 6.24988C9.46417 6.32262 9.42846 6.38943 9.37602 6.44186C9.32359 6.4943 9.25678 6.53001 9.18405 6.54448C9.11131 6.55894 9.03592 6.55152 8.96741 6.52314C8.8989 6.49476 8.84034 6.4467 8.79914 6.38504C8.75794 6.32338 8.73595 6.25089 8.73595 6.17673C8.73591 6.12747 8.74557 6.07868 8.7644 6.03315C8.78322 5.98762 8.81083 5.94624 8.84565 5.91138C8.88047 5.87653 8.92182 5.84888 8.96733 5.83002C9.01285 5.81116 9.06163 5.80144 9.1109 5.80144V5.80179ZM17.0609 5.80179C17.135 5.80179 17.2075 5.82378 17.2692 5.86498C17.3309 5.90618 17.3789 5.96474 17.4073 6.03325C17.4357 6.10176 17.4431 6.17715 17.4286 6.24988C17.4142 6.32262 17.3785 6.38943 17.326 6.44186C17.2736 6.4943 17.2068 6.53001 17.134 6.54448C17.0613 6.55894 16.9859 6.55152 16.9174 6.52314C16.8489 6.49476 16.7903 6.4467 16.7491 6.38504C16.7079 6.32338 16.6859 6.25089 16.6859 6.17673C16.6859 6.12747 16.6956 6.07868 16.7144 6.03315C16.7332 5.98762 16.7608 5.94624 16.7956 5.91138C16.8305 5.87653 16.8718 5.84888 16.9173 5.83002C16.9628 5.81116 17.0116 5.80144 17.0609 5.80144V5.80179ZM20.9609 12.6252C21.0351 12.6252 21.1076 12.6472 21.1692 12.6884C21.2309 12.7296 21.279 12.7882 21.3073 12.8567C21.3357 12.9252 21.3431 13.0006 21.3286 13.0734C21.3142 13.1461 21.2784 13.2129 21.226 13.2654C21.1735 13.3178 21.1067 13.3535 21.0339 13.3679C20.9612 13.3824 20.8858 13.3749 20.8173 13.3465C20.7488 13.3181 20.6902 13.27 20.6491 13.2084C20.6079 13.1467 20.5859 13.0742 20.586 13C20.586 12.9508 20.5957 12.902 20.6145 12.8565C20.6333 12.811 20.661 12.7697 20.6958 12.7349C20.7306 12.7001 20.7719 12.6724 20.8174 12.6536C20.8629 12.6348 20.9117 12.6251 20.9609 12.6251V12.6252ZM5.21088 12.6252C5.28505 12.6252 5.35755 12.6472 5.41921 12.6884C5.48087 12.7296 5.52893 12.7882 5.5573 12.8567C5.58568 12.9252 5.59309 13.0006 5.57861 13.0734C5.56413 13.1461 5.5284 13.2129 5.47595 13.2654C5.42349 13.3178 5.35667 13.3535 5.28393 13.3679C5.21118 13.3824 5.13579 13.3749 5.06728 13.3465C4.99877 13.3181 4.94022 13.27 4.89904 13.2084C4.85787 13.1467 4.8359 13.0742 4.83594 13C4.83594 12.9508 4.84564 12.902 4.86448 12.8565C4.88332 12.811 4.91094 12.7697 4.94576 12.7349C4.98057 12.7001 5.02191 12.6724 5.0674 12.6536C5.11289 12.6348 5.16164 12.6251 5.21088 12.6251V12.6252Z" fill="white"/>
</g>
<defs>
<clipPath id="clip0_579_4257">
<rect width="22" height="22" fill="white" transform="translate(2 2)"/>
</clipPath>
</defs>
</svg>
