<svg width="26" height="26" viewBox="0 0 26 26" fill="none" xmlns="http://www.w3.org/2000/svg">
<rect width="26" height="26" rx="13" fill="#2C374B"/>
<g clip-path="url(#clip0_579_4189)">
<path d="M12.9355 15.0023L14.8308 17.9769L16.5816 16.9623L14.0925 13.0391L12.9355 15.0023Z" fill="#28A0F0"/>
<path d="M18.1755 15.7693L18.1742 14.9564L15.4544 10.7202L14.4453 12.4324L17.0709 16.6788L18.0202 16.1287C18.1134 16.0531 18.1697 15.9421 18.1756 15.8223L18.1755 15.7693Z" fill="#28A0F0"/>
<path d="M6.77946 16.5358L8.12006 17.3083L12.5812 10.1538L11.8241 10.1338C11.179 10.1247 10.4841 10.2924 10.1651 10.8131L7.63171 14.7397L6.77942 16.0492V16.5358H6.77946Z" fill="white"/>
<path d="M15.1556 10.1537L13.1601 10.1609L8.64551 17.6109L10.2235 18.5195L10.6526 17.7916L15.1556 10.1537Z" fill="white"/>
<path d="M19.0175 10.1437C19.0008 9.72634 18.7748 9.34429 18.4209 9.12188L13.4601 6.26905C13.11 6.09274 12.6726 6.09252 12.3219 6.26892C12.2804 6.28982 7.49757 9.06371 7.49757 9.06371C7.43139 9.09544 7.36764 9.13326 7.30765 9.17616C6.99169 9.40262 6.79908 9.75448 6.7793 10.1411V16.0493L7.63158 14.7398L7.62412 10.1811C7.62514 10.1644 7.62723 10.148 7.63018 10.1318C7.64941 10.0245 7.70932 9.92884 7.7995 9.86419C7.82201 9.84808 12.6865 7.03231 12.702 7.02455C12.8164 6.96711 12.9617 6.96651 13.0761 7.0228L17.9728 9.83942C18.0886 9.91319 18.1613 10.0383 18.1677 10.175V15.8222C18.1618 15.942 18.1144 16.053 18.0213 16.1286L17.072 16.6787L16.5822 16.9625L14.8314 17.9772L13.0558 19.0061C12.9602 19.0407 12.8484 19.0388 12.7536 19.0002L10.6529 17.7919L10.2237 18.5197L12.1116 19.6066C12.174 19.6421 12.2297 19.6736 12.2753 19.6993C12.346 19.7389 12.3941 19.7654 12.4111 19.7736C12.5453 19.8388 12.7384 19.8767 12.9123 19.8767C13.0718 19.8767 13.2273 19.8474 13.3745 19.7898L18.5316 16.8032C18.8276 16.5738 19.0018 16.228 19.0175 15.8533V10.1437Z" fill="#96BEDC"/>
</g>
<defs>
<clipPath id="clip0_579_4189">
<rect width="14" height="14" fill="white" transform="translate(6 6)"/>
</clipPath>
</defs>
</svg>
