<svg width="26" height="26" viewBox="0 0 26 26" fill="none" xmlns="http://www.w3.org/2000/svg">
<rect width="26" height="26" rx="13" fill="#E84142"/>
<g clip-path="url(#clip0_579_4197)">
<path d="M18.5513 7.08777H7.4375V17.1888H18.5513V7.08777Z" fill="white"/>
<path fill-rule="evenodd" clip-rule="evenodd" d="M21.994 13C21.994 17.964 17.9673 21.988 13 21.988C8.03274 21.988 4.00598 17.964 4.00598 13C4.00598 8.03604 8.03274 4.01196 13 4.01196C17.9673 4.01196 21.994 8.03604 21.994 13ZM10.4513 16.5768H8.70586C8.33908 16.5768 8.15791 16.5768 8.04744 16.5062C7.92813 16.4289 7.85521 16.3008 7.84638 16.1594C7.83974 16.0292 7.93034 15.8702 8.11151 15.5522L12.4213 7.96065C12.6047 7.63828 12.6975 7.47709 12.8146 7.41748C12.9406 7.35345 13.0908 7.35345 13.2167 7.41748C13.3338 7.47709 13.4267 7.63828 13.61 7.96065L14.496 9.50626L14.5006 9.51415C14.6986 9.85999 14.7991 10.0354 14.8429 10.2194C14.8915 10.4204 14.8915 10.6323 14.8429 10.8333C14.7987 11.0187 14.6993 11.1954 14.4982 11.5465L12.2344 15.5456L12.2285 15.5559C12.0292 15.9046 11.9281 16.0813 11.7881 16.2146C11.6356 16.3604 11.4522 16.4663 11.2512 16.526C11.0678 16.5768 10.8623 16.5768 10.4513 16.5768ZM14.8593 16.5768H17.3604C17.7293 16.5768 17.915 16.5768 18.0255 16.504C18.1448 16.4267 18.2199 16.2964 18.2266 16.1551C18.2329 16.0291 18.1443 15.8763 17.9707 15.5768C17.9647 15.5666 17.9587 15.5562 17.9526 15.5457L16.6998 13.4039L16.6855 13.3798C16.5095 13.0823 16.4206 12.9321 16.3065 12.874C16.1806 12.81 16.0324 12.81 15.9066 12.874C15.7917 12.9336 15.6989 13.0904 15.5155 13.4061L14.2671 15.5479L14.2629 15.5553C14.0801 15.8705 13.9888 16.028 13.9954 16.1573C14.0042 16.2986 14.0771 16.4289 14.1964 16.5062C14.3047 16.5768 14.4903 16.5768 14.8593 16.5768Z" fill="#E84142"/>
</g>
<defs>
<clipPath id="clip0_579_4197">
<rect width="18" height="18" fill="white" transform="translate(4 4)"/>
</clipPath>
</defs>
</svg>
