<svg width="26" height="26" viewBox="0 0 26 26" fill="none" xmlns="http://www.w3.org/2000/svg">
<rect width="26" height="26" rx="13" fill="#0AC18E"/>
<g clip-path="url(#clip0_579_4261)">
<path d="M15.3182 11.9173C15.8055 11.4484 16.0143 10.7965 15.6826 9.89262C15.2308 8.65692 14.1085 8.5027 12.8029 8.72297L12.3322 6.96718L11.3457 7.23151L11.8035 8.94126C11.544 9.01081 11.2809 9.08723 11.019 9.16353L10.5577 7.44289L9.5721 7.70688L10.0423 9.46235C9.82995 9.52431 9.62139 9.58501 9.41656 9.6399L9.41517 9.6347L8.05433 9.9987L8.36032 11.14C8.36032 11.14 9.08485 10.9299 9.07671 10.9475C9.47622 10.8408 9.67399 11.0572 9.76963 11.2641L10.3059 13.2643L11.0588 16.0741C11.0777 16.215 11.062 16.4524 10.7828 16.5276C10.7987 16.5363 10.0651 16.7197 10.0651 16.7197L10.2114 18.0484L11.495 17.7045C11.7342 17.6407 11.9703 17.5818 12.2014 17.522L12.6781 19.2975L13.6635 19.0338L13.1924 17.2767C13.4651 17.2101 13.7275 17.1426 13.983 17.0737L14.4513 18.8227L15.4378 18.5584L14.9633 16.7854C16.5938 16.2379 17.6334 15.4742 17.3255 13.748C17.0778 12.3582 16.3253 11.9099 15.3182 11.9173ZM11.3792 10.4136C11.9356 10.2645 13.6339 9.6037 13.9716 10.8631C14.2949 12.0706 12.5079 12.3983 11.951 12.5475L11.3792 10.4136ZM12.8697 15.9777L12.2397 13.6248C12.9081 13.4455 14.9489 12.6754 15.3201 14.0597C15.6761 15.3871 13.5384 15.7979 12.8697 15.9777Z" fill="#FAFAFA"/>
</g>
<defs>
<clipPath id="clip0_579_4261">
<rect width="8" height="12" fill="white" transform="translate(7.58301 8.23972) rotate(-15)"/>
</clipPath>
</defs>
</svg>
