<svg width="26" height="26" viewBox="0 0 26 26" fill="none" xmlns="http://www.w3.org/2000/svg">
<rect width="26" height="26" rx="13" fill="#E8BB41"/>
<g clip-path="url(#clip0_579_4129)">
<path d="M8.94718 13L8.95367 15.468L10.9758 16.702V18.1468L7.77025 16.1972V12.2784L8.94718 13ZM8.94718 10.5321V11.9702L7.76953 11.2478V9.80966L8.94718 9.08722L10.1306 9.80966L8.94718 10.5321ZM11.8203 9.80966L12.9979 9.08722L14.1813 9.80966L12.9979 10.5321L11.8203 9.80966Z" fill="white"/>
<path d="M9.79785 14.9565V13.5116L10.9755 14.234V15.6722L9.79785 14.9565ZM11.82 17.2195L12.9976 17.9419L14.181 17.2195V18.6576L12.9976 19.3801L11.82 18.6576V17.2195ZM15.87 9.80966L17.0476 9.08722L18.231 9.80966V11.2478L17.0476 11.9702V10.5321L15.87 9.80966ZM17.0476 15.468L17.0541 13L18.2317 12.2776V16.1964L15.0262 18.1461V16.7012L17.0476 15.468Z" fill="white"/>
<path d="M16.204 14.9564L15.0264 15.6721V14.234L16.204 13.5115V14.9564Z" fill="white"/>
<path d="M16.2031 11.0436L16.2096 12.4885L14.1817 13.7225V16.1964L13.0041 16.9121L11.8265 16.1964V13.7225L9.79857 12.4885V11.0436L10.9813 10.3212L12.9969 11.5611L15.0248 10.3212L16.2082 11.0436H16.2031ZM9.79785 8.57641L12.9976 6.62L16.2031 8.57641L15.0255 9.29884L12.9976 8.05888L10.9755 9.29884L9.79785 8.57641Z" fill="white"/>
</g>
<defs>
<clipPath id="clip0_579_4129">
<rect width="12" height="14" fill="white" transform="translate(7 6)"/>
</clipPath>
</defs>
</svg>
