<svg width="26" height="26" viewBox="0 0 26 26" fill="none" xmlns="http://www.w3.org/2000/svg">
<rect width="26" height="26" rx="13" fill="#F79626"/>
<g clip-path="url(#clip0_579_4269)">
<path d="M15.5198 12.5543C16.1119 12.2275 16.4823 11.6519 16.3958 10.6929C16.2792 9.38239 15.2351 8.94294 13.917 8.81779L13.9167 7H12.8954L12.8951 8.76999C12.6264 8.76999 12.3525 8.77571 12.0798 8.78164L12.0796 7.00024L11.0592 7.00014L11.059 8.81748C10.8379 8.82238 10.6207 8.82703 10.4087 8.82703V8.82165L9 8.82103L9.00019 10.0026C9.00019 10.0026 9.75439 9.98724 9.74197 10.0022C10.1555 10.0025 10.2905 10.2627 10.3293 10.4873L10.3297 12.5582V15.467C10.3114 15.608 10.2348 15.8332 9.94569 15.8336C9.95885 15.8462 9.20277 15.8335 9.20277 15.8335L9.00019 17.1548H10.329C10.5766 17.1551 10.8199 17.1593 11.0586 17.1613L11.0595 18.9997L12.0796 19L12.0793 17.1809C12.36 17.1871 12.6309 17.1898 12.8955 17.1894L12.8952 19H13.9164L13.917 17.1647C15.6337 17.0578 16.8355 16.5892 16.9849 14.8422C17.1053 13.4356 16.4945 12.8078 15.5198 12.5543ZM12.1042 10.0824C12.6802 10.0824 14.4917 9.8836 14.492 11.1875C14.4917 12.4376 12.6808 12.2915 12.1042 12.2915V10.0824ZM12.1038 15.8426L12.1042 13.4068C12.7963 13.4066 14.9669 13.191 14.9672 14.6241C14.9674 15.9985 12.7963 15.842 12.1038 15.8426Z" fill="#FAFAFA"/>
</g>
<defs>
<clipPath id="clip0_579_4269">
<rect width="8" height="12" fill="white" transform="translate(9 7)"/>
</clipPath>
</defs>
</svg>
