<svg width="26" height="26" viewBox="0 0 26 26" fill="none" xmlns="http://www.w3.org/2000/svg">
<g clip-path="url(#clip0_579_4641)">
<mask id="mask0_579_4641" style="mask-type:alpha" maskUnits="userSpaceOnUse" x="0" y="0" width="26" height="26">
<path fill-rule="evenodd" clip-rule="evenodd" d="M25.6751 15.9011C25.8877 14.9683 26 13.9973 26 13C26 5.8203 20.1797 0 13 0C5.8203 0 0 5.8203 0 13C0 20.1797 5.8203 26 13 26C13.9973 26 14.9683 25.8877 15.9011 25.6751C14.1435 24.4034 13 22.3352 13 20C13 16.134 16.134 13 20 13C22.3352 13 24.4034 14.1435 25.6751 15.9011Z" fill="#9268FF"/>
</mask>
<g mask="url(#mask0_579_4641)">
<rect width="26" height="26" rx="13" fill="#F9AF1B"/>
<path d="M13.1433 13.6364H16.6309C16.7052 13.6364 16.7403 13.6364 16.7457 13.5409C16.7742 13.1933 16.7742 12.8437 16.7457 12.4956C16.7457 12.428 16.7114 12.4001 16.6366 12.4001H9.6958C9.60989 12.4001 9.58676 12.428 9.58676 12.507V13.5073C9.58676 13.6364 9.58676 13.6364 9.7243 13.6364H13.1433ZM16.3562 11.231C16.3661 11.2055 16.3661 11.1776 16.3562 11.1525C16.298 11.0282 16.229 10.9097 16.1489 10.7984C16.0283 10.6082 15.8862 10.433 15.7243 10.2755C15.6479 10.1804 15.5595 10.095 15.4604 10.0226C14.9639 9.60862 14.3737 9.31563 13.7393 9.16832C13.4192 9.09791 13.0921 9.06432 12.7641 9.06715H9.68382C9.59791 9.06715 9.58635 9.10074 9.58635 9.17399V11.1691C9.58635 11.2533 9.58635 11.2759 9.69538 11.2759H16.3149C16.3149 11.2759 16.3723 11.2646 16.3839 11.231H16.3562ZM16.3562 14.8056C16.2587 14.795 16.1604 14.795 16.063 14.8056H9.70158C9.61567 14.8056 9.58676 14.8056 9.58676 14.9181V16.8686C9.58676 16.9585 9.58676 16.9811 9.70158 16.9811H12.6386C12.779 16.9917 12.9194 16.982 13.057 16.9532C13.4832 16.9233 13.9024 16.8326 14.3022 16.6833C14.4476 16.6339 14.588 16.5696 14.7206 16.4923H14.7607C15.4492 16.1414 16.0084 15.5902 16.3612 14.9136C16.3612 14.9136 16.4012 14.8278 16.3562 14.8056ZM8.43401 17.9924V17.9589V16.6493V16.2054V14.8845C8.43401 14.8112 8.43401 14.8003 8.34232 14.8003H7.09747C7.0285 14.8003 7 14.8003 7 14.7105V13.6425H8.33076C8.4051 13.6425 8.43401 13.6425 8.43401 13.547V12.4904C8.43401 12.4228 8.43401 12.4062 8.34232 12.4062H7.09747C7.0285 12.4062 7 12.4062 7 12.3164V11.3273C7 11.2654 7 11.2488 7.09169 11.2488H8.32498C8.41088 11.2488 8.43401 11.2488 8.43401 11.142V8.1125C8.43401 8.02266 8.43401 8 8.54883 8H12.8509C13.1631 8.01214 13.4733 8.04573 13.7802 8.10117C14.4125 8.2157 15.0201 8.43706 15.5756 8.75312C15.944 8.96558 16.2831 9.22215 16.585 9.51756C16.8122 9.74864 17.017 9.99873 17.1988 10.265C17.3793 10.5349 17.5292 10.8235 17.6469 11.125C17.6614 11.2035 17.7382 11.2565 17.8183 11.2431H18.8451C18.9768 11.2431 18.9768 11.2431 18.9826 11.367V12.2888C18.9826 12.3787 18.9483 12.4013 18.8562 12.4013H18.0645C17.9843 12.4013 17.9612 12.4013 17.967 12.5025C17.9984 12.8449 17.9984 13.1885 17.967 13.5308C17.967 13.6263 17.967 13.6376 18.0764 13.6376H18.9822C19.0223 13.6882 18.9822 13.7388 18.9822 13.7898C18.988 13.855 18.988 13.9209 18.9822 13.9861V14.6664C18.9822 14.7619 18.9537 14.7902 18.8674 14.7902H17.7832C17.7076 14.776 17.6341 14.8234 17.6167 14.897C17.3586 15.5546 16.9456 16.1443 16.412 16.6169C16.217 16.7889 16.0122 16.9508 15.7982 17.1001C15.5686 17.2296 15.3451 17.3644 15.1097 17.4712C14.6764 17.6622 14.2221 17.8031 13.7558 17.8925C13.313 17.9702 12.8641 18.0054 12.4135 17.9993H8.43236V17.9937L8.43401 17.9924Z" fill="#FEFEFD"/>
</g>
<g clip-path="url(#clip1_579_4641)">
<rect x="14" y="14" width="12" height="12" rx="6" fill="#9268FF"/>
<path d="M19.9995 16.7692L18.1533 20.0788L19.9995 21.2608L21.8456 20.0788L19.9995 16.7692ZM18.1533 20.4728L19.9995 23.2308L21.8456 20.4728L19.9995 21.6548L18.1533 20.4728Z" fill="white"/>
</g>
</g>
<defs>
<clipPath id="clip0_579_4641">
<rect width="26" height="26" fill="white"/>
</clipPath>
<clipPath id="clip1_579_4641">
<rect width="12" height="12" fill="white" transform="translate(14 14)"/>
</clipPath>
</defs>
</svg>
