<svg width="26" height="26" viewBox="0 0 26 26" fill="none" xmlns="http://www.w3.org/2000/svg">
<g clip-path="url(#clip0_579_4249)">
<rect width="26" height="26" rx="13" fill="#BA9F33"/>
<g clip-path="url(#clip1_579_4249)">
<path d="M13 26.3185C19.8033 26.3185 25.3184 20.8033 25.3184 14C25.3184 7.19671 19.8033 1.68155 13 1.68155C6.19668 1.68155 0.681519 7.19671 0.681519 14C0.681519 20.8033 6.19668 26.3185 13 26.3185Z" fill="#BA9F33"/>
<path fill-rule="evenodd" clip-rule="evenodd" d="M5.68378 12.6117C5.61015 12.5444 5.53236 12.477 5.4608 12.4098C5.38925 12.3425 5.31576 12.2751 5.24213 12.2079L5.02331 11.9999C4.98753 11.9641 4.94968 11.9326 4.9139 11.8967C4.87813 11.8652 4.83611 11.8295 4.80033 11.7978C4.50997 11.5223 4.21793 11.2468 3.93159 10.9711C4.2282 11.2425 4.51856 11.5119 4.81517 11.7873L4.9182 11.8905C4.95398 11.9261 4.99183 11.9577 5.02761 11.9935L5.24629 12.1954C5.31992 12.2626 5.39147 12.33 5.4651 12.4034C5.53873 12.4767 5.61029 12.5443 5.68392 12.6114L5.68378 12.6117ZM1.83009 12.5701C1.83009 12.5701 2.88604 12.6793 3.40147 12.753C3.87889 12.8204 5.37247 13.0496 5.37247 13.0496L1.83009 12.5701ZM1.83009 12.5701C2.1267 12.5953 2.42331 12.6268 2.71992 12.6584C2.87134 12.6731 3.01653 12.6899 3.16171 12.7046L3.38455 12.73C3.45818 12.7404 3.52973 12.7509 3.60336 12.7614L4.48695 12.9023L4.9286 12.9759C5.07379 13.0012 5.21897 13.0286 5.37039 13.0539C5.22521 13.0392 5.07379 13.0181 4.9286 12.997L4.48695 12.9339L3.60336 12.8036C3.52973 12.793 3.45818 12.7782 3.38455 12.7678L3.16157 12.7422C3.01639 12.7275 2.86496 12.7064 2.71978 12.6895C2.42317 12.6538 2.12656 12.6158 1.82996 12.5697L1.83009 12.5701ZM5.26736 13.3247C5.26736 13.3247 4.13987 13.6109 3.75909 13.7203C3.38469 13.8233 2.25081 14.1683 2.25081 14.1683L5.26723 13.3248L5.26736 13.3247Z" fill="#CFB66C"/>
<path fill-rule="evenodd" clip-rule="evenodd" d="M5.26723 13.3247C5.01694 13.3983 4.76803 13.4699 4.51414 13.5373L3.76104 13.7392C3.51074 13.8128 3.26184 13.8844 3.01224 13.958L2.63784 14.061C2.51373 14.0968 2.38754 14.1283 2.25928 14.1642C2.38325 14.1226 2.50957 14.08 2.63368 14.0442L3.00808 13.9244C3.25837 13.8465 3.50728 13.7729 3.75688 13.6951C4.01133 13.632 4.26176 13.5646 4.51622 13.5036C4.75805 13.4426 5.01264 13.3817 5.26723 13.3248V13.3247ZM2.40862 14.8625C2.53259 14.8162 3.96307 14.1495 4.29546 13.9938C4.46186 13.9158 4.94553 13.7442 4.94553 13.7442L2.40862 14.8625Z" fill="#CFB66C"/>
<path fill-rule="evenodd" clip-rule="evenodd" d="M2.40859 14.8625C2.51786 14.8209 2.62102 14.77 2.72613 14.7216L3.03744 14.5764L3.66227 14.2757C3.87027 14.1768 4.07245 14.0677 4.28696 13.9748C4.39637 13.9286 4.50578 13.8907 4.61505 13.855L4.78145 13.8024C4.83816 13.7877 4.89086 13.7708 4.94785 13.7561C4.73985 13.855 4.5209 13.9391 4.31262 14.0358C4.10462 14.1389 3.8919 14.2231 3.67725 14.3156L3.04202 14.5953C2.82875 14.6817 2.62075 14.7742 2.40845 14.8625H2.40859ZM2.54725 15.4449C2.54725 15.4449 3.84295 14.6856 4.28891 14.4415C4.52242 14.3112 5.2776 13.9366 5.2776 13.9366L2.54725 15.4449Z" fill="#CFB66C"/>
<path fill-rule="evenodd" clip-rule="evenodd" d="M2.54736 15.4452C2.76604 15.3105 2.98902 15.1738 3.21199 15.035L3.54479 14.833C3.65836 14.7657 3.76777 14.7026 3.88356 14.6354C3.99712 14.568 4.10653 14.5007 4.22218 14.4376C4.27723 14.4036 4.33492 14.3741 4.39468 14.3493L4.57134 14.261C4.80486 14.1474 5.03837 14.0316 5.2845 13.9327C5.06153 14.0738 4.83217 14.1937 4.60296 14.3177C4.48939 14.3808 4.3736 14.4376 4.26004 14.5007C4.14647 14.5638 4.03706 14.6312 3.92127 14.6922C3.8077 14.7595 3.6983 14.8226 3.58265 14.8836L3.23973 15.0708L2.54764 15.4452H2.54736ZM5.26717 14.103C5.26717 14.103 4.46152 14.7215 4.20069 14.9192C3.93985 15.117 3.17206 15.6723 3.17206 15.6723L5.26717 14.103Z" fill="#CFB66C"/>
<path fill-rule="evenodd" clip-rule="evenodd" d="M9.89089 19.0906L9.47864 18.3102L9.71839 17.3341L11.4286 16.6736L10.7007 15.1802L11.0604 13.6719L11.7357 12.3213L13.8225 11.9932L15.3559 10.5313L18.667 10.7815L19.3169 14.3218L18.0653 18.7793L17.3523 21.087L14.4619 21.1964L13.1199 20.2666L11.5485 19.6102L9.89089 19.0906Z" fill="#E2CC85"/>
<path fill-rule="evenodd" clip-rule="evenodd" d="M14.9606 19.0654C14.9606 19.0654 14.5609 19.2484 13.879 19.2062C13.6817 18.9412 12.2998 18.8171 12.2998 18.8171C12.2998 18.8171 12.1273 18.7646 11.8222 18.8908C11.5152 19.0156 11.2248 19.0002 10.9534 19.0674C10.6821 19.1347 10.4126 18.7814 10.2046 18.7077C9.99664 18.6299 9.72083 18.4427 9.72083 18.4427L9.13843 18.3859L7.96892 17.8915L6.11093 16.0405L5.60604 16.8309L5.45032 17.809L6.01206 18.9681L7.52449 20.3459L10.4737 21.0947L12.2217 20.5797L14.4115 19.6541L14.9606 19.0652V19.0654Z" fill="#F1D789"/>
<path fill-rule="evenodd" clip-rule="evenodd" d="M4.48264 12.5233L4.85704 11.3896L5.30313 10.6574L6.73972 10.5375L6.30847 11.7955L5.10748 13.9327L5.60598 15.8407L4.72254 16.2823L4.45103 15.8659L4.23235 14.9109L4.21765 13.838L4.48264 12.5233Z" fill="#F4ECB4"/>
<path fill-rule="evenodd" clip-rule="evenodd" d="M6.09397 18.9876L5.81844 18.6026C5.81844 18.6026 5.74481 18.4196 5.78696 18.2597C5.82856 18.0977 5.8226 18.0872 5.80166 18.0262C5.78072 17.9652 5.60392 17.7548 5.61446 17.5739C5.62486 17.3908 5.59976 17.3298 5.73427 17.1848C5.87515 17.0439 5.83314 16.7998 5.83314 16.7998L6.01618 16.9134L6.05778 16.8503C6.05778 16.8503 6.12503 16.9028 6.12503 16.9849C6.13973 16.8714 6.07872 16.3454 6.21752 16.2256C6.35633 16.1058 6.60246 16.7872 6.60246 16.7872L6.45104 15.7985L6.0618 14.7847L5.36971 13.8591L5.32811 12.8388V12.7505C5.32811 12.7505 5.01043 13.2386 4.9221 13.6241C4.859 13.8891 5.01043 14.2109 4.97895 14.5917C4.95357 14.9704 4.9221 14.9409 5.01459 15.0909C5.10708 15.2409 5.33227 15.5495 5.24394 15.7724C5.16615 15.9639 4.90102 15.8293 4.90102 15.8293C4.90102 15.8293 4.84847 15.9849 4.77691 16.0417C4.75168 15.9492 4.72436 15.8903 4.67388 15.8337C4.66959 15.8695 4.65919 15.9179 4.65919 15.9179C4.65919 15.9179 4.61287 15.7727 4.56656 15.5897C4.5036 15.3458 4.43621 15.0239 4.3752 14.8514C4.34996 14.9503 4.28687 15.2511 4.28687 15.2511L4.32264 15.7139L4.49514 16.3492L4.66154 16.7652L4.82351 17.2742L4.96425 17.6161L5.07782 17.877L5.17669 18.464L5.65412 18.9687L5.90871 19.0824L6.09369 18.9877L6.09397 18.9876Z" fill="#F3E19D"/>
<path fill-rule="evenodd" clip-rule="evenodd" d="M4.73291 11.5977C4.73291 11.5977 4.38999 12.1801 4.29125 12.7673C4.19252 13.3544 4.10405 13.9748 4.16645 14.774C4.22955 15.5798 4.34949 16.074 4.44628 16.4275C4.61268 17.0145 5.04366 17.8307 5.04366 17.8307L5.05836 17.7991C4.98592 17.6617 4.9281 17.5172 4.88586 17.3678C4.829 17.1448 4.80793 16.8798 4.75537 16.7599C4.70906 16.6401 4.63127 16.5369 4.59341 16.3896C4.55763 16.2488 4.55181 16.0258 4.44199 15.8597C4.39567 15.7923 4.33882 15.6156 4.32204 15.4389C4.30096 15.1738 4.33258 14.8772 4.30734 14.6333C4.26103 14.2273 4.22955 13.9517 4.27156 13.7392C4.31358 13.5266 4.53253 12.9231 4.66718 12.4435C4.75551 12.1363 4.70282 11.8776 4.86478 11.6104C5.02674 11.3454 5.12575 11.1119 5.16139 10.9499C5.20299 10.8026 4.73235 11.5977 4.73235 11.5977H4.73291Z" fill="#F2E8B0"/>
<path fill-rule="evenodd" clip-rule="evenodd" d="M6.35905 11.3642C6.35905 11.3642 6.18238 11.4169 6.09821 11.5094C6.01404 11.5977 5.97827 11.6714 5.8647 11.8207C5.75113 11.9701 5.74475 12.0921 5.65212 12.2793C5.55963 12.4623 5.35552 12.7379 5.33028 12.8367C5.30504 12.9356 5.26302 13.3983 5.21047 13.6171C5.16416 13.836 5.26302 14.1052 5.26302 14.1052L5.38283 14.0799C5.38283 14.0799 5.38283 14.2356 5.50278 14.3408C5.62259 14.4439 5.64366 13.9915 5.64366 13.9915L6.0917 12.4791L6.76686 12.0205L6.8405 11.6503L6.35877 11.3642H6.35905Z" fill="#F5EEC0"/>
<path fill-rule="evenodd" clip-rule="evenodd" d="M6.6872 12.0501C6.6872 12.0501 6.36952 12.071 6.21394 12.1847C6.15084 12.2309 6.1256 12.2687 6.05835 12.3256C5.93424 12.4286 5.80792 12.5233 5.74705 12.6584C5.67965 12.7929 5.60602 12.997 5.55555 13.382C5.53447 13.5439 5.53447 13.6933 5.51977 13.8238C5.49869 14.0004 5.46722 14.1413 5.48399 14.2398C5.50507 14.4417 5.71335 14.5469 5.73359 14.7761L6.16485 14.5574L6.57086 12.9565L7.43337 12.4157L6.94526 11.8688L6.68665 12.0491L6.6872 12.0501Z" fill="#E6DB9D"/>
<path fill-rule="evenodd" clip-rule="evenodd" d="M4.41213 22.8302C4.41393 22.8143 4.41573 22.7985 4.41753 22.7823C4.48049 22.2415 4.49117 21.8316 4.53734 21.5749C4.60459 21.2111 4.65091 21.0757 4.64037 20.9396C4.62567 20.7209 4.60889 20.561 4.62997 20.3927C4.66145 20.1697 4.88026 19.9047 4.87402 19.7217C4.86973 19.5765 4.79609 19.4819 4.733 19.3936C4.66991 19.3052 4.61943 19.2316 4.61943 19.2316C4.61943 19.2316 5.05069 18.935 5.04653 17.7401C5.05533 17.7426 5.06381 17.7461 5.07176 17.7507L5.2842 18.3543L5.42938 18.5309L5.98682 19.5701L6.70415 20.2665L7.76425 20.9795L8.42902 21.7029L8.49627 23.6319L7.62753 24.7594L7.48526 25.0171C6.35494 24.4496 5.31845 23.712 4.41199 22.83L4.41213 22.8302Z" fill="#E5CB7A"/>
<path fill-rule="evenodd" clip-rule="evenodd" d="M7.06592 24.6755C7.06592 24.6755 7.08062 24.4358 7.27836 24.2801C7.30997 24.3326 7.33091 24.3832 7.32467 24.4209C7.36045 24.358 7.61074 23.954 8.17664 23.8488C8.74254 23.7458 8.87926 23.3335 8.87926 23.3335L10.0803 22.2418L11.4539 20.9776L13.1241 20.3906L13.9047 20.1991C13.9047 20.1991 13.9194 20.2559 13.89 20.3821C14.035 20.3717 14.3569 20.2981 14.6913 20.1802C14.826 20.1277 14.9523 20.1066 15.0196 20.1761C15.1184 20.2686 15.1331 20.4874 15.1394 20.6177C15.3013 20.582 15.4885 20.4264 15.6386 20.4411C15.8785 20.4663 16.0909 20.7482 16.335 20.7482C16.6568 20.7482 16.8018 20.5505 17.027 20.3948C17.1617 20.3023 17.3551 20.1868 17.4645 20.1087C17.7254 19.9172 20.4852 19.0737 20.4852 19.0737L21.4529 19.1368L21.6086 20.1759L21.5254 22.8924C21.5151 22.9023 21.5049 22.9125 21.4945 22.9224L17.0948 25.2202L10.9963 26.1551C9.63018 25.9319 8.31188 25.4785 7.09753 24.8141L7.06633 24.6754L7.06592 24.6755Z" fill="#D8C173"/>
<path fill-rule="evenodd" clip-rule="evenodd" d="M4.78186 23.1757C4.86853 22.9945 4.94646 22.8429 4.96019 22.7887C4.971 22.898 4.99083 23.1377 5.03077 23.3926C4.94692 23.3213 4.86395 23.249 4.78186 23.1756V23.1757Z" fill="#F1D789"/>
<path fill-rule="evenodd" clip-rule="evenodd" d="M9.23681 25.7322L10.0255 25.5128L10.0928 25.5339C10.0928 25.5339 10.1286 25.555 10.1286 25.6264C10.2274 25.5697 10.3116 25.5801 10.3726 25.5423C10.4041 25.6096 10.4356 25.8326 10.5745 25.8599C10.7196 25.8915 10.8753 25.7968 11.0331 25.677C11.1887 25.5529 11.3659 25.3972 11.5 25.3341C11.5492 25.4245 11.5928 25.5179 11.6305 25.6137C11.8071 25.4729 12.1143 24.9007 12.5518 24.9111C12.6782 24.6123 12.8895 24.3571 13.1594 24.177C13.5654 23.9015 13.8199 23.8804 14.1376 23.9057C14.2637 23.7417 14.4192 23.6027 14.5961 23.4955C14.6487 23.5166 14.7939 23.6049 14.9748 23.5207C15.1579 23.4367 15.3639 23.1105 15.6353 23.0685C15.7815 23.0484 15.9302 23.0796 16.056 23.1569C16.056 23.1569 16.8464 22.3721 17.3918 22.1113C17.3707 22.0482 17.3287 21.8105 17.9681 21.2846C18.0039 21.3162 17.9786 21.4045 18.0039 21.4094C18.0143 21.4094 18.1703 21.3421 18.3677 21.1906C18.6118 21.0077 18.9041 20.8162 19.0808 20.7636C19.4136 20.6647 19.7666 20.8666 19.7666 20.8666C19.7966 20.8456 19.8301 20.8299 19.8655 20.8203C19.9495 20.8056 20.0105 20.7951 20.0568 20.7787C20.0527 20.8881 20.1137 21.0753 20.0568 21.2373C20.1227 21.2743 20.1924 21.304 20.2648 21.3256C20.2292 21.4034 20.1513 21.6012 20.0209 21.6959C20.1302 21.7484 20.1449 21.8094 20.3006 21.8623C20.2375 21.9506 20.1342 22.1022 20.0882 22.1951C20.0419 22.2939 19.8756 22.7041 19.802 22.8597C19.7242 23.0154 19.6191 23.3015 19.5684 23.3589C19.5178 23.4163 19.3349 23.6597 19.194 23.7795C19.3188 23.7332 19.8294 23.5776 20.046 23.5186C19.9815 23.6132 19.6547 24.0981 19.3405 24.5645C17.836 25.4662 16.1566 26.0369 14.4143 26.2386C12.6719 26.4404 10.9065 26.2684 9.23584 25.7343L9.23681 25.7322Z" fill="#E0CD81"/>
<path fill-rule="evenodd" clip-rule="evenodd" d="M6.7392 11.9932C6.7392 11.9932 6.5563 11.9932 6.52053 12.0185C6.48475 12.0437 6.70357 12.0964 6.77082 12.1216C6.83807 12.1469 6.98326 12.2625 7.02111 12.3551C7.05689 12.4435 8.33581 12.9588 8.33581 12.9588L9.24033 12.9124L9.5522 12.4816L8.95898 11.962L9.37498 10.7356L8.82392 10.824L7.49868 11.6144L6.83391 11.869L6.7392 11.9932Z" fill="#DFC57C"/>
<path fill-rule="evenodd" clip-rule="evenodd" d="M8.72555 12.3992C8.73863 12.4204 8.75704 12.4378 8.77895 12.4496C8.80085 12.4614 8.82548 12.4672 8.85035 12.4665C9.03755 12.4665 9.20991 12.5128 9.28147 12.6074C9.40141 12.7589 9.7338 13.2427 9.7338 13.2427L10.5289 13.5288L10.5802 12.5925L9.71147 11.9889L8.72278 12.3528V12.3991H8.725L8.72555 12.3992Z" fill="#E5CC7C"/>
<path fill-rule="evenodd" clip-rule="evenodd" d="M8.56962 12.7463C8.56962 12.7463 8.71466 12.7569 8.89771 12.6895C9.08075 12.6221 9.38151 12.477 9.512 12.5339C9.6949 12.6117 9.65704 12.8557 9.85492 13.0747C9.97473 13.2093 10.1935 13.2052 10.3177 13.3503C10.4418 13.4955 10.8687 13.4281 10.8687 13.4281L11.0307 14.3017L10.3807 15.1348L10.1682 16.1697H9.2893L8.48642 15.8512L8.09094 14.8944L8.28868 13.9268L8.56962 12.7463Z" fill="#D2C281"/>
<path fill-rule="evenodd" clip-rule="evenodd" d="M10.2696 12.7883C10.2914 12.795 10.314 12.7986 10.3369 12.7989C10.3116 12.8199 10.2589 12.8661 10.28 12.9861C10.3011 13.106 10.3683 13.2574 10.3116 13.3499C10.3569 13.3994 10.3907 13.4583 10.4105 13.5224C10.4463 13.6256 10.4568 13.7202 10.6902 13.735C10.6565 13.7557 10.6254 13.7805 10.5977 13.8086C10.5977 13.8086 10.7596 13.9495 10.8417 14.0799C10.9258 14.0763 11.1487 14.0069 11.1487 14.0069L11.1951 14.0386L11.2939 13.997C11.2939 13.997 11.2014 13.9612 11.2687 13.7361C11.3318 13.5384 11.3886 13.5489 11.3935 13.5342C11.3983 13.5195 11.4398 13.3112 11.4398 13.2271C11.4713 13.1178 11.4965 12.7854 11.4965 12.7854L11.4293 12.0513L11.0507 11.822L10.7429 11.5248L10.4525 12.0717L10.2613 12.2624L10.2466 12.7356L10.2696 12.7883Z" fill="#E2C270"/>
<path fill-rule="evenodd" clip-rule="evenodd" d="M11.1804 12.1742C11.1804 12.1742 11.2477 12.3655 11.273 12.5128C11.282 12.4842 11.2869 12.4544 11.2877 12.4245C11.2877 12.4245 11.3403 12.7148 11.3507 12.8348C11.3718 12.8305 11.3923 12.8242 11.397 12.8452C11.4017 12.8661 11.4497 13.0998 11.4386 13.2301C11.5262 13.0856 11.6474 12.9644 11.7919 12.8768C11.8761 12.8241 11.975 12.7674 12.0781 12.7631C12.2401 12.7589 12.3578 12.8663 12.5514 12.8663C13.0183 12.8663 13.4412 12.5233 13.7525 12.4182C13.9818 12.3403 14.1795 12.2836 14.3183 12.1573C14.3857 12.1005 14.5056 11.9744 14.6149 11.787C14.7601 11.5374 14.9115 11.3201 15.0631 11.2928C14.9945 11.3054 14.9248 11.3103 14.8551 11.3075C14.8551 11.3075 14.9014 11.2612 14.9799 11.1981C15.0584 11.135 15.1524 11.0572 15.2869 11.0572C15.5268 11.0572 15.6466 11.0929 15.7812 11.0929C15.9159 11.0887 15.9937 11.0572 15.9937 11.0572C15.9937 11.0572 16.1347 11.1561 16.4522 11.1561C16.7699 11.1602 16.9824 11.1876 17.1486 11.2024C17.3149 11.2172 17.8722 11.1561 18.0321 11.1608C18.1363 11.1648 18.2387 11.1899 18.333 11.2344L17.8176 9.73683L15.9661 8.11859L14.8638 8.89901L13.1682 10.5945L11.5275 11.2024L11.1846 11.5873V12.1742H11.1804Z" fill="#CCB360"/>
<path fill-rule="evenodd" clip-rule="evenodd" d="M14.8617 11.3158C14.8617 11.3158 14.908 11.2697 14.9857 11.2066C15.0633 11.1435 15.1583 11.0655 15.2928 11.0655C15.5326 11.0655 15.6525 11.1013 15.7872 11.1013C15.9218 11.0972 15.9996 11.0655 15.9996 11.0655C15.9996 11.0655 16.1408 11.1643 16.4582 11.1643C16.7759 11.1684 16.9883 11.1957 17.1546 11.2104C17.3208 11.2251 17.8781 11.1643 18.038 11.1688C18.1422 11.1728 18.2445 11.1978 18.3388 11.2425L18.1053 10.5672L17.834 10.0519L17.0599 9.20407C17.0599 9.20407 16.1308 8.65717 16.1237 8.65301C16.1196 8.64885 15.8019 8.56468 15.8019 8.56468L14.9604 9.07373L14.1969 11.049L14.1823 11.465L14.6765 11.6985C14.8006 11.4905 14.9374 11.3241 15.0657 11.3031C14.9499 11.3157 14.8616 11.3157 14.8616 11.3157L14.8617 11.3158Z" fill="#D5B457"/>
<path fill-rule="evenodd" clip-rule="evenodd" d="M14.8511 11.4569C14.7775 11.461 14.7166 11.4463 14.6997 11.3938C14.6366 11.2171 14.5861 11.1919 14.5333 11.1919C14.4805 11.1919 14.4092 11.3054 14.3669 11.3158C14.3246 11.3262 14.2744 11.1855 14.2744 11.1855L14.2281 11.1644C14.2281 11.1644 13.9567 11.3411 13.7654 11.5493C13.574 11.7576 13.2605 12.1111 13.1196 12.174C12.9787 12.237 12.4948 12.2582 12.3292 12.294C12.1636 12.3298 11.98 12.4497 11.9548 12.477C11.9296 12.5043 12.0286 12.5337 12.0433 12.5611C12.058 12.5863 11.8812 12.5758 11.8665 12.6027C11.8561 12.6237 11.9081 12.7435 11.9339 12.8046C11.979 12.7821 12.0285 12.7699 12.0789 12.7688C12.2409 12.7646 12.3587 12.8719 12.5522 12.8719C13.0192 12.8719 13.442 12.529 13.7533 12.4238C13.9827 12.346 14.1804 12.2891 14.3192 12.1629C14.3865 12.1062 14.5064 11.9799 14.6158 11.7927C14.6957 11.6644 14.7736 11.5445 14.8515 11.4562L14.8511 11.4569Z" fill="#D2B257"/>
<path fill-rule="evenodd" clip-rule="evenodd" d="M8.15357 21.8674C8.15357 21.8674 8.11197 21.7117 7.72648 21.31C7.61707 21.1964 7.54982 21.102 7.47619 21.0344C7.29315 20.8618 7.18582 20.8156 7.05547 20.7167C6.7694 20.5043 6.4581 20.5043 6.21834 20.2435C5.97859 19.9826 5.69917 19.4843 5.50504 18.9749C5.31368 18.4659 5.26099 18.3039 5.26099 18.2892C5.26099 18.2745 5.31368 18.1757 5.38093 18.1904C5.44819 18.2051 5.44819 18.3354 5.4651 18.367C5.49861 18.4186 5.53661 18.4672 5.57867 18.5121C5.67754 18.6258 5.81843 18.7617 5.88998 18.9644C5.87528 18.7919 5.81635 18.6005 5.81635 18.6005C5.81635 18.6005 6.18659 18.8341 6.50205 19.078C6.81974 19.322 6.95008 19.4062 7.04285 19.5618C7.13562 19.7174 7.35416 20.1277 7.45885 20.2476C7.56355 20.3676 8.99805 20.8198 8.99805 20.8198L9.68043 21.3285L10.0192 22.0711L9.75406 22.4871L9.24502 22.5965L8.41829 22.2263L8.15357 21.8673V21.8674Z" fill="#D2B159"/>
<path fill-rule="evenodd" clip-rule="evenodd" d="M6.31689 19.3094C6.31689 19.3094 6.4894 19.5849 6.91011 19.8458C7.28881 20.0751 7.88827 20.2834 8.42269 20.4075C8.72969 20.4811 9.03684 20.5379 9.31237 20.5422C10.0549 20.5526 10.5661 20.3403 11.1993 20.2708C11.5423 20.235 11.963 20.2077 12.4005 20.1044C12.9621 19.9697 13.2945 19.8182 13.7468 19.6052C14.0749 19.4538 14.3758 19.3402 14.6197 19.195C14.9626 18.9931 15.2129 18.7681 15.5033 18.7008C15.4675 18.7997 15.4297 18.9763 15.1436 19.1594C15.295 19.1551 15.5033 19.1447 15.5033 19.1447C15.5033 19.1447 15.3014 19.2645 14.9458 19.5338C14.727 19.7002 14.4368 19.9818 14.1402 20.169C13.9487 20.2889 13.7404 20.377 13.6037 20.4488C13.2709 20.6319 13.1367 20.7244 12.918 20.948C12.9958 20.9439 13.0022 20.948 13.0022 20.948C13.0022 20.948 12.7265 20.9838 12.5289 21.0889C12.4873 21.0889 12.4152 21.0742 12.289 21.11C12.1901 21.1415 12.0596 21.2132 11.9251 21.2509C11.7336 21.3077 11.6707 21.2825 11.6707 21.2825L11.7022 21.3456C11.7022 21.3456 11.4526 21.3413 11.3694 21.3497C11.3841 21.3539 11.3799 21.3603 11.3799 21.3603C11.3653 21.3627 11.3512 21.3677 11.3383 21.375C11.2983 21.4009 11.2542 21.4201 11.2079 21.4317C11.1827 21.4359 11.1616 21.4359 11.13 21.4422C11.1406 21.4675 11.2226 21.6086 11.2605 21.6918C11.229 21.7129 10.7556 22.0705 10.7556 22.0705C10.7703 22.0936 10.7823 22.1183 10.7914 22.1442C10.8061 22.1903 10.8125 22.2577 10.8272 22.2892C10.8628 22.3523 10.8839 22.3628 10.8839 22.3628C10.8839 22.3628 10.8272 22.3734 10.7282 22.3986C10.6441 22.4197 10.541 22.4553 10.3954 22.4764C10.3507 22.4822 10.3057 22.4857 10.2607 22.487C10.2818 22.5333 10.3743 22.7099 10.2039 22.9139C10.0334 23.1179 9.98088 23.1476 9.92833 23.2779C9.90188 23.2579 9.87371 23.2403 9.84416 23.2252C9.78744 23.2 9.70951 23.1623 9.6822 23.1116C9.66627 23.1791 9.64518 23.2452 9.6191 23.3094C9.56655 23.4503 9.48876 23.5892 9.47406 23.6943C9.4172 23.6312 9.3121 23.5071 9.16691 23.5324C9.02173 23.5576 8.90608 23.7553 8.88084 23.8122C8.88084 23.7764 8.8556 23.7491 8.84936 23.7911C8.84507 23.8374 8.76519 24.3211 8.31924 24.7124C8.31508 24.6135 8.31508 24.3947 8.30454 24.3233C8.26294 24.3649 8.21205 24.4263 7.90907 24.5568C7.61246 24.6872 7.65947 24.8177 7.65947 24.8177C7.65947 24.8177 7.63423 24.6097 7.79411 24.3906C7.95607 24.1719 8.05494 24.0687 8.05494 24.0519C8.05233 24.0349 8.04503 24.0188 8.03387 24.0056C8.01279 23.9846 7.97077 23.9593 7.97077 23.9425C7.99601 23.9321 8.2463 23.8122 8.2316 23.5638C8.21691 23.341 8.12234 23.2252 8.05494 23.1433C8.04454 23.1327 8.15395 23.0549 8.13911 23.0297C8.12858 23.015 7.99407 22.916 7.97715 22.8633C7.98113 22.8318 7.98819 22.8009 7.99823 22.7708C8.01293 22.7245 8.02347 22.6929 8.01931 22.6614C8.00877 22.6088 7.95191 22.4637 7.93514 22.449C7.94983 22.4531 8.05494 22.449 8.05494 22.449C8.05494 22.449 7.97091 22.3143 7.95607 22.2512C7.94124 22.1881 7.90976 22.0219 7.89298 21.9904C7.92876 21.9945 8.01709 22.0008 8.01709 21.9904C8.02139 21.9588 7.93929 21.9062 7.97549 21.8656C8.00072 21.8697 8.04912 21.8908 8.09529 21.9498C8.07006 21.8824 8.02804 21.752 7.93957 21.6995C7.98117 21.6848 8.12261 21.6468 8.24672 21.7204C8.37083 21.794 8.41312 21.8971 8.41312 21.8971C8.41312 21.8971 8.48675 21.9539 8.60046 22.0381C8.7308 22.1411 8.89693 22.2877 9.16206 22.3914C9.21891 22.423 9.36396 22.423 9.4692 22.402C9.51503 22.391 9.55897 22.3733 9.59955 22.3494C9.61421 22.3408 9.62973 22.3337 9.64587 22.3283C9.62325 22.2829 9.59725 22.2393 9.56807 22.1978C9.60385 22.1978 9.64587 22.2021 9.64587 22.2021C9.64587 22.2021 9.6711 22.1453 9.55754 22.0357C9.58277 22.0105 9.61439 21.9941 9.61439 21.9516C9.57861 21.9474 9.51552 21.8948 9.50082 21.8738C9.52176 21.8591 9.55338 21.8107 9.58915 21.796C9.55754 21.7707 9.47974 21.6655 9.44397 21.6551C9.47814 21.6424 9.51121 21.6269 9.54284 21.6088C9.54284 21.6088 9.36617 21.5625 9.30932 21.5246C9.25247 21.483 9.16844 21.411 9.11796 21.39C9.06527 21.3689 8.97278 21.3585 8.93492 21.3163C8.97056 21.3269 9.02741 21.3163 9.06957 21.3163C9.10104 21.3163 9.11588 21.3205 9.12628 21.3205C9.12212 21.3058 9.12212 21.2742 9.20421 21.2638C9.2437 21.2578 9.28201 21.2458 9.31778 21.228C9.31778 21.228 9.23985 21.2238 9.15138 21.1397C9.06291 21.0555 8.98942 20.9882 8.93894 20.9777C8.88639 20.9672 8.78752 21.0135 8.72651 21.0092C8.64234 20.9988 8.60656 20.9566 8.60656 20.9566C8.60656 20.9566 8.32687 20.9819 7.70633 20.6033C7.16983 20.2751 6.93632 19.9849 6.93632 19.9849C6.88611 19.9666 6.83758 19.9441 6.79127 19.9175C6.58937 19.8124 6.30955 19.5935 6.318 19.3073L6.31689 19.3094Z" fill="#C2A44D"/>
<path fill-rule="evenodd" clip-rule="evenodd" d="M14.0559 6.68381C14.1046 6.69962 14.1478 6.72878 14.1807 6.76798C14.2796 6.88155 14.3427 7.09606 14.1176 7.32542C14.206 7.3569 14.2424 7.36702 14.3195 7.3569C14.2417 7.44953 14.0651 7.64726 14.0545 7.81977C14.044 7.96065 14.1323 8.00281 14.1323 8.00281C14.1323 8.00281 13.9977 8.15839 13.9914 8.41881C14.055 8.3471 14.1246 8.28095 14.1994 8.22107C14.3552 8.09696 14.5697 7.95607 14.7149 7.86774C14.7129 7.90477 14.7179 7.94183 14.7296 7.97701C14.7296 7.97701 15.0008 7.75404 15.2288 7.85305C15.3318 7.89936 15.2855 8.04441 15.2855 8.04441C15.2855 8.04441 15.4265 7.99185 15.5254 8.09072C15.6242 8.18959 15.764 8.4446 15.8357 8.54347C15.8672 8.58978 15.9493 8.67811 16.0333 8.81484C16.1481 9.00626 16.244 9.20842 16.3195 9.41845C16.3237 9.30905 16.351 9.13876 16.6624 9.24595C16.9738 9.35536 17.3271 9.58471 17.6237 10.0364C17.9203 10.488 17.9938 10.9979 18.1431 11.192C18.2946 11.3792 18.4503 11.6905 18.4608 11.821C18.4714 11.9515 18.4145 12.3721 18.7258 13.5101C18.8141 13.1568 18.9488 12.3721 18.9488 12.3721L19.0224 11.68L19.1066 9.53854L16.8704 7.68082L15.1224 6.4123L13.9844 6.52171L14.0558 6.68367L14.0559 6.68381Z" fill="#CAA13E"/>
<path fill-rule="evenodd" clip-rule="evenodd" d="M18.2105 9.87065C18.2105 9.87065 18.1789 9.66265 17.653 9.30905C17.1271 8.95988 16.7169 8.95988 16.3383 8.66328C16.048 8.42976 15.7451 7.89326 15.5479 7.7166C15.3564 7.54202 15.325 7.03713 15.325 7.03713L15.9707 6.49633L16.9311 5.10814L17.743 4.21416L18.1321 4.75496L18.6729 5.39019L18.9737 6.66495L19.0831 8.53085L18.2095 9.87078L18.2105 9.87065Z" fill="#B59544"/>
<path fill-rule="evenodd" clip-rule="evenodd" d="M18.8606 12.1072C18.8765 11.8242 18.8416 11.5407 18.7574 11.2701C18.6187 10.8388 18.3158 10.0731 18.175 9.78634C18.1182 9.46865 18.1603 9.44341 18.2213 9.40764C18.2823 9.37186 18.5117 9.24124 18.6373 8.78295C18.763 8.32465 19.1528 8.30968 19.1528 8.30968L19.3925 8.13301L19.7565 9.04378L20.0741 9.86635L20.1729 10.4953L20.2466 11.0317L20.0741 12.1656L19.2222 12.9355L18.8604 12.1072H18.8606Z" fill="#C89D3A"/>
<path fill-rule="evenodd" clip-rule="evenodd" d="M6.97339 24.7451V24.7218C6.99109 24.7108 7.00672 24.6967 7.01956 24.6802C7.03426 24.6592 7.04494 24.6339 7.05534 24.6277C7.07642 24.6172 7.17529 24.5861 7.22784 24.5961C7.2804 24.6061 7.41934 24.6633 7.49297 24.6592C7.6444 24.655 7.82106 24.5392 8.10089 24.5919C8.5216 24.6697 8.62047 24.9558 8.86453 25.1177C9.03093 25.2314 9.20315 25.1808 9.22839 25.1808H9.2851C9.29564 25.1808 9.37343 25.0925 9.41559 25.0968C9.49976 25.101 9.50808 25.1704 9.56063 25.1746C9.68474 25.1893 9.92463 25.1115 10.0446 25.1431C10.0801 25.1543 10.1125 25.1738 10.1389 25.2002C10.1652 25.2265 10.1848 25.2588 10.196 25.2944C10.2212 25.3722 10.2002 25.4711 10.1391 25.5279C10.0088 25.6477 9.8847 25.7614 9.85946 25.8607C9.89156 25.8852 9.92238 25.9113 9.95181 25.9389C8.911 25.6737 7.90961 25.2728 6.97339 24.7464V24.7451Z" fill="#CEB052"/>
<path fill-rule="evenodd" clip-rule="evenodd" d="M18.1747 20.5422C18.1747 20.5422 18.5028 20.1047 18.6165 19.8879C18.73 19.6645 18.2568 16.8357 18.2568 16.8357L19.2076 13.7204L19.1822 12.7065C19.1822 12.7065 19.2285 11.7704 19.338 11.3644C19.4684 11.5979 19.8745 11.8798 19.9628 12.0291C20.0044 11.7429 20.1457 11.1393 20.1248 10.4956C20.2025 10.6154 20.3897 11.8209 20.3897 11.8209L20.5769 12.6327L20.821 13.4953L21.0924 14.4062L21.2543 15.0351L21.3468 15.1866L21.4248 15.4516L21.4984 15.7378L21.7108 16.4088L21.8356 16.9598L21.9345 17.9591C21.956 18.0356 21.9715 18.1137 21.9808 18.1926C21.985 18.302 21.9661 18.3651 21.9661 18.3841C21.9661 18.4031 22.0019 18.6238 21.9872 18.7901C21.9661 18.9565 21.9661 19.0867 21.8356 19.2061C21.7051 19.3255 21.6232 20.0391 21.6232 20.0391L21.3897 19.8835C21.3897 19.8835 21.436 19.6709 21.3266 19.4775C21.2172 19.284 21.0047 19.244 20.8848 19.2756C20.765 19.3008 20.5252 19.3385 20.4473 19.4059C20.3737 19.4732 20.1928 19.6815 20.0266 19.7762C19.8186 19.901 19.4797 19.9108 19.2989 19.9528C19.1158 19.9944 18.9139 20.1192 18.7013 20.2641C18.5347 20.372 18.3587 20.4648 18.1755 20.5415L18.1747 20.5422Z" fill="#CCA847"/>
<path fill-rule="evenodd" clip-rule="evenodd" d="M18.1747 25.1384C18.1747 25.1384 18.1885 25.1474 18.2153 25.1621C19.7098 24.4619 21.0489 23.4694 22.1534 22.2432C22.1414 21.8175 22.1257 21.3811 22.1085 21.2194C22.0729 20.8765 22.0981 20.5273 22.0876 20.3254C22.077 20.1235 21.9635 19.3009 21.9109 19.0885C21.8541 18.8761 21.7445 18.7708 21.7279 18.7708C21.7132 18.7751 21.6247 19.1706 21.6247 19.27C21.6247 19.3695 21.6036 19.6088 21.6036 19.6698C21.5889 19.6655 21.5827 19.6282 21.5827 19.613C21.5616 19.6655 21.5364 19.7581 21.5258 19.7687C21.5153 19.7792 21.5405 19.6803 21.5258 19.6593C21.5111 19.6382 21.4842 19.6487 21.4901 19.5962C21.4926 19.565 21.4975 19.5341 21.5048 19.5037C21.5048 19.5037 21.4417 19.5962 21.3955 19.8318C21.3492 20.0653 21.3492 20.0717 21.3324 20.0926C21.3177 20.118 21.2335 20.202 21.2292 20.2336C21.2251 20.2903 21.3072 20.3472 21.3134 20.3787C21.3176 20.4314 21.2398 20.6753 21.2145 20.7947C21.1893 20.9141 21.1998 21.148 21.1729 21.2679C21.1519 21.3773 21.1313 21.4404 21.0594 21.4866C21.1119 21.4972 21.1624 21.5119 21.1624 21.5119C21.1624 21.5119 21.236 21.8232 21.0488 22.0883C20.9816 22.1808 20.9648 22.2229 20.8932 22.3071C20.7522 22.4627 20.6428 22.6399 20.6323 22.7551C20.625 22.7211 20.6201 22.6867 20.6176 22.652C20.6176 22.652 20.3989 22.9066 20.3063 23.0517C20.1865 23.2389 20.0202 23.2284 19.9735 23.2747C19.9267 23.321 19.9166 23.4051 19.9319 23.4725C19.8903 23.4829 19.8121 23.4977 19.7594 23.6597C19.7341 23.7437 19.671 23.8261 19.5722 23.8826C19.4733 23.9392 19.3533 23.9563 19.2923 23.971C19.3449 23.9857 19.366 23.9857 19.3912 24.0024C19.3597 24.055 19.2145 24.1371 19.0526 24.2423C18.8906 24.3412 18.8127 24.4863 18.7728 24.581C18.7312 24.6693 18.6697 24.7261 18.5709 24.7367C18.6125 24.7619 18.674 24.8207 18.7055 24.8397C18.6592 24.8503 18.5807 24.8503 18.4405 24.9702C18.2932 25.0922 18.2428 25.128 18.1754 25.1385L18.1747 25.1384Z" fill="#C39D3C"/>
<path fill-rule="evenodd" clip-rule="evenodd" d="M15.2478 26.1132C15.3283 26.0568 15.4156 26.0105 15.5075 25.9755C15.8356 25.8452 16.1827 25.8199 16.3194 25.7779C16.4499 25.7363 16.5529 25.6789 16.7149 25.6474C16.7106 25.6843 16.707 25.719 16.7031 25.7517C16.2256 25.9018 15.7393 26.0226 15.2471 26.1132H15.2478Z" fill="#D2BA6B"/>
<path fill-rule="evenodd" clip-rule="evenodd" d="M21.2991 17.4836C21.2991 17.4836 21.2319 17.8474 21.1119 18.0768C20.992 18.3062 20.8623 18.6237 20.8623 18.6237C20.8631 18.5521 20.8716 18.4809 20.8876 18.4111C20.7361 18.4995 20.368 18.712 20.2636 18.8066C20.1647 18.8949 19.9984 19.0507 19.9564 19.1243C20.0553 18.8341 20.1583 18.5732 20.1752 18.4533C20.0238 18.5627 19.3169 19.1454 18.9489 19.5303L17.8024 20.458C17.6701 20.5294 17.5338 20.5932 17.3943 20.6491C17.1967 20.7331 16.9632 20.8047 16.7907 20.872C16.837 20.7479 16.9105 20.6384 17.0136 20.5333C17.123 20.4303 17.4511 20.0747 17.5016 19.9093C17.5479 19.7368 17.5585 19.6338 17.4974 19.4886C17.4406 19.5033 17.3102 19.5096 17.2219 19.5349C17.1336 19.5601 17.0389 19.6547 17.0389 19.6547C17.0389 19.6547 17.1061 19.2698 17.2513 18.9059C17.1419 18.91 16.9547 18.9415 16.9547 18.9415C16.9547 18.9415 17.2155 18.504 17.6619 18.1991C17.5252 18.2282 17.3914 18.2697 17.2623 18.3231C17.0014 18.4325 16.7154 18.5944 16.5029 18.6828C16.6227 18.5164 17.4642 17.3155 17.9649 16.1963C18.4641 15.0794 18.6506 14.7933 18.76 14.1939C18.8167 13.8972 18.8016 13.4589 18.8167 13.0664C18.8314 12.6771 18.8798 12.328 18.8483 12.0944C18.9787 12.2564 19.4668 12.7129 19.4836 13.7332C19.4983 14.7534 19.0167 16.1313 18.5054 16.8737C18.6302 16.9095 18.9536 16.9517 19.2858 16.3745C19.6181 15.7974 19.6141 15.6363 19.734 15.3964C19.7487 15.5163 19.7444 15.5583 19.7444 15.5583C19.7444 15.5583 20.2283 14.9715 20.4576 14.2331C20.5039 14.5508 20.6406 14.8306 20.4259 15.4133C20.2346 15.9391 19.9843 16.0675 19.9843 16.0675C19.9843 16.0675 20.1084 16.0464 20.2913 15.937C20.3229 16.0148 20.3167 16.1034 20.3692 16.1348C20.4218 16.1661 20.4933 16.2189 20.5039 16.2694C20.5606 16.1852 20.6489 16.0779 20.6764 15.998C20.6553 16.1644 20.6406 16.892 20.718 17.2623C20.8801 17.2476 21.0462 17.237 21.1598 16.9446C21.082 17.2308 21.082 17.4032 21.1345 17.6472C21.2208 17.5884 21.2986 17.4832 21.2986 17.4832L21.2991 17.4836Z" fill="#C0993A"/>
<path fill-rule="evenodd" clip-rule="evenodd" d="M15.8335 5.88869C15.8335 5.88869 15.6715 5.95595 15.396 5.95595C15.1562 5.95595 15.2235 5.86346 14.8491 5.86346C14.2728 5.86346 12.2596 6.19626 11.9062 6.19154C11.6768 6.18738 12.6802 6.29041 12.6802 6.29041L15.2446 6.32619L15.7598 6.28459L15.9513 5.89493L15.8335 5.88869Z" fill="#A88F33"/>
<path fill-rule="evenodd" clip-rule="evenodd" d="M9.18419 10.9015C9.18419 10.9015 8.85597 11.1518 8.71716 11.3433C8.57836 11.5348 8.50473 11.6608 8.34692 11.8166C8.38397 11.818 8.42098 11.813 8.45633 11.8019C8.45633 11.8019 8.45633 11.8435 8.43109 11.8544C8.4529 11.852 8.47498 11.8544 8.49571 11.8616C8.51644 11.8688 8.5353 11.8806 8.5509 11.896C8.50459 11.9212 8.3784 12.0476 8.47727 12.1969C8.5509 12.3105 8.70663 12.3209 8.70663 12.3209C8.70663 12.3209 8.67085 12.4241 8.82019 12.4135C9.14204 12.3988 9.50174 12.2578 9.66786 12.2936C9.83426 12.3352 9.92883 12.3504 10.0466 12.5545C10.1714 12.7564 10.2801 12.7881 10.2801 12.7881C10.2801 12.7881 10.3537 12.6007 10.3369 12.321C10.3973 12.1703 10.4308 12.0101 10.4358 11.8478L10.3264 11.0421L9.84896 10.4383L9.23051 10.7813L9.18419 10.9011V10.9015Z" fill="#E3C571"/>
<path fill-rule="evenodd" clip-rule="evenodd" d="M9.771 10.7815C9.771 10.7815 9.81731 10.891 10.0109 10.9014C9.98981 10.9477 9.98981 10.954 9.99619 10.9897C10.0004 11.0255 10.0066 11.078 10.0066 11.078C10.0279 11.0677 10.0472 11.0536 10.0634 11.0364C10.074 11.0827 10.0529 11.1562 10.0634 11.2089C10.0699 11.241 10.0805 11.272 10.0949 11.3014C10.098 11.2942 10.1015 11.2872 10.1055 11.2805C10.1096 11.2699 10.1471 11.394 10.2506 11.4885C10.2506 11.4739 10.2541 11.4596 10.261 11.4469C10.2626 11.4732 10.2714 11.4987 10.2863 11.5205C10.2785 11.5168 10.2715 11.5118 10.2653 11.5058C10.2653 11.5058 10.2757 11.8386 10.3326 12.0107C10.3421 11.9996 10.3505 11.9876 10.3578 11.9749C10.3578 11.9645 10.3537 12.0675 10.3431 12.1413C10.3284 12.2149 10.339 12.318 10.339 12.318C10.3769 12.2881 10.4186 12.2634 10.4629 12.2443C10.526 12.219 10.6293 12.1412 10.6923 11.9687C10.7288 11.871 10.757 11.7704 10.7765 11.6679C10.7968 11.7071 10.8108 11.7492 10.8181 11.7927C10.8224 11.8453 10.9212 11.8179 10.9212 11.8179L10.9423 11.5886L11.0671 11.069L11.1807 10.7472L11.7276 9.89533L12.7157 9.13433L13.5782 9.33206L14.306 8.34337L13.0523 7.59027L11.8658 7.71438L10.7891 9.20574L9.92672 10.5584L9.771 10.7814V10.7815Z" fill="#D8B65B"/>
<path fill-rule="evenodd" clip-rule="evenodd" d="M15.985 8.62334C15.985 8.62334 15.9113 8.63804 15.6989 8.74814C15.4865 8.85824 15.3392 8.89318 15.2571 9.05515C15.175 9.21711 15.1688 9.34552 15.1688 9.34552C15.1688 9.34552 15.314 9.28242 15.3981 9.26134C15.4865 9.24041 15.5853 9.24665 15.5748 9.28242C15.5647 9.30695 15.5506 9.32967 15.5332 9.34968C15.5332 9.34968 15.6996 9.34552 15.6951 9.42761C15.6907 9.5097 15.6637 9.60011 15.6322 9.64004C15.6006 9.68164 15.4702 9.74321 15.4555 9.79161C15.4198 9.89048 15.4702 9.89464 15.4512 9.97451C15.4365 10.0524 15.3672 10.2039 15.1399 10.4689C14.9064 10.734 14.8071 10.9212 14.8071 10.9212C14.8071 10.9212 14.6936 10.7087 14.6346 10.5257C14.593 10.5466 14.3696 10.6708 14.3696 10.6708L13.8521 8.86809L13.8625 8.74814C13.8625 8.74814 13.9088 8.69142 13.9194 8.58618C13.8416 8.56094 13.831 8.53986 13.7279 8.44113C13.6247 8.3424 13.5407 8.22232 13.3683 8.14022C13.3431 8.09391 13.3115 8.03096 13.1853 8.00558C13.0591 7.9802 12.9834 7.9594 12.9834 7.9594C12.9834 7.9594 13.0506 7.93403 13.0822 7.88147C13.0043 7.89201 12.9414 7.91725 12.7709 7.91309C12.5984 7.90879 12.5794 7.90255 12.4849 7.91725C12.3903 7.93195 12.2769 7.9741 12.2346 7.82892C12.1883 7.79314 12.0894 7.82476 12.0052 7.94873C11.9211 8.07269 11.8917 8.1717 11.7297 8.2201C11.7183 8.29149 11.6933 8.36003 11.6561 8.422C11.6097 8.49993 11.5361 8.57772 11.4372 8.69337C11.2815 8.87641 11.3068 9.17717 11.0585 9.40653C10.8083 9.63574 11.1001 8.77116 11.1001 8.77116L11.4998 7.81436L12.6378 6.70156L14.4049 6.58175L14.5774 7.49695L15.4399 7.79356L15.9847 8.62445L15.985 8.62334Z" fill="#D3AE4D"/>
<path fill-rule="evenodd" clip-rule="evenodd" d="M16.2647 8.82524L15.5221 7.75459L15.0025 7.35482C15.0025 7.35482 14.6323 6.67341 14.6071 6.65233C14.586 6.63763 14.2368 6.59978 14.0138 6.58508L14.0554 6.68811C14.1041 6.70392 14.1474 6.73308 14.1802 6.77228C14.2791 6.88585 14.3422 7.10036 14.1172 7.32972C14.2055 7.3612 14.242 7.37132 14.3191 7.3612C14.2413 7.45382 14.0646 7.65156 14.0541 7.82407C14.0435 7.96495 14.1319 8.00697 14.1319 8.00697C14.1319 8.00697 13.9972 8.16269 13.991 8.42297C14.0546 8.35126 14.1241 8.28511 14.199 8.22523C14.3547 8.10043 14.5692 7.9601 14.7144 7.87177C14.7124 7.90883 14.7174 7.94594 14.7291 7.98117C14.7291 7.98117 15.0003 7.7582 15.2283 7.85707C15.3313 7.90338 15.285 8.04857 15.285 8.04857C15.285 8.04857 15.426 7.99601 15.5249 8.09488C15.6238 8.19375 15.7647 8.4482 15.8362 8.54721C15.8677 8.59353 15.9498 8.68186 16.0338 8.81844C16.1486 9.0099 16.2445 9.21211 16.32 9.4222C16.3242 9.33803 16.3411 9.2203 16.4864 9.2203L16.2655 8.82482L16.2647 8.82524Z" fill="#CAA13E"/>
<path fill-rule="evenodd" clip-rule="evenodd" d="M5.13273 11.867C5.13273 11.867 5.08018 11.7365 5.13273 11.4821C5.18529 11.2276 5.26738 11.1077 5.2947 10.7333C5.32201 10.3589 5.56607 9.89186 5.56607 9.89186L6.24123 9.58485L6.7188 9.7152L6.85969 10.3547L6.25593 10.6875C6.25593 10.6875 6.22446 10.8284 6.05403 10.942C5.88361 11.0556 5.64802 11.1439 5.5913 11.2597C5.5574 11.3306 5.53266 11.4055 5.51767 11.4826C5.51767 11.4826 5.34517 11.4469 5.24214 11.5604C5.13273 11.6762 5.13689 11.7793 5.13273 11.8676V11.867Z" fill="#F4EFC8"/>
<path fill-rule="evenodd" clip-rule="evenodd" d="M6.49575 11.6966C6.49575 11.6966 6.4389 11.7324 6.39688 11.8214C6.35528 11.7542 6.25586 11.3544 6.2517 10.9947C6.24754 10.635 6.22605 10.5458 6.30925 10.4218C6.39245 10.2979 6.71873 10.1673 6.67241 9.944C6.6261 9.73156 6.43252 9.64323 6.19485 9.70425C6.02845 9.74585 5.90462 10.0997 5.73212 10.2764C5.60163 10.411 5.44605 10.39 5.40403 10.4636C5.34718 10.5625 5.39973 10.6613 5.38295 10.7244C5.37865 10.7455 5.3261 10.8591 5.23139 10.9958C5.04003 11.2713 4.7161 11.6606 4.67395 12.0097C4.68865 11.812 4.67825 11.8078 4.7308 11.589L4.69919 11.5364L4.90719 10.8549L5.04183 10.2933L5.34274 9.35286L5.87272 8.39163L6.38815 7.81519L6.92451 7.85097L6.9876 8.65662L7.29475 10.1692L7.94052 10.9643L6.90551 11.6608L6.49534 11.6966H6.49575Z" fill="#EBCC73"/>
<path fill-rule="evenodd" clip-rule="evenodd" d="M6.81769 11.9824C6.81769 11.9824 6.72936 12.0035 6.69774 11.9867C6.66612 11.9699 6.63479 11.9509 6.64519 11.9298C6.65559 11.9088 6.71244 11.8731 6.71244 11.8562C6.71361 11.8409 6.70877 11.8258 6.69896 11.814C6.68915 11.8022 6.67513 11.7947 6.65988 11.7931C6.61149 11.7869 6.59679 11.8184 6.59679 11.8184C6.59679 11.8184 6.55048 11.7827 6.51276 11.7768C6.53508 11.774 6.55753 11.7726 6.58001 11.7725C6.52188 11.7461 6.46022 11.7284 6.39697 11.7199C6.44953 11.6884 6.5527 11.5958 6.61995 11.5958C6.6872 11.5958 6.72936 11.5854 6.71882 11.5496C6.70828 11.5138 6.65572 11.4613 6.59901 11.4402C6.61995 11.415 6.63479 11.3771 6.58431 11.2738C6.53162 11.1708 6.5527 11.1013 6.56961 11.0762C6.58431 11.0446 6.63687 10.9879 6.6621 10.9521C6.68734 10.9163 6.70842 10.8679 6.75043 10.8427C6.77151 10.828 6.83876 10.8011 6.90616 10.7754C6.97979 10.7502 7.0408 10.7186 7.08282 10.7502C7.12913 10.7817 7.10805 10.8238 7.10805 10.8238C7.10805 10.8238 7.25324 10.7711 7.38359 10.8385C7.51407 10.9015 7.83176 10.9416 7.83176 10.9416L7.9456 11.1709L7.1925 11.8167L6.8812 11.9724L6.8181 11.9828L6.81769 11.9824Z" fill="#E5C66B"/>
<path fill-rule="evenodd" clip-rule="evenodd" d="M7.86302 10.9267C7.86302 10.9267 7.62951 11.0825 7.57695 11.1392C7.60843 11.1435 7.66098 11.1645 7.63991 11.196C7.61467 11.2275 7.46325 11.3369 7.37907 11.4401C7.29074 11.5431 7.20657 11.6736 7.17718 11.7367C7.1457 11.7934 6.9058 11.9597 6.82385 11.9806C6.99635 11.9806 7.34344 11.7682 7.47378 11.7682C7.46962 11.8313 7.50956 11.9028 7.58319 11.909C7.65682 11.9153 7.86926 11.9554 8.15533 11.7787C8.4414 11.6062 8.34683 11.4778 8.46664 11.3938C8.69599 11.2422 8.78848 11.1076 8.91467 11.0235C9.04086 10.9395 9.10617 10.9204 9.10617 10.9204C9.10617 10.9204 9.11033 10.8573 9.14777 10.8636C9.15802 10.8648 9.16775 10.8688 9.17591 10.8751C9.18407 10.8814 9.19036 10.8898 9.19408 10.8994C9.19408 10.8994 9.4129 10.7437 9.69328 10.7017C9.68674 10.6988 9.68151 10.6935 9.67858 10.687C9.67858 10.687 9.69952 10.6764 9.70382 10.6659C9.70382 10.6659 9.71852 10.6448 9.72906 10.6554C9.7396 10.6659 9.7543 10.7437 9.77537 10.7753C9.82169 10.7542 9.91002 10.5565 9.91002 10.5565L10.1226 9.94858V9.39322L9.95619 9.42483L8.70819 9.95482L7.9508 10.7395L7.86247 10.9267H7.86302Z" fill="#E6BD62"/>
<path fill-rule="evenodd" clip-rule="evenodd" d="M11.4559 8.20262C11.5234 8.18625 11.5881 8.15998 11.6479 8.12469C11.6227 8.19209 11.6227 8.26572 11.5133 8.4256C11.4039 8.58548 11.3997 8.60864 11.3114 8.77476C11.2231 8.94726 11.2125 9.19548 11.1284 9.30475C11.1661 9.28642 11.2066 9.27438 11.2482 9.26911C11.2482 9.26911 11.1641 9.34274 11.1284 9.42053C11.0926 9.49833 11.0295 9.66029 10.8739 9.7593C10.7183 9.8583 10.5204 9.92126 10.308 10.1548C10.0954 10.384 9.87676 10.6744 9.76721 10.7788C9.82407 10.6799 9.90186 10.4822 9.92293 10.3518C9.94401 10.2215 9.91864 10.0656 9.95441 9.89325C9.99019 9.72089 9.99019 9.59664 10.1624 9.29573C10.3346 8.99483 10.6294 7.94942 10.6294 7.94942L11.2647 7.74752L11.4562 8.20193L11.4559 8.20262Z" fill="#B6933F"/>
<path fill-rule="evenodd" clip-rule="evenodd" d="M10.9973 7.81769C10.9973 7.81769 10.8059 8.09322 10.7534 8.33727C10.7008 8.58132 10.7491 8.56025 10.7176 8.68019C10.6988 8.75333 10.6988 8.83004 10.7176 8.90317C10.7839 8.7964 10.8746 8.70695 10.9823 8.6422C11.1633 8.53293 11.3106 8.455 11.3983 8.36251C11.4867 8.26364 11.5603 8.10168 11.7516 7.97757C11.6739 7.96703 11.5644 7.93125 11.5436 7.93597C11.6216 7.84764 11.855 7.71299 12.0906 7.55103C12.3241 7.38463 12.3094 7.31752 12.6881 7.15139C12.564 7.17247 12.505 7.14085 12.4019 7.15139C12.4435 7.06306 12.5891 7.02091 12.7347 6.87586C12.8803 6.73082 12.6422 6.51616 12.6422 6.51616L11.5328 7.18717L10.9965 7.81824L10.9973 7.81769Z" fill="#C49937"/>
<path fill-rule="evenodd" clip-rule="evenodd" d="M7.98718 7.31696L8.01242 7.11506L8.3301 6.60602L8.66249 5.71203V4.48982L8.63725 3.78304L8.68981 3.32017L8.72974 3.17305L8.7719 3.11619L9.04313 3.25708L9.41767 3.76612L9.45344 4.74858L9.08944 6.29887L8.05028 7.43275L7.98718 7.31696Z" fill="#DFC068"/>
<path fill-rule="evenodd" clip-rule="evenodd" d="M8.8139 3.05934C8.8139 3.05934 8.6475 3.06364 8.61201 3.75572C8.57651 4.44781 8.55931 4.81167 8.53407 5.15459C8.50884 5.49751 8.45004 5.70565 8.42051 5.90769C8.39097 6.10973 8.37419 6.38512 8.27962 6.55346C8.23802 6.63125 8.14914 6.87531 7.94086 7.05835C7.70734 7.26025 7.35846 7.40127 7.30563 7.41181C7.213 7.43275 6.74389 7.47906 6.55253 7.58431C6.48527 7.62009 6.36949 7.6621 6.24122 7.78205C5.98663 8.01126 5.648 8.42144 5.40395 8.91579C5.02955 9.65419 4.65515 11.7388 4.65515 11.7388L4.73932 11.5979C4.73932 11.5979 4.74986 11.4107 4.93706 11.0825C5.1201 10.7544 5.06755 10.3862 5.322 9.75722C5.42087 9.51746 5.54498 9.20615 5.6964 8.94102C5.93629 8.50977 6.22652 8.13953 6.51897 7.93763C6.9964 7.60955 7.52236 7.53799 7.52236 7.53799L8.08826 7.16359C8.08826 7.16359 8.18713 6.97223 8.31762 6.75342C8.50052 6.44641 8.73362 6.10349 8.78451 5.60498C8.86244 4.86658 8.6751 4.38277 8.68564 3.94528C8.69618 3.50779 8.70034 3.18594 8.78881 3.10801C8.87727 3.03008 8.81404 3.05962 8.81404 3.05962L8.8139 3.05934Z" fill="#A88F33"/>
<path fill-rule="evenodd" clip-rule="evenodd" d="M8.81387 6.36196C8.81387 6.36196 9.06347 5.74767 9.17773 5.20285C9.19881 5.09344 9.24083 4.98417 9.25137 4.89584C9.30392 4.38042 9.31862 4.16798 9.25137 3.88607C9.19881 3.67807 8.99691 3.49059 8.89167 3.34527C8.78864 3.19371 8.74024 3.13727 8.76132 3.10538C8.7824 3.07348 8.86435 3.02134 8.94422 3.02758C9.02912 3.03006 9.11264 3.04977 9.18968 3.08553C9.26673 3.12128 9.33569 3.17234 9.39239 3.23558C9.55435 3.42278 9.68262 4.05815 9.68262 4.05815L9.81754 4.89653L10.1605 5.95248L8.81415 6.36279L8.81387 6.36196Z" fill="#C99E3D"/>
<path fill-rule="evenodd" clip-rule="evenodd" d="M11.1593 5.72257C11.1593 5.72257 11.113 5.74351 11.029 5.72257C11.0325 5.75691 11.0266 5.79158 11.0117 5.82275C10.9969 5.85392 10.9737 5.88038 10.9448 5.89923C10.8565 5.86346 10.0296 5.93501 10.0296 5.93501C10.0296 5.93501 9.64465 5.86762 9.5247 5.35857C9.44067 5.01981 9.58779 4.55292 9.5394 4.24577C9.46577 3.79344 9.36274 3.70497 9.3522 3.56422C9.34166 3.42348 9.33112 3.38756 9.33112 3.29923C9.28481 3.28869 9.25749 3.274 9.21131 3.274C9.20077 3.2324 9.22171 3.19606 9.17554 3.12243C9.20077 3.13297 9.37328 3.15405 9.57517 3.34541C9.74157 3.50113 9.74157 3.55785 9.76667 3.58946C9.79815 3.62094 10.0527 3.83906 10.1622 4.05649C10.2716 4.27392 10.484 4.96725 10.5324 5.08082C10.5471 5.12714 10.5787 5.17345 10.6572 5.27856C10.7792 5.43012 10.958 5.68069 11.1599 5.72229L11.1593 5.72257Z" fill="#B58634"/>
<path fill-rule="evenodd" clip-rule="evenodd" d="M9.79639 3.6C9.92382 3.80585 10.0383 4.01944 10.1392 4.23953C10.2633 4.51922 10.3369 4.74858 10.4926 4.93578C10.4085 4.69186 10.2591 4.21221 10.1708 4.04179C10.0719 3.86153 9.87002 3.66739 9.79639 3.60014V3.6Z" fill="#A88F33"/>
<path fill-rule="evenodd" clip-rule="evenodd" d="M8.36593 7.05835C8.36593 7.05835 8.15349 7.1109 7.75802 7.31918C7.62753 7.38643 7.50356 7.44315 7.38362 7.49584C7.07203 7.63673 6.73785 7.76693 6.47272 7.83876C6.49379 7.864 6.50419 7.8744 6.50419 7.8744C6.50419 7.8744 6.50419 7.97757 6.56105 8.03636C6.52957 8.06798 6.10871 8.35405 6.23296 9.31113C6.31699 9.27965 6.41586 9.23749 6.43056 9.23749C6.45594 9.24179 6.46218 9.31113 6.49365 9.31113C6.52513 9.31113 6.6283 9.26953 6.73771 9.12809C6.73355 9.18494 6.67045 9.75708 7.00908 10.142C7.07217 10.0684 7.23205 9.82433 7.23205 9.82433L7.23621 9.74654C7.23621 9.74654 7.25091 9.47517 7.33938 9.22695C7.42785 8.97874 7.60021 8.7957 7.60021 8.7957L8.5003 7.5104L8.36565 7.05821L8.36593 7.05835Z" fill="#E6C367"/>
<path fill-rule="evenodd" clip-rule="evenodd" d="M7.52447 8.9456C7.48326 8.97472 7.43786 8.9974 7.38983 9.01285C7.37513 8.9603 7.35405 8.77934 7.47816 8.60268C7.62334 8.3901 7.94089 8.11457 8.02922 7.89548C8.08607 7.75445 8.06083 7.40113 8.56572 6.9488C9.0706 6.49647 9.2682 6.34089 9.2682 6.34089L10.0844 5.93071L11.0878 6.32619L10.5893 8.28L10.2023 9.1952L8.66306 8.90497L7.52433 8.9456H7.52447Z" fill="#DCBA5A"/>
<path fill-rule="evenodd" clip-rule="evenodd" d="M8.11194 8.41506L8.30344 8.17531V8.00489C8.30344 8.00489 8.51587 7.94803 8.74509 7.71452C8.97431 7.481 9.29199 7.03297 9.57182 7.06029C9.85165 7.09191 9.87897 7.6682 9.88951 7.83031C9.90005 7.99241 9.93582 8.36029 9.99254 8.55817C10.0556 8.75591 9.31099 9.50471 9.31099 9.50471L8.80527 9.88964L8.11194 8.41506Z" fill="#E9CE77"/>
<path fill-rule="evenodd" clip-rule="evenodd" d="M8.70447 10.4113C8.70447 10.4113 8.86019 10.1673 8.74607 10.1147C8.81332 9.96327 8.93743 9.80339 8.93743 9.80339C8.93743 9.80339 9.02576 9.58471 9.31183 9.31542C9.5979 9.04613 9.7747 8.86725 9.82101 8.68643C9.84956 8.56859 9.8651 8.44796 9.86733 8.32673C9.89825 8.352 9.93134 8.3745 9.9662 8.39398C10.0125 8.41506 10.2312 8.59588 10.1997 8.95988C10.1682 9.32388 10.0333 9.47531 10.0333 9.47531C10.0333 9.47531 9.90296 9.60565 9.81047 9.67305C9.71147 9.7403 9.67583 9.81809 9.50957 9.82447C9.52665 9.81088 9.54586 9.8002 9.56642 9.79285C9.56642 9.79285 9.39392 9.77192 9.30129 9.85595C9.20866 9.93998 9.01175 10.1989 8.91288 10.2768C8.81401 10.3399 8.70488 10.4114 8.70488 10.4114L8.70447 10.4113Z" fill="#CDAE50"/>
<path fill-rule="evenodd" clip-rule="evenodd" d="M15.6989 6.31981C15.4503 6.22923 15.1892 6.17814 14.9248 6.16839C14.483 6.15369 13.8373 6.17892 13.2041 6.18308C12.5226 6.18724 11.9041 5.94957 11.0459 5.90755C10.905 5.82338 10.5467 5.45522 9.42822 6.23564C9.49548 6.23148 10.2403 6.06314 10.4989 6.3872C10.7597 6.70905 10.6861 7.25595 10.6504 7.38629C10.583 7.67666 10.3642 8.09946 10.276 8.39606C10.1878 8.69267 10.2086 8.84853 10.1455 9.05653C10.0825 9.26453 9.94365 9.36784 10.0256 9.6076C10.135 9.54034 10.192 9.54034 10.3748 9.13017C10.5575 8.71999 10.5199 8.42754 10.8229 8.08046C11.1195 7.7313 11.6133 7.25373 11.8011 7.13378C11.9888 7.01384 13.4796 6.2398 15.0406 6.9782C15.4171 6.93826 15.699 6.31967 15.699 6.31967L15.6989 6.31981Z" fill="#D2A83E"/>
<path fill-rule="evenodd" clip-rule="evenodd" d="M10.057 6.0336C10.0555 6.01779 10.052 6.00224 10.0466 5.98729C10.032 5.95652 10.0129 5.92815 9.98978 5.90312C9.98978 5.90312 9.61954 5.83586 9.43234 5.8568C9.10411 5.89258 8.80751 6.29859 8.6687 6.50687C8.5299 6.71515 8.35739 7.03685 8.17019 7.20312C8.17224 7.18692 8.16851 7.17052 8.15966 7.1568C8.15966 7.1568 8.17019 7.1715 8.14926 7.19258C8.12832 7.21365 8.12818 7.22405 8.13872 7.23418L8.17033 7.26565C8.18073 7.26565 8.4711 7.13517 8.86658 6.76645C9.28729 6.38152 9.60914 6.18405 9.77748 6.11639C9.86725 6.07823 9.96109 6.05046 10.0572 6.0336H10.057Z" fill="#C29637"/>
<path fill-rule="evenodd" clip-rule="evenodd" d="M17.2387 4.45197C17.2387 4.45197 17.1713 4.536 17.0872 4.62863C16.9 4.82637 16.6559 5.04921 16.4476 5.27856C16.25 5.49738 16.027 5.6678 15.7766 5.95387C15.5262 6.23994 15.2358 6.55748 15.1623 6.65011C15.0951 6.74274 15.0425 6.89417 15.0425 6.97196C15.0067 6.94672 14.9647 6.9194 14.9647 6.9194C14.9824 6.95243 15.0036 6.98348 15.0278 7.01203C15.0804 7.08566 15.1623 7.17843 15.2045 7.23501C15.2562 7.30703 15.2933 7.38848 15.3137 7.47476C15.339 7.47892 15.5009 7.51054 15.703 7.17816C15.905 6.84577 16.1699 6.48191 16.1699 6.48191L16.5906 5.85708L16.8557 5.32709L17.1885 4.73388L17.2391 4.45197H17.2387Z" fill="#AC8132"/>
<path fill-rule="evenodd" clip-rule="evenodd" d="M17.67 4.02709C17.67 4.02709 17.4154 4.23509 17.3166 4.35989C17.2177 4.48469 16.9838 4.81222 16.9838 4.81222L17.0679 4.80169L17.495 4.42313L17.6614 4.12652L17.6699 4.02765L17.67 4.02709Z" fill="#A88F33"/>
<path fill-rule="evenodd" clip-rule="evenodd" d="M17.5921 20.7441C17.5921 20.7441 17.5879 20.5716 17.6847 20.4685C17.7836 20.3654 18.0338 20.2139 18.2779 19.646C18.522 19.078 18.5491 18.9497 18.5491 18.9497C18.5491 18.9497 18.1116 19.3241 17.8419 19.4124C17.905 19.282 17.9408 19.1895 17.9724 19.1221C17.9366 19.0906 17.7852 19.0548 17.7705 19.038C17.8545 18.9539 17.9009 18.7477 18.0713 18.6109C18.2901 18.4445 18.6897 18.1586 19.0004 17.9037C19.311 17.6489 19.9217 17.0561 19.9996 16.8836C20.0459 16.9508 20.0563 16.9928 20.0563 16.9928C20.0563 16.9928 19.7493 17.3926 19.5894 17.6471C19.4484 17.8659 19.4589 17.99 19.4589 17.99L19.7493 17.8652C19.7493 17.8652 19.8333 18.1765 19.4527 18.6499C19.6191 18.5868 19.6862 18.6247 19.7808 18.572C19.625 18.671 19.4105 18.8056 19.2086 19.1757C19.0109 19.546 18.7416 19.9772 18.2873 20.2464C17.8455 20.5304 17.5909 20.7428 17.5909 20.7428L17.5921 20.7441Z" fill="#A67A2E"/>
<path fill-rule="evenodd" clip-rule="evenodd" d="M16.452 6.53876C16.452 6.53876 16.2795 6.89833 16.2542 7.17816C16.2501 7.24555 16.2332 7.2981 16.2332 7.37589C16.229 7.62619 16.2479 7.90602 16.1916 8.03636C16.1705 7.98381 16.16 7.94803 16.1389 7.92709C16.1074 8.01542 16.0505 8.29096 16.0042 8.39398C15.9833 8.32673 15.937 8.09322 15.9413 7.81769C15.9456 7.54216 15.9517 7.48946 15.9517 7.43275C15.9413 7.51678 15.8844 7.63049 15.8633 7.69774C15.8319 7.64102 15.7961 7.56739 15.7539 7.50638C15.7287 7.54798 15.6972 7.60941 15.6699 7.64102C15.6656 7.61579 15.6552 7.5484 15.6488 7.45382C15.6447 7.34442 15.6383 7.20353 15.6447 7.174C15.6551 7.11728 15.7435 6.8943 15.9307 6.69019C16.1537 6.44613 16.3831 5.97716 16.4503 5.83198C16.5176 5.6868 16.8036 5.08318 16.8036 5.08318H17.0225L16.7048 5.80674C16.7048 5.80674 16.5134 6.20222 16.4145 6.34754C16.3157 6.49287 16.1074 6.90928 16.0148 7.07124C16.082 6.98291 16.1389 6.9366 16.2063 6.85243C16.2714 6.79349 16.4523 6.53904 16.4523 6.53904L16.452 6.53876Z" fill="#8C6228"/>
<path fill-rule="evenodd" clip-rule="evenodd" d="M17.6741 3.99964C17.6384 4.10965 17.5819 4.21179 17.5077 4.30054C17.3772 4.45627 17.0974 4.66441 16.9608 4.83053C16.836 4.99249 16.5864 5.43428 16.6998 5.95803C16.7414 5.84446 16.8198 5.6194 17.0281 5.36481C17.2363 5.11022 17.4593 4.81791 17.5689 4.59077C17.6781 4.36142 17.6928 4.1806 17.6928 4.1806L17.7344 4.12804L17.7092 4.0081L17.6734 3.99964H17.6741Z" fill="#CBA94C"/>
<path fill-rule="evenodd" clip-rule="evenodd" d="M21.9339 17.9526C21.9339 17.9526 21.8497 17.7233 21.8245 17.5151C21.7992 17.3068 21.8661 17.2655 21.7887 17.0271C21.7424 16.8819 21.6583 16.9023 21.6373 16.8819C21.6162 16.8615 21.6015 16.6422 21.6056 16.5222C21.6098 16.4023 21.6015 16.2467 21.5804 16.1793C21.5489 16.154 21.5279 16.133 21.4815 15.9774C21.429 15.8217 21.4037 15.7439 21.3785 15.6977C21.3533 15.6515 21.2795 15.6094 21.2795 15.5631C21.2795 15.4704 21.3637 15.4222 21.3637 15.3967C21.3595 15.3441 21.2964 15.3863 21.2795 15.3714C21.2586 15.3462 21.3322 15.1948 21.3049 15.1737C21.2943 15.1633 21.2207 15.2516 21.2017 15.2264C21.1806 15.201 21.1554 14.9507 21.1175 14.7846C21.0819 14.6226 21.0439 14.5049 21.0397 14.4565C21.0356 14.4102 20.7494 13.594 20.68 13.3962C20.6242 13.2292 20.5771 13.0592 20.5392 12.8872C20.5181 12.7883 20.5034 12.5863 20.4928 12.6074C20.4823 12.6284 20.4887 12.7315 20.4718 12.7273C20.4571 12.723 20.4045 12.3635 20.3877 12.3066C20.373 12.2498 20.2846 12.057 20.2629 11.9175C20.2419 11.7765 20.1957 11.4083 20.1641 11.158C20.1325 10.9077 20.1178 10.8047 20.1178 10.742C20.1229 10.5887 20.1145 10.4353 20.0925 10.2835C20.0509 10.0183 19.9677 9.69648 19.8948 9.50942C19.7539 9.15596 19.3794 8.25144 19.3124 8.02638C19.3124 7.96953 19.386 8.00114 19.386 8.00114C19.386 8.00114 19.5689 8.45971 19.7036 8.81304C19.834 9.1665 19.9581 9.4778 19.9898 9.50942C20.015 9.5409 20.2127 9.88798 20.3011 10.456C20.3894 11.0239 20.4209 11.5477 20.4736 11.8968C20.4988 12.0632 20.5199 12.2398 20.5724 12.4164C20.6292 12.6079 20.7175 12.8057 20.8333 13.1085C20.9321 13.3631 21.0058 13.5755 21.0457 13.7586C21.092 13.9921 21.092 14.1688 21.1193 14.2845C21.1447 14.3834 21.1824 14.581 21.2709 14.8669C21.3594 15.1529 21.4896 15.5212 21.5779 15.7504C21.7506 16.209 21.8275 16.5918 21.8536 16.7959C21.8766 17.0063 21.9545 17.7342 21.9335 17.9528L21.9339 17.9526Z" fill="#A88F33"/>
<path fill-rule="evenodd" clip-rule="evenodd" d="M17.6847 3.9744L17.6742 3.99964C17.6742 3.99964 17.7056 4.01018 17.6994 4.05233C17.6998 4.11 17.6963 4.16764 17.6889 4.22483C17.6785 4.29846 17.6574 4.35518 17.6532 4.40149C17.6532 4.50036 17.6679 4.61393 17.5284 4.89584C17.4868 4.97363 17.4612 5.04089 17.4401 5.0872C17.3875 5.20077 17.377 5.21769 17.3307 5.27024C17.4043 5.22864 17.6694 5.06224 17.804 5.0872C17.7115 5.13975 17.5704 5.24292 17.4821 5.37757C17.5032 5.38173 17.5915 5.39865 17.7317 5.37757C17.9652 5.34179 18.2261 5.25762 18.4553 5.2744C18.7057 5.2891 18.6068 4.97363 18.6068 4.97363L18.3179 4.3384L17.771 3.9536L17.6847 3.97454V3.9744Z" fill="#BE9C44"/>
<path fill-rule="evenodd" clip-rule="evenodd" d="M19.1109 8.73275C19.1109 8.73275 18.8668 8.48869 18.768 7.65115C18.6691 6.80972 18.6902 5.57115 18.6902 5.57115L18.4924 5.08734C18.4924 5.08734 18.4508 4.76549 18.3472 4.64569C18.2437 4.52588 18.0402 4.32384 17.9476 4.22497C17.855 4.1261 17.7499 3.99146 17.6868 3.97038C17.7182 3.91782 17.8593 3.62122 18.3998 3.61706C18.9403 3.6129 19.107 3.91366 19.1634 4.02307C19.2199 4.13248 19.4747 4.60547 19.5693 5.50681C19.6576 6.40703 19.6619 6.47442 19.6472 6.78573C19.6367 6.95823 19.5798 7.35787 19.4808 7.78482C19.3904 8.14674 19.2916 8.55068 19.1106 8.73358L19.1109 8.73275Z" fill="#A17C34"/>
<path fill-rule="evenodd" clip-rule="evenodd" d="M18.3456 9.45007C18.427 9.45594 18.5082 9.4376 18.5791 9.39738C18.6569 9.39322 18.9388 9.42899 19.1554 9.15346C19.1701 9.21642 19.2081 9.38698 19.1091 9.5384C19.1618 9.48571 19.2396 9.46477 19.2501 9.45007C19.2543 9.52786 19.3279 9.76762 19.0166 10.3503C19.1007 10.2578 19.1995 10.262 19.2879 10.2514C19.2922 10.3608 19.351 10.7289 19.1954 10.9267C19.0923 11.0614 18.924 11.0192 18.924 11.0192C18.9265 10.9898 18.9265 10.9603 18.924 10.9309C18.9198 10.874 18.8988 10.8173 18.9136 10.7795C18.8323 10.7423 18.7582 10.691 18.6948 10.6279C18.5117 10.4554 18.2741 10.161 18.2573 9.9422C18.2362 9.69814 18.455 9.64559 18.455 9.64559C18.4367 9.62919 18.4211 9.61 18.4087 9.58874C18.3982 9.5531 18.3876 9.49625 18.3456 9.45007Z" fill="#8C6228"/>
<path fill-rule="evenodd" clip-rule="evenodd" d="M16.7231 6.80376C16.7231 6.80376 16.7126 6.78906 16.6559 6.85631C16.6664 6.78906 16.677 6.72583 16.6811 6.66481C16.708 6.60832 16.7427 6.55594 16.7843 6.50923C16.7527 6.57218 16.7316 6.62904 16.7316 6.62904C16.7316 6.62904 16.8095 6.48385 16.9231 6.39552C17.0009 6.33243 17.0998 6.30303 17.1418 6.2441C17.1881 6.181 17.1775 6.17047 17.1881 6.15993C17.1881 6.15993 17.2913 6.09267 17.4491 5.8948C17.47 5.86956 17.5016 5.84224 17.5227 5.817C17.5583 5.80231 17.6425 5.76445 17.7414 5.71384C17.8445 5.65712 17.9602 5.57933 18.0317 5.54744C18.1726 5.48434 18.3221 5.49072 18.3914 5.39171C18.444 5.37701 18.5007 5.21921 18.4903 5.08471C18.5681 5.11618 18.9677 5.3644 19.1046 5.90714C19.2035 6.29208 19.0267 6.88529 18.953 7.1715C18.8794 7.45771 18.869 7.67001 18.7658 7.80035C18.6354 7.97299 18.2148 8.21635 18.1116 8.33685C18.0233 8.43572 17.7583 8.68602 17.7687 8.86684C17.7792 9.00148 17.9453 9.07484 17.9813 9.10035C18.0172 9.12587 18.0169 9.15721 18.0843 9.14195C18.1517 9.1267 18.1768 9.09564 18.2042 9.09564C18.2357 9.0998 18.2357 9.10618 18.2504 9.10618C18.2611 9.10586 18.2717 9.10442 18.282 9.10188C18.282 9.10188 18.2715 9.29338 17.8235 9.35148C17.7918 9.35578 17.7604 9.36618 17.7203 9.37256C17.773 9.34732 17.8045 9.34732 17.8613 9.26953C17.7982 9.25899 17.6173 9.24845 17.5709 9.23375C17.5856 9.20851 17.634 9.14112 17.674 9.10964C17.7097 9.07817 17.6698 9.06804 17.6383 9.08441C17.5841 9.12128 17.5321 9.16128 17.4826 9.20422C17.4301 9.25053 17.3837 9.31362 17.2996 9.37062C17.2743 9.28644 17.2785 9.12656 17.3775 9.01091C17.3521 9.01507 17.3037 9.08871 17.2576 9.07401C17.2492 8.99728 17.2542 8.91969 17.2723 8.84465C17.2975 8.74994 17.4342 8.58382 17.4342 8.58382L18.0947 7.40363L18.2356 6.50964L16.7231 6.80348V6.80376Z" fill="#92723A"/>
<path fill-rule="evenodd" clip-rule="evenodd" d="M16.6875 6.85423C16.6875 6.85423 16.6517 6.87947 16.7233 6.92786C16.7128 6.94256 16.6875 6.99511 16.6559 7.03089C16.6203 7.07249 16.5823 7.09828 16.5676 7.13406C16.5361 7.20769 16.5109 7.25816 16.5109 7.28978C16.5109 7.3214 16.5003 7.5233 16.412 7.65364C16.3804 7.69996 16.3446 7.77775 16.3194 7.8303C16.2668 7.92279 16.2205 7.9967 16.2099 8.0383C16.189 8.11194 16.1743 8.31383 16.1743 8.31383C16.1743 8.31383 16.2206 8.25698 16.2374 8.23604C16.212 8.2886 16.1847 8.34531 16.1448 8.38747C16.17 8.36639 16.2436 8.31383 16.3678 8.20443C16.5403 8.05938 16.8095 7.81533 17.1378 7.62203C17.0388 7.6578 16.9547 7.6578 16.8875 7.66834C16.94 7.61579 17.4133 7.06043 17.6615 7.00787C17.6766 6.98876 17.6841 6.96477 17.6826 6.94048L17.47 6.91954L17.0388 7.01203L16.9758 6.67923L16.6875 6.85381V6.85423Z" fill="#B18E3E"/>
<path fill-rule="evenodd" clip-rule="evenodd" d="M17.3734 8.74745C17.3734 8.74745 17.3166 8.80416 17.264 8.94518C17.2236 8.90294 17.1889 8.85552 17.1609 8.80416C17.0831 8.67381 16.9633 8.50755 16.6834 8.60226C16.6793 8.51393 16.6729 8.46762 16.6834 8.40452C16.7297 8.39412 16.8706 8.28056 17.0115 8.11429C17.1105 8.00073 17.203 7.87024 17.2661 7.70412C17.3077 7.6725 17.3797 7.61995 17.4741 7.55893C17.6087 7.46644 17.7707 7.34012 17.7959 7.19923C17.7329 7.22447 17.5982 7.28756 17.3962 7.27716C17.4741 7.24139 17.5939 7.20353 17.5792 7.04781C17.6108 7.02673 17.6361 7.01203 17.6361 7.01203C17.6124 7.00412 17.5874 7.00055 17.5624 7.00149C17.5581 6.9868 17.5519 6.96586 17.5161 6.97626C17.4803 6.98666 17.4745 6.9868 17.4698 7.00149C17.4551 7.00579 17.4067 7.00149 17.3709 7.02687C17.3352 7.05225 17.2363 7.13614 17.1984 7.15084C17.2131 7.1256 17.2341 7.08788 17.2341 7.08788C17.2341 7.08788 17.131 7.09828 17.0574 7.12948C16.9228 7.1758 16.7672 7.25997 16.6094 7.34192C16.6241 7.31668 16.6305 7.30032 16.6409 7.29561C16.6513 7.29089 16.6766 7.28521 16.6766 7.28091C16.6766 7.27661 16.6662 7.23931 16.6725 7.22419C16.7196 7.12425 16.7753 7.02854 16.8389 6.93812C16.9125 6.83912 16.9272 6.69823 16.9272 6.69823L17.249 6.53627L18.1536 6.32827L18.7405 6.36404L18.6669 6.77006L18.3202 7.47892L18.0236 8.12469L17.6849 8.52031L17.3736 8.74745H17.3734Z" fill="#543E26"/>
<path fill-rule="evenodd" clip-rule="evenodd" d="M18.8395 6.9904C18.8395 6.9904 18.4861 7.42789 18.3872 7.49529C18.4503 7.36064 18.8395 6.55915 18.9804 6.33617C18.9489 6.31093 18.9068 6.31093 19.0057 5.92017C18.9216 6.11777 18.8921 6.22094 18.8228 6.27349C18.7534 6.32605 18.7448 6.30927 18.698 6.30927C18.7068 6.29326 18.7104 6.27489 18.7084 6.25672C18.7084 6.25672 18.4117 6.22094 18.2092 6.22094C18.0066 6.22094 17.6055 6.33035 17.3824 6.41868C17.2058 6.49231 17.1069 6.49231 17.0438 6.53849C16.9807 6.59104 16.9449 6.64789 16.9133 6.66259C16.8881 6.67729 16.7683 6.71515 16.7408 6.75508C16.7156 6.79668 16.6736 6.84341 16.6736 6.85395C16.6736 6.86449 16.663 6.87933 16.6946 6.86865C16.705 6.86449 16.783 6.82234 16.8713 6.76978C16.9911 6.70253 17.1363 6.62474 17.2415 6.57842C17.5423 6.45848 17.637 6.47955 17.7715 6.45432C17.9124 6.42908 18.1144 6.37014 18.249 6.37014C18.3836 6.36598 18.6382 6.37014 18.6971 6.38068C18.6719 6.40176 18.6508 6.427 18.6613 6.51533C18.6613 6.54057 18.6403 6.56788 18.6197 6.6289C18.5568 6.8014 18.4368 7.08747 18.3701 7.23265C18.2777 7.43025 18.1725 7.59651 18.1205 7.69954C18.0685 7.80257 17.9541 8.07394 17.8409 8.21913C17.7276 8.36431 17.6684 8.45264 17.6329 8.48426C17.5974 8.51587 17.3425 8.70293 17.3615 8.77033C17.4078 8.75563 17.7002 8.64553 17.9125 8.40646C18.1248 8.1674 18.1671 8.02153 18.3333 7.89104C18.4994 7.76056 18.6299 7.54188 18.7077 7.36106C18.7728 7.19272 18.7581 7.14016 18.8401 6.99082L18.8395 6.9904Z" fill="#806031"/>
<path fill-rule="evenodd" clip-rule="evenodd" d="M11.2225 10.2557C11.2225 10.2557 11.1762 10.4471 11.071 10.5418C10.9679 10.6344 10.7849 10.7143 10.764 10.87C10.7387 11.0256 10.947 11.1035 10.947 11.1035C10.947 11.1035 10.8333 11.2907 10.8333 11.4316C10.8333 11.5768 10.8291 11.6041 10.8438 11.7429C10.8272 11.7537 10.813 11.7678 10.8022 11.7845C10.8022 11.7845 10.8126 11.9192 10.9158 12.0032C11.019 12.0872 11.1072 12.1378 11.1597 12.1168C11.1677 12.1339 11.1748 12.1515 11.1808 12.1695C11.1808 12.1695 11.2587 11.9717 11.3113 11.7992C11.3638 11.6226 11.4101 11.6477 11.4311 11.41C11.452 11.1723 11.6807 10.7642 11.6807 10.7642L11.8367 10.4155L11.5822 10.2177L11.2225 10.2556V10.2557Z" fill="#B6903C"/>
<path fill-rule="evenodd" clip-rule="evenodd" d="M11.6958 10.5985C11.6433 10.6524 11.5949 10.71 11.5508 10.771C11.4836 10.8636 11.431 10.9477 11.3322 10.9836C11.2333 11.0195 11.1702 11.0192 11.1764 11.1182C11.1827 11.2172 11.2753 11.2591 11.3279 11.3096C11.3847 11.3621 11.431 11.4505 11.4058 11.5495C11.4373 11.5348 11.4941 11.5179 11.5467 11.4043C11.5992 11.2907 11.9668 10.5986 11.9668 10.5986H11.6958V10.5985Z" fill="#685026"/>
<path fill-rule="evenodd" clip-rule="evenodd" d="M13.1456 9.0019C13.1456 9.0019 13.1771 8.91787 13.1456 8.85685C13.114 8.79376 12.9226 8.77268 12.8279 8.70113C12.729 8.6275 12.6091 8.57633 12.5102 8.60864C12.5249 8.57286 12.5839 8.49493 12.5355 8.47815C12.4892 8.46346 12.3168 8.54125 12.2705 8.57702C12.2242 8.6128 12.1189 8.65482 12.098 8.68019C12.077 8.70557 12.0411 8.75382 12.02 8.73275C11.999 8.71805 11.9886 8.68019 11.9528 8.70113C11.917 8.72207 11.7448 8.86309 11.713 8.94518C11.6813 9.02727 11.6099 9.21031 11.3954 9.41845C11.1808 9.62659 11.0882 9.76138 11.1513 9.83917C11.2144 9.91696 11.2439 9.86024 11.2545 9.9275C11.2626 9.99352 11.259 10.0605 11.2439 10.1252C11.2187 10.2346 11.1767 10.3377 11.2334 10.3588C11.3786 10.4051 11.5196 10.3172 11.5511 10.3441C11.6142 10.4008 11.5153 10.6049 11.6646 10.6448C11.8162 10.6864 11.9656 10.609 11.9656 10.609L12.5166 10.3124L13.0467 10.0327L13.318 9.49625L13.1725 9.04821L13.1448 9.0019H13.1456Z" fill="#D4B968"/>
<path fill-rule="evenodd" clip-rule="evenodd" d="M12.6255 10.283C12.6255 10.283 12.5329 10.1422 12.6466 10.0179C12.7603 9.89366 12.9221 9.84125 12.9852 9.76346C12.9732 9.74864 12.9571 9.73769 12.9389 9.73198C12.9808 9.65704 13.0447 9.59677 13.122 9.55934C13.0905 9.52786 13.0483 9.50262 13.0022 9.50262C12.899 9.50262 12.8358 9.56572 12.7412 9.56572C12.6487 9.56572 12.6382 9.5194 12.6382 9.5194C12.6382 9.5194 12.7939 9.5047 12.779 9.43523C12.7643 9.3616 12.7374 9.3616 12.7374 9.3616C12.7374 9.3616 13.0382 9.2368 13.0908 9.17024C13.1433 9.10368 13.1371 9.02506 13.1476 8.99358C13.1833 8.99358 13.3915 8.88417 13.4757 8.93049C13.5599 8.9768 13.5009 9.10299 13.5009 9.10299C13.5009 9.10299 13.7557 8.91149 13.8855 8.72373C13.999 8.73427 14.0519 8.64594 14.1351 8.64594C14.2382 8.64594 14.4002 8.78683 14.4317 9.08759C14.4527 9.2601 14.4842 9.35897 14.4527 9.66403C14.438 9.83653 14.4422 10.2048 14.4943 10.3876C14.53 10.5328 14.6142 10.5181 14.6142 10.5181C14.6012 10.5623 14.5756 10.6018 14.5405 10.6316C14.4837 10.6842 14.4774 10.8231 14.4837 10.8757C14.4921 10.9141 14.5026 10.952 14.5153 10.9893C14.5153 10.9893 14.448 11.0671 14.4311 11.1198C14.4164 11.1723 14.3471 11.2081 14.2965 11.2081C14.2459 11.2081 14.2712 11.2038 14.204 11.2081C14.1367 11.2124 14.1156 11.2228 14.0735 11.2081C14.0313 11.1934 13.9999 11.1765 14.0168 11.0417C14.0315 10.907 13.4972 10.5937 13.4972 10.5937L12.6236 10.2823L12.6255 10.283Z" fill="#CCA849"/>
<path fill-rule="evenodd" clip-rule="evenodd" d="M11.6222 11.6124C11.6222 11.6124 11.8135 11.867 12.6003 11.867C12.9747 11.867 13.1052 11.8313 13.1827 11.8102C13.2669 11.7891 13.5823 11.6651 13.9 11.2906C14.1861 10.952 14.123 10.8132 14.123 10.8132L13.9566 10.7879L13.4158 10.8616L11.8156 11.5431L11.6215 11.6124H11.6222Z" fill="#585136"/>
<path fill-rule="evenodd" clip-rule="evenodd" d="M12.209 11.6755C12.209 11.6755 11.5275 11.8271 11.5275 11.3958C11.5275 10.9751 11.9482 10.5333 12.0534 10.4555C12.1628 10.3776 12.4237 10.2891 12.4237 10.2891H13.0527L13.1725 10.6068L13.1199 11.2925L12.209 11.6754V11.6755Z" fill="#252211"/>
<path fill-rule="evenodd" clip-rule="evenodd" d="M12.8381 10.4177C12.8381 10.4177 12.7077 10.2977 12.4111 10.4593C12.1145 10.6208 11.8746 10.9585 11.8599 11.2651C11.8452 11.5363 12.0829 11.7383 12.4531 11.7489C12.7286 11.7593 12.8949 11.7278 12.9791 11.7073C12.958 11.682 12.8486 11.5453 12.8486 11.5453L12.8382 10.4178L12.8381 10.4177Z" fill="#C3B378"/>
<path fill-rule="evenodd" clip-rule="evenodd" d="M12.7097 10.4848C12.7097 10.4848 12.6783 10.4596 12.5849 10.51C12.5071 10.5516 12.3936 10.6616 12.3052 10.7394C12.2484 10.7857 12.2126 10.8066 12.1804 10.8424C12.05 10.9981 11.9406 11.2527 12.0038 11.3789C12.067 11.5051 12.2752 11.6503 12.8053 11.5514L12.7082 10.4849L12.7097 10.4848Z" fill="#E6D89C"/>
<path fill-rule="evenodd" clip-rule="evenodd" d="M12.5372 10.7458C12.5372 10.7458 12.453 10.8763 12.453 11.0845C12.453 11.297 12.573 11.6356 13.0148 11.6608C13.3534 11.6819 13.5805 11.1729 13.8266 10.9751C14.0138 10.8237 14.1274 10.8194 14.1274 10.8194C14.1274 10.8194 13.9361 10.6114 13.4249 10.342C12.92 10.0706 12.3541 10.0348 12.047 10.4514C12.1922 10.4408 12.6613 10.3209 12.6613 10.3209L12.8906 10.3945L12.5372 10.7459V10.7458Z" fill="#252211"/>
<path fill-rule="evenodd" clip-rule="evenodd" d="M13.1977 11.0213C13.183 10.9898 13.1724 10.9477 13.2335 10.9373C13.2945 10.9269 13.3218 10.933 13.3429 10.9789C13.3639 11.0248 13.3845 11.063 13.3533 11.082C13.3218 11.0988 13.2397 11.082 13.1975 11.021L13.1977 11.0213ZM13.0988 10.7247C13.0988 10.7247 13.0777 10.7394 13.0883 10.71C13.0924 10.6744 13.1199 10.6111 13.1871 10.626C13.2544 10.6408 13.2398 10.7143 13.2287 10.7354C13.2177 10.7564 13.1615 10.7921 13.1193 10.777C13.114 10.7756 13.109 10.773 13.1049 10.7694C13.1008 10.7657 13.0975 10.7612 13.0955 10.756C13.0934 10.7509 13.0926 10.7454 13.0931 10.7399C13.0936 10.7344 13.0953 10.7291 13.0983 10.7244L13.0988 10.7247Z" fill="#6F674D"/>
<path fill-rule="evenodd" clip-rule="evenodd" d="M7.40479 10.8592C7.40479 10.8592 7.57119 10.984 7.76449 10.9791C7.95585 10.9748 8.20198 10.7772 8.31555 10.6509C8.3828 10.5773 8.44035 10.4995 8.50275 10.4385C8.55544 10.3859 8.59108 10.3607 8.61632 10.3249C8.65209 10.2833 8.68995 10.2051 8.70894 10.1797C8.66263 10.2155 8.59538 10.2787 8.5259 10.3208C8.45865 10.3624 8.31347 10.4406 8.25453 10.4616C8.19782 10.4827 7.60876 10.7944 7.60876 10.7944L7.40479 10.8592Z" fill="#AC924C"/>
<path fill-rule="evenodd" clip-rule="evenodd" d="M7.65906 9.30489C7.65906 9.30489 7.75155 9.24179 7.93043 9.20172C8.10293 9.16012 8.45001 9.12809 8.45001 9.12809L8.73608 9.25289L8.84965 9.68414L8.64165 10.1323L8.37666 10.2987L8.07575 9.8149L7.65975 9.30572L7.65906 9.30489Z" fill="#9F8E57"/>
<path fill-rule="evenodd" clip-rule="evenodd" d="M7.28468 9.68983L7.18567 9.76373C7.18567 9.76373 7.21104 9.71742 7.23198 9.57653C7.25292 9.43565 7.36247 9.09273 7.52235 8.89499C7.68223 8.69725 7.67807 8.70779 7.67807 8.70779C7.66336 8.7051 7.64825 8.70557 7.63373 8.70918C7.61922 8.71279 7.60564 8.71946 7.5939 8.72873C7.61498 8.68213 7.74963 8.51573 7.88427 8.43253C8.01892 8.34933 8.07147 8.32313 8.21236 8.39093C8.35324 8.45874 8.38902 8.49396 8.49219 8.4898C8.59535 8.48564 8.68355 8.37624 8.68355 8.37624C8.68355 8.37624 8.70462 8.44349 8.62683 8.59921C8.54904 8.75493 8.24189 9.07248 8.24189 9.07248L7.60236 9.50997L7.28468 9.69024V9.68983Z" fill="#EAC970"/>
<path fill-rule="evenodd" clip-rule="evenodd" d="M7.75776 9.25233C7.75776 9.25233 8.22063 9.31542 8.36151 9.18508C8.36567 9.19978 8.38259 9.19978 8.38259 9.21032C8.38146 9.21826 8.37776 9.22561 8.37205 9.23125C8.38738 9.22881 8.40285 9.22742 8.41836 9.22709C8.43689 9.23261 8.45595 9.23614 8.47522 9.23763C8.49074 9.2373 8.50622 9.23586 8.52153 9.23333C8.52007 9.24379 8.51652 9.25384 8.51109 9.2629C8.50565 9.27195 8.49845 9.27982 8.48992 9.28603C8.51099 9.28603 8.53152 9.29019 8.53152 9.30697C8.53152 9.32374 8.53568 9.37436 8.51044 9.3849C8.48953 9.39068 8.46728 9.38916 8.44735 9.3806C8.44901 9.42042 8.45983 9.45933 8.47896 9.4943C8.52056 9.5721 8.60931 9.6607 8.72856 9.63519C8.72856 9.63519 8.79152 9.78661 8.52653 10.1232C8.49089 10.1695 8.45289 10.2326 8.40672 10.2851C8.38847 10.3249 8.37453 10.3665 8.36512 10.4092C8.36512 10.4092 8.81329 10.2367 8.94155 9.84333C9.07204 9.44785 9.09728 9.05875 9.07204 8.69489C9.06774 8.59172 9.05096 8.51823 9.02573 8.46554C8.96263 8.33505 8.78583 8.35613 8.71442 8.42976C8.61125 8.53293 8.43875 8.78946 8.19899 8.96612C7.95494 9.14278 7.94454 9.17412 7.7572 9.25233H7.75776Z" fill="#D7BC6B"/>
<path fill-rule="evenodd" clip-rule="evenodd" d="M7.20263 9.82031C7.20263 9.82031 7.1143 9.87287 7.06799 10.0699C7.02167 10.2718 7.10959 10.5179 7.16048 10.5957C7.21137 10.6735 7.32688 10.8861 7.56649 10.8966C7.6258 10.8963 7.68445 10.8842 7.73899 10.8609C7.82264 10.8225 7.9011 10.7737 7.97251 10.7157C8.07568 10.6379 8.15971 10.5706 8.14917 10.5643C8.12393 10.5537 7.51394 10.0488 7.51394 10.0488L7.28458 9.79285L7.20249 9.82059L7.20263 9.82031Z" fill="#585136"/>
<path fill-rule="evenodd" clip-rule="evenodd" d="M7.77917 10.6574C7.77917 10.6574 7.90328 10.647 7.97691 10.6007C8.05054 10.5544 7.54565 10.0538 7.54565 10.0538L7.58143 10.5946L7.77917 10.6574Z" fill="#453A25"/>
<path fill-rule="evenodd" clip-rule="evenodd" d="M7.24254 9.78232C7.24254 9.78232 7.17945 9.90226 7.17945 9.93388C7.16891 10.0369 7.20053 10.3608 7.22577 10.4639C7.251 10.5733 7.38773 10.7394 7.56453 10.7394C7.6738 10.7394 7.82536 10.6721 7.82536 10.6554C7.82536 10.6343 7.66964 10.6138 7.62762 10.5354C7.60238 10.4938 7.59185 10.3904 7.58602 10.2858C7.58186 10.2186 7.58186 10.1449 7.6071 10.1194C7.66395 10.0563 7.67435 9.87536 7.67435 9.87536L7.87625 9.50027H7.6107L7.29302 9.69801L7.24254 9.78232Z" fill="#84754B"/>
<path fill-rule="evenodd" clip-rule="evenodd" d="M7.16479 9.8981C7.16479 9.8981 7.3728 9.62257 7.56027 9.55934C7.74775 9.49611 7.83164 9.5341 7.83164 9.5341L7.72224 9.81393L7.56651 9.98643L7.57705 10.0748C7.57705 10.0748 7.55167 10.3083 7.7074 10.4702C7.86312 10.6322 7.97877 10.626 8.04616 10.626C8.11355 10.626 8.30699 10.5691 8.40586 10.3356C8.49419 10.1169 8.56782 9.83639 8.39116 9.55518C8.21852 9.27535 7.91359 9.26453 7.85466 9.26453C7.79573 9.26453 7.333 9.28769 7.16479 9.89768V9.8981Z" fill="#252211"/>
<path fill-rule="evenodd" clip-rule="evenodd" d="M12.5056 10.8341C12.4278 10.7983 12.5015 10.5796 12.5793 10.5123C12.6571 10.4449 12.7559 10.3672 12.9286 10.3565C12.9915 10.3524 13.0525 10.3923 13.0421 10.4345C13.0274 10.5123 12.918 10.6217 12.8192 10.6995C12.6824 10.8068 12.594 10.874 12.5056 10.8341Z" fill="#F7F7E7"/>
<path fill-rule="evenodd" clip-rule="evenodd" d="M8.29846 9.64143C8.35532 9.63727 8.42895 9.68303 8.44365 9.7446C8.45835 9.81185 8.40787 9.9465 8.29846 9.9465C8.21013 9.9465 8.16382 9.83709 8.16382 9.80561C8.16481 9.77973 8.17204 9.75447 8.1849 9.73198C8.18906 9.7256 8.19959 9.65197 8.29846 9.64143Z" fill="#F8F6DE"/>
<path fill-rule="evenodd" clip-rule="evenodd" d="M7.47811 9.68983C7.47811 9.68983 7.33293 9.75708 7.26568 9.89783C7.21762 10.0018 7.20308 10.1181 7.22408 10.2306C7.23462 10.2832 7.28717 10.4135 7.32295 10.4598C7.35872 10.5062 7.40712 10.5378 7.44289 10.5335C7.47867 10.5292 7.55216 10.4346 7.55216 10.3779C7.55216 10.3212 7.55646 10.0813 7.62579 9.9508C7.68681 9.82045 7.47853 9.68996 7.47853 9.68996L7.47811 9.68983Z" fill="#D4C38B"/>
<path fill-rule="evenodd" clip-rule="evenodd" d="M7.49915 9.67928C7.47391 9.69398 7.4319 9.71506 7.4423 9.74238C7.45284 9.76761 7.54117 9.78398 7.57278 9.84555C7.60856 9.90864 7.60856 9.97589 7.59802 10.0075C7.6255 9.99445 7.65043 9.97661 7.67165 9.95481C7.71797 9.90226 7.77468 9.83085 7.82307 9.83085C7.85469 9.83085 7.88617 9.84555 7.9157 9.84555C7.96202 9.84555 8.00819 9.83085 8.01457 9.78245C8.02497 9.71936 7.92624 9.66251 7.86939 9.67304C7.87993 9.63144 7.89463 9.57001 7.84831 9.52786C7.802 9.48571 7.65695 9.55948 7.62534 9.58055C7.59372 9.60163 7.49915 9.67942 7.49915 9.67942V9.67928Z" fill="#E2D59D"/>
<path fill-rule="evenodd" clip-rule="evenodd" d="M10.8418 14.0989L11.1531 14.0069L11.2414 14.07C11.2414 14.07 11.3044 14.2047 11.4034 14.2215C11.3718 14.2887 11.2897 14.3463 11.294 14.394C11.2983 14.4417 11.3403 14.4781 11.3403 14.4781C11.3403 14.4781 11.0605 14.9409 11.6117 15.4072C11.4812 15.4597 11.315 15.532 11.2267 15.5736C11.2897 15.5883 11.4243 15.6152 11.4812 15.6662C11.538 15.7172 11.538 15.7335 11.5906 15.7651C11.6431 15.7967 11.6746 15.8387 11.6642 15.8576C11.6284 15.8365 11.5085 15.7735 11.4875 15.8323C11.4666 15.8911 10.968 15.8681 10.968 15.8681L10.1265 16.0301C10.1265 16.0301 10.158 15.9459 10.0697 15.8681C9.96665 15.7756 9.84046 15.8723 9.70582 15.7692C9.52916 15.6346 9.52278 15.4789 9.46606 15.4201C9.52278 15.3843 9.63857 15.3318 9.9141 15.2953C9.90356 15.2742 9.86778 15.2111 9.88886 15.1544C9.9141 15.0808 10.0192 15.0345 9.98773 14.9464C10.034 14.9359 10.055 14.9359 10.1708 14.7907C10.2802 14.6455 10.3474 14.614 10.4316 14.6035C10.5158 14.5929 10.5662 14.6035 10.722 14.4583C10.8312 14.3553 10.7956 14.2669 10.7956 14.2669C10.7956 14.2669 10.867 14.2438 10.8419 14.0986L10.8418 14.0989Z" fill="#CBAC5A"/>
<path fill-rule="evenodd" clip-rule="evenodd" d="M9.92248 14.1456C9.92664 14.1245 9.94356 14.114 10.0571 14.1245C10.1707 14.1351 10.8901 14.0573 11.0858 14.0467C11.2835 14.032 11.9797 14.0424 12.3185 14.114C12.6573 14.1855 13.0001 14.2697 13.1662 14.3117C13.3326 14.358 13.385 14.3747 13.3786 14.3958C13.3745 14.4168 13.337 14.4374 13.3155 14.4315C13.2946 14.4274 12.7434 14.259 12.5731 14.2235C12.4028 14.188 11.8136 14.093 11.4915 14.0987C11.1907 14.103 11.0708 14.0946 10.8163 14.124C10.5617 14.1556 10.141 14.1976 10.0148 14.1808C9.89004 14.1661 9.91583 14.1661 9.92221 14.145L9.92248 14.1456Z" fill="#D6BC6F"/>
<path fill-rule="evenodd" clip-rule="evenodd" d="M11.6157 15.7943C11.6157 15.7943 12.047 16.0279 12.2027 16.3139C12.3163 16.5264 12.1355 16.6316 12.1355 16.6316C12.1355 16.6316 12.3795 16.6316 12.3479 16.7663C12.3332 16.8503 11.9272 17.0774 11.6558 17.1974C11.3803 17.3173 11.3908 17.3111 11.2562 17.332C11.1257 17.3531 10.7681 17.2904 10.6944 17.3951C10.6208 17.4998 10.6528 17.6077 10.6734 17.6245C10.6944 17.6392 10.8649 17.6602 10.8649 17.6602C10.8649 17.6602 10.8291 17.7591 10.4758 17.7697C10.1224 17.7802 10.034 17.8053 10.0129 17.8433C9.99182 17.8789 10.0802 17.858 10.2423 17.8849C10.4042 17.9101 10.6314 17.9265 10.6314 17.9265C10.6314 17.9265 10.5577 17.9896 10.3664 18.0401C10.1475 18.0968 9.80462 18.1495 9.7016 18.2126C9.75415 18.2483 9.83208 18.3009 9.868 18.305C9.77966 18.3261 9.65542 18.3724 9.63448 18.3892C9.66596 18.4103 9.70811 18.4355 9.70811 18.4355C9.70811 18.4355 9.53131 18.648 9.42828 18.7007C9.32525 18.7534 8.73204 19.0287 8.52792 18.9762C8.01887 18.8415 7.95578 18.2841 7.83167 18.2421C7.64447 18.179 7.55614 18.305 7.38988 18.2167C7.46351 18.1642 7.50359 18.1327 7.58138 18.0969C7.49721 18.0553 7.0618 17.7792 7.0618 17.7792C7.01626 17.68 6.96573 17.5831 6.91037 17.489C6.8262 17.3438 6.70237 17.1502 6.60947 16.9798C6.40757 16.6054 6.39703 16.4329 6.21399 16.2205C6.24561 16.1789 6.35487 16.1847 6.35487 16.1847L7.88853 16.6896L10.6079 16.7683L11.3151 15.7587L11.6159 15.7945L11.6157 15.7943Z" fill="#DFC677"/>
<path fill-rule="evenodd" clip-rule="evenodd" d="M7.58752 17.3341C7.60393 17.3524 7.62306 17.368 7.64424 17.3804C7.69693 17.4162 7.77472 17.4583 7.82728 17.5213C7.84836 17.4898 7.90091 17.433 7.99368 17.5213C8.08645 17.6096 8.20168 17.5467 8.27337 17.5676C8.347 17.593 8.35116 17.6034 8.35116 17.6034C8.35116 17.6034 8.39276 17.5676 8.48581 17.5298C8.54266 17.5087 8.60991 17.494 8.68355 17.473C8.7508 17.4583 8.82443 17.4373 8.87505 17.4373C8.92136 17.4687 9.08748 17.6453 9.75433 17.3847C10.3833 17.1407 10.5284 17.1133 10.6336 17.1511C10.6442 17.1258 10.6547 17.0774 10.8167 17.0838C10.8167 17.0166 10.682 16.7872 10.682 16.7872L9.93945 16.5327H9.5333L8.31539 16.7557L7.6405 17.1408L7.58794 17.3349L7.58752 17.3341Z" fill="#C4A859"/>
<path fill-rule="evenodd" clip-rule="evenodd" d="M7.18152 16.9071C7.18152 16.9071 7.19622 17.0207 7.36456 17.1407C7.53096 17.2605 7.58324 17.332 7.58324 17.332C7.58324 17.332 7.61485 17.2904 7.64009 17.248C7.66533 17.2017 7.6864 17.1491 7.72842 17.1344C7.81259 17.0986 8.00395 17.1659 8.0461 17.1554C8.08188 17.145 8.07134 17.0713 8.1092 17.0713C8.19753 17.067 8.25424 17.128 8.28586 17.128C8.31748 17.128 8.39513 17.1239 8.40567 17.1071C8.41621 17.0903 8.42037 16.9156 8.54031 16.8314C8.6708 16.7389 8.83068 16.7789 8.87311 16.8C8.87311 16.8314 8.87727 16.9094 8.96144 16.9135C9.04561 16.9177 9.05393 16.903 9.12784 16.9282C9.20175 16.9535 9.28981 16.9241 9.32974 17.048C9.36552 17.0376 9.44969 17.0271 9.42861 16.9071C9.47021 16.8757 9.50654 16.8546 9.59501 16.7305C9.61609 16.699 9.65173 16.6632 9.67918 16.6169C9.75281 16.6169 9.84115 16.6022 9.95887 16.7052C9.9231 16.7305 9.90202 16.7468 9.89162 16.7725C9.92241 16.803 9.95052 16.8361 9.97565 16.8714C10.0073 16.913 10.0283 16.964 10.0683 16.9745C10.1566 16.9998 10.3018 16.964 10.4638 16.9745C10.6195 16.9851 10.7498 17.0418 10.8067 17.0776C10.8278 17.0672 10.8278 17.0629 10.8803 17.0734C10.9329 17.0839 10.9728 17.0881 10.9161 17.0209C10.9476 17.0356 10.9833 17.0672 11.015 17.0356C11.0466 17.0039 11.0717 16.9578 11.16 16.9472C11.2483 16.9367 11.28 16.9514 11.3157 16.8589C11.362 16.7453 11.2022 16.7453 11.2022 16.7453C11.2022 16.7453 11.2758 16.6779 11.3579 16.5896C11.4568 16.4971 11.5703 16.3772 11.5976 16.2299C11.644 15.9585 11.379 15.9229 11.379 15.9229L10.0937 16.3184L8.52229 16.2404L7.18235 16.9073L7.18152 16.9071Z" fill="#927D49"/>
<path fill-rule="evenodd" clip-rule="evenodd" d="M6.02674 13.1943C6.02674 13.1943 5.98514 13.2469 5.95949 13.371C5.93383 13.4951 5.94479 13.4804 5.92371 13.5687C5.90263 13.6571 5.64374 14.5364 5.74081 14.833C5.83788 15.1296 6.00594 15.239 6.11105 15.4787C6.13213 15.5313 6.15265 15.5629 6.16361 15.6092C6.19938 15.7648 6.1679 15.8848 6.20992 16.0405C6.22462 16.093 6.26261 16.154 6.31933 16.2171C6.44413 16.3475 6.64755 16.4716 6.73533 16.5599C6.8593 16.6904 7.0361 16.9555 7.26115 16.9806C7.3811 16.9953 7.55152 16.9449 7.6924 16.8608C7.8172 16.7829 7.8943 16.6736 8.0252 16.6112C8.1177 16.5649 8.21656 16.5481 8.3049 16.5271C8.48794 16.4913 8.6542 16.4855 8.75307 16.506C8.90449 16.5376 9.26211 16.647 9.46027 16.647C9.61511 16.6445 9.76908 16.6233 9.91884 16.5839C10.2196 16.4956 10.5835 16.344 10.8234 16.2768C10.9642 16.2352 11.0778 16.2242 11.1936 16.199C11.3913 16.1527 11.5575 16.0896 11.6522 15.9696C11.5891 15.896 11.5113 15.7824 11.0904 15.7866C10.613 15.7971 10.0618 16.0621 9.79043 16.1043C9.51906 16.1464 9.40133 16.1821 9.09835 16.0726C8.80132 15.9621 8.79148 15.8891 8.79148 15.8891C8.79148 15.8891 8.47962 15.6709 8.34913 15.1149C8.21864 14.5588 8.34913 14.1536 8.68789 13.7686C8.77622 13.6697 8.75515 13.5814 8.75515 13.5814C8.75515 13.5814 8.97812 13.2806 8.91711 12.999C8.84986 12.7191 8.4186 12.776 8.4186 12.776L6.02688 13.1943H6.02674Z" fill="#6E6342"/>
<path fill-rule="evenodd" clip-rule="evenodd" d="M6.38637 14.1305C6.36782 14.1654 6.3591 14.2046 6.36113 14.2441C6.36529 14.3008 6.38221 14.3744 6.55249 14.5407C6.69767 14.6857 6.66606 14.8477 6.66606 14.8477C6.66606 14.8477 6.73913 14.8624 6.93743 14.7696C7.09315 14.696 7.14543 14.8265 7.14543 14.8265C7.19076 14.8027 7.23989 14.787 7.29061 14.7801C7.33657 14.7759 7.38105 14.7617 7.42096 14.7385C7.42096 14.7385 7.604 14.9257 7.76388 15.0141C7.90907 15.092 7.99323 15.1446 8.06479 15.092C8.13204 15.0457 8.13204 14.951 8.12774 14.909C8.11106 14.8702 8.08993 14.8335 8.06479 14.7996C8.01847 14.7323 7.94484 14.6544 7.93999 14.5916C7.92945 14.4465 8.04939 14.2739 8.02402 14.2318C7.99864 14.1898 7.90421 14.1793 7.6707 14.2635C7.42886 14.3433 6.3854 14.1309 6.3854 14.1309L6.38637 14.1305Z" fill="#39331F"/>
<path fill-rule="evenodd" clip-rule="evenodd" d="M6.93743 15.0708C6.93743 15.0708 6.81763 14.9572 6.85964 14.406C6.91051 14.4053 6.96129 14.4102 7.01107 14.4207C7.01107 14.4207 7.07638 14.8478 6.93743 15.0708Z" fill="#292311"/>
<path fill-rule="evenodd" clip-rule="evenodd" d="M6.08351 12.7736C6.10022 12.7613 6.11573 12.7473 6.12982 12.732C6.08822 12.8098 5.89617 13.1211 6.05189 13.6113C6.20761 14.0993 6.59879 14.4631 7.08052 14.4801C7.56225 14.497 7.81545 14.2612 8.10499 13.9079C8.21856 13.767 8.34904 13.5902 8.46469 13.4704C8.63719 13.2831 8.77184 13.2305 8.77184 13.0497C8.77184 12.6795 8.39314 12.5132 7.8357 12.3471C7.27826 12.181 6.77545 12.2015 6.51462 12.3152C6.26017 12.4392 6.15076 12.5697 6.08337 12.7738L6.08351 12.7736Z" fill="#252211"/>
<path fill-rule="evenodd" clip-rule="evenodd" d="M7.87358 15.2369L7.91518 15.2158C7.91518 15.2158 7.92558 15.0494 7.99298 15.0539C8.06023 15.0644 8.09185 15.1529 8.08547 15.1844C8.08131 15.2158 8.06453 15.2685 7.99714 15.2621C7.90881 15.2642 7.87317 15.2369 7.87317 15.2369H7.87358Z" fill="#3F3824"/>
<path fill-rule="evenodd" clip-rule="evenodd" d="M7.6864 14.5301C7.6864 14.5301 7.728 14.5154 7.77889 14.5659C7.82049 14.5659 8.00187 14.5448 8.05872 14.5806C8.11557 14.6164 8.13235 14.6478 8.13235 14.6478C8.13235 14.6478 7.91992 14.6942 7.80413 14.6478C7.6864 14.6079 7.6864 14.5301 7.6864 14.5301Z" fill="#2D2815"/>
<path fill-rule="evenodd" clip-rule="evenodd" d="M8.62255 14.5616C8.62255 14.5511 8.50898 14.4733 8.38903 14.4479C8.36796 14.4437 8.36366 14.4584 8.34743 14.4584C8.33689 14.4543 8.33273 14.4227 8.33273 14.4227L8.26451 14.4586C8.26451 14.4586 8.25397 14.4733 8.28975 14.5002C8.32122 14.5254 8.37392 14.5465 8.38862 14.5885C8.40332 14.6305 8.40331 14.6452 8.40969 14.6516C8.41385 14.6558 8.48749 14.6516 8.52326 14.6305C8.55904 14.6094 8.62643 14.575 8.62213 14.5612L8.62255 14.5616Z" fill="#82764F"/>
<path fill-rule="evenodd" clip-rule="evenodd" d="M7.56018 14.9887C7.56018 14.9887 7.58112 14.8436 7.72214 14.8373C7.86719 14.8267 7.89464 14.9676 7.89464 14.9676L7.81047 15.0518C7.81047 15.0497 7.74738 14.9614 7.56087 14.9887H7.56018Z" fill="#2D2816"/>
<path fill-rule="evenodd" clip-rule="evenodd" d="M8.47523 14.3639C8.47523 14.3639 8.3973 14.448 8.22494 14.4733C8.21024 14.4522 8.17862 14.4102 8.22494 14.3429C8.27125 14.2757 8.32381 14.2546 8.37636 14.2755C8.39955 14.2793 8.42118 14.2896 8.4387 14.3053C8.45622 14.3209 8.46889 14.3412 8.47523 14.3639Z" fill="#574F35"/>
<path fill-rule="evenodd" clip-rule="evenodd" d="M8.79284 14.467C8.79714 14.446 8.78244 14.4418 8.79284 14.4313C8.80324 14.4207 8.86023 14.3998 8.87077 14.4102C8.87493 14.4145 8.87077 14.4313 8.87077 14.4518C8.87077 14.4723 8.87077 14.4934 8.86023 14.5085C8.84553 14.5296 8.80352 14.5401 8.78244 14.5339C8.76136 14.5276 8.7572 14.4981 8.7572 14.4923C8.7676 14.4881 8.79284 14.4776 8.79284 14.467ZM9.15199 14.2399C9.15199 14.2294 9.18776 14.2083 9.20884 14.2083C9.24032 14.2083 9.24032 14.2335 9.24462 14.2399C9.25502 14.2441 9.25502 14.2356 9.26555 14.2546C9.27609 14.2736 9.29093 14.3071 9.28025 14.3282C9.26958 14.3493 9.2277 14.3639 9.2173 14.3597C9.2026 14.3492 9.15628 14.2546 9.15199 14.2399Z" fill="#82764F"/>
<path fill-rule="evenodd" clip-rule="evenodd" d="M8.42896 14.5154C8.42896 14.5154 8.47527 14.5258 8.53836 14.5785C8.51729 14.5932 8.48567 14.61 8.48567 14.61C8.48567 14.61 8.48151 14.5616 8.42896 14.5153V14.5154Z" fill="#6E6342"/>
<path fill-rule="evenodd" clip-rule="evenodd" d="M8.32588 14.0526C8.31534 14.0422 8.35736 14.0169 8.3826 14.0211C8.40783 14.0252 8.41837 14.0422 8.44569 14.0463C8.47301 14.0505 8.47731 14.0358 8.48729 14.0252C8.49727 14.0147 8.5336 14.0211 8.53984 14.0252C8.54373 14.0299 8.54725 14.0348 8.55038 14.0399C8.55082 14.0319 8.55291 14.0241 8.55651 14.017C8.56012 14.0098 8.56516 14.0035 8.57132 13.9983C8.57939 13.9924 8.5887 13.9884 8.59854 13.9866C8.60839 13.9847 8.61852 13.9852 8.62817 13.9878C8.63233 14.0025 8.65341 14.0551 8.64925 14.0656C8.64509 14.0761 8.582 14.091 8.57132 14.0803C8.58186 14.1057 8.62817 14.1582 8.63442 14.1686C8.64066 14.179 8.5881 14.2044 8.56716 14.2002C8.53776 14.1982 8.3568 14.0929 8.32533 14.053L8.32588 14.0526ZM8.60141 13.7034C8.59752 13.6928 8.59007 13.6839 8.58034 13.6782C8.56564 13.674 8.51724 13.6782 8.51724 13.7034C8.51724 13.7286 8.55884 13.8698 8.60557 13.9433C8.65827 14.0169 8.6939 14.0778 8.72968 14.0947C8.74091 14.0998 8.75367 14.1005 8.76537 14.0966C8.77708 14.0927 8.78687 14.0845 8.79277 14.0736C8.79693 14.0631 8.80747 13.9853 8.80331 13.8023C8.79915 13.6192 8.79277 13.4426 8.78223 13.432C8.7717 13.4215 8.72968 13.4216 8.71498 13.4426C8.70028 13.4635 8.60557 13.6719 8.60127 13.7034H8.60141Z" fill="#585136"/>
<path fill-rule="evenodd" clip-rule="evenodd" d="M8.41426 14.7804C8.41426 14.7804 8.34063 14.7341 8.26908 14.7657C8.20182 14.7973 8.20598 14.9214 8.20598 14.9214C8.22111 14.9274 8.23746 14.9295 8.2536 14.9277C8.26975 14.9258 8.2852 14.9201 8.29861 14.9109C8.34493 14.8794 8.40372 14.8269 8.41426 14.7806V14.7804Z" fill="#574F35"/>
<path fill-rule="evenodd" clip-rule="evenodd" d="M8.55307 14.9467C8.54891 14.9051 8.51147 14.9051 8.51147 14.8836C8.51405 14.8733 8.52001 14.8642 8.52838 14.8577C8.53675 14.8512 8.54706 14.8477 8.55765 14.8478C8.57873 14.8478 8.59925 14.873 8.62504 14.8894C8.65028 14.9041 8.68814 14.931 8.6923 14.963C8.69646 14.9951 8.6507 15.0828 8.59981 15.0828C8.54891 15.0828 8.56403 14.9881 8.55349 14.9461L8.55307 14.9467ZM8.95909 14.8898C8.95909 14.8898 8.87492 14.9151 8.88116 14.8898C8.8874 14.8646 8.90654 14.8583 8.93385 14.8583C8.94773 14.8438 8.9664 14.8348 8.98641 14.833C8.99785 14.8324 9.00909 14.8362 9.01789 14.8435C9.01789 14.8435 9.07474 14.8183 9.09152 14.833C9.1083 14.8477 9.09582 14.8477 9.10622 14.8646C9.11946 14.8834 9.12815 14.905 9.13159 14.9277C9.13159 14.9445 9.0685 14.9802 9.01789 14.974C8.95909 14.9614 8.96949 14.9004 8.95909 14.8898ZM9.44914 14.7951C9.44914 14.7951 9.47438 14.8098 9.45344 14.8267C9.43874 14.8414 9.36511 14.8683 9.30187 14.873C9.23878 14.873 9.18207 14.8834 9.18207 14.8625C9.18207 14.8416 9.23462 14.7994 9.2661 14.7889C9.27241 14.781 9.28043 14.7746 9.28956 14.7702C9.29868 14.7659 9.30868 14.7636 9.31879 14.7636C9.34403 14.7636 9.44276 14.7531 9.47022 14.7489C9.49545 14.7446 9.51653 14.7593 9.50169 14.7804C9.49545 14.7951 9.44914 14.7951 9.44914 14.7951ZM9.59432 14.1456C9.59432 14.1456 9.56271 14.2129 9.52707 14.2129C9.49129 14.2087 9.49129 14.1982 9.49129 14.1876C9.49129 14.1729 9.52707 14.1351 9.52277 14.1245C9.51237 14.1245 9.48699 14.1245 9.49129 14.0993C9.49129 14.0782 9.52707 14.053 9.55855 14.0577C9.58233 14.0381 9.61194 14.0271 9.64272 14.0262C9.67849 14.0262 9.70997 14.0366 9.70997 14.0577C9.70997 14.0788 9.66837 14.1249 9.65312 14.1356C9.63634 14.1524 9.61526 14.1634 9.59432 14.146V14.1456ZM9.11467 15.3887C9.11467 15.3887 9.07307 15.393 9.07307 15.414C9.07307 15.4245 9.08347 15.4245 9.09831 15.4183C9.10686 15.4178 9.11532 15.4164 9.12355 15.414C9.12771 15.4183 9.12771 15.4392 9.15933 15.4392C9.18529 15.4357 9.21031 15.4271 9.23296 15.414C9.2582 15.4036 9.27927 15.3929 9.27927 15.3724C9.26873 15.3366 9.24766 15.3197 9.21618 15.3197C9.20005 15.3187 9.18396 15.3223 9.16986 15.3302C9.16986 15.3302 9.15933 15.3092 9.12355 15.3302C9.08777 15.3513 9.09193 15.3513 9.10247 15.3618C9.12133 15.3786 9.11509 15.3896 9.11509 15.3896L9.11467 15.3887ZM8.877 15.6076C8.877 15.597 8.92955 15.5759 8.94425 15.5823C8.95895 15.5865 9.00097 15.6664 9.00097 15.6748C9.00097 15.6854 8.94841 15.7106 8.92734 15.7106C8.90626 15.7106 8.87062 15.6748 8.87062 15.669C8.87062 15.6648 8.89586 15.6586 8.89586 15.6543C8.9021 15.6439 8.877 15.6185 8.877 15.608V15.6076ZM8.7106 15.3004C8.72114 15.2963 8.72114 15.2857 8.73584 15.2752C8.74044 15.2721 8.74568 15.2702 8.75116 15.2694C8.75664 15.2687 8.76222 15.2693 8.76745 15.271C8.77116 15.2644 8.7763 15.2587 8.78248 15.2543C8.78867 15.2499 8.79576 15.247 8.80323 15.2456C8.82847 15.2415 8.84954 15.2456 8.84483 15.2562C8.84483 15.2878 8.86591 15.3087 8.86591 15.334C8.86591 15.3592 8.85121 15.3908 8.79865 15.4119C8.7461 15.4266 8.67455 15.4266 8.66401 15.4224C8.65347 15.4183 8.64293 15.3761 8.65347 15.3551C8.66401 15.334 8.69341 15.311 8.71032 15.3004H8.7106Z" fill="#82764F"/>
<path fill-rule="evenodd" clip-rule="evenodd" d="M8.77756 15.3147C8.77756 15.3147 8.74178 15.3358 8.74178 15.3463C8.73861 15.3565 8.7372 15.3671 8.73762 15.3778C8.73762 15.384 8.78394 15.3736 8.79018 15.3673C8.79226 15.3631 8.77756 15.3257 8.77756 15.3147Z" fill="#6E6342"/>
<path fill-rule="evenodd" clip-rule="evenodd" d="M8.4648 15.2158C8.48574 15.2201 8.52151 15.2158 8.54883 15.2264C8.56991 15.2369 8.58461 15.258 8.56353 15.2832C8.54245 15.3085 8.52193 15.3463 8.4752 15.3399C8.42264 15.3358 8.37217 15.3085 8.37217 15.2874C8.37129 15.274 8.37306 15.2607 8.37739 15.248C8.38173 15.2354 8.38853 15.2237 8.39741 15.2137C8.41848 15.197 8.42888 15.2075 8.46466 15.2158H8.4648Z" fill="#585136"/>
<path fill-rule="evenodd" clip-rule="evenodd" d="M8.43955 15.2369C8.43955 15.2369 8.3723 15.2895 8.35538 15.3148C8.3343 15.3401 8.23127 15.4704 8.1998 15.4977C8.21025 15.4793 8.22217 15.4617 8.23543 15.4452C8.19383 15.4718 8.16264 15.5119 8.1471 15.5588C8.12186 15.6367 8.28813 15.6787 8.3974 15.7103C8.50666 15.7419 8.54896 15.7519 8.54896 15.7519C8.50873 15.6915 8.47419 15.6274 8.44579 15.5606C8.40419 15.4617 8.3827 15.4511 8.41001 15.4048C8.43109 15.3585 8.46271 15.327 8.46271 15.2913C8.45009 15.258 8.43955 15.2369 8.43955 15.2369Z" fill="#574F35"/>
<path fill-rule="evenodd" clip-rule="evenodd" d="M6.04141 15.4032C6.05672 15.406 6.07242 15.406 6.08773 15.4032C6.11921 15.3989 6.44743 15.2784 6.79035 15.3C7.04707 15.3155 7.30152 15.3573 7.54969 15.4248C7.98095 15.5384 8.51731 15.7634 8.86439 15.8918C8.95688 15.9275 9.04743 15.9907 9.11399 16.0158C9.37912 16.119 9.38952 16.119 9.54524 16.1463C9.72828 16.1715 9.91548 16.1105 10.1111 16.0685C10.3509 16.0158 10.7611 15.9906 11.1208 15.938C11.2371 15.9219 11.3518 15.8959 11.4637 15.8602C11.4637 15.8602 11.1776 16.1463 10.4918 16.2493C10.2146 16.2914 9.93285 16.295 9.65465 16.2599C9.43584 16.2388 9.29079 16.2072 9.18138 16.1757C9.05728 16.1399 8.80268 16.0452 8.4893 15.9677C8.27048 15.9108 8.02643 15.8688 7.74674 15.8163C7.05673 15.6899 6.30793 15.5449 6.04114 15.404L6.04141 15.4032Z" fill="#252211"/>
<path fill-rule="evenodd" clip-rule="evenodd" d="M5.26728 14.1032C5.10088 14.2441 4.92436 14.3787 4.752 14.509L4.23241 14.9083C4.05575 15.0386 3.88325 15.1733 3.70645 15.3037C3.52965 15.4342 3.35313 15.5582 3.16565 15.6781C3.33205 15.5373 3.50857 15.4068 3.68523 15.2785C3.86189 15.1502 4.04507 15.0245 4.21549 14.8944L4.73508 14.4946C4.91382 14.3643 5.08632 14.2296 5.26728 14.1034V14.1032ZM4.34806 15.5757C4.34806 15.5757 4.53526 15.4199 4.76877 15.2013C5.059 14.93 5.41455 14.5828 5.52811 14.5199L4.34792 15.5758L4.34806 15.5757Z" fill="#CFB66C"/>
<path fill-rule="evenodd" clip-rule="evenodd" d="M4.34802 15.5755C4.44065 15.483 4.53952 15.3926 4.63839 15.3042L4.78981 15.1738C4.83613 15.1322 4.88882 15.0855 4.935 15.0392C5.02749 14.9467 5.11804 14.8477 5.21053 14.7531C5.25637 14.7055 5.30484 14.6606 5.35571 14.6185C5.38115 14.5959 5.40939 14.5768 5.43975 14.5616C5.46512 14.5469 5.49244 14.52 5.52808 14.5153C5.50714 14.5469 5.4819 14.5616 5.46082 14.5889C5.43559 14.61 5.41451 14.6352 5.39357 14.6562C5.34725 14.7025 5.2947 14.7445 5.24839 14.7867C5.14952 14.8708 5.04649 14.9531 4.94762 15.0411C4.84875 15.1292 4.75626 15.2241 4.65725 15.3125C4.55006 15.403 4.45119 15.4914 4.34802 15.5759V15.5755ZM5.60601 14.7341C5.60601 14.7341 4.9203 15.4052 4.77928 15.5145L5.60601 14.7341Z" fill="#CFB66C"/>
<path fill-rule="evenodd" clip-rule="evenodd" d="M5.60603 14.7341C5.54434 14.8055 5.47821 14.8729 5.40801 14.936L5.20001 15.1337C5.13276 15.201 5.06953 15.2684 4.99811 15.3356C4.92448 15.3987 4.85723 15.4604 4.7793 15.5187L4.9812 15.3209C5.04859 15.2537 5.12222 15.197 5.19377 15.1296L5.39567 14.9318C5.465 14.8625 5.5324 14.7951 5.60603 14.7341ZM5.6375 15.098C5.5743 15.2744 5.49982 15.4465 5.41453 15.6134C5.23787 15.9668 4.97288 16.4085 4.85709 16.6337L5.6375 15.098Z" fill="#CFB66C"/>
<path fill-rule="evenodd" clip-rule="evenodd" d="M5.63747 15.0981C5.63747 15.1759 5.61639 15.2433 5.59115 15.3105C5.56655 15.3779 5.5385 15.4439 5.50712 15.5083C5.4755 15.5714 5.43973 15.6388 5.40395 15.6998C5.36818 15.7608 5.32616 15.8237 5.29454 15.887L5.08211 16.2614C5.00847 16.3862 4.93692 16.5117 4.85913 16.6316C4.91169 16.497 4.98324 16.3708 5.05063 16.2467C5.12426 16.1219 5.19151 15.9971 5.25863 15.868C5.2914 15.8036 5.32088 15.7377 5.34696 15.6704C5.37844 15.603 5.40991 15.5399 5.43529 15.4789C5.46677 15.4116 5.49201 15.3484 5.52362 15.2875C5.55926 15.2222 5.58879 15.1591 5.63719 15.0981H5.63747Z" fill="#CFB66C"/>
<path fill-rule="evenodd" clip-rule="evenodd" d="M6.38642 16.823C6.38642 16.823 6.17842 17.0985 6.19922 17.4477C6.25593 17.2648 6.32748 16.9849 6.38642 16.823ZM6.58415 17.0992C6.58415 17.0992 6.51052 17.848 6.44951 18.2162C6.53576 17.7906 6.55254 17.8264 6.58415 17.0992ZM7.96195 18.2604C7.96195 18.2604 7.65064 19.1756 7.64426 19.4299C7.71165 19.1684 7.842 18.6341 7.96195 18.2597V18.2604Z" fill="#DEC270"/>
<path fill-rule="evenodd" clip-rule="evenodd" d="M8.68982 16.7664C8.68982 16.7664 9.19471 17.5994 9.5734 18.3103C9.47093 17.9526 9.2352 17.2964 8.68982 16.7664Z" fill="#CBAF59"/>
<path fill-rule="evenodd" clip-rule="evenodd" d="M10.0466 17.9926C10.3238 18.4826 10.5738 18.9875 10.7954 19.5051C10.7534 19.1474 10.6397 18.5354 10.0466 17.9926Z" fill="#E3C677"/>
<path fill-rule="evenodd" clip-rule="evenodd" d="M14.035 19.2208C14.119 19.1682 14.2853 18.882 14.4304 18.8106C14.5755 18.737 14.6849 18.7223 14.8154 18.5771C14.9457 18.4255 14.9818 18.3331 15.2676 18.2132C15.6674 18.0406 15.3924 17.8176 15.3924 17.8176C15.4364 17.7744 15.4835 17.7343 15.5333 17.6978C15.6364 17.62 15.7562 17.5253 15.7458 17.3591C15.7311 17.0794 15.6786 16.6734 15.4492 16.4378C15.6722 16.3914 16.0992 16.36 16.3644 16.2927C16.6714 16.2148 16.8125 16.1054 16.8125 16.1054C16.8125 16.1054 16.6358 15.8046 16.9219 15.5018C17.2079 15.1989 17.4415 15.018 17.614 14.6792C17.4162 14.654 17.1148 14.5488 16.3454 14.8412C16.387 14.8607 16.427 14.8832 16.4654 14.9084C16.4654 14.9084 15.9921 15.0389 15.8196 15.1841C15.5187 15.4385 15.4808 15.6468 15.1548 15.8025C14.8288 15.9582 14.5006 15.9161 14.2294 16.0423C13.9581 16.1685 13.9181 16.2758 13.8191 16.3221C13.8401 16.3473 13.8149 16.3894 13.8548 16.4251C13.8296 16.4609 13.6823 16.7007 13.533 16.7007C13.5477 16.7575 13.6739 16.7995 13.6739 16.7995C13.6739 16.7995 13.5814 16.8669 13.3458 16.8837C13.4656 17.0085 13.5793 17.1445 13.8927 17.3423C13.8675 17.3948 13.7622 17.4728 13.8044 17.5716C13.8507 17.6705 13.9708 17.8052 14.4501 17.9146C14.2061 17.925 13.9202 17.9818 13.5349 17.9293C13.15 17.8829 13.0869 17.8556 12.8492 17.9146C12.8745 17.9398 12.9417 17.9398 13.0007 18.007C12.9376 18.0112 12.5421 17.9607 12.4074 18.1375C12.2666 18.3204 12.2055 18.6213 12.2161 18.8232C12.1424 18.859 12.0709 18.9221 12.1067 19.0526C12.1424 19.1831 12.3296 19.2251 12.4496 19.307C12.5694 19.3954 12.5799 19.4269 12.6936 19.4059C12.8135 19.3807 12.9901 19.2609 13.0933 19.2609C13.1965 19.2609 13.2699 19.3387 13.2699 19.3387C13.2699 19.3387 13.5498 19.204 13.5771 19.2293C13.6023 19.2545 13.5813 19.4165 13.6086 19.4417C13.6363 19.4607 13.9515 19.2735 14.0357 19.2208H14.035Z" fill="#ECD592"/>
</g>
<path fill-rule="evenodd" clip-rule="evenodd" d="M19.0504 10.2945C17.9379 7.42174 15.1879 6.88952 15.1879 6.88952H7.34191L7.37219 9.81569H8.93471V16.3499H7.3418V19.2708H14.9707C16.8093 19.2708 18.2831 17.4231 18.2831 17.4231C20.6433 14.0734 19.0503 10.2945 19.0503 10.2945H19.0504ZM15.0116 15.4545C15.0116 15.4545 14.4132 16.3178 13.7622 16.3178H12.4598L12.4289 9.82285H14.1003C14.1003 9.82285 14.8747 9.98477 15.4157 11.5173C15.4157 11.5173 16.133 13.7114 15.0116 15.4545Z" fill="white" fill-opacity="0.8"/>
</g>
<defs>
<clipPath id="clip0_579_4249">
<rect width="26" height="26" rx="13" fill="white"/>
</clipPath>
<clipPath id="clip1_579_4249">
<rect width="26" height="26" fill="white" transform="translate(0 1)"/>
</clipPath>
</defs>
</svg>
