<svg width="26" height="26" viewBox="0 0 26 26" fill="none" xmlns="http://www.w3.org/2000/svg">
<rect width="26" height="26" rx="13" fill="black"/>
<g clip-path="url(#clip0_579_4205)">
<mask id="mask0_579_4205" style="mask-type:luminance" maskUnits="userSpaceOnUse" x="3" y="3" width="20" height="20">
<path d="M18.4544 3.90912H7.54533C5.537 3.90912 3.90894 5.53719 3.90894 7.54551V18.4545C3.90894 20.4629 5.537 22.0909 7.54533 22.0909H18.4544C20.4627 22.0909 22.0908 20.4629 22.0908 18.4545V7.54551C22.0908 5.53719 20.4627 3.90912 18.4544 3.90912Z" fill="white"/>
</mask>
<g mask="url(#mask0_579_4205)">
<path d="M18.4544 3.90912H7.54533C5.537 3.90912 3.90894 5.53719 3.90894 7.54551V18.4545C3.90894 20.4629 5.537 22.0909 7.54533 22.0909H18.4544C20.4627 22.0909 22.0908 20.4629 22.0908 18.4545V7.54551C22.0908 5.53719 20.4627 3.90912 18.4544 3.90912Z" fill="black"/>
<path d="M16.9736 10.4171C18.0259 10.4171 18.879 9.56402 18.879 8.51166C18.879 7.45931 18.0259 6.6062 16.9736 6.6062C15.9212 6.6062 15.0681 7.45931 15.0681 8.51166C15.0681 9.56402 15.9212 10.4171 16.9736 10.4171Z" fill="white"/>
<path d="M9.86998 16.4323L17.0327 16.4332C17.0453 16.4332 17.0573 16.4382 17.0661 16.4471C17.075 16.4559 17.08 16.468 17.08 16.4805L17.0809 18.316C17.0809 18.3285 17.0759 18.3405 17.067 18.3494C17.0582 18.3582 17.0462 18.3632 17.0336 18.3632H7.70816C7.69562 18.3632 7.68362 18.3582 7.67475 18.3494C7.66589 18.3405 7.66089 18.3285 7.66089 18.316L7.66271 8.48142C7.66271 8.46887 7.66771 8.45683 7.67657 8.44796C7.68543 8.4391 7.69743 8.43414 7.70998 8.43414L9.77362 8.43505C9.78616 8.43505 9.79816 8.44001 9.80703 8.44887C9.81589 8.45773 9.82089 8.46978 9.82089 8.48232L9.82271 16.3851C9.82271 16.3976 9.82771 16.4096 9.83657 16.4185C9.84543 16.4273 9.85743 16.4323 9.86998 16.4323Z" fill="white"/>
</g>
</g>
<defs>
<clipPath id="clip0_579_4205">
<rect width="20" height="20" fill="white" transform="translate(3 3)"/>
</clipPath>
</defs>
</svg>
