<svg xmlns="http://www.w3.org/2000/svg" width="26" height="26" viewBox="0 0 26 26" fill="none">
  <rect width="26" height="26" rx="13" fill="#345D9D"/>
  <path d="M13 21C17.4183 21 21 17.4183 21 13C21 8.58172 17.4183 5 13 5C8.58172 5 5 8.58172 5 13C5 17.4183 8.58172 21 13 21Z" fill="white"/>
  <path d="M13 5C11.4177 5 9.87102 5.46919 8.55543 6.34824C7.23984 7.22729 6.21447 8.47672 5.60897 9.93853C5.00347 11.4003 4.84504 13.0089 5.15372 14.5607C5.4624 16.1126 6.22433 17.538 7.34314 18.6568C8.46196 19.7757 9.88742 20.5376 11.4393 20.8463C12.9911 21.155 14.5996 20.9965 16.0614 20.391C17.5233 19.7855 18.7727 18.7602 19.6517 17.4446C20.5308 16.129 21 14.5822 21 13C21.003 11.9525 20.7997 10.9146 20.4017 9.94565C20.0036 8.9767 19.4186 8.09563 18.6801 7.35276C17.9415 6.60989 17.0639 6.01977 16.0973 5.61608C15.1307 5.21239 14.094 5.00305 13.0465 5H13ZM13.1356 13.2712L12.3027 16.0799H16.7578C16.7874 16.0789 16.8168 16.0837 16.8444 16.094C16.8721 16.1043 16.8974 16.12 16.919 16.1402C16.9406 16.1603 16.958 16.1845 16.9703 16.2114C16.9825 16.2383 16.9893 16.2673 16.9903 16.2968V16.3705L16.6029 17.707C16.5858 17.7702 16.5477 17.8257 16.4949 17.8645C16.4421 17.9032 16.3777 17.9228 16.3123 17.9201H9.49394L10.6368 14.0266L9.35835 14.414L9.6489 13.523L10.9274 13.1356L12.5351 7.67312C12.5528 7.61027 12.591 7.55515 12.6437 7.51653C12.6963 7.47792 12.7604 7.45804 12.8257 7.46005H14.5496C14.5791 7.45901 14.6086 7.4638 14.6362 7.47415C14.6639 7.4845 14.6892 7.50019 14.7108 7.52034C14.7324 7.54049 14.7498 7.5647 14.762 7.59158C14.7743 7.61846 14.7811 7.64748 14.7821 7.677V7.7506L13.4261 12.3608L14.7046 11.9734L14.4334 12.9031L13.1356 13.2712Z" fill="#345D9D"/>
</svg>