<svg xmlns="http://www.w3.org/2000/svg" width="26" height="26" viewBox="0 0 26 26" fill="none">
  <rect width="26" height="26" rx="13" fill="#FF0420"/>
  <path d="M8.89984 16.7272C8.04762 16.7272 7.34983 16.527 6.80647 16.1266C6.26882 15.7205 6 15.1371 6 14.3879C6 14.2277 6.01716 14.039 6.05148 13.8102C6.14299 13.2954 6.27454 12.6777 6.44613 11.9513C6.9323 9.98377 8.19061 9 10.2154 9C10.7644 9 11.262 9.09151 11.6967 9.28026C12.1314 9.45757 12.4746 9.73211 12.7263 10.0982C12.9779 10.4585 13.1038 10.8875 13.1038 11.3851C13.1038 11.5338 13.0866 11.7225 13.0523 11.9513C12.9436 12.5862 12.8178 13.2096 12.6634 13.8102C12.4117 14.7882 11.9827 15.5261 11.365 16.0122C10.753 16.4927 9.92938 16.7272 8.89984 16.7272ZM9.05427 15.1829C9.45465 15.1829 9.7921 15.0628 10.0724 14.8283C10.3583 14.5938 10.5643 14.2334 10.6844 13.7416C10.8502 13.0666 10.9761 12.4832 11.0619 11.9799C11.0905 11.8312 11.1076 11.6768 11.1076 11.5166C11.1076 10.8646 10.7702 10.5386 10.0895 10.5386C9.68915 10.5386 9.34597 10.6587 9.05999 10.8932C8.77973 11.1277 8.57955 11.488 8.45943 11.9799C8.32788 12.4604 8.20205 13.0438 8.0705 13.7416C8.0419 13.8846 8.02474 14.0333 8.02474 14.1934C8.01902 14.8569 8.36792 15.1829 9.05427 15.1829Z" fill="white"/>
  <path d="M13.6008 16.6242C13.5207 16.6242 13.4635 16.6013 13.4178 16.5499C13.3834 16.4927 13.372 16.4297 13.3834 16.3554L14.8648 9.37746C14.8763 9.29739 14.9163 9.23447 14.9849 9.183C15.0478 9.13152 15.1165 9.10864 15.1908 9.10864H18.0449C18.84 9.10864 19.4748 9.27451 19.9553 9.60053C20.4414 9.93227 20.6874 10.407 20.6874 11.0304C20.6874 11.2077 20.6645 11.3965 20.6245 11.591C20.4472 12.4146 20.0868 13.0209 19.5377 13.4155C19.0001 13.8102 18.2623 14.0046 17.3243 14.0046H15.8772L15.3853 16.3554C15.3681 16.4355 15.3338 16.4984 15.2652 16.5499C15.2023 16.6013 15.1336 16.6242 15.0593 16.6242H13.6008ZM17.3986 12.5233C17.7017 12.5233 17.9591 12.4432 18.1822 12.2773C18.411 12.1114 18.5597 11.8769 18.634 11.5681C18.6569 11.448 18.6684 11.3393 18.6684 11.2478C18.6684 11.0419 18.6054 10.8817 18.4853 10.7731C18.3652 10.6587 18.1536 10.6015 17.8619 10.6015H16.575L16.1689 12.5233H17.3986Z" fill="white"/>
</svg>