<svg xmlns="http://www.w3.org/2000/svg" width="26" height="26" viewBox="0 0 26 26" fill="none">
  <rect width="26" height="26" rx="13" fill="#8247E5"/>
  <path d="M16.0849 11.0568C15.8645 10.9377 15.5828 10.9377 15.3335 11.0568L13.578 12.0369L12.3859 12.6597L10.6629 13.6364C10.4425 13.7555 10.1607 13.7555 9.9115 13.6364L8.56412 12.8639C8.34377 12.7448 8.18844 12.5066 8.18844 12.2411V10.7574C8.18844 10.5191 8.31487 10.2843 8.56412 10.1346L9.9115 9.39272C10.1318 9.27361 10.4136 9.27361 10.6629 9.39272L12.0102 10.1652C12.2306 10.2843 12.3859 10.5225 12.3859 10.788V11.7681L13.578 11.1147V10.1074C13.578 9.86915 13.4515 9.63434 13.2023 9.4846L10.6954 8.08933C10.475 7.97022 10.1933 7.97022 9.94401 8.08933L7.37568 9.51523C7.12643 9.63434 7 9.87255 7 10.1074V12.8945C7 13.1327 7.12643 13.3675 7.37568 13.5173L9.91511 14.9125C10.1355 15.0316 10.4172 15.0316 10.6665 14.9125L12.3895 13.9631L13.5816 13.3097L15.3046 12.3602C15.525 12.2411 15.8067 12.2411 16.056 12.3602L17.4034 13.1021C17.6237 13.2212 17.779 13.4594 17.779 13.7249V15.2086C17.779 15.4468 17.6526 15.6816 17.4034 15.8314L16.0885 16.5733C15.8682 16.6924 15.5864 16.6924 15.3371 16.5733L13.9862 15.8314C13.7658 15.7123 13.6105 15.4741 13.6105 15.2086V14.2591L12.4184 14.9125V15.8926C12.4184 16.1308 12.5449 16.3657 12.7941 16.5154L15.3335 17.9107C15.5539 18.0298 15.8356 18.0298 16.0849 17.9107L18.6243 16.5154C18.8447 16.3963 19 16.1581 19 15.8926V13.0749C19 12.8367 18.8736 12.6018 18.6243 12.4521L16.0849 11.0568Z" fill="white"/>
</svg>