<svg width="26" height="26" viewBox="0 0 26 26" fill="none" xmlns="http://www.w3.org/2000/svg">
<rect width="26" height="26" rx="13" fill="#6A56F6"/>
<path d="M13.6932 14.3158H10.4114L7.58222 11.6316V10.6842C7.58222 10.6842 9.6185 8.81429 10.5245 8H13.8063L10.9772 10.6407V11.668L13.6932 14.3158Z" fill="white"/>
<path d="M12.5615 11.6842L15.8433 11.6842L18.6725 14.3684V15.3158C18.6725 15.3158 16.6362 17.1857 15.7302 18H12.4484L15.2775 15.3593V14.332L12.5615 11.6842Z" fill="white"/>
<path d="M18.9997 10.6978H12.3068C12.3068 10.6978 14.2169 8.89241 15.1643 8H16.1828L19 10.6976L18.9997 10.6978Z" fill="white"/>
<path d="M7.00027 15.3022L13.6932 15.3022C13.6932 15.3022 11.7831 17.1076 10.8357 18H9.81717L7 15.3024L7.00027 15.3022Z" fill="white"/>
</svg>
