<svg width="26" height="26" viewBox="0 0 26 26" fill="none" xmlns="http://www.w3.org/2000/svg">
<rect width="26" height="26" rx="13" fill="#F00500"/>
<g clip-path="url(#clip0_579_4253)">
<path d="M16.7152 6.4956C16.2988 6.93305 15.9173 7.40716 15.5782 7.91271L15.471 7.87604C14.8527 7.66386 14.2119 7.53289 13.5661 7.48836C13.3716 7.47265 12.646 7.47265 12.4091 7.48836C11.6935 7.53813 11.145 7.65077 10.5217 7.87866C10.4967 7.88913 10.4743 7.89699 10.4518 7.90485C10.1003 7.40192 9.70882 6.93043 9.27747 6.49822C11.347 5.38497 13.768 5.25138 15.9348 6.12889C16.1667 6.22057 16.3936 6.32796 16.6155 6.44322L16.7152 6.4956Z" fill="#F00500"/>
<path d="M20.5749 16.431C20.2608 17.3714 19.7895 18.2437 19.1787 19.0033C18.847 19.4119 18.4805 19.7865 18.0866 20.127C17.164 20.9076 16.0869 21.4656 14.9374 21.7589C13.6658 22.0811 12.3393 22.0811 11.0677 21.7589C9.91576 21.4656 8.84111 20.9076 7.91856 20.127C7.52461 19.7865 7.15808 19.4119 6.82646 19.0033C5.06863 16.8213 4.53505 13.8247 5.43017 11.1241C5.59972 10.6238 5.81166 10.1418 6.06598 9.68343C6.18317 9.47388 6.32779 9.23813 6.3976 9.14121C6.63697 10.223 6.93118 11.1739 7.04089 11.517C7.03341 11.5354 7.02344 11.5563 7.01347 11.5747C6.43251 12.811 6.11835 14.0028 6.04354 15.2706C6.04354 15.2864 6.04105 15.3047 6.04105 15.3204C6.0211 15.7002 6.03108 15.881 6.09092 16.1193C6.27792 16.8659 6.85389 17.6884 7.75649 18.4951C9.23507 19.8153 11.2397 20.7688 12.7582 20.8788C14.3415 20.9914 16.6778 20.0196 18.2337 18.5999C18.478 18.372 18.7074 18.131 18.9218 17.8743C19.0764 17.6857 19.3058 17.3609 19.2884 17.3609C19.2834 17.3609 19.2884 17.3557 19.2983 17.3505C19.3058 17.3452 19.3133 17.3374 19.3083 17.3321C19.3058 17.3295 19.3108 17.3216 19.3183 17.319C19.3258 17.3164 19.3307 17.3112 19.3283 17.3059C19.3258 17.3007 19.3283 17.2955 19.3382 17.2928C19.3457 17.2902 19.3482 17.2824 19.3457 17.2771C19.3432 17.2719 19.3457 17.2666 19.3507 17.2666C19.3557 17.2666 19.3607 17.2588 19.3607 17.2535C19.3607 17.2483 19.3657 17.2404 19.3706 17.2404C19.3756 17.2404 19.3806 17.2352 19.3806 17.23C19.3881 17.209 19.4006 17.1881 19.413 17.1697C19.4504 17.1095 19.6 16.8292 19.62 16.782C19.7621 16.4441 19.8519 16.1429 19.8942 15.8417C19.9142 15.6976 19.9267 15.433 19.9167 15.3702C19.9142 15.3597 19.9142 15.3414 19.9117 15.3126C19.9067 15.2602 19.9042 15.1816 19.8992 15.103C19.8943 14.9851 19.8843 14.8201 19.8768 14.7389C19.7696 13.5497 19.4804 12.5779 18.9318 11.5485C18.9094 11.5092 18.8894 11.4699 18.877 11.4384C18.872 11.4306 18.8695 11.4227 18.867 11.4175C18.9443 11.1739 19.2609 10.1549 19.5128 8.98929L19.5178 8.99453L19.5552 9.04692C19.62 9.1386 19.792 9.41101 19.8693 9.54198C20.2209 10.1445 20.4952 10.7914 20.6896 11.4673C21.1409 13.0939 21.1035 14.828 20.5749 16.431Z" fill="#F00500"/>
<path d="M17.3385 13.3008C17.331 13.3428 17.2138 13.4685 17.0966 13.5602C16.7526 13.8247 16.1367 14.0709 15.5109 14.1888C15.1543 14.2569 14.7978 14.2674 14.6905 14.2124C14.6207 14.1757 14.6108 14.1469 14.6357 14.0526C14.688 13.8562 14.8576 13.6414 15.1219 13.4397C15.2565 13.3375 15.8026 12.9891 16.0569 12.8424C16.4758 12.6015 16.8149 12.4574 17.0443 12.4233C17.1166 12.4129 17.2039 12.4102 17.2313 12.4233C17.2762 12.4417 17.326 12.5805 17.346 12.7481C17.356 12.8372 17.351 13.2301 17.3385 13.3008Z" fill="black"/>
<path d="M11.4641 14.1679C11.4492 14.1993 11.3744 14.2334 11.2896 14.2465C11.2048 14.2596 10.9455 14.2517 10.7984 14.2334C10.2698 14.16 9.70881 13.9898 9.2999 13.7802C9.07051 13.6623 8.90594 13.5445 8.78377 13.4161L8.71395 13.3401L8.70647 13.2406C8.69401 13.0677 8.6965 12.7953 8.71645 12.6984C8.72891 12.6172 8.75634 12.5386 8.79374 12.4679C8.81369 12.4417 8.81369 12.4417 8.90345 12.4417C9.01316 12.4417 9.10541 12.46 9.25502 12.5098C9.5617 12.6093 10.018 12.8503 10.574 13.2013C11.0328 13.4894 11.2048 13.6309 11.337 13.8247C11.4267 13.9452 11.4866 14.1155 11.4641 14.1679Z" fill="black"/>
<path d="M14.9948 17.8141C14.9948 17.822 14.9649 17.9477 14.9275 18.097C14.8901 18.2463 14.8602 18.3668 14.8602 18.372C14.8328 18.3747 14.8078 18.3773 14.7804 18.3747H14.7006L14.5909 18.6471C14.5311 18.7964 14.4762 18.9352 14.4687 18.9562L14.4538 18.9928L14.4014 18.9038L14.349 18.8147V18.0891L14.3291 18.0944C14.2867 18.1049 13.985 18.1468 13.8529 18.1599C13.3068 18.2175 12.7583 18.2044 12.2147 18.1232C12.1274 18.1101 12.0526 18.0996 12.0501 18.1022C12.0477 18.1049 12.0501 18.2725 12.0551 18.4794L12.0626 18.8514L12.0202 18.9195C11.9978 18.9562 11.9753 18.9876 11.9753 18.9902C11.9679 18.9981 11.9429 18.9562 11.8856 18.8357C11.8232 18.7099 11.7784 18.5763 11.746 18.4375L11.7285 18.3616L11.6512 18.3668L11.5739 18.3747L11.554 18.2777C11.544 18.2253 11.5315 18.1441 11.5265 18.0996L11.5191 18.0158L11.4542 17.9555C11.4168 17.9215 11.3794 17.8874 11.3719 17.8822C11.3595 17.8717 11.3545 17.8534 11.3545 17.8377V17.8062L11.6662 17.8089L11.9778 17.8115L11.9878 17.8455L11.9978 17.8796L12.105 17.8848C12.1648 17.8874 12.3543 17.8927 12.5239 17.8979L12.8356 17.9058L12.9153 17.7748L12.9976 17.6438H13.1024L13.0999 17.3714L13.0974 17.099L12.9602 17.0361C12.5189 16.8318 12.2596 16.5987 12.1623 16.3158C12.1424 16.2582 12.1424 16.2372 12.1374 15.9753C12.1349 15.7159 12.1349 15.6924 12.1524 15.6347C12.1873 15.5038 12.2845 15.4016 12.4092 15.3676C12.4516 15.3545 12.5638 15.3545 13.1522 15.3545L13.8454 15.3571L13.9227 15.3964C14.0149 15.4435 14.0573 15.4776 14.1097 15.5509C14.1695 15.6347 14.187 15.7002 14.187 15.86C14.187 16.0879 14.172 16.2844 14.1496 16.3629C14.1172 16.4703 14.0673 16.5725 14.005 16.6642C13.8803 16.8318 13.6534 16.9995 13.4464 17.0754L13.3866 17.099L13.3891 17.374L13.3916 17.6491L13.4464 17.6543L13.5013 17.6596L13.5761 17.7774L13.6484 17.8953H13.9825C14.167 17.8953 14.3291 17.8979 14.3441 17.9005C14.369 17.9058 14.374 17.9032 14.3989 17.8586L14.4288 17.8115H14.7156C14.93 17.801 14.9948 17.8062 14.9948 17.8141Z" fill="black"/>
<path d="M13.6782 18.5659C13.6309 18.5947 13.5984 18.6078 13.591 18.6025C13.5835 18.5999 13.5486 18.5685 13.5112 18.5397L13.4438 18.482L13.374 18.5606C13.2219 18.7335 13.217 18.7414 13.1721 18.744C13.1023 18.7518 13.0873 18.7387 13.0025 18.6052C12.9576 18.5371 12.9227 18.4794 12.9227 18.4794C12.9227 18.4794 12.8903 18.4742 12.8529 18.4716L12.7831 18.4637L12.7507 18.5344L12.7183 18.6052L12.6609 18.5868C12.616 18.5711 12.5712 18.5528 12.5288 18.5318L12.454 18.4925V18.3432L13.1172 18.3458L13.7805 18.3485L13.7829 18.4192C13.7854 18.503 13.7879 18.5004 13.6782 18.5659Z" fill="black"/>
<path d="M19.9117 15.3702C19.9092 15.3597 19.9092 15.3414 19.9067 15.3126C19.3083 15.2445 17.6004 15.2025 16.0146 16.5777C16.0146 16.5777 15.5034 14.1155 13.1098 14.1155C10.7162 14.1155 9.82851 16.5777 9.82851 16.5777C8.48708 15.0611 6.69185 15.1711 6.04357 15.2706C6.04357 15.2864 6.04107 15.3047 6.04107 15.3204C6.02113 15.7002 6.0311 15.881 6.09094 16.1193C6.27795 16.8659 6.85392 17.6884 7.75652 18.4951C9.23509 19.8153 11.2398 20.7688 12.7582 20.8788C14.3415 20.9914 16.6778 20.0196 18.2337 18.5999C18.478 18.372 18.7074 18.131 18.9219 17.8743C19.0764 17.6857 19.3058 17.3609 19.2884 17.3609C19.2834 17.3609 19.2884 17.3557 19.2984 17.3505C19.3058 17.3452 19.3133 17.3374 19.3083 17.3321C19.3058 17.3295 19.3108 17.3216 19.3183 17.319C19.3258 17.3164 19.3308 17.3112 19.3283 17.3059C19.3258 17.3007 19.3283 17.2955 19.3383 17.2928C19.3457 17.2902 19.3482 17.2824 19.3457 17.2771C19.3432 17.2719 19.3457 17.2666 19.3507 17.2666C19.3557 17.2666 19.3607 17.2588 19.3607 17.2535C19.3607 17.2483 19.3657 17.2404 19.3707 17.2404C19.3757 17.2404 19.3806 17.2352 19.3806 17.23C19.3881 17.209 19.4006 17.1881 19.4131 17.1697C19.4505 17.1095 19.6001 16.8292 19.62 16.782C19.7621 16.4441 19.8519 16.1429 19.8943 15.8417C19.9092 15.6976 19.9217 15.433 19.9117 15.3702ZM13.6783 18.5659C13.6309 18.5947 13.5985 18.6078 13.591 18.6025C13.5835 18.5999 13.5486 18.5685 13.5112 18.5397L13.4439 18.482L13.3741 18.5606C13.222 18.7335 13.217 18.7414 13.1721 18.744C13.1023 18.7518 13.0874 18.7387 13.0026 18.6052C12.9577 18.5371 12.9228 18.4794 12.9228 18.4794C12.9228 18.4794 12.8904 18.4742 12.853 18.4716L12.7832 18.4637L12.7508 18.5344L12.7183 18.6052L12.661 18.5868C12.6161 18.5711 12.5712 18.5528 12.5288 18.5318L12.454 18.4925V18.3432L13.1173 18.3458L13.7805 18.3485L13.783 18.4192C13.7855 18.503 13.788 18.5004 13.6783 18.5659ZM14.925 18.0944C14.8876 18.2437 14.8577 18.3642 14.8577 18.3694C14.8302 18.372 14.8053 18.3747 14.7779 18.372H14.6981L14.5909 18.6471C14.531 18.7964 14.4762 18.9352 14.4687 18.9562L14.4537 18.9928L14.4014 18.9038L14.349 18.8147V18.0891L14.3291 18.0944C14.2867 18.1049 13.985 18.1468 13.8528 18.1599C13.3068 18.2175 12.7582 18.2044 12.2147 18.1232C12.1274 18.1101 12.0526 18.0996 12.0501 18.1022C12.0476 18.1049 12.0501 18.2725 12.0551 18.4794L12.0626 18.8514L12.0202 18.9195C11.9978 18.9562 11.9753 18.9876 11.9753 18.9902C11.9678 18.9981 11.9429 18.9562 11.8856 18.8357C11.8232 18.7099 11.7783 18.5763 11.7459 18.4375L11.7285 18.3616L11.6512 18.3668L11.5739 18.3747L11.5539 18.2777C11.544 18.2253 11.5315 18.1441 11.5265 18.0996L11.519 18.0158L11.4542 17.9555C11.4168 17.9215 11.3794 17.8874 11.3719 17.8822C11.3594 17.8717 11.3545 17.8534 11.3545 17.8377V17.8062L11.6661 17.8089L11.9778 17.8115L11.9878 17.8455L11.9978 17.8796L12.105 17.8848C12.1648 17.8874 12.3543 17.8927 12.5239 17.8979L12.8355 17.9058L12.9153 17.7748L12.9976 17.6438H13.1023L13.0998 17.3714L13.0973 17.099L12.9602 17.0361C12.5189 16.8318 12.2596 16.5987 12.1623 16.3158C12.1424 16.2582 12.1424 16.2372 12.1374 15.9753C12.1349 15.7159 12.1349 15.6924 12.1523 15.6347C12.1872 15.5038 12.2845 15.4016 12.4092 15.3676C12.4515 15.3545 12.5638 15.3545 13.1522 15.3545L13.8453 15.3571L13.9226 15.3964C14.0149 15.4435 14.0573 15.4776 14.1096 15.5509C14.1695 15.6347 14.1869 15.7002 14.1869 15.86C14.1869 16.0879 14.172 16.2844 14.1495 16.3629C14.1171 16.4703 14.0673 16.5725 14.0049 16.6642C13.8803 16.8318 13.6534 16.9995 13.4464 17.0754L13.3866 17.099L13.3891 17.374L13.3916 17.6491L13.4464 17.6543L13.5013 17.6596L13.5761 17.7774L13.6484 17.8953H13.9825C14.167 17.8953 14.3291 17.8979 14.344 17.9005C14.369 17.9058 14.3739 17.9032 14.3989 17.8586L14.4288 17.8115H14.7155C14.9374 17.8115 15.0023 17.8141 15.0023 17.822C14.9948 17.8193 14.9624 17.9477 14.925 18.0944Z" fill="white"/>
<path d="M19.8918 15.103C19.8868 14.9851 19.8768 14.8201 19.8693 14.7389C19.7621 13.5497 19.4729 12.5779 18.9243 11.5485C18.9019 11.5092 18.882 11.4699 18.8695 11.4384C18.8645 11.4306 18.862 11.4227 18.8595 11.4175C18.9368 11.1739 19.2535 10.1549 19.5053 8.98929C19.8469 7.40716 20.0638 5.55786 19.4006 5.00254C19.4006 5.00254 18.2536 4.91348 16.7177 6.49561C16.3013 6.93305 15.9198 7.40716 15.5807 7.91271L15.4735 7.87604C14.8552 7.66386 14.2144 7.53289 13.5686 7.48836C13.3741 7.47265 12.6485 7.47265 12.4116 7.48836C11.696 7.53813 11.1475 7.65077 10.5242 7.87866C10.4992 7.88913 10.4768 7.89699 10.4543 7.90485C10.1028 7.40192 9.71132 6.93043 9.27996 6.49823C7.68171 4.90824 6.49237 4.99992 6.49237 4.99992C5.78924 5.57357 6.0286 7.5067 6.39263 9.14121C6.632 10.223 6.92622 11.1739 7.03592 11.517C7.02844 11.5354 7.01847 11.5563 7.0085 11.5747C6.42754 12.811 6.11338 14.0028 6.03857 15.2706C6.68935 15.1711 8.48208 15.0585 9.82601 16.5777C9.82601 16.5777 10.7137 14.1155 13.1073 14.1155C15.5009 14.1155 16.0121 16.5777 16.0121 16.5777C17.5979 15.2025 19.3058 15.2471 19.9042 15.3126C19.9017 15.2602 19.8968 15.1816 19.8918 15.103ZM7.50717 10.5295C7.50717 10.5295 6.57465 8.08035 6.81401 6.68158C6.85391 6.44584 6.92871 6.2389 7.0459 6.08174C7.0459 6.08174 8.10309 6.19175 9.80856 8.18251C9.80856 8.18251 9.48442 8.34753 9.05057 8.69853C9.05057 8.69853 9.04808 8.70115 9.04559 8.70115C8.57434 9.08097 7.97094 9.68343 7.50717 10.5295ZM11.4642 14.1679C11.4492 14.1993 11.3744 14.2334 11.2896 14.2465C11.2049 14.2596 10.9455 14.2517 10.7984 14.2334C10.2698 14.16 9.70883 13.9898 9.29991 13.7802C9.07052 13.6623 8.90596 13.5444 8.78378 13.4161L8.71397 13.3401L8.70649 13.2406C8.69402 13.0677 8.69651 12.7953 8.71646 12.6984C8.72893 12.6172 8.75635 12.5386 8.79376 12.4679C8.8137 12.4417 8.8137 12.4417 8.90346 12.4417C9.01317 12.4417 9.10543 12.46 9.25503 12.5098C9.56172 12.6093 10.018 12.8503 10.574 13.2013C11.0328 13.4894 11.2049 13.6309 11.337 13.8247C11.4268 13.9452 11.4866 14.1155 11.4642 14.1679ZM17.3386 13.3008C17.3311 13.3428 17.2139 13.4685 17.0967 13.5602C16.7526 13.8247 16.1368 14.071 15.5109 14.1888C15.1544 14.2569 14.7978 14.2674 14.6906 14.2124C14.6208 14.1757 14.6108 14.1469 14.6357 14.0526C14.6881 13.8562 14.8576 13.6414 15.1219 13.4397C15.2566 13.3375 15.8026 12.9891 16.057 12.8424C16.4759 12.6015 16.8149 12.4574 17.0443 12.4233C17.1166 12.4129 17.2039 12.4102 17.2313 12.4233C17.2762 12.4417 17.3261 12.5805 17.346 12.7481C17.356 12.8372 17.351 13.2301 17.3386 13.3008ZM16.9247 8.69853L16.9197 8.69591C16.5008 8.34491 16.1866 8.17989 16.1866 8.17989C17.8347 6.18913 18.8545 6.07912 18.8545 6.07912C18.9667 6.2389 19.039 6.44322 19.0789 6.67896C19.3108 8.07773 18.4107 10.5295 18.4107 10.5295C18.0342 9.82488 17.5281 9.20146 16.9247 8.69853Z" fill="#FFA409"/>
<path d="M19.0815 6.67896C18.887 6.65277 17.9669 6.64753 16.9247 8.69853L16.9197 8.69591C16.5008 8.34491 16.1866 8.17989 16.1866 8.17989C17.8348 6.18913 18.8546 6.07912 18.8546 6.07912C18.9693 6.2389 19.0416 6.44322 19.0815 6.67896Z" fill="#FF9300"/>
<path d="M18.4132 10.5295C18.0342 9.82226 17.5306 9.20146 16.9247 8.69853C17.9669 6.64753 18.8845 6.65277 19.0815 6.67896C19.3133 8.08035 18.4132 10.5295 18.4132 10.5295Z" fill="#FF8300"/>
<path d="M19.1188 6.68682C19.1064 6.6842 19.0939 6.68158 19.0814 6.67896L19.1188 6.68682Z" fill="#FF8300"/>
<path d="M9.80844 8.17989C9.80844 8.17989 9.4843 8.34491 9.05046 8.69591C9.05046 8.69591 9.04796 8.69853 9.04547 8.69853C7.96583 6.64491 7.01586 6.65277 6.8114 6.67896C6.8513 6.44322 6.9261 6.23628 7.04329 6.07912C7.04578 6.07912 8.10297 6.18913 9.80844 8.17989Z" fill="#FF9300"/>
<path d="M9.04801 8.69853C8.57427 9.08097 7.97088 9.68081 7.50711 10.5295C7.50711 10.5295 6.57458 8.08035 6.81395 6.67896C7.01591 6.65277 7.96838 6.64753 9.04801 8.69853Z" fill="#FF8300"/>
<path d="M6.81394 6.67896C6.80147 6.68158 6.78651 6.6842 6.77405 6.68682L6.81394 6.67896Z" fill="#FF8300"/>
<path d="M15.8899 11.889C15.8899 11.889 15.092 11.9414 15.1917 11.2865C15.2915 10.6317 15.9148 10.5531 16.0893 10.5793C16.2639 10.6055 16.962 10.8674 16.8374 11.4175C16.7127 11.9676 16.5382 11.8628 16.4384 11.889C16.3387 11.9152 15.8899 11.889 15.8899 11.889Z" fill="white"/>
<path d="M10.0055 11.889C10.0055 11.889 9.2076 11.9414 9.30733 11.2865C9.40707 10.6317 10.0304 10.5531 10.2049 10.5793C10.3795 10.6055 11.0776 10.8674 10.953 11.4175C10.8283 11.9676 10.6538 11.8628 10.554 11.889C10.4543 11.9152 10.0055 11.889 10.0055 11.889Z" fill="white"/>
</g>
<defs>
<clipPath id="clip0_579_4253">
<rect width="16" height="17" fill="white" transform="translate(5 5)"/>
</clipPath>
</defs>
</svg>
