<svg width="26" height="26" viewBox="0 0 26 26" fill="none" xmlns="http://www.w3.org/2000/svg">
<rect width="26" height="26" rx="13" fill="#6A56F5"/>
<g clip-path="url(#clip0_579_4320)">
<path d="M8.94884 15.6323C9.02126 15.5554 9.12083 15.5104 9.22644 15.5104H18.8035C18.9785 15.5104 19.066 15.735 18.9423 15.8665L17.0504 17.8781C16.978 17.9551 16.8784 18 16.7728 18H7.19576C7.02075 18 6.93325 17.7754 7.05696 17.6439L8.94884 15.6323Z" fill="white"/>
<path d="M8.94896 8.12191C9.0244 8.04491 9.12397 8 9.22656 8H18.8036C18.9786 8 19.0661 8.22457 18.9424 8.35611L17.0505 10.3677C16.9781 10.4447 16.8786 10.4896 16.7729 10.4896H7.19588C7.02088 10.4896 6.93337 10.265 7.05708 10.1335L8.94896 8.12191Z" fill="white"/>
<path d="M17.0504 11.8531C16.978 11.7761 16.8784 11.7311 16.7728 11.7311H7.19576C7.02075 11.7311 6.93325 11.9557 7.05696 12.0873L8.94884 14.0988C9.02126 14.1758 9.12083 14.2207 9.22644 14.2207H18.8035C18.9785 14.2207 19.066 13.9961 18.9423 13.8646L17.0504 11.8531Z" fill="white"/>
</g>
<defs>
<clipPath id="clip0_579_4320">
<rect width="12" height="10" fill="white" transform="translate(7 8)"/>
</clipPath>
</defs>
</svg>
