<svg xmlns="http://www.w3.org/2000/svg" width="26" height="26" viewBox="0 0 26 26" fill="none">
  <rect width="26" height="26" rx="13" fill="#0088CC"/>
  <path fill-rule="evenodd" clip-rule="evenodd" d="M8.89794 8H17.1157C17.4297 8 17.6914 8.0524 18.0055 8.20961C18.3719 8.36681 18.5813 8.62882 18.6859 8.83843C18.6859 8.83843 18.6859 8.89083 18.7383 8.89083C18.8953 9.15284 19 9.46725 19 9.83406C19 10.1485 18.9477 10.4629 18.7383 10.7773L13.5564 19.6856C13.4517 19.8952 13.2423 20 12.9806 20C12.7713 20 12.5619 19.8952 12.4049 19.6856L7.32767 10.7773C7.22299 10.5677 7.01362 10.3057 7.01362 9.88646C6.96127 9.51965 7.06596 9.20524 7.22298 8.89083C7.38001 8.57642 7.64172 8.31441 8.00812 8.20961C8.32217 8 8.68857 8 8.89794 8ZM12.3525 9.25764H8.89794C8.68857 9.25764 8.58388 9.25764 8.53154 9.31004C8.42686 9.36245 8.37452 9.41485 8.32217 9.51965C8.26983 9.57205 8.26983 9.67686 8.26983 9.78166C8.26983 9.83406 8.32217 9.88646 8.42686 10.0961L12.3525 16.9083V9.25764ZM13.6087 9.25764V16.9607L17.5868 10.0961C17.6391 9.99127 17.6391 9.88646 17.6391 9.78166C17.6391 9.67686 17.6391 9.57205 17.5868 9.51965C17.5344 9.46725 17.5344 9.41485 17.4821 9.41485L17.4297 9.36245C17.325 9.31004 17.2204 9.31004 17.0633 9.31004H13.6087V9.25764Z" fill="white"/>
</svg>