<svg xmlns="http://www.w3.org/2000/svg" width="26" height="26" viewBox="0 0 26 26" fill="none">
  <rect width="26" height="26" rx="13" fill="#FCFC04"/>
  <path fill-rule="evenodd" clip-rule="evenodd" d="M19.8068 8.75182L19.2776 10.4453H15.044L14.409 12.3504H17.1608L18.4309 13.3029L17.4783 16.5839L15.2557 17.6423H12.7156L11.763 20.5H10.1754L11.128 17.6423H7.00024L7.52944 15.9489H11.6572L12.2922 14.0438H9.96375L8.482 12.9854L9.32862 10.3397L10.8101 11.5037L10.4926 12.3505H12.8211L13.4561 10.3395H9.32868L9.32871 10.3394L11.5513 8.75182H13.9856L14.8324 6H16.5258L15.5732 8.75182H19.8068ZM13.8795 14.0439L13.2444 15.949H15.7846L16.5254 14.0439H13.8795Z" fill="#010006"/>
</svg>