<svg width="26" height="26" viewBox="0 0 26 26" fill="none" xmlns="http://www.w3.org/2000/svg">
<rect width="26" height="26" rx="13" fill="#2775CA"/>
<path d="M15.2 14.2666C15.2 13.1 14.5 12.7 13.1 12.5333C12.1 12.4 11.9 12.1333 11.9 11.6666C11.9 11.1999 12.2334 10.9 12.9 10.9C13.5 10.9 13.8334 11.1 14 11.6C14.0334 11.7 14.1334 11.7666 14.2334 11.7666H14.7667C14.9 11.7666 15 11.6666 15 11.5333V11.5C14.8667 10.7666 14.2667 10.2 13.5 10.1333V9.33334C13.5 9.19998 13.4 9.09998 13.2334 9.06662H12.7334C12.6 9.06662 12.5 9.16662 12.4667 9.33334V10.1C11.4667 10.2333 10.8334 10.9 10.8334 11.7333C10.8334 12.8333 11.5 13.2666 12.9 13.4333C13.8334 13.6 14.1334 13.8 14.1334 14.3333C14.1334 14.8667 13.6667 15.2333 13.0334 15.2333C12.1667 15.2333 11.8667 14.8666 11.7667 14.3666C11.7334 14.2333 11.6334 14.1666 11.5334 14.1666H10.9667C10.8334 14.1666 10.7334 14.2666 10.7334 14.4V14.4333C10.8667 15.2666 11.4 15.8666 12.5 16.0333V16.8333C12.5 16.9666 12.6 17.0666 12.7667 17.1H13.2667C13.4 17.1 13.5 17 13.5334 16.8333V16.0333C14.5334 15.8666 15.2 15.1666 15.2 14.2666Z" fill="white"/>
<path d="M11.2997 17.7667C8.69967 16.8334 7.36631 13.9334 8.33303 11.3667C8.83303 9.96665 9.93303 8.90001 11.2997 8.40001C11.433 8.33337 11.4997 8.23337 11.4997 8.06665V7.60001C11.4997 7.46665 11.433 7.36665 11.2997 7.33337C11.2663 7.33337 11.1997 7.33337 11.1663 7.36665C7.99967 8.36665 6.26631 11.7334 7.26631 14.9C7.86631 16.7667 9.29967 18.2 11.1663 18.8C11.2997 18.8667 11.433 18.8 11.4663 18.6667C11.4997 18.6334 11.4997 18.6 11.4997 18.5334V18.0667C11.4997 17.9667 11.3997 17.8334 11.2997 17.7667ZM14.833 7.36665C14.6997 7.30001 14.5663 7.36665 14.533 7.50001C14.4997 7.53337 14.4997 7.56665 14.4997 7.63337V8.10001C14.4997 8.23337 14.5997 8.36665 14.6997 8.43337C17.2997 9.36665 18.633 12.2667 17.6663 14.8334C17.1663 16.2334 16.0663 17.3 14.6997 17.8C14.5663 17.8667 14.4997 17.9667 14.4997 18.1334V18.6C14.4997 18.7334 14.5663 18.8334 14.6997 18.8667C14.733 18.8667 14.7997 18.8667 14.833 18.8334C17.9997 17.8334 19.733 14.4667 18.733 11.3C18.133 9.40001 16.6663 7.96665 14.833 7.36665Z" fill="white"/>
</svg>
