<svg xmlns="http://www.w3.org/2000/svg" width="26" height="26" viewBox="0 0 26 26" fill="none">
  <rect width="26" height="26" rx="13" fill="#53AE94"/>
  <path d="M14.0164 11.358V10.0274H16.8188V8H9.18776V10.0274H11.9905V11.3569C9.71269 11.4705 8 11.9603 8 12.547C8 13.1338 9.71351 13.6236 11.9905 13.7379V18H14.0171V13.7376C16.2908 13.6236 18 13.1342 18 12.5479C18 11.9617 16.2908 11.4723 14.0171 11.3583M14.0171 13.3766V13.3755C13.9599 13.3794 13.6661 13.3986 13.012 13.3986C12.4891 13.3986 12.1212 13.3825 11.9915 13.3751V13.3769C9.97911 13.2801 8.47698 12.8996 8.47698 12.4444C8.47698 11.9891 9.97927 11.6091 11.9915 11.5122V12.9979C12.1233 13.0077 12.5003 13.0318 13.0206 13.0318C13.6455 13.0318 13.9597 13.0036 14.0174 12.9979V11.5122C16.0258 11.6093 17.5245 11.9902 17.5245 12.4438C17.5245 12.8975 16.0252 13.2785 14.0174 13.3757" fill="white"/>
</svg>