<svg width="26" height="26" viewBox="0 0 26 26" fill="none" xmlns="http://www.w3.org/2000/svg">
<rect width="26" height="26" rx="13" fill="#24292F"/>
<g clip-path="url(#clip0_579_4245)">
<path d="M17.2426 8H18.977L15.3676 11.5962C14.0605 12.8979 11.9413 12.8979 10.6332 11.5962L7.02246 8H8.75824L11.5004 10.7318C11.9 11.1281 12.4384 11.3502 12.9994 11.3502C13.5603 11.3502 14.0988 11.1281 14.4983 10.7318L17.2426 8Z" fill="white"/>
<path d="M8.73555 18H7L10.6328 14.3816C11.9399 13.08 14.0591 13.08 15.3672 14.3816L19 18H17.2656L14.5 15.246C14.1005 14.8497 13.562 14.6276 13.0011 14.6276C12.4401 14.6276 11.9016 14.8497 11.5021 15.246L8.73555 18Z" fill="white"/>
</g>
<defs>
<clipPath id="clip0_579_4245">
<rect width="12" height="10" fill="white" transform="translate(7 8)"/>
</clipPath>
</defs>
</svg>
